%TF.GenerationSoftware,KiCad,Pcbnew,8.0.0-1.fc39*%
%TF.CreationDate,2024-05-22T19:24:41+02:00*%
%TF.ProjectId,radio433,72616469-6f34-4333-932e-6b696361645f,rev?*%
%TF.SameCoordinates,Original*%
%TF.FileFunction,Paste,Top*%
%TF.FilePolarity,Positive*%
%FSLAX46Y46*%
G04 Gerber Fmt 4.6, Leading zero omitted, Abs format (unit mm)*
G04 Created by KiCad (PCBNEW 8.0.0-1.fc39) date 2024-05-22 19:24:41*
%MOMM*%
%LPD*%
G01*
G04 APERTURE LIST*
G04 Aperture macros list*
%AMRoundRect*
0 Rectangle with rounded corners*
0 $1 Rounding radius*
0 $2 $3 $4 $5 $6 $7 $8 $9 X,Y pos of 4 corners*
0 Add a 4 corners polygon primitive as box body*
4,1,4,$2,$3,$4,$5,$6,$7,$8,$9,$2,$3,0*
0 Add four circle primitives for the rounded corners*
1,1,$1+$1,$2,$3*
1,1,$1+$1,$4,$5*
1,1,$1+$1,$6,$7*
1,1,$1+$1,$8,$9*
0 Add four rect primitives between the rounded corners*
20,1,$1+$1,$2,$3,$4,$5,0*
20,1,$1+$1,$4,$5,$6,$7,0*
20,1,$1+$1,$6,$7,$8,$9,0*
20,1,$1+$1,$8,$9,$2,$3,0*%
G04 Aperture macros list end*
%ADD10R,1.400000X1.200000*%
%ADD11RoundRect,0.150000X0.150000X-0.725000X0.150000X0.725000X-0.150000X0.725000X-0.150000X-0.725000X0*%
%ADD12RoundRect,0.200000X-0.200000X-0.275000X0.200000X-0.275000X0.200000X0.275000X-0.200000X0.275000X0*%
%ADD13RoundRect,0.218750X-0.256250X0.218750X-0.256250X-0.218750X0.256250X-0.218750X0.256250X0.218750X0*%
%ADD14RoundRect,0.225000X-0.250000X0.225000X-0.250000X-0.225000X0.250000X-0.225000X0.250000X0.225000X0*%
%ADD15RoundRect,0.225000X-0.225000X-0.250000X0.225000X-0.250000X0.225000X0.250000X-0.225000X0.250000X0*%
%ADD16RoundRect,0.250000X0.475000X-0.250000X0.475000X0.250000X-0.475000X0.250000X-0.475000X-0.250000X0*%
%ADD17RoundRect,0.225000X0.225000X0.250000X-0.225000X0.250000X-0.225000X-0.250000X0.225000X-0.250000X0*%
%ADD18RoundRect,0.218750X0.256250X-0.218750X0.256250X0.218750X-0.256250X0.218750X-0.256250X-0.218750X0*%
%ADD19RoundRect,0.150000X0.512500X0.150000X-0.512500X0.150000X-0.512500X-0.150000X0.512500X-0.150000X0*%
%ADD20RoundRect,0.218750X-0.218750X-0.256250X0.218750X-0.256250X0.218750X0.256250X-0.218750X0.256250X0*%
%ADD21RoundRect,0.250000X0.250000X0.475000X-0.250000X0.475000X-0.250000X-0.475000X0.250000X-0.475000X0*%
G04 APERTURE END LIST*
D10*
%TO.C,Y2*%
X218300000Y-96650000D03*
X220500000Y-96650000D03*
X220500000Y-94950000D03*
X218300000Y-94950000D03*
%TD*%
D11*
%TO.C,U2*%
X212360000Y-100575000D03*
X213630000Y-100575000D03*
X214900000Y-100575000D03*
X216170000Y-100575000D03*
X216170000Y-95425000D03*
X214900000Y-95425000D03*
X213630000Y-95425000D03*
X212360000Y-95425000D03*
%TD*%
D12*
%TO.C,R3*%
X217840000Y-100600000D03*
X219490000Y-100600000D03*
%TD*%
D13*
%TO.C,L4*%
X202412500Y-95412500D03*
X202412500Y-96987500D03*
%TD*%
%TO.C,L3*%
X210400000Y-95412500D03*
X210400000Y-96987500D03*
%TD*%
D14*
%TO.C,C11*%
X204000000Y-95425000D03*
X204000000Y-96975000D03*
%TD*%
D15*
%TO.C,C10*%
X205650000Y-95400000D03*
X207200000Y-95400000D03*
%TD*%
D14*
%TO.C,C9*%
X208800000Y-95425000D03*
X208800000Y-96975000D03*
%TD*%
D16*
%TO.C,C8*%
X208400000Y-100950000D03*
X208400000Y-99050000D03*
%TD*%
D14*
%TO.C,C7*%
X210400000Y-99425000D03*
X210400000Y-100975000D03*
%TD*%
%TO.C,C3*%
X254000000Y-94475000D03*
X254000000Y-96025000D03*
%TD*%
D10*
%TO.C,Y3*%
X239250000Y-101200000D03*
X241450000Y-101200000D03*
X241450000Y-99500000D03*
X239250000Y-99500000D03*
%TD*%
D17*
%TO.C,C6*%
X245275000Y-97250000D03*
X243725000Y-97250000D03*
%TD*%
D15*
%TO.C,C4*%
X239475000Y-97750000D03*
X241025000Y-97750000D03*
%TD*%
D18*
%TO.C,L2*%
X255750000Y-96037500D03*
X255750000Y-94462500D03*
%TD*%
D19*
%TO.C,U1*%
X247137500Y-100950000D03*
X247137500Y-100000000D03*
X247137500Y-99050000D03*
X244862500Y-99050000D03*
X244862500Y-100000000D03*
X244862500Y-100950000D03*
%TD*%
D14*
%TO.C,C5*%
X237250000Y-99725000D03*
X237250000Y-101275000D03*
%TD*%
D20*
%TO.C,R2*%
X247462500Y-104500000D03*
X249037500Y-104500000D03*
%TD*%
D18*
%TO.C,L1*%
X249212500Y-102787500D03*
X249212500Y-101212500D03*
%TD*%
D15*
%TO.C,C2*%
X250975000Y-101250000D03*
X252525000Y-101250000D03*
%TD*%
D18*
%TO.C,R1*%
X244750000Y-104287500D03*
X244750000Y-102712500D03*
%TD*%
D21*
%TO.C,C1*%
X248950000Y-97250000D03*
X247050000Y-97250000D03*
%TD*%
M02*
