M48
; DRILL file {KiCad 8.0.0-1.fc39} date 2024-05-22T19:24:39+0200
; FORMAT={-:-/ absolute / inch / decimal}
; #@! TF.CreationDate,2024-05-22T19:24:39+02:00
; #@! TF.GenerationSoftware,Kicad,Pcbnew,8.0.0-1.fc39
; #@! TF.FileFunction,Plated,1,2,PTH
FMAT,2
INCH
; #@! TA.AperFunction,Plated,PTH,ViaDrill
T1C0.0118
; #@! TA.AperFunction,Plated,PTH,ComponentDrill
T2C0.0394
%
G90
G05
T1
X7.9626Y-4.0039
X7.9626Y-4.0335
X7.9626Y-4.063
X7.9626Y-4.0925
X7.9843Y-3.8819
X7.9843Y-3.9291
X7.9843Y-3.9764
X7.9921Y-4.0039
X7.9921Y-4.0335
X7.9921Y-4.063
X7.9921Y-4.0925
X8.0256Y-4.0039
X8.0256Y-4.0335
X8.0256Y-4.063
X8.0256Y-4.0925
X8.0315Y-3.8819
X8.0315Y-3.9291
X8.0315Y-3.9764
X8.0551Y-4.0039
X8.0551Y-4.0335
X8.0551Y-4.063
X8.0551Y-4.0925
X8.0787Y-3.8819
X8.0787Y-3.9291
X8.0787Y-3.9764
X8.5039Y-3.8819
X8.7815Y-3.8189
X8.7815Y-3.878
X8.7815Y-3.9075
X8.8287Y-3.8189
X8.8287Y-3.878
X8.8287Y-3.9075
X8.8622Y-3.7244
X8.8622Y-3.752
X8.8843Y-3.6661
X8.8898Y-3.7244
X8.8898Y-3.752
X9.1831Y-3.8937
X9.1831Y-3.9232
X9.1831Y-3.9528
X9.1831Y-3.9823
X9.2126Y-3.8937
X9.2126Y-3.9232
X9.2126Y-3.9528
X9.2126Y-3.9823
X9.5673Y-3.9386
X9.5866Y-4.0157
X9.8819Y-3.8091
X9.8819Y-3.8386
X9.8819Y-3.8681
X9.8819Y-3.8976
X9.9114Y-3.8091
X9.9114Y-3.8386
X9.9114Y-3.8681
X9.9114Y-3.8976
X9.9303Y-4.0807
X9.9303Y-4.1102
X9.9598Y-4.0807
X9.9598Y-4.1102
X9.9894Y-4.0807
T2
X7.8671Y-3.7618
X7.8671Y-3.8618
X8.3Y-4.0748
X8.4Y-4.0748
X8.5Y-4.0748
X8.6Y-4.0748
X8.7Y-4.0748
X8.9Y-4.0748
X9.0Y-4.0748
X9.1Y-4.0748
M30
