%TF.GenerationSoftware,KiCad,Pcbnew,8.0.0-1.fc39*%
%TF.CreationDate,2024-05-22T19:24:41+02:00*%
%TF.ProjectId,radio433,72616469-6f34-4333-932e-6b696361645f,rev?*%
%TF.SameCoordinates,Original*%
%TF.FileFunction,Legend,Top*%
%TF.FilePolarity,Positive*%
%FSLAX46Y46*%
G04 Gerber Fmt 4.6, Leading zero omitted, Abs format (unit mm)*
G04 Created by KiCad (PCBNEW 8.0.0-1.fc39) date 2024-05-22 19:24:41*
%MOMM*%
%LPD*%
G01*
G04 APERTURE LIST*
%ADD10C,0.100000*%
%ADD11C,0.150000*%
%ADD12C,0.120000*%
G04 APERTURE END LIST*
D10*
X207400000Y-97600000D02*
X210200000Y-98600000D01*
X230610038Y-100672306D02*
X230562419Y-100767544D01*
X230562419Y-100767544D02*
X230562419Y-100910401D01*
X230562419Y-100910401D02*
X230610038Y-101053258D01*
X230610038Y-101053258D02*
X230705276Y-101148496D01*
X230705276Y-101148496D02*
X230800514Y-101196115D01*
X230800514Y-101196115D02*
X230990990Y-101243734D01*
X230990990Y-101243734D02*
X231133847Y-101243734D01*
X231133847Y-101243734D02*
X231324323Y-101196115D01*
X231324323Y-101196115D02*
X231419561Y-101148496D01*
X231419561Y-101148496D02*
X231514800Y-101053258D01*
X231514800Y-101053258D02*
X231562419Y-100910401D01*
X231562419Y-100910401D02*
X231562419Y-100815163D01*
X231562419Y-100815163D02*
X231514800Y-100672306D01*
X231514800Y-100672306D02*
X231467180Y-100624687D01*
X231467180Y-100624687D02*
X231133847Y-100624687D01*
X231133847Y-100624687D02*
X231133847Y-100815163D01*
X231562419Y-100196115D02*
X230562419Y-100196115D01*
X230562419Y-100196115D02*
X231562419Y-99624687D01*
X231562419Y-99624687D02*
X230562419Y-99624687D01*
X231562419Y-99148496D02*
X230562419Y-99148496D01*
X230562419Y-99148496D02*
X230562419Y-98910401D01*
X230562419Y-98910401D02*
X230610038Y-98767544D01*
X230610038Y-98767544D02*
X230705276Y-98672306D01*
X230705276Y-98672306D02*
X230800514Y-98624687D01*
X230800514Y-98624687D02*
X230990990Y-98577068D01*
X230990990Y-98577068D02*
X231133847Y-98577068D01*
X231133847Y-98577068D02*
X231324323Y-98624687D01*
X231324323Y-98624687D02*
X231419561Y-98672306D01*
X231419561Y-98672306D02*
X231514800Y-98767544D01*
X231514800Y-98767544D02*
X231562419Y-98910401D01*
X231562419Y-98910401D02*
X231562419Y-99148496D01*
X229042419Y-101196115D02*
X228042419Y-101196115D01*
X228042419Y-101196115D02*
X228042419Y-100958020D01*
X228042419Y-100958020D02*
X228090038Y-100815163D01*
X228090038Y-100815163D02*
X228185276Y-100719925D01*
X228185276Y-100719925D02*
X228280514Y-100672306D01*
X228280514Y-100672306D02*
X228470990Y-100624687D01*
X228470990Y-100624687D02*
X228613847Y-100624687D01*
X228613847Y-100624687D02*
X228804323Y-100672306D01*
X228804323Y-100672306D02*
X228899561Y-100719925D01*
X228899561Y-100719925D02*
X228994800Y-100815163D01*
X228994800Y-100815163D02*
X229042419Y-100958020D01*
X229042419Y-100958020D02*
X229042419Y-101196115D01*
X229042419Y-100196115D02*
X228042419Y-100196115D01*
X229042419Y-99719925D02*
X228042419Y-99719925D01*
X228042419Y-99719925D02*
X229042419Y-99148497D01*
X229042419Y-99148497D02*
X228042419Y-99148497D01*
X225803884Y-100991466D02*
X226565789Y-100991466D01*
X226184836Y-101372419D02*
X226184836Y-100610514D01*
D11*
X219323809Y-98778628D02*
X219323809Y-99254819D01*
X218990476Y-98254819D02*
X219323809Y-98778628D01*
X219323809Y-98778628D02*
X219657142Y-98254819D01*
X219942857Y-98350057D02*
X219990476Y-98302438D01*
X219990476Y-98302438D02*
X220085714Y-98254819D01*
X220085714Y-98254819D02*
X220323809Y-98254819D01*
X220323809Y-98254819D02*
X220419047Y-98302438D01*
X220419047Y-98302438D02*
X220466666Y-98350057D01*
X220466666Y-98350057D02*
X220514285Y-98445295D01*
X220514285Y-98445295D02*
X220514285Y-98540533D01*
X220514285Y-98540533D02*
X220466666Y-98683390D01*
X220466666Y-98683390D02*
X219895238Y-99254819D01*
X219895238Y-99254819D02*
X220514285Y-99254819D01*
X198658333Y-100769104D02*
X199134523Y-100769104D01*
X198563095Y-101054819D02*
X198896428Y-100054819D01*
X198896428Y-100054819D02*
X199229761Y-101054819D01*
X199563095Y-100531009D02*
X199896428Y-100531009D01*
X200039285Y-101054819D02*
X199563095Y-101054819D01*
X199563095Y-101054819D02*
X199563095Y-100054819D01*
X199563095Y-100054819D02*
X200039285Y-100054819D01*
X200372619Y-100054819D02*
X200991666Y-100054819D01*
X200991666Y-100054819D02*
X200658333Y-100435771D01*
X200658333Y-100435771D02*
X200801190Y-100435771D01*
X200801190Y-100435771D02*
X200896428Y-100483390D01*
X200896428Y-100483390D02*
X200944047Y-100531009D01*
X200944047Y-100531009D02*
X200991666Y-100626247D01*
X200991666Y-100626247D02*
X200991666Y-100864342D01*
X200991666Y-100864342D02*
X200944047Y-100959580D01*
X200944047Y-100959580D02*
X200896428Y-101007200D01*
X200896428Y-101007200D02*
X200801190Y-101054819D01*
X200801190Y-101054819D02*
X200515476Y-101054819D01*
X200515476Y-101054819D02*
X200420238Y-101007200D01*
X200420238Y-101007200D02*
X200372619Y-100959580D01*
X213438095Y-97454819D02*
X213438095Y-98264342D01*
X213438095Y-98264342D02*
X213485714Y-98359580D01*
X213485714Y-98359580D02*
X213533333Y-98407200D01*
X213533333Y-98407200D02*
X213628571Y-98454819D01*
X213628571Y-98454819D02*
X213819047Y-98454819D01*
X213819047Y-98454819D02*
X213914285Y-98407200D01*
X213914285Y-98407200D02*
X213961904Y-98359580D01*
X213961904Y-98359580D02*
X214009523Y-98264342D01*
X214009523Y-98264342D02*
X214009523Y-97454819D01*
X214438095Y-97550057D02*
X214485714Y-97502438D01*
X214485714Y-97502438D02*
X214580952Y-97454819D01*
X214580952Y-97454819D02*
X214819047Y-97454819D01*
X214819047Y-97454819D02*
X214914285Y-97502438D01*
X214914285Y-97502438D02*
X214961904Y-97550057D01*
X214961904Y-97550057D02*
X215009523Y-97645295D01*
X215009523Y-97645295D02*
X215009523Y-97740533D01*
X215009523Y-97740533D02*
X214961904Y-97883390D01*
X214961904Y-97883390D02*
X214390476Y-98454819D01*
X214390476Y-98454819D02*
X215009523Y-98454819D01*
X220898333Y-101254819D02*
X220565000Y-100778628D01*
X220326905Y-101254819D02*
X220326905Y-100254819D01*
X220326905Y-100254819D02*
X220707857Y-100254819D01*
X220707857Y-100254819D02*
X220803095Y-100302438D01*
X220803095Y-100302438D02*
X220850714Y-100350057D01*
X220850714Y-100350057D02*
X220898333Y-100445295D01*
X220898333Y-100445295D02*
X220898333Y-100588152D01*
X220898333Y-100588152D02*
X220850714Y-100683390D01*
X220850714Y-100683390D02*
X220803095Y-100731009D01*
X220803095Y-100731009D02*
X220707857Y-100778628D01*
X220707857Y-100778628D02*
X220326905Y-100778628D01*
X221231667Y-100254819D02*
X221850714Y-100254819D01*
X221850714Y-100254819D02*
X221517381Y-100635771D01*
X221517381Y-100635771D02*
X221660238Y-100635771D01*
X221660238Y-100635771D02*
X221755476Y-100683390D01*
X221755476Y-100683390D02*
X221803095Y-100731009D01*
X221803095Y-100731009D02*
X221850714Y-100826247D01*
X221850714Y-100826247D02*
X221850714Y-101064342D01*
X221850714Y-101064342D02*
X221803095Y-101159580D01*
X221803095Y-101159580D02*
X221755476Y-101207200D01*
X221755476Y-101207200D02*
X221660238Y-101254819D01*
X221660238Y-101254819D02*
X221374524Y-101254819D01*
X221374524Y-101254819D02*
X221279286Y-101207200D01*
X221279286Y-101207200D02*
X221231667Y-101159580D01*
X202854819Y-98766666D02*
X202854819Y-99242856D01*
X202854819Y-99242856D02*
X201854819Y-99242856D01*
X202188152Y-98004761D02*
X202854819Y-98004761D01*
X201807200Y-98242856D02*
X202521485Y-98480951D01*
X202521485Y-98480951D02*
X202521485Y-97861904D01*
X210283333Y-94516033D02*
X209949999Y-94516033D01*
X209949999Y-94516033D02*
X209949999Y-93816033D01*
X210450000Y-93816033D02*
X210883333Y-93816033D01*
X210883333Y-93816033D02*
X210650000Y-94082700D01*
X210650000Y-94082700D02*
X210750000Y-94082700D01*
X210750000Y-94082700D02*
X210816666Y-94116033D01*
X210816666Y-94116033D02*
X210850000Y-94149366D01*
X210850000Y-94149366D02*
X210883333Y-94216033D01*
X210883333Y-94216033D02*
X210883333Y-94382700D01*
X210883333Y-94382700D02*
X210850000Y-94449366D01*
X210850000Y-94449366D02*
X210816666Y-94482700D01*
X210816666Y-94482700D02*
X210750000Y-94516033D01*
X210750000Y-94516033D02*
X210550000Y-94516033D01*
X210550000Y-94516033D02*
X210483333Y-94482700D01*
X210483333Y-94482700D02*
X210450000Y-94449366D01*
X207944819Y-103833333D02*
X208659104Y-103833333D01*
X208659104Y-103833333D02*
X208801961Y-103880952D01*
X208801961Y-103880952D02*
X208897200Y-103976190D01*
X208897200Y-103976190D02*
X208944819Y-104119047D01*
X208944819Y-104119047D02*
X208944819Y-104214285D01*
X208040057Y-103404761D02*
X207992438Y-103357142D01*
X207992438Y-103357142D02*
X207944819Y-103261904D01*
X207944819Y-103261904D02*
X207944819Y-103023809D01*
X207944819Y-103023809D02*
X207992438Y-102928571D01*
X207992438Y-102928571D02*
X208040057Y-102880952D01*
X208040057Y-102880952D02*
X208135295Y-102833333D01*
X208135295Y-102833333D02*
X208230533Y-102833333D01*
X208230533Y-102833333D02*
X208373390Y-102880952D01*
X208373390Y-102880952D02*
X208944819Y-103452380D01*
X208944819Y-103452380D02*
X208944819Y-102833333D01*
X204359580Y-99842857D02*
X204407200Y-99890476D01*
X204407200Y-99890476D02*
X204454819Y-100033333D01*
X204454819Y-100033333D02*
X204454819Y-100128571D01*
X204454819Y-100128571D02*
X204407200Y-100271428D01*
X204407200Y-100271428D02*
X204311961Y-100366666D01*
X204311961Y-100366666D02*
X204216723Y-100414285D01*
X204216723Y-100414285D02*
X204026247Y-100461904D01*
X204026247Y-100461904D02*
X203883390Y-100461904D01*
X203883390Y-100461904D02*
X203692914Y-100414285D01*
X203692914Y-100414285D02*
X203597676Y-100366666D01*
X203597676Y-100366666D02*
X203502438Y-100271428D01*
X203502438Y-100271428D02*
X203454819Y-100128571D01*
X203454819Y-100128571D02*
X203454819Y-100033333D01*
X203454819Y-100033333D02*
X203502438Y-99890476D01*
X203502438Y-99890476D02*
X203550057Y-99842857D01*
X204454819Y-98890476D02*
X204454819Y-99461904D01*
X204454819Y-99176190D02*
X203454819Y-99176190D01*
X203454819Y-99176190D02*
X203597676Y-99271428D01*
X203597676Y-99271428D02*
X203692914Y-99366666D01*
X203692914Y-99366666D02*
X203740533Y-99461904D01*
X204454819Y-97938095D02*
X204454819Y-98509523D01*
X204454819Y-98223809D02*
X203454819Y-98223809D01*
X203454819Y-98223809D02*
X203597676Y-98319047D01*
X203597676Y-98319047D02*
X203692914Y-98414285D01*
X203692914Y-98414285D02*
X203740533Y-98509523D01*
X205557142Y-94449366D02*
X205509523Y-94482700D01*
X205509523Y-94482700D02*
X205366666Y-94516033D01*
X205366666Y-94516033D02*
X205271428Y-94516033D01*
X205271428Y-94516033D02*
X205128571Y-94482700D01*
X205128571Y-94482700D02*
X205033333Y-94416033D01*
X205033333Y-94416033D02*
X204985714Y-94349366D01*
X204985714Y-94349366D02*
X204938095Y-94216033D01*
X204938095Y-94216033D02*
X204938095Y-94116033D01*
X204938095Y-94116033D02*
X204985714Y-93982700D01*
X204985714Y-93982700D02*
X205033333Y-93916033D01*
X205033333Y-93916033D02*
X205128571Y-93849366D01*
X205128571Y-93849366D02*
X205271428Y-93816033D01*
X205271428Y-93816033D02*
X205366666Y-93816033D01*
X205366666Y-93816033D02*
X205509523Y-93849366D01*
X205509523Y-93849366D02*
X205557142Y-93882700D01*
X206509523Y-94516033D02*
X205938095Y-94516033D01*
X206223809Y-94516033D02*
X206223809Y-93816033D01*
X206223809Y-93816033D02*
X206128571Y-93916033D01*
X206128571Y-93916033D02*
X206033333Y-93982700D01*
X206033333Y-93982700D02*
X205938095Y-94016033D01*
X207128571Y-93816033D02*
X207223809Y-93816033D01*
X207223809Y-93816033D02*
X207319047Y-93849366D01*
X207319047Y-93849366D02*
X207366666Y-93882700D01*
X207366666Y-93882700D02*
X207414285Y-93949366D01*
X207414285Y-93949366D02*
X207461904Y-94082700D01*
X207461904Y-94082700D02*
X207461904Y-94249366D01*
X207461904Y-94249366D02*
X207414285Y-94382700D01*
X207414285Y-94382700D02*
X207366666Y-94449366D01*
X207366666Y-94449366D02*
X207319047Y-94482700D01*
X207319047Y-94482700D02*
X207223809Y-94516033D01*
X207223809Y-94516033D02*
X207128571Y-94516033D01*
X207128571Y-94516033D02*
X207033333Y-94482700D01*
X207033333Y-94482700D02*
X206985714Y-94449366D01*
X206985714Y-94449366D02*
X206938095Y-94382700D01*
X206938095Y-94382700D02*
X206890476Y-94249366D01*
X206890476Y-94249366D02*
X206890476Y-94082700D01*
X206890476Y-94082700D02*
X206938095Y-93949366D01*
X206938095Y-93949366D02*
X206985714Y-93882700D01*
X206985714Y-93882700D02*
X207033333Y-93849366D01*
X207033333Y-93849366D02*
X207128571Y-93816033D01*
X208683334Y-94449365D02*
X208650001Y-94482699D01*
X208650001Y-94482699D02*
X208550001Y-94516032D01*
X208550001Y-94516032D02*
X208483334Y-94516032D01*
X208483334Y-94516032D02*
X208383334Y-94482699D01*
X208383334Y-94482699D02*
X208316668Y-94416032D01*
X208316668Y-94416032D02*
X208283334Y-94349365D01*
X208283334Y-94349365D02*
X208250001Y-94216032D01*
X208250001Y-94216032D02*
X208250001Y-94116032D01*
X208250001Y-94116032D02*
X208283334Y-93982699D01*
X208283334Y-93982699D02*
X208316668Y-93916032D01*
X208316668Y-93916032D02*
X208383334Y-93849365D01*
X208383334Y-93849365D02*
X208483334Y-93816032D01*
X208483334Y-93816032D02*
X208550001Y-93816032D01*
X208550001Y-93816032D02*
X208650001Y-93849365D01*
X208650001Y-93849365D02*
X208683334Y-93882699D01*
X209016668Y-94516032D02*
X209150001Y-94516032D01*
X209150001Y-94516032D02*
X209216668Y-94482699D01*
X209216668Y-94482699D02*
X209250001Y-94449365D01*
X209250001Y-94449365D02*
X209316668Y-94349365D01*
X209316668Y-94349365D02*
X209350001Y-94216032D01*
X209350001Y-94216032D02*
X209350001Y-93949365D01*
X209350001Y-93949365D02*
X209316668Y-93882699D01*
X209316668Y-93882699D02*
X209283334Y-93849365D01*
X209283334Y-93849365D02*
X209216668Y-93816032D01*
X209216668Y-93816032D02*
X209083334Y-93816032D01*
X209083334Y-93816032D02*
X209016668Y-93849365D01*
X209016668Y-93849365D02*
X208983334Y-93882699D01*
X208983334Y-93882699D02*
X208950001Y-93949365D01*
X208950001Y-93949365D02*
X208950001Y-94116032D01*
X208950001Y-94116032D02*
X208983334Y-94182699D01*
X208983334Y-94182699D02*
X209016668Y-94216032D01*
X209016668Y-94216032D02*
X209083334Y-94249365D01*
X209083334Y-94249365D02*
X209216668Y-94249365D01*
X209216668Y-94249365D02*
X209283334Y-94216032D01*
X209283334Y-94216032D02*
X209316668Y-94182699D01*
X209316668Y-94182699D02*
X209350001Y-94116032D01*
X207159580Y-99966666D02*
X207207200Y-100014285D01*
X207207200Y-100014285D02*
X207254819Y-100157142D01*
X207254819Y-100157142D02*
X207254819Y-100252380D01*
X207254819Y-100252380D02*
X207207200Y-100395237D01*
X207207200Y-100395237D02*
X207111961Y-100490475D01*
X207111961Y-100490475D02*
X207016723Y-100538094D01*
X207016723Y-100538094D02*
X206826247Y-100585713D01*
X206826247Y-100585713D02*
X206683390Y-100585713D01*
X206683390Y-100585713D02*
X206492914Y-100538094D01*
X206492914Y-100538094D02*
X206397676Y-100490475D01*
X206397676Y-100490475D02*
X206302438Y-100395237D01*
X206302438Y-100395237D02*
X206254819Y-100252380D01*
X206254819Y-100252380D02*
X206254819Y-100157142D01*
X206254819Y-100157142D02*
X206302438Y-100014285D01*
X206302438Y-100014285D02*
X206350057Y-99966666D01*
X206683390Y-99395237D02*
X206635771Y-99490475D01*
X206635771Y-99490475D02*
X206588152Y-99538094D01*
X206588152Y-99538094D02*
X206492914Y-99585713D01*
X206492914Y-99585713D02*
X206445295Y-99585713D01*
X206445295Y-99585713D02*
X206350057Y-99538094D01*
X206350057Y-99538094D02*
X206302438Y-99490475D01*
X206302438Y-99490475D02*
X206254819Y-99395237D01*
X206254819Y-99395237D02*
X206254819Y-99204761D01*
X206254819Y-99204761D02*
X206302438Y-99109523D01*
X206302438Y-99109523D02*
X206350057Y-99061904D01*
X206350057Y-99061904D02*
X206445295Y-99014285D01*
X206445295Y-99014285D02*
X206492914Y-99014285D01*
X206492914Y-99014285D02*
X206588152Y-99061904D01*
X206588152Y-99061904D02*
X206635771Y-99109523D01*
X206635771Y-99109523D02*
X206683390Y-99204761D01*
X206683390Y-99204761D02*
X206683390Y-99395237D01*
X206683390Y-99395237D02*
X206731009Y-99490475D01*
X206731009Y-99490475D02*
X206778628Y-99538094D01*
X206778628Y-99538094D02*
X206873866Y-99585713D01*
X206873866Y-99585713D02*
X207064342Y-99585713D01*
X207064342Y-99585713D02*
X207159580Y-99538094D01*
X207159580Y-99538094D02*
X207207200Y-99490475D01*
X207207200Y-99490475D02*
X207254819Y-99395237D01*
X207254819Y-99395237D02*
X207254819Y-99204761D01*
X207254819Y-99204761D02*
X207207200Y-99109523D01*
X207207200Y-99109523D02*
X207159580Y-99061904D01*
X207159580Y-99061904D02*
X207064342Y-99014285D01*
X207064342Y-99014285D02*
X206873866Y-99014285D01*
X206873866Y-99014285D02*
X206778628Y-99061904D01*
X206778628Y-99061904D02*
X206731009Y-99109523D01*
X206731009Y-99109523D02*
X206683390Y-99204761D01*
X207159580Y-97766666D02*
X207207200Y-97814285D01*
X207207200Y-97814285D02*
X207254819Y-97957142D01*
X207254819Y-97957142D02*
X207254819Y-98052380D01*
X207254819Y-98052380D02*
X207207200Y-98195237D01*
X207207200Y-98195237D02*
X207111961Y-98290475D01*
X207111961Y-98290475D02*
X207016723Y-98338094D01*
X207016723Y-98338094D02*
X206826247Y-98385713D01*
X206826247Y-98385713D02*
X206683390Y-98385713D01*
X206683390Y-98385713D02*
X206492914Y-98338094D01*
X206492914Y-98338094D02*
X206397676Y-98290475D01*
X206397676Y-98290475D02*
X206302438Y-98195237D01*
X206302438Y-98195237D02*
X206254819Y-98052380D01*
X206254819Y-98052380D02*
X206254819Y-97957142D01*
X206254819Y-97957142D02*
X206302438Y-97814285D01*
X206302438Y-97814285D02*
X206350057Y-97766666D01*
X206254819Y-97433332D02*
X206254819Y-96766666D01*
X206254819Y-96766666D02*
X207254819Y-97195237D01*
X253109580Y-95416666D02*
X253157200Y-95464285D01*
X253157200Y-95464285D02*
X253204819Y-95607142D01*
X253204819Y-95607142D02*
X253204819Y-95702380D01*
X253204819Y-95702380D02*
X253157200Y-95845237D01*
X253157200Y-95845237D02*
X253061961Y-95940475D01*
X253061961Y-95940475D02*
X252966723Y-95988094D01*
X252966723Y-95988094D02*
X252776247Y-96035713D01*
X252776247Y-96035713D02*
X252633390Y-96035713D01*
X252633390Y-96035713D02*
X252442914Y-95988094D01*
X252442914Y-95988094D02*
X252347676Y-95940475D01*
X252347676Y-95940475D02*
X252252438Y-95845237D01*
X252252438Y-95845237D02*
X252204819Y-95702380D01*
X252204819Y-95702380D02*
X252204819Y-95607142D01*
X252204819Y-95607142D02*
X252252438Y-95464285D01*
X252252438Y-95464285D02*
X252300057Y-95416666D01*
X252204819Y-95083332D02*
X252204819Y-94464285D01*
X252204819Y-94464285D02*
X252585771Y-94797618D01*
X252585771Y-94797618D02*
X252585771Y-94654761D01*
X252585771Y-94654761D02*
X252633390Y-94559523D01*
X252633390Y-94559523D02*
X252681009Y-94511904D01*
X252681009Y-94511904D02*
X252776247Y-94464285D01*
X252776247Y-94464285D02*
X253014342Y-94464285D01*
X253014342Y-94464285D02*
X253109580Y-94511904D01*
X253109580Y-94511904D02*
X253157200Y-94559523D01*
X253157200Y-94559523D02*
X253204819Y-94654761D01*
X253204819Y-94654761D02*
X253204819Y-94940475D01*
X253204819Y-94940475D02*
X253157200Y-95035713D01*
X253157200Y-95035713D02*
X253109580Y-95083332D01*
X237773809Y-102728628D02*
X237773809Y-103204819D01*
X237440476Y-102204819D02*
X237773809Y-102728628D01*
X237773809Y-102728628D02*
X238107142Y-102204819D01*
X238345238Y-102204819D02*
X238964285Y-102204819D01*
X238964285Y-102204819D02*
X238630952Y-102585771D01*
X238630952Y-102585771D02*
X238773809Y-102585771D01*
X238773809Y-102585771D02*
X238869047Y-102633390D01*
X238869047Y-102633390D02*
X238916666Y-102681009D01*
X238916666Y-102681009D02*
X238964285Y-102776247D01*
X238964285Y-102776247D02*
X238964285Y-103014342D01*
X238964285Y-103014342D02*
X238916666Y-103109580D01*
X238916666Y-103109580D02*
X238869047Y-103157200D01*
X238869047Y-103157200D02*
X238773809Y-103204819D01*
X238773809Y-103204819D02*
X238488095Y-103204819D01*
X238488095Y-103204819D02*
X238392857Y-103157200D01*
X238392857Y-103157200D02*
X238345238Y-103109580D01*
X242233333Y-96919366D02*
X242200000Y-96952700D01*
X242200000Y-96952700D02*
X242100000Y-96986033D01*
X242100000Y-96986033D02*
X242033333Y-96986033D01*
X242033333Y-96986033D02*
X241933333Y-96952700D01*
X241933333Y-96952700D02*
X241866667Y-96886033D01*
X241866667Y-96886033D02*
X241833333Y-96819366D01*
X241833333Y-96819366D02*
X241800000Y-96686033D01*
X241800000Y-96686033D02*
X241800000Y-96586033D01*
X241800000Y-96586033D02*
X241833333Y-96452700D01*
X241833333Y-96452700D02*
X241866667Y-96386033D01*
X241866667Y-96386033D02*
X241933333Y-96319366D01*
X241933333Y-96319366D02*
X242033333Y-96286033D01*
X242033333Y-96286033D02*
X242100000Y-96286033D01*
X242100000Y-96286033D02*
X242200000Y-96319366D01*
X242200000Y-96319366D02*
X242233333Y-96352700D01*
X242833333Y-96286033D02*
X242700000Y-96286033D01*
X242700000Y-96286033D02*
X242633333Y-96319366D01*
X242633333Y-96319366D02*
X242600000Y-96352700D01*
X242600000Y-96352700D02*
X242533333Y-96452700D01*
X242533333Y-96452700D02*
X242500000Y-96586033D01*
X242500000Y-96586033D02*
X242500000Y-96852700D01*
X242500000Y-96852700D02*
X242533333Y-96919366D01*
X242533333Y-96919366D02*
X242566667Y-96952700D01*
X242566667Y-96952700D02*
X242633333Y-96986033D01*
X242633333Y-96986033D02*
X242766667Y-96986033D01*
X242766667Y-96986033D02*
X242833333Y-96952700D01*
X242833333Y-96952700D02*
X242866667Y-96919366D01*
X242866667Y-96919366D02*
X242900000Y-96852700D01*
X242900000Y-96852700D02*
X242900000Y-96686033D01*
X242900000Y-96686033D02*
X242866667Y-96619366D01*
X242866667Y-96619366D02*
X242833333Y-96586033D01*
X242833333Y-96586033D02*
X242766667Y-96552700D01*
X242766667Y-96552700D02*
X242633333Y-96552700D01*
X242633333Y-96552700D02*
X242566667Y-96586033D01*
X242566667Y-96586033D02*
X242533333Y-96619366D01*
X242533333Y-96619366D02*
X242500000Y-96686033D01*
X237503333Y-98119580D02*
X237455714Y-98167200D01*
X237455714Y-98167200D02*
X237312857Y-98214819D01*
X237312857Y-98214819D02*
X237217619Y-98214819D01*
X237217619Y-98214819D02*
X237074762Y-98167200D01*
X237074762Y-98167200D02*
X236979524Y-98071961D01*
X236979524Y-98071961D02*
X236931905Y-97976723D01*
X236931905Y-97976723D02*
X236884286Y-97786247D01*
X236884286Y-97786247D02*
X236884286Y-97643390D01*
X236884286Y-97643390D02*
X236931905Y-97452914D01*
X236931905Y-97452914D02*
X236979524Y-97357676D01*
X236979524Y-97357676D02*
X237074762Y-97262438D01*
X237074762Y-97262438D02*
X237217619Y-97214819D01*
X237217619Y-97214819D02*
X237312857Y-97214819D01*
X237312857Y-97214819D02*
X237455714Y-97262438D01*
X237455714Y-97262438D02*
X237503333Y-97310057D01*
X238360476Y-97548152D02*
X238360476Y-98214819D01*
X238122381Y-97167200D02*
X237884286Y-97881485D01*
X237884286Y-97881485D02*
X238503333Y-97881485D01*
X256204819Y-97916666D02*
X256204819Y-98392856D01*
X256204819Y-98392856D02*
X255204819Y-98392856D01*
X255300057Y-97630951D02*
X255252438Y-97583332D01*
X255252438Y-97583332D02*
X255204819Y-97488094D01*
X255204819Y-97488094D02*
X255204819Y-97249999D01*
X255204819Y-97249999D02*
X255252438Y-97154761D01*
X255252438Y-97154761D02*
X255300057Y-97107142D01*
X255300057Y-97107142D02*
X255395295Y-97059523D01*
X255395295Y-97059523D02*
X255490533Y-97059523D01*
X255490533Y-97059523D02*
X255633390Y-97107142D01*
X255633390Y-97107142D02*
X256204819Y-97678570D01*
X256204819Y-97678570D02*
X256204819Y-97059523D01*
X233766666Y-103954819D02*
X233766666Y-104669104D01*
X233766666Y-104669104D02*
X233719047Y-104811961D01*
X233719047Y-104811961D02*
X233623809Y-104907200D01*
X233623809Y-104907200D02*
X233480952Y-104954819D01*
X233480952Y-104954819D02*
X233385714Y-104954819D01*
X234766666Y-104954819D02*
X234195238Y-104954819D01*
X234480952Y-104954819D02*
X234480952Y-103954819D01*
X234480952Y-103954819D02*
X234385714Y-104097676D01*
X234385714Y-104097676D02*
X234290476Y-104192914D01*
X234290476Y-104192914D02*
X234195238Y-104240533D01*
X248738095Y-98954819D02*
X248738095Y-99764342D01*
X248738095Y-99764342D02*
X248785714Y-99859580D01*
X248785714Y-99859580D02*
X248833333Y-99907200D01*
X248833333Y-99907200D02*
X248928571Y-99954819D01*
X248928571Y-99954819D02*
X249119047Y-99954819D01*
X249119047Y-99954819D02*
X249214285Y-99907200D01*
X249214285Y-99907200D02*
X249261904Y-99859580D01*
X249261904Y-99859580D02*
X249309523Y-99764342D01*
X249309523Y-99764342D02*
X249309523Y-98954819D01*
X250309523Y-99954819D02*
X249738095Y-99954819D01*
X250023809Y-99954819D02*
X250023809Y-98954819D01*
X250023809Y-98954819D02*
X249928571Y-99097676D01*
X249928571Y-99097676D02*
X249833333Y-99192914D01*
X249833333Y-99192914D02*
X249738095Y-99240533D01*
X236109580Y-100916666D02*
X236157200Y-100964285D01*
X236157200Y-100964285D02*
X236204819Y-101107142D01*
X236204819Y-101107142D02*
X236204819Y-101202380D01*
X236204819Y-101202380D02*
X236157200Y-101345237D01*
X236157200Y-101345237D02*
X236061961Y-101440475D01*
X236061961Y-101440475D02*
X235966723Y-101488094D01*
X235966723Y-101488094D02*
X235776247Y-101535713D01*
X235776247Y-101535713D02*
X235633390Y-101535713D01*
X235633390Y-101535713D02*
X235442914Y-101488094D01*
X235442914Y-101488094D02*
X235347676Y-101440475D01*
X235347676Y-101440475D02*
X235252438Y-101345237D01*
X235252438Y-101345237D02*
X235204819Y-101202380D01*
X235204819Y-101202380D02*
X235204819Y-101107142D01*
X235204819Y-101107142D02*
X235252438Y-100964285D01*
X235252438Y-100964285D02*
X235300057Y-100916666D01*
X235204819Y-100011904D02*
X235204819Y-100488094D01*
X235204819Y-100488094D02*
X235681009Y-100535713D01*
X235681009Y-100535713D02*
X235633390Y-100488094D01*
X235633390Y-100488094D02*
X235585771Y-100392856D01*
X235585771Y-100392856D02*
X235585771Y-100154761D01*
X235585771Y-100154761D02*
X235633390Y-100059523D01*
X235633390Y-100059523D02*
X235681009Y-100011904D01*
X235681009Y-100011904D02*
X235776247Y-99964285D01*
X235776247Y-99964285D02*
X236014342Y-99964285D01*
X236014342Y-99964285D02*
X236109580Y-100011904D01*
X236109580Y-100011904D02*
X236157200Y-100059523D01*
X236157200Y-100059523D02*
X236204819Y-100154761D01*
X236204819Y-100154761D02*
X236204819Y-100392856D01*
X236204819Y-100392856D02*
X236157200Y-100488094D01*
X236157200Y-100488094D02*
X236109580Y-100535713D01*
X250583333Y-104954819D02*
X250250000Y-104478628D01*
X250011905Y-104954819D02*
X250011905Y-103954819D01*
X250011905Y-103954819D02*
X250392857Y-103954819D01*
X250392857Y-103954819D02*
X250488095Y-104002438D01*
X250488095Y-104002438D02*
X250535714Y-104050057D01*
X250535714Y-104050057D02*
X250583333Y-104145295D01*
X250583333Y-104145295D02*
X250583333Y-104288152D01*
X250583333Y-104288152D02*
X250535714Y-104383390D01*
X250535714Y-104383390D02*
X250488095Y-104431009D01*
X250488095Y-104431009D02*
X250392857Y-104478628D01*
X250392857Y-104478628D02*
X250011905Y-104478628D01*
X250964286Y-104050057D02*
X251011905Y-104002438D01*
X251011905Y-104002438D02*
X251107143Y-103954819D01*
X251107143Y-103954819D02*
X251345238Y-103954819D01*
X251345238Y-103954819D02*
X251440476Y-104002438D01*
X251440476Y-104002438D02*
X251488095Y-104050057D01*
X251488095Y-104050057D02*
X251535714Y-104145295D01*
X251535714Y-104145295D02*
X251535714Y-104240533D01*
X251535714Y-104240533D02*
X251488095Y-104383390D01*
X251488095Y-104383390D02*
X250916667Y-104954819D01*
X250916667Y-104954819D02*
X251535714Y-104954819D01*
X251204819Y-103166666D02*
X251204819Y-103642856D01*
X251204819Y-103642856D02*
X250204819Y-103642856D01*
X251204819Y-102309523D02*
X251204819Y-102880951D01*
X251204819Y-102595237D02*
X250204819Y-102595237D01*
X250204819Y-102595237D02*
X250347676Y-102690475D01*
X250347676Y-102690475D02*
X250442914Y-102785713D01*
X250442914Y-102785713D02*
X250490533Y-102880951D01*
X251583333Y-100109580D02*
X251535714Y-100157200D01*
X251535714Y-100157200D02*
X251392857Y-100204819D01*
X251392857Y-100204819D02*
X251297619Y-100204819D01*
X251297619Y-100204819D02*
X251154762Y-100157200D01*
X251154762Y-100157200D02*
X251059524Y-100061961D01*
X251059524Y-100061961D02*
X251011905Y-99966723D01*
X251011905Y-99966723D02*
X250964286Y-99776247D01*
X250964286Y-99776247D02*
X250964286Y-99633390D01*
X250964286Y-99633390D02*
X251011905Y-99442914D01*
X251011905Y-99442914D02*
X251059524Y-99347676D01*
X251059524Y-99347676D02*
X251154762Y-99252438D01*
X251154762Y-99252438D02*
X251297619Y-99204819D01*
X251297619Y-99204819D02*
X251392857Y-99204819D01*
X251392857Y-99204819D02*
X251535714Y-99252438D01*
X251535714Y-99252438D02*
X251583333Y-99300057D01*
X251964286Y-99300057D02*
X252011905Y-99252438D01*
X252011905Y-99252438D02*
X252107143Y-99204819D01*
X252107143Y-99204819D02*
X252345238Y-99204819D01*
X252345238Y-99204819D02*
X252440476Y-99252438D01*
X252440476Y-99252438D02*
X252488095Y-99300057D01*
X252488095Y-99300057D02*
X252535714Y-99395295D01*
X252535714Y-99395295D02*
X252535714Y-99490533D01*
X252535714Y-99490533D02*
X252488095Y-99633390D01*
X252488095Y-99633390D02*
X251916667Y-100204819D01*
X251916667Y-100204819D02*
X252535714Y-100204819D01*
X243774819Y-103666666D02*
X243298628Y-103999999D01*
X243774819Y-104238094D02*
X242774819Y-104238094D01*
X242774819Y-104238094D02*
X242774819Y-103857142D01*
X242774819Y-103857142D02*
X242822438Y-103761904D01*
X242822438Y-103761904D02*
X242870057Y-103714285D01*
X242870057Y-103714285D02*
X242965295Y-103666666D01*
X242965295Y-103666666D02*
X243108152Y-103666666D01*
X243108152Y-103666666D02*
X243203390Y-103714285D01*
X243203390Y-103714285D02*
X243251009Y-103761904D01*
X243251009Y-103761904D02*
X243298628Y-103857142D01*
X243298628Y-103857142D02*
X243298628Y-104238094D01*
X243774819Y-102714285D02*
X243774819Y-103285713D01*
X243774819Y-102999999D02*
X242774819Y-102999999D01*
X242774819Y-102999999D02*
X242917676Y-103095237D01*
X242917676Y-103095237D02*
X243012914Y-103190475D01*
X243012914Y-103190475D02*
X243060533Y-103285713D01*
X247833333Y-95859580D02*
X247785714Y-95907200D01*
X247785714Y-95907200D02*
X247642857Y-95954819D01*
X247642857Y-95954819D02*
X247547619Y-95954819D01*
X247547619Y-95954819D02*
X247404762Y-95907200D01*
X247404762Y-95907200D02*
X247309524Y-95811961D01*
X247309524Y-95811961D02*
X247261905Y-95716723D01*
X247261905Y-95716723D02*
X247214286Y-95526247D01*
X247214286Y-95526247D02*
X247214286Y-95383390D01*
X247214286Y-95383390D02*
X247261905Y-95192914D01*
X247261905Y-95192914D02*
X247309524Y-95097676D01*
X247309524Y-95097676D02*
X247404762Y-95002438D01*
X247404762Y-95002438D02*
X247547619Y-94954819D01*
X247547619Y-94954819D02*
X247642857Y-94954819D01*
X247642857Y-94954819D02*
X247785714Y-95002438D01*
X247785714Y-95002438D02*
X247833333Y-95050057D01*
X248785714Y-95954819D02*
X248214286Y-95954819D01*
X248500000Y-95954819D02*
X248500000Y-94954819D01*
X248500000Y-94954819D02*
X248404762Y-95097676D01*
X248404762Y-95097676D02*
X248309524Y-95192914D01*
X248309524Y-95192914D02*
X248214286Y-95240533D01*
D12*
%TO.C,Y2*%
X217400000Y-94150000D02*
X217400000Y-97450000D01*
X217400000Y-97450000D02*
X221400000Y-97450000D01*
%TO.C,AE3*%
X198495000Y-96820000D02*
X198495000Y-99420000D01*
X198495000Y-96820000D02*
X201155000Y-96820000D01*
X198495000Y-99420000D02*
X201155000Y-99420000D01*
X199825000Y-94220000D02*
X201155000Y-94220000D01*
X201155000Y-94220000D02*
X201155000Y-95550000D01*
X201155000Y-96820000D02*
X201155000Y-99420000D01*
%TO.C,U2*%
X211705000Y-98000000D02*
X211705000Y-99950000D01*
X211705000Y-98000000D02*
X211705000Y-96050000D01*
X216825000Y-98000000D02*
X216825000Y-99950000D01*
X216825000Y-98000000D02*
X216825000Y-96050000D01*
X211800000Y-100700000D02*
X211470000Y-100940000D01*
X211470000Y-100460000D01*
X211800000Y-100700000D01*
G36*
X211800000Y-100700000D02*
G01*
X211470000Y-100940000D01*
X211470000Y-100460000D01*
X211800000Y-100700000D01*
G37*
%TO.C,R3*%
X218427742Y-100077500D02*
X218902258Y-100077500D01*
X218427742Y-101122500D02*
X218902258Y-101122500D01*
%TO.C,L4*%
X202922500Y-96037221D02*
X202922500Y-96362779D01*
X201902500Y-96037221D02*
X201902500Y-96362779D01*
%TO.C,L3*%
X210910000Y-96037221D02*
X210910000Y-96362779D01*
X209890000Y-96037221D02*
X209890000Y-96362779D01*
%TO.C,J2*%
X209490000Y-104830000D02*
X209490000Y-103500000D01*
X210820000Y-104830000D02*
X209490000Y-104830000D01*
X212090000Y-104830000D02*
X222310000Y-104830000D01*
X212090000Y-104830000D02*
X212090000Y-102170000D01*
X222310000Y-104830000D02*
X222310000Y-102170000D01*
X212090000Y-102170000D02*
X222310000Y-102170000D01*
%TO.C,C11*%
X204510000Y-96059420D02*
X204510000Y-96340580D01*
X203490000Y-96059420D02*
X203490000Y-96340580D01*
%TO.C,C10*%
X206284420Y-94890000D02*
X206565580Y-94890000D01*
X206284420Y-95910000D02*
X206565580Y-95910000D01*
%TO.C,C9*%
X209310000Y-96059420D02*
X209310000Y-96340580D01*
X208290000Y-96059420D02*
X208290000Y-96340580D01*
%TO.C,C8*%
X207665000Y-100261252D02*
X207665000Y-99738748D01*
X209135000Y-100261252D02*
X209135000Y-99738748D01*
%TO.C,C7*%
X210910000Y-100059420D02*
X210910000Y-100340580D01*
X209890000Y-100059420D02*
X209890000Y-100340580D01*
%TO.C,C3*%
X253490000Y-95109420D02*
X253490000Y-95390580D01*
X254510000Y-95109420D02*
X254510000Y-95390580D01*
%TO.C,Y3*%
X238350000Y-98700000D02*
X238350000Y-102000000D01*
X238350000Y-102000000D02*
X242350000Y-102000000D01*
%TO.C,C6*%
X244640580Y-96740000D02*
X244359420Y-96740000D01*
X244640580Y-97760000D02*
X244359420Y-97760000D01*
%TO.C,C4*%
X240109420Y-97240000D02*
X240390580Y-97240000D01*
X240109420Y-98260000D02*
X240390580Y-98260000D01*
%TO.C,L2*%
X255240000Y-95412779D02*
X255240000Y-95087221D01*
X256260000Y-95412779D02*
X256260000Y-95087221D01*
%TO.C,J1*%
X224730000Y-104830000D02*
X224730000Y-103500000D01*
X226060000Y-104830000D02*
X224730000Y-104830000D01*
X227330000Y-102170000D02*
X232470000Y-102170000D01*
X227330000Y-104830000D02*
X227330000Y-102170000D01*
X227330000Y-104830000D02*
X232470000Y-104830000D01*
X232470000Y-104830000D02*
X232470000Y-102170000D01*
%TO.C,U1*%
X246000000Y-98440000D02*
X245200000Y-98440000D01*
X246000000Y-98440000D02*
X246800000Y-98440000D01*
X246000000Y-101560000D02*
X245200000Y-101560000D01*
X246000000Y-101560000D02*
X246800000Y-101560000D01*
X247540000Y-101840000D02*
X247060000Y-101840000D01*
X247300000Y-101510000D01*
X247540000Y-101840000D01*
G36*
X247540000Y-101840000D02*
G01*
X247060000Y-101840000D01*
X247300000Y-101510000D01*
X247540000Y-101840000D01*
G37*
%TO.C,C5*%
X236740000Y-100359420D02*
X236740000Y-100640580D01*
X237760000Y-100359420D02*
X237760000Y-100640580D01*
%TO.C,R2*%
X248087221Y-103990000D02*
X248412779Y-103990000D01*
X248087221Y-105010000D02*
X248412779Y-105010000D01*
%TO.C,L1*%
X248702500Y-102162779D02*
X248702500Y-101837221D01*
X249722500Y-102162779D02*
X249722500Y-101837221D01*
%TO.C,C2*%
X251609420Y-100740000D02*
X251890580Y-100740000D01*
X251609420Y-101760000D02*
X251890580Y-101760000D01*
%TO.C,R1*%
X244240000Y-103662779D02*
X244240000Y-103337221D01*
X245260000Y-103662779D02*
X245260000Y-103337221D01*
%TO.C,C1*%
X248261252Y-96515000D02*
X247738748Y-96515000D01*
X248261252Y-97985000D02*
X247738748Y-97985000D01*
%TD*%
M02*
