%TF.GenerationSoftware,KiCad,Pcbnew,8.0.0-1.fc39*%
%TF.CreationDate,2024-05-22T19:24:40+02:00*%
%TF.ProjectId,radio433,72616469-6f34-4333-932e-6b696361645f,rev?*%
%TF.SameCoordinates,Original*%
%TF.FileFunction,Copper,L1,Top*%
%TF.FilePolarity,Positive*%
%FSLAX46Y46*%
G04 Gerber Fmt 4.6, Leading zero omitted, Abs format (unit mm)*
G04 Created by KiCad (PCBNEW 8.0.0-1.fc39) date 2024-05-22 19:24:40*
%MOMM*%
%LPD*%
G01*
G04 APERTURE LIST*
G04 Aperture macros list*
%AMRoundRect*
0 Rectangle with rounded corners*
0 $1 Rounding radius*
0 $2 $3 $4 $5 $6 $7 $8 $9 X,Y pos of 4 corners*
0 Add a 4 corners polygon primitive as box body*
4,1,4,$2,$3,$4,$5,$6,$7,$8,$9,$2,$3,0*
0 Add four circle primitives for the rounded corners*
1,1,$1+$1,$2,$3*
1,1,$1+$1,$4,$5*
1,1,$1+$1,$6,$7*
1,1,$1+$1,$8,$9*
0 Add four rect primitives between the rounded corners*
20,1,$1+$1,$2,$3,$4,$5,0*
20,1,$1+$1,$4,$5,$6,$7,0*
20,1,$1+$1,$6,$7,$8,$9,0*
20,1,$1+$1,$8,$9,$2,$3,0*%
%AMHorizOval*
0 Thick line with rounded ends*
0 $1 width*
0 $2 $3 position (X,Y) of the first rounded end (center of the circle)*
0 $4 $5 position (X,Y) of the second rounded end (center of the circle)*
0 Add line between two ends*
20,1,$1,$2,$3,$4,$5,0*
0 Add two circle primitives to create the rounded ends*
1,1,$1,$2,$3*
1,1,$1,$4,$5*%
G04 Aperture macros list end*
%TA.AperFunction,SMDPad,CuDef*%
%ADD10R,1.400000X1.200000*%
%TD*%
%TA.AperFunction,ComponentPad*%
%ADD11R,1.700000X1.700000*%
%TD*%
%TA.AperFunction,ComponentPad*%
%ADD12O,1.700000X1.700000*%
%TD*%
%TA.AperFunction,SMDPad,CuDef*%
%ADD13RoundRect,0.150000X0.150000X-0.725000X0.150000X0.725000X-0.150000X0.725000X-0.150000X-0.725000X0*%
%TD*%
%TA.AperFunction,SMDPad,CuDef*%
%ADD14RoundRect,0.200000X-0.200000X-0.275000X0.200000X-0.275000X0.200000X0.275000X-0.200000X0.275000X0*%
%TD*%
%TA.AperFunction,SMDPad,CuDef*%
%ADD15RoundRect,0.218750X-0.256250X0.218750X-0.256250X-0.218750X0.256250X-0.218750X0.256250X0.218750X0*%
%TD*%
%TA.AperFunction,SMDPad,CuDef*%
%ADD16RoundRect,0.225000X-0.250000X0.225000X-0.250000X-0.225000X0.250000X-0.225000X0.250000X0.225000X0*%
%TD*%
%TA.AperFunction,SMDPad,CuDef*%
%ADD17RoundRect,0.225000X-0.225000X-0.250000X0.225000X-0.250000X0.225000X0.250000X-0.225000X0.250000X0*%
%TD*%
%TA.AperFunction,SMDPad,CuDef*%
%ADD18RoundRect,0.250000X0.475000X-0.250000X0.475000X0.250000X-0.475000X0.250000X-0.475000X-0.250000X0*%
%TD*%
%TA.AperFunction,SMDPad,CuDef*%
%ADD19RoundRect,0.225000X0.225000X0.250000X-0.225000X0.250000X-0.225000X-0.250000X0.225000X-0.250000X0*%
%TD*%
%TA.AperFunction,SMDPad,CuDef*%
%ADD20HorizOval,2.000000X-0.707107X0.707107X0.707107X-0.707107X0*%
%TD*%
%TA.AperFunction,SMDPad,CuDef*%
%ADD21O,2.000000X12.300000*%
%TD*%
%TA.AperFunction,SMDPad,CuDef*%
%ADD22O,2.000000X3.000000*%
%TD*%
%TA.AperFunction,SMDPad,CuDef*%
%ADD23O,2.000000X12.700000*%
%TD*%
%TA.AperFunction,SMDPad,CuDef*%
%ADD24HorizOval,2.000000X0.601041X0.601041X-0.601041X-0.601041X0*%
%TD*%
%TA.AperFunction,SMDPad,CuDef*%
%ADD25O,29.500000X2.000000*%
%TD*%
%TA.AperFunction,SMDPad,CuDef*%
%ADD26RoundRect,0.218750X0.256250X-0.218750X0.256250X0.218750X-0.256250X0.218750X-0.256250X-0.218750X0*%
%TD*%
%TA.AperFunction,SMDPad,CuDef*%
%ADD27RoundRect,0.150000X0.512500X0.150000X-0.512500X0.150000X-0.512500X-0.150000X0.512500X-0.150000X0*%
%TD*%
%TA.AperFunction,SMDPad,CuDef*%
%ADD28RoundRect,0.218750X-0.218750X-0.256250X0.218750X-0.256250X0.218750X0.256250X-0.218750X0.256250X0*%
%TD*%
%TA.AperFunction,SMDPad,CuDef*%
%ADD29RoundRect,0.250000X0.250000X0.475000X-0.250000X0.475000X-0.250000X-0.475000X0.250000X-0.475000X0*%
%TD*%
%TA.AperFunction,ViaPad*%
%ADD30C,0.600000*%
%TD*%
%TA.AperFunction,Conductor*%
%ADD31C,0.500000*%
%TD*%
%TA.AperFunction,Conductor*%
%ADD32C,0.200000*%
%TD*%
%TA.AperFunction,Conductor*%
%ADD33C,1.290000*%
%TD*%
G04 APERTURE END LIST*
D10*
%TO.P,Y2,1,1*%
%TO.N,GND*%
X218300000Y-96650000D03*
%TO.P,Y2,2,2*%
X220500000Y-96650000D03*
%TO.P,Y2,3,3*%
%TO.N,Net-(U2-XIN)*%
X220500000Y-94950000D03*
%TO.P,Y2,4,4*%
%TO.N,GND*%
X218300000Y-94950000D03*
%TD*%
D11*
%TO.P,AE3,1,A*%
%TO.N,Net-(AE3-A)*%
X199825000Y-95550000D03*
D12*
%TO.P,AE3,2,Shield*%
%TO.N,GND*%
X199825000Y-98090000D03*
%TD*%
D13*
%TO.P,U2,1,GND*%
%TO.N,GND*%
X212360000Y-100575000D03*
%TO.P,U2,2,VDD*%
%TO.N,/VDD*%
X213630000Y-100575000D03*
%TO.P,U2,3,DOUT*%
%TO.N,/DOUT*%
X214900000Y-100575000D03*
%TO.P,U2,4,SDN*%
%TO.N,/SHDN*%
X216170000Y-100575000D03*
%TO.P,U2,5,XIN*%
%TO.N,Net-(U2-XIN)*%
X216170000Y-95425000D03*
%TO.P,U2,6,NC*%
%TO.N,unconnected-(U2-NC-Pad6)*%
X214900000Y-95425000D03*
%TO.P,U2,7,NC*%
%TO.N,unconnected-(U2-NC-Pad7)*%
X213630000Y-95425000D03*
%TO.P,U2,8,RFIN*%
%TO.N,Net-(U2-RFIN)*%
X212360000Y-95425000D03*
%TD*%
D14*
%TO.P,R3,1*%
%TO.N,GND*%
X217840000Y-100600000D03*
%TO.P,R3,2*%
%TO.N,/SHDN*%
X219490000Y-100600000D03*
%TD*%
D15*
%TO.P,L4,1,1*%
%TO.N,Net-(AE3-A)*%
X202412500Y-95412500D03*
%TO.P,L4,2,2*%
%TO.N,GND*%
X202412500Y-96987500D03*
%TD*%
%TO.P,L3,1,1*%
%TO.N,Net-(U2-RFIN)*%
X210400000Y-95412500D03*
%TO.P,L3,2,2*%
%TO.N,GND*%
X210400000Y-96987500D03*
%TD*%
D11*
%TO.P,J2,1,Pin_1*%
%TO.N,/SHDN*%
X210820000Y-103500000D03*
D12*
%TO.P,J2,2,Pin_2*%
%TO.N,/VDD*%
X213360000Y-103500000D03*
%TO.P,J2,3,Pin_3*%
%TO.N,/DOUT*%
X215900000Y-103500000D03*
%TO.P,J2,4,Pin_4*%
X218440000Y-103500000D03*
%TO.P,J2,5,Pin_5*%
%TO.N,GND*%
X220980000Y-103500000D03*
%TD*%
D16*
%TO.P,C11,1*%
%TO.N,Net-(AE3-A)*%
X204000000Y-95425000D03*
%TO.P,C11,2*%
%TO.N,GND*%
X204000000Y-96975000D03*
%TD*%
D17*
%TO.P,C10,1*%
%TO.N,Net-(AE3-A)*%
X205650000Y-95400000D03*
%TO.P,C10,2*%
%TO.N,Net-(U2-RFIN)*%
X207200000Y-95400000D03*
%TD*%
D16*
%TO.P,C9,1*%
%TO.N,Net-(U2-RFIN)*%
X208800000Y-95425000D03*
%TO.P,C9,2*%
%TO.N,GND*%
X208800000Y-96975000D03*
%TD*%
D18*
%TO.P,C8,1*%
%TO.N,GND*%
X208400000Y-100950000D03*
%TO.P,C8,2*%
%TO.N,/VDD*%
X208400000Y-99050000D03*
%TD*%
D16*
%TO.P,C7,1*%
%TO.N,/VDD*%
X210400000Y-99425000D03*
%TO.P,C7,2*%
%TO.N,GND*%
X210400000Y-100975000D03*
%TD*%
%TO.P,C3,1*%
%TO.N,/PAOUT_CL*%
X254000000Y-94475000D03*
%TO.P,C3,2*%
%TO.N,GND*%
X254000000Y-96025000D03*
%TD*%
D10*
%TO.P,Y3,1,1*%
%TO.N,Net-(U1-XTLIN)*%
X239250000Y-101200000D03*
%TO.P,Y3,2,2*%
%TO.N,GND*%
X241450000Y-101200000D03*
%TO.P,Y3,3,3*%
%TO.N,Net-(U1-XTLOUT)*%
X241450000Y-99500000D03*
%TO.P,Y3,4,4*%
%TO.N,GND*%
X239250000Y-99500000D03*
%TD*%
D19*
%TO.P,C6,1*%
%TO.N,/VDD*%
X245275000Y-97250000D03*
%TO.P,C6,2*%
%TO.N,GND*%
X243725000Y-97250000D03*
%TD*%
D17*
%TO.P,C4,1*%
%TO.N,GND*%
X239475000Y-97750000D03*
%TO.P,C4,2*%
%TO.N,Net-(U1-XTLOUT)*%
X241025000Y-97750000D03*
%TD*%
D20*
%TO.P,AE1,1*%
%TO.N,/PAOUT_CL*%
X255041593Y-81250000D03*
D21*
X255751593Y-87100000D03*
D22*
X255751593Y-91750000D03*
D23*
%TO.P,AE1,2*%
%TO.N,GND*%
X225671593Y-87120000D03*
D24*
X226271593Y-81160000D03*
D25*
X240625000Y-80552050D03*
%TD*%
D26*
%TO.P,L2,1,1*%
%TO.N,/PAOUT_C*%
X255750000Y-96037500D03*
%TO.P,L2,2,2*%
%TO.N,/PAOUT_CL*%
X255750000Y-94462500D03*
%TD*%
D11*
%TO.P,J1,1,Pin_1*%
%TO.N,/VDD*%
X226060000Y-103500000D03*
D12*
%TO.P,J1,2,Pin_2*%
%TO.N,/DIN*%
X228600000Y-103500000D03*
%TO.P,J1,3,Pin_3*%
%TO.N,GND*%
X231140000Y-103500000D03*
%TD*%
D27*
%TO.P,U1,1,PAOUT*%
%TO.N,/PAOUT*%
X247137500Y-100950000D03*
%TO.P,U1,2,VSS*%
%TO.N,GND*%
X247137500Y-100000000D03*
%TO.P,U1,3,VDD*%
%TO.N,/VDD*%
X247137500Y-99050000D03*
%TO.P,U1,4,XTLOUT*%
%TO.N,Net-(U1-XTLOUT)*%
X244862500Y-99050000D03*
%TO.P,U1,5,XTLIN*%
%TO.N,Net-(U1-XTLIN)*%
X244862500Y-100000000D03*
%TO.P,U1,6,ASK*%
%TO.N,/DIN*%
X244862500Y-100950000D03*
%TD*%
D16*
%TO.P,C5,1*%
%TO.N,GND*%
X237250000Y-99725000D03*
%TO.P,C5,2*%
%TO.N,Net-(U1-XTLIN)*%
X237250000Y-101275000D03*
%TD*%
D28*
%TO.P,R2,1*%
%TO.N,/VDD*%
X247462500Y-104500000D03*
%TO.P,R2,2*%
%TO.N,Net-(L1-Pad1)*%
X249037500Y-104500000D03*
%TD*%
D26*
%TO.P,L1,1,1*%
%TO.N,Net-(L1-Pad1)*%
X249212500Y-102787500D03*
%TO.P,L1,2,2*%
%TO.N,/PAOUT*%
X249212500Y-101212500D03*
%TD*%
D17*
%TO.P,C2,1*%
%TO.N,/PAOUT*%
X250975000Y-101250000D03*
%TO.P,C2,2*%
%TO.N,/PAOUT_C*%
X252525000Y-101250000D03*
%TD*%
D26*
%TO.P,R1,1*%
%TO.N,GND*%
X244750000Y-104287500D03*
%TO.P,R1,2*%
%TO.N,/DIN*%
X244750000Y-102712500D03*
%TD*%
D29*
%TO.P,C1,1*%
%TO.N,GND*%
X248950000Y-97250000D03*
%TO.P,C1,2*%
%TO.N,/VDD*%
X247050000Y-97250000D03*
%TD*%
D30*
%TO.N,GND*%
X202800000Y-98600000D03*
X202800000Y-99800000D03*
X202800000Y-101000000D03*
X204000000Y-101000000D03*
X204000000Y-99800000D03*
X204000000Y-98600000D03*
X205200000Y-101000000D03*
X205200000Y-99800000D03*
X205200000Y-98600000D03*
X203850000Y-103200000D03*
X204600000Y-103950000D03*
X203850000Y-101700000D03*
X204600000Y-101700000D03*
X203850000Y-102450000D03*
X204600000Y-103200000D03*
X204600000Y-102450000D03*
X203850000Y-103950000D03*
X202250000Y-103200000D03*
X203000000Y-103950000D03*
X202250000Y-101700000D03*
X203000000Y-101700000D03*
X202250000Y-102450000D03*
X203000000Y-103200000D03*
X203000000Y-102450000D03*
X202250000Y-103950000D03*
X233250000Y-100400000D03*
X234000000Y-101150000D03*
X233250000Y-98900000D03*
X234000000Y-98900000D03*
X233250000Y-99650000D03*
X234000000Y-100400000D03*
X234000000Y-99650000D03*
X233250000Y-101150000D03*
%TO.N,/SHDN*%
X216000000Y-98600000D03*
%TO.N,GND*%
X251000000Y-99000000D03*
X252230000Y-103650000D03*
X225800000Y-95300000D03*
X224250000Y-99250000D03*
X225100000Y-94600000D03*
X252980000Y-103650000D03*
X253730000Y-103650000D03*
X225800000Y-94600000D03*
X225100000Y-95300000D03*
X223050000Y-98500000D03*
X251750000Y-99000000D03*
X251750000Y-96750000D03*
X224250000Y-98500000D03*
X224250000Y-97000000D03*
X251000000Y-97500000D03*
X243010000Y-100040000D03*
X251750000Y-98250000D03*
X251750000Y-97500000D03*
X251000000Y-98250000D03*
X252230000Y-104400000D03*
X252980000Y-104400000D03*
X223050000Y-99250000D03*
X251000000Y-96750000D03*
X223049999Y-97000590D03*
X225660000Y-93120000D03*
%TO.N,/DIN*%
X243500000Y-102000000D03*
%TD*%
D31*
%TO.N,Net-(AE3-A)*%
X202412500Y-95412500D02*
X199962500Y-95412500D01*
X199962500Y-95412500D02*
X199825000Y-95550000D01*
X204000000Y-95425000D02*
X202425000Y-95425000D01*
X202425000Y-95425000D02*
X202412500Y-95412500D01*
X205650000Y-95400000D02*
X204025000Y-95400000D01*
X204025000Y-95400000D02*
X204000000Y-95425000D01*
%TO.N,Net-(U2-RFIN)*%
X208800000Y-95425000D02*
X207225000Y-95425000D01*
X207225000Y-95425000D02*
X207200000Y-95400000D01*
X210400000Y-95412500D02*
X208812500Y-95412500D01*
X208812500Y-95412500D02*
X208800000Y-95425000D01*
X212360000Y-95425000D02*
X210412500Y-95425000D01*
X210412500Y-95425000D02*
X210400000Y-95412500D01*
D32*
%TO.N,Net-(U2-XIN)*%
X216170000Y-95425000D02*
X216170000Y-94550001D01*
X216170000Y-94550001D02*
X216670001Y-94050000D01*
X216670001Y-94050000D02*
X219600000Y-94050000D01*
X219600000Y-94050000D02*
X220500000Y-94950000D01*
%TO.N,/SHDN*%
X219490000Y-100600000D02*
X217490000Y-98600000D01*
X217490000Y-98600000D02*
X216000000Y-98600000D01*
X216000000Y-98600000D02*
X216000000Y-99200000D01*
X216000000Y-99200000D02*
X216170000Y-99370000D01*
X216170000Y-99370000D02*
X216170000Y-100575000D01*
%TO.N,/VDD*%
X208400000Y-99050000D02*
X210025000Y-99050000D01*
X210025000Y-99050000D02*
X210400000Y-99425000D01*
X210400000Y-99425000D02*
X210425000Y-99400000D01*
X210425000Y-99400000D02*
X213329999Y-99400000D01*
X213329999Y-99400000D02*
X213630000Y-99700001D01*
X213630000Y-99700001D02*
X213630000Y-100575000D01*
X213360000Y-103500000D02*
X213360000Y-100845000D01*
X213360000Y-100845000D02*
X213630000Y-100575000D01*
%TO.N,/DOUT*%
X218440000Y-103500000D02*
X215900000Y-103500000D01*
X215900000Y-103500000D02*
X214900000Y-102500000D01*
X214900000Y-102500000D02*
X214900000Y-100575000D01*
%TO.N,GND*%
X241450000Y-101200000D02*
X241850000Y-101200000D01*
X241850000Y-101200000D02*
X243010000Y-100040000D01*
%TO.N,Net-(U1-XTLIN)*%
X242300000Y-102250000D02*
X240300000Y-102250000D01*
X244200001Y-100000000D02*
X242500000Y-101700001D01*
X239175000Y-101275000D02*
X239250000Y-101200000D01*
X242500000Y-101700001D02*
X242500000Y-102050000D01*
X242500000Y-102050000D02*
X242300000Y-102250000D01*
X237250000Y-101275000D02*
X239175000Y-101275000D01*
X240300000Y-102250000D02*
X239250000Y-101200000D01*
X244862500Y-100000000D02*
X244200001Y-100000000D01*
%TO.N,Net-(U1-XTLOUT)*%
X241450000Y-99500000D02*
X241450000Y-98175000D01*
X241450000Y-98175000D02*
X241025000Y-97750000D01*
X241900000Y-99050000D02*
X244862500Y-99050000D01*
X241450000Y-99500000D02*
X241900000Y-99050000D01*
%TO.N,/VDD*%
X246750000Y-104500000D02*
X247462500Y-104500000D01*
X227210000Y-102350000D02*
X226060000Y-103500000D01*
X235050000Y-103550000D02*
X245800000Y-103550000D01*
X247137500Y-99050000D02*
X247137500Y-97337500D01*
X233850000Y-102350000D02*
X227210000Y-102350000D01*
X247137500Y-97337500D02*
X247050000Y-97250000D01*
X245800000Y-103550000D02*
X246125000Y-103875000D01*
X233850000Y-102350000D02*
X235050000Y-103550000D01*
X246125000Y-99400001D02*
X246125000Y-103875000D01*
X246475001Y-99050000D02*
X246125000Y-99400001D01*
X245337500Y-97250000D02*
X245275000Y-97250000D01*
X247137500Y-99050000D02*
X245337500Y-97250000D01*
X247137500Y-99050000D02*
X246475001Y-99050000D01*
X246125000Y-103875000D02*
X246750000Y-104500000D01*
%TO.N,/DIN*%
X244750000Y-101062500D02*
X244862500Y-100950000D01*
X243500000Y-102000000D02*
X244037500Y-102000000D01*
X244037500Y-102000000D02*
X244750000Y-102712500D01*
X244750000Y-102712500D02*
X244750000Y-101062500D01*
%TO.N,Net-(L1-Pad1)*%
X249212500Y-104325000D02*
X249037500Y-104500000D01*
X249212500Y-102787500D02*
X249212500Y-104325000D01*
D33*
%TO.N,/PAOUT_CL*%
X254000000Y-94475000D02*
X255737500Y-94475000D01*
X255737500Y-94475000D02*
X255750000Y-94462500D01*
X255750000Y-94462500D02*
X255750000Y-91751593D01*
X255750000Y-91751593D02*
X255751593Y-91750000D01*
%TO.N,/PAOUT*%
X249250000Y-101250000D02*
X249212500Y-101212500D01*
X250975000Y-101250000D02*
X249250000Y-101250000D01*
X249212500Y-101212500D02*
X247155000Y-101212500D01*
X247155000Y-101212500D02*
X247137500Y-101195000D01*
%TO.N,/PAOUT_C*%
X255750000Y-98878680D02*
X255750000Y-96037500D01*
X254439340Y-100810660D02*
X255310660Y-99939340D01*
X252525000Y-101250000D02*
X253378680Y-101250000D01*
X253378680Y-101250000D02*
G75*
G03*
X254439350Y-100810670I20J1500000D01*
G01*
X255310660Y-99939340D02*
G75*
G03*
X255749985Y-98878680I-1060660J1060640D01*
G01*
%TD*%
%TA.AperFunction,Conductor*%
%TO.N,GND*%
G36*
X216191496Y-93820185D02*
G01*
X216237251Y-93872989D01*
X216247195Y-93942147D01*
X216218170Y-94005703D01*
X216212157Y-94012161D01*
X215972058Y-94252260D01*
X215938363Y-94285955D01*
X215902406Y-94307991D01*
X215903391Y-94309923D01*
X215781659Y-94371949D01*
X215781652Y-94371954D01*
X215691954Y-94461652D01*
X215691949Y-94461659D01*
X215645483Y-94552852D01*
X215597508Y-94603648D01*
X215529687Y-94620442D01*
X215463552Y-94597904D01*
X215424516Y-94552852D01*
X215378050Y-94461658D01*
X215378047Y-94461655D01*
X215378045Y-94461652D01*
X215288347Y-94371954D01*
X215288344Y-94371952D01*
X215288342Y-94371950D01*
X215196828Y-94325321D01*
X215175301Y-94314352D01*
X215081524Y-94299500D01*
X214718482Y-94299500D01*
X214642843Y-94311480D01*
X214624696Y-94314354D01*
X214511658Y-94371950D01*
X214511657Y-94371951D01*
X214511652Y-94371954D01*
X214421954Y-94461652D01*
X214421949Y-94461659D01*
X214375483Y-94552852D01*
X214327508Y-94603648D01*
X214259687Y-94620442D01*
X214193552Y-94597904D01*
X214154516Y-94552852D01*
X214108050Y-94461658D01*
X214108047Y-94461655D01*
X214108045Y-94461652D01*
X214018347Y-94371954D01*
X214018344Y-94371952D01*
X214018342Y-94371950D01*
X213926828Y-94325321D01*
X213905301Y-94314352D01*
X213811524Y-94299500D01*
X213448482Y-94299500D01*
X213372843Y-94311480D01*
X213354696Y-94314354D01*
X213241658Y-94371950D01*
X213241657Y-94371951D01*
X213241652Y-94371954D01*
X213151954Y-94461652D01*
X213151949Y-94461659D01*
X213105483Y-94552852D01*
X213057508Y-94603648D01*
X212989687Y-94620442D01*
X212923552Y-94597904D01*
X212884516Y-94552852D01*
X212838050Y-94461658D01*
X212838047Y-94461655D01*
X212838045Y-94461652D01*
X212748347Y-94371954D01*
X212748344Y-94371952D01*
X212748342Y-94371950D01*
X212656828Y-94325321D01*
X212635301Y-94314352D01*
X212541524Y-94299500D01*
X212178482Y-94299500D01*
X212102843Y-94311480D01*
X212084696Y-94314354D01*
X211971658Y-94371950D01*
X211971657Y-94371951D01*
X211971652Y-94371954D01*
X211881954Y-94461652D01*
X211881951Y-94461657D01*
X211881950Y-94461658D01*
X211876177Y-94472989D01*
X211824352Y-94574698D01*
X211809500Y-94668475D01*
X211809500Y-94800500D01*
X211789815Y-94867539D01*
X211737011Y-94913294D01*
X211685500Y-94924500D01*
X211102928Y-94924500D01*
X211035889Y-94904815D01*
X211003662Y-94874812D01*
X211003661Y-94874811D01*
X210991472Y-94858528D01*
X210883450Y-94777664D01*
X210883447Y-94777662D01*
X210757024Y-94730509D01*
X210701144Y-94724500D01*
X210701130Y-94724500D01*
X210098870Y-94724500D01*
X210098855Y-94724500D01*
X210042975Y-94730509D01*
X209916552Y-94777662D01*
X209916545Y-94777666D01*
X209808533Y-94858522D01*
X209808527Y-94858528D01*
X209805698Y-94862309D01*
X209749765Y-94904181D01*
X209706430Y-94912000D01*
X209490450Y-94912000D01*
X209423411Y-94892315D01*
X209391183Y-94862311D01*
X209389689Y-94860316D01*
X209389688Y-94860315D01*
X209389687Y-94860313D01*
X209293088Y-94788000D01*
X209280228Y-94778373D01*
X209280226Y-94778372D01*
X209152114Y-94730588D01*
X209152112Y-94730587D01*
X209152110Y-94730587D01*
X209095493Y-94724500D01*
X208504518Y-94724500D01*
X208504509Y-94724501D01*
X208447885Y-94730587D01*
X208319771Y-94778373D01*
X208319770Y-94778373D01*
X208210318Y-94860307D01*
X208210312Y-94860313D01*
X208199459Y-94874812D01*
X208143524Y-94916683D01*
X208100193Y-94924500D01*
X207912236Y-94924500D01*
X207845197Y-94904815D01*
X207812969Y-94874811D01*
X207764687Y-94810313D01*
X207698911Y-94761074D01*
X207655228Y-94728373D01*
X207655226Y-94728372D01*
X207527114Y-94680588D01*
X207527112Y-94680587D01*
X207527110Y-94680587D01*
X207470493Y-94674500D01*
X206929518Y-94674500D01*
X206929509Y-94674501D01*
X206872885Y-94680587D01*
X206744773Y-94728372D01*
X206635313Y-94810313D01*
X206553372Y-94919773D01*
X206541181Y-94952459D01*
X206499310Y-95008392D01*
X206433845Y-95032808D01*
X206365572Y-95017956D01*
X206316167Y-94968550D01*
X206308819Y-94952459D01*
X206296628Y-94919774D01*
X206214687Y-94810313D01*
X206148911Y-94761074D01*
X206105228Y-94728373D01*
X206105226Y-94728372D01*
X205977114Y-94680588D01*
X205977112Y-94680587D01*
X205977110Y-94680587D01*
X205920493Y-94674500D01*
X205379518Y-94674500D01*
X205379509Y-94674501D01*
X205322885Y-94680587D01*
X205194773Y-94728372D01*
X205085312Y-94810314D01*
X205085309Y-94810317D01*
X205055747Y-94849809D01*
X204999814Y-94891681D01*
X204956479Y-94899500D01*
X204680236Y-94899500D01*
X204613197Y-94879815D01*
X204592555Y-94863181D01*
X204589689Y-94860315D01*
X204589687Y-94860314D01*
X204589687Y-94860313D01*
X204522896Y-94810314D01*
X204480228Y-94778373D01*
X204480226Y-94778372D01*
X204352114Y-94730588D01*
X204352112Y-94730587D01*
X204352110Y-94730587D01*
X204295493Y-94724500D01*
X203704518Y-94724500D01*
X203704509Y-94724501D01*
X203647885Y-94730587D01*
X203519771Y-94778373D01*
X203519770Y-94778373D01*
X203410318Y-94860307D01*
X203410312Y-94860313D01*
X203399459Y-94874812D01*
X203343524Y-94916683D01*
X203300193Y-94924500D01*
X203115428Y-94924500D01*
X203048389Y-94904815D01*
X203016162Y-94874812D01*
X203016161Y-94874811D01*
X203003972Y-94858528D01*
X202895950Y-94777664D01*
X202895947Y-94777662D01*
X202769524Y-94730509D01*
X202713644Y-94724500D01*
X202713630Y-94724500D01*
X202111370Y-94724500D01*
X202111355Y-94724500D01*
X202055475Y-94730509D01*
X201929052Y-94777662D01*
X201929045Y-94777666D01*
X201821033Y-94858522D01*
X201821027Y-94858528D01*
X201818198Y-94862309D01*
X201762265Y-94904181D01*
X201718930Y-94912000D01*
X201049500Y-94912000D01*
X200982461Y-94892315D01*
X200936706Y-94839511D01*
X200925500Y-94788000D01*
X200925500Y-94675323D01*
X200925499Y-94675321D01*
X200910967Y-94602264D01*
X200910966Y-94602260D01*
X200892550Y-94574698D01*
X200855601Y-94519399D01*
X200787956Y-94474201D01*
X200772739Y-94464033D01*
X200772735Y-94464032D01*
X200699677Y-94449500D01*
X200699674Y-94449500D01*
X198950326Y-94449500D01*
X198950323Y-94449500D01*
X198877264Y-94464032D01*
X198877260Y-94464033D01*
X198794399Y-94519399D01*
X198739033Y-94602260D01*
X198739032Y-94602264D01*
X198724500Y-94675321D01*
X198724500Y-96424678D01*
X198739032Y-96497735D01*
X198739033Y-96497739D01*
X198739034Y-96497740D01*
X198794399Y-96580601D01*
X198856981Y-96622416D01*
X198877260Y-96635966D01*
X198877264Y-96635967D01*
X198950321Y-96650499D01*
X198950324Y-96650500D01*
X199158318Y-96650500D01*
X199225357Y-96670185D01*
X199271112Y-96722989D01*
X199281056Y-96792147D01*
X199252031Y-96855703D01*
X199210723Y-96886882D01*
X199147422Y-96916399D01*
X199147420Y-96916400D01*
X198953926Y-97051886D01*
X198953920Y-97051891D01*
X198786891Y-97218920D01*
X198786886Y-97218926D01*
X198651400Y-97412420D01*
X198651399Y-97412422D01*
X198551570Y-97626507D01*
X198551567Y-97626513D01*
X198494364Y-97839999D01*
X198494364Y-97840000D01*
X199391988Y-97840000D01*
X199359075Y-97897007D01*
X199325000Y-98024174D01*
X199325000Y-98155826D01*
X199359075Y-98282993D01*
X199391988Y-98340000D01*
X198494364Y-98340000D01*
X198551567Y-98553486D01*
X198551570Y-98553492D01*
X198651399Y-98767578D01*
X198786894Y-98961082D01*
X198953917Y-99128105D01*
X199147421Y-99263600D01*
X199361507Y-99363429D01*
X199361516Y-99363433D01*
X199575000Y-99420634D01*
X199575000Y-98523012D01*
X199632007Y-98555925D01*
X199759174Y-98590000D01*
X199890826Y-98590000D01*
X200017993Y-98555925D01*
X200075000Y-98523012D01*
X200075000Y-99420633D01*
X200288483Y-99363433D01*
X200288492Y-99363429D01*
X200502578Y-99263600D01*
X200696082Y-99128105D01*
X200863105Y-98961082D01*
X200998600Y-98767578D01*
X201098429Y-98553492D01*
X201098432Y-98553486D01*
X201155636Y-98340000D01*
X200258012Y-98340000D01*
X200290925Y-98282993D01*
X200325000Y-98155826D01*
X200325000Y-98024174D01*
X200290925Y-97897007D01*
X200258012Y-97840000D01*
X201155636Y-97840000D01*
X201155635Y-97839999D01*
X201098432Y-97626513D01*
X201098429Y-97626507D01*
X200998600Y-97412422D01*
X200998599Y-97412420D01*
X200876119Y-97237500D01*
X201437501Y-97237500D01*
X201437501Y-97254152D01*
X201447556Y-97352583D01*
X201500406Y-97512072D01*
X201500408Y-97512077D01*
X201588614Y-97655080D01*
X201707419Y-97773885D01*
X201850422Y-97862091D01*
X201850427Y-97862093D01*
X202009916Y-97914942D01*
X202108355Y-97924999D01*
X202662500Y-97924999D01*
X202716636Y-97924999D01*
X202716652Y-97924998D01*
X202815083Y-97914943D01*
X202974572Y-97862093D01*
X202974577Y-97862091D01*
X203117579Y-97773886D01*
X203120388Y-97771077D01*
X203122799Y-97769759D01*
X203123247Y-97769406D01*
X203123307Y-97769482D01*
X203181707Y-97737584D01*
X203251399Y-97742560D01*
X203291447Y-97768294D01*
X203291605Y-97768095D01*
X203293632Y-97769698D01*
X203295761Y-97771066D01*
X203297267Y-97772572D01*
X203297271Y-97772575D01*
X203441507Y-97861542D01*
X203441518Y-97861547D01*
X203602393Y-97914855D01*
X203701683Y-97924999D01*
X203749999Y-97924998D01*
X203750000Y-97924998D01*
X203750000Y-97225000D01*
X204250000Y-97225000D01*
X204250000Y-97924999D01*
X204298308Y-97924999D01*
X204298322Y-97924998D01*
X204397607Y-97914855D01*
X204558481Y-97861547D01*
X204558492Y-97861542D01*
X204702728Y-97772575D01*
X204702732Y-97772572D01*
X204822572Y-97652732D01*
X204822575Y-97652728D01*
X204911542Y-97508492D01*
X204911547Y-97508481D01*
X204964855Y-97347606D01*
X204974999Y-97248322D01*
X204975000Y-97248309D01*
X204975000Y-97225000D01*
X207825001Y-97225000D01*
X207825001Y-97248322D01*
X207835144Y-97347607D01*
X207888452Y-97508481D01*
X207888457Y-97508492D01*
X207977424Y-97652728D01*
X207977427Y-97652732D01*
X208097267Y-97772572D01*
X208097271Y-97772575D01*
X208241507Y-97861542D01*
X208241518Y-97861547D01*
X208402393Y-97914855D01*
X208501683Y-97924999D01*
X208549999Y-97924998D01*
X208550000Y-97924998D01*
X208550000Y-97225000D01*
X209050000Y-97225000D01*
X209050000Y-97924999D01*
X209098308Y-97924999D01*
X209098322Y-97924998D01*
X209197607Y-97914855D01*
X209358481Y-97861547D01*
X209358492Y-97861542D01*
X209502731Y-97772574D01*
X209510481Y-97764823D01*
X209571801Y-97731333D01*
X209641494Y-97736312D01*
X209685850Y-97764816D01*
X209694919Y-97773885D01*
X209837922Y-97862091D01*
X209837927Y-97862093D01*
X209997416Y-97914942D01*
X210095855Y-97924999D01*
X210149999Y-97924998D01*
X210150000Y-97924998D01*
X210150000Y-97237500D01*
X210650000Y-97237500D01*
X210650000Y-97924999D01*
X210704136Y-97924999D01*
X210704152Y-97924998D01*
X210802583Y-97914943D01*
X210962072Y-97862093D01*
X210962077Y-97862091D01*
X211105080Y-97773885D01*
X211223885Y-97655080D01*
X211312091Y-97512077D01*
X211312093Y-97512072D01*
X211364942Y-97352583D01*
X211374999Y-97254150D01*
X211375000Y-97254137D01*
X211375000Y-97237500D01*
X210650000Y-97237500D01*
X210150000Y-97237500D01*
X209445862Y-97237500D01*
X209403292Y-97225000D01*
X209050000Y-97225000D01*
X208550000Y-97225000D01*
X207825001Y-97225000D01*
X204975000Y-97225000D01*
X204250000Y-97225000D01*
X203750000Y-97225000D01*
X203410698Y-97225000D01*
X203392996Y-97234666D01*
X203366638Y-97237500D01*
X202662500Y-97237500D01*
X202662500Y-97924999D01*
X202108355Y-97924999D01*
X202162499Y-97924998D01*
X202162500Y-97924998D01*
X202162500Y-97237500D01*
X201437501Y-97237500D01*
X200876119Y-97237500D01*
X200863113Y-97218926D01*
X200863108Y-97218920D01*
X200696082Y-97051894D01*
X200502578Y-96916399D01*
X200467409Y-96900000D01*
X217100000Y-96900000D01*
X217100000Y-97297844D01*
X217106401Y-97357372D01*
X217106403Y-97357379D01*
X217156645Y-97492086D01*
X217156649Y-97492093D01*
X217242809Y-97607187D01*
X217242812Y-97607190D01*
X217357906Y-97693350D01*
X217357913Y-97693354D01*
X217492620Y-97743596D01*
X217492627Y-97743598D01*
X217552155Y-97749999D01*
X217552172Y-97750000D01*
X218050000Y-97750000D01*
X218050000Y-96900000D01*
X218550000Y-96900000D01*
X218550000Y-97750000D01*
X219047828Y-97750000D01*
X219047844Y-97749999D01*
X219107372Y-97743598D01*
X219107379Y-97743596D01*
X219242086Y-97693354D01*
X219242089Y-97693352D01*
X219325688Y-97630770D01*
X219391152Y-97606352D01*
X219459425Y-97621203D01*
X219474312Y-97630770D01*
X219557910Y-97693352D01*
X219557913Y-97693354D01*
X219692620Y-97743596D01*
X219692627Y-97743598D01*
X219752155Y-97749999D01*
X219752172Y-97750000D01*
X220250000Y-97750000D01*
X220250000Y-96900000D01*
X220750000Y-96900000D01*
X220750000Y-97750000D01*
X221247828Y-97750000D01*
X221247844Y-97749999D01*
X221307372Y-97743598D01*
X221307379Y-97743596D01*
X221442086Y-97693354D01*
X221442093Y-97693350D01*
X221557187Y-97607190D01*
X221557190Y-97607187D01*
X221643350Y-97492093D01*
X221643354Y-97492086D01*
X221693596Y-97357379D01*
X221693598Y-97357372D01*
X221699999Y-97297844D01*
X221700000Y-97297827D01*
X221700000Y-96900000D01*
X220750000Y-96900000D01*
X220250000Y-96900000D01*
X218550000Y-96900000D01*
X218050000Y-96900000D01*
X217100000Y-96900000D01*
X200467409Y-96900000D01*
X200439277Y-96886882D01*
X200386838Y-96840710D01*
X200367686Y-96773516D01*
X200387902Y-96706635D01*
X200441067Y-96661300D01*
X200491682Y-96650500D01*
X200699676Y-96650500D01*
X200699677Y-96650499D01*
X200772740Y-96635966D01*
X200855601Y-96580601D01*
X200910966Y-96497740D01*
X200925500Y-96424674D01*
X200925500Y-96037000D01*
X200945185Y-95969961D01*
X200997989Y-95924206D01*
X201049500Y-95913000D01*
X201718930Y-95913000D01*
X201785969Y-95932685D01*
X201818197Y-95962690D01*
X201821028Y-95966472D01*
X201821030Y-95966473D01*
X201823999Y-95970440D01*
X201848412Y-96035906D01*
X201833557Y-96104178D01*
X201789826Y-96150284D01*
X201707421Y-96201112D01*
X201588614Y-96319919D01*
X201500408Y-96462922D01*
X201500406Y-96462927D01*
X201447557Y-96622416D01*
X201437500Y-96720849D01*
X201437500Y-96737500D01*
X203001802Y-96737500D01*
X203019504Y-96727834D01*
X203045862Y-96725000D01*
X204974999Y-96725000D01*
X204974999Y-96701692D01*
X204974998Y-96701677D01*
X204964855Y-96602392D01*
X204911547Y-96441518D01*
X204911542Y-96441507D01*
X204822575Y-96297271D01*
X204822572Y-96297267D01*
X204702732Y-96177427D01*
X204702728Y-96177424D01*
X204644730Y-96141650D01*
X204598005Y-96089702D01*
X204586784Y-96020739D01*
X204610562Y-95961800D01*
X204619260Y-95950180D01*
X204675196Y-95908315D01*
X204718521Y-95900500D01*
X204956479Y-95900500D01*
X205023518Y-95920185D01*
X205055746Y-95950190D01*
X205085313Y-95989687D01*
X205194774Y-96071628D01*
X205322886Y-96119412D01*
X205379515Y-96125500D01*
X205920484Y-96125499D01*
X205977114Y-96119412D01*
X206105226Y-96071628D01*
X206214687Y-95989687D01*
X206296628Y-95880226D01*
X206308819Y-95847538D01*
X206350687Y-95791609D01*
X206416150Y-95767191D01*
X206484424Y-95782042D01*
X206533830Y-95831446D01*
X206541180Y-95847539D01*
X206553372Y-95880227D01*
X206574399Y-95908315D01*
X206635313Y-95989687D01*
X206744774Y-96071628D01*
X206872886Y-96119412D01*
X206929515Y-96125500D01*
X207470484Y-96125499D01*
X207527114Y-96119412D01*
X207655226Y-96071628D01*
X207655229Y-96071626D01*
X207764681Y-95989692D01*
X207764683Y-95989689D01*
X207764687Y-95989687D01*
X207775541Y-95975188D01*
X207831476Y-95933317D01*
X207874807Y-95925500D01*
X208068468Y-95925500D01*
X208135507Y-95945185D01*
X208181262Y-95997989D01*
X208191206Y-96067147D01*
X208162181Y-96130703D01*
X208133565Y-96155038D01*
X208097271Y-96177424D01*
X208097267Y-96177427D01*
X207977427Y-96297267D01*
X207977424Y-96297271D01*
X207888457Y-96441507D01*
X207888452Y-96441518D01*
X207835144Y-96602393D01*
X207825000Y-96701677D01*
X207825000Y-96725000D01*
X209754138Y-96725000D01*
X209796708Y-96737500D01*
X211374999Y-96737500D01*
X211374999Y-96720864D01*
X211374998Y-96720847D01*
X211364943Y-96622416D01*
X211312093Y-96462927D01*
X211312091Y-96462922D01*
X211223885Y-96319919D01*
X211105079Y-96201113D01*
X211105075Y-96201110D01*
X211030381Y-96155038D01*
X210983656Y-96103090D01*
X210972435Y-96034128D01*
X211000278Y-95970046D01*
X211058347Y-95931190D01*
X211095478Y-95925500D01*
X211685501Y-95925500D01*
X211752540Y-95945185D01*
X211798295Y-95997989D01*
X211809501Y-96049500D01*
X211809501Y-96181518D01*
X211824354Y-96275304D01*
X211881950Y-96388342D01*
X211881952Y-96388344D01*
X211881954Y-96388347D01*
X211971652Y-96478045D01*
X211971654Y-96478046D01*
X211971658Y-96478050D01*
X212084694Y-96535645D01*
X212084698Y-96535647D01*
X212178475Y-96550499D01*
X212178481Y-96550500D01*
X212541518Y-96550499D01*
X212635304Y-96535646D01*
X212748342Y-96478050D01*
X212838050Y-96388342D01*
X212884516Y-96297145D01*
X212932490Y-96246352D01*
X213000311Y-96229557D01*
X213066445Y-96252094D01*
X213105482Y-96297145D01*
X213151950Y-96388342D01*
X213151951Y-96388343D01*
X213151954Y-96388347D01*
X213241652Y-96478045D01*
X213241654Y-96478046D01*
X213241658Y-96478050D01*
X213354694Y-96535645D01*
X213354698Y-96535647D01*
X213448475Y-96550499D01*
X213448481Y-96550500D01*
X213811518Y-96550499D01*
X213905304Y-96535646D01*
X214018342Y-96478050D01*
X214108050Y-96388342D01*
X214154516Y-96297145D01*
X214202490Y-96246352D01*
X214270311Y-96229557D01*
X214336445Y-96252094D01*
X214375482Y-96297145D01*
X214421950Y-96388342D01*
X214421951Y-96388343D01*
X214421954Y-96388347D01*
X214511652Y-96478045D01*
X214511654Y-96478046D01*
X214511658Y-96478050D01*
X214624694Y-96535645D01*
X214624698Y-96535647D01*
X214718475Y-96550499D01*
X214718481Y-96550500D01*
X215081518Y-96550499D01*
X215175304Y-96535646D01*
X215288342Y-96478050D01*
X215378050Y-96388342D01*
X215424516Y-96297145D01*
X215472490Y-96246352D01*
X215540311Y-96229557D01*
X215606445Y-96252094D01*
X215645482Y-96297145D01*
X215691950Y-96388342D01*
X215691951Y-96388343D01*
X215691954Y-96388347D01*
X215781652Y-96478045D01*
X215781654Y-96478046D01*
X215781658Y-96478050D01*
X215894694Y-96535645D01*
X215894698Y-96535647D01*
X215988475Y-96550499D01*
X215988481Y-96550500D01*
X216351518Y-96550499D01*
X216445304Y-96535646D01*
X216558342Y-96478050D01*
X216648050Y-96388342D01*
X216705646Y-96275304D01*
X216705646Y-96275302D01*
X216705647Y-96275301D01*
X216720499Y-96181524D01*
X216720500Y-96181519D01*
X216720499Y-95200000D01*
X217100000Y-95200000D01*
X217100000Y-95597844D01*
X217106401Y-95657372D01*
X217106403Y-95657383D01*
X217143434Y-95756668D01*
X217148418Y-95826360D01*
X217143434Y-95843332D01*
X217106403Y-95942616D01*
X217106401Y-95942627D01*
X217100000Y-96002155D01*
X217100000Y-96400000D01*
X218050000Y-96400000D01*
X218050000Y-95200000D01*
X217100000Y-95200000D01*
X216720499Y-95200000D01*
X216720499Y-94668482D01*
X216720499Y-94668481D01*
X216720499Y-94668476D01*
X216706689Y-94581280D01*
X216715644Y-94511987D01*
X216741482Y-94474201D01*
X216778866Y-94436818D01*
X216840190Y-94403333D01*
X216866546Y-94400500D01*
X216976000Y-94400500D01*
X217043039Y-94420185D01*
X217088794Y-94472989D01*
X217100000Y-94524500D01*
X217100000Y-94700000D01*
X218426000Y-94700000D01*
X218493039Y-94719685D01*
X218538794Y-94772489D01*
X218550000Y-94824000D01*
X218550000Y-96400000D01*
X221700000Y-96400000D01*
X221700000Y-96002172D01*
X221699999Y-96002155D01*
X221693598Y-95942627D01*
X221693596Y-95942620D01*
X221643354Y-95807913D01*
X221643350Y-95807906D01*
X221557191Y-95692814D01*
X221557185Y-95692807D01*
X221500188Y-95650139D01*
X221458318Y-95594205D01*
X221450500Y-95550873D01*
X221450500Y-94325323D01*
X221450499Y-94325321D01*
X221435967Y-94252264D01*
X221435966Y-94252260D01*
X221380601Y-94169399D01*
X221297740Y-94114034D01*
X221297739Y-94114033D01*
X221297735Y-94114032D01*
X221224677Y-94099500D01*
X221224674Y-94099500D01*
X220196544Y-94099500D01*
X220129505Y-94079815D01*
X220108863Y-94063181D01*
X220057863Y-94012181D01*
X220024378Y-93950858D01*
X220029362Y-93881166D01*
X220071234Y-93825233D01*
X220136698Y-93800816D01*
X220145544Y-93800500D01*
X222725500Y-93800500D01*
X222792539Y-93820185D01*
X222838294Y-93872989D01*
X222849500Y-93924500D01*
X222849500Y-96084135D01*
X222870200Y-96181524D01*
X222884486Y-96248731D01*
X222952928Y-96402455D01*
X223051836Y-96538589D01*
X223058971Y-96545013D01*
X223095620Y-96604499D01*
X223100000Y-96637164D01*
X223100000Y-97000000D01*
X222000000Y-97000000D01*
X222000000Y-99000000D01*
X223100000Y-99000000D01*
X223100000Y-99612835D01*
X223080315Y-99679874D01*
X223058975Y-99704982D01*
X223051838Y-99711408D01*
X223051830Y-99711417D01*
X222952930Y-99847541D01*
X222952928Y-99847546D01*
X222884487Y-100001264D01*
X222884485Y-100001269D01*
X222849500Y-100165864D01*
X222849500Y-105175500D01*
X222829815Y-105242539D01*
X222777011Y-105288294D01*
X222725500Y-105299500D01*
X202324412Y-105299500D01*
X202257373Y-105279815D01*
X202236731Y-105263181D01*
X201348228Y-104374678D01*
X209719500Y-104374678D01*
X209734032Y-104447735D01*
X209734033Y-104447739D01*
X209734034Y-104447740D01*
X209789399Y-104530601D01*
X209872260Y-104585966D01*
X209872264Y-104585967D01*
X209945321Y-104600499D01*
X209945324Y-104600500D01*
X209945326Y-104600500D01*
X211694676Y-104600500D01*
X211694677Y-104600499D01*
X211767740Y-104585966D01*
X211850601Y-104530601D01*
X211905966Y-104447740D01*
X211920500Y-104374674D01*
X211920500Y-102625326D01*
X211920500Y-102625323D01*
X211920499Y-102625321D01*
X211905967Y-102552264D01*
X211905966Y-102552260D01*
X211878427Y-102511045D01*
X211850601Y-102469399D01*
X211767740Y-102414034D01*
X211767739Y-102414033D01*
X211767735Y-102414032D01*
X211694677Y-102399500D01*
X211694674Y-102399500D01*
X209945326Y-102399500D01*
X209945323Y-102399500D01*
X209872264Y-102414032D01*
X209872260Y-102414033D01*
X209789399Y-102469399D01*
X209734033Y-102552260D01*
X209734032Y-102552264D01*
X209719500Y-102625321D01*
X209719500Y-104374678D01*
X201348228Y-104374678D01*
X198173550Y-101200000D01*
X207175001Y-101200000D01*
X207175001Y-101249986D01*
X207185494Y-101352697D01*
X207240641Y-101519119D01*
X207240643Y-101519124D01*
X207332684Y-101668345D01*
X207456654Y-101792315D01*
X207605875Y-101884356D01*
X207605880Y-101884358D01*
X207772302Y-101939505D01*
X207772309Y-101939506D01*
X207875019Y-101949999D01*
X208149999Y-101949999D01*
X208150000Y-101949998D01*
X208150000Y-101200000D01*
X208650000Y-101200000D01*
X208650000Y-101949999D01*
X208924972Y-101949999D01*
X208924986Y-101949998D01*
X209027697Y-101939505D01*
X209194119Y-101884358D01*
X209194124Y-101884356D01*
X209343342Y-101792317D01*
X209442495Y-101693164D01*
X209503818Y-101659679D01*
X209573510Y-101664663D01*
X209617858Y-101693163D01*
X209697271Y-101772575D01*
X209841507Y-101861542D01*
X209841518Y-101861547D01*
X210002393Y-101914855D01*
X210101683Y-101924999D01*
X210149999Y-101924998D01*
X210150000Y-101924998D01*
X210150000Y-101225000D01*
X209458362Y-101225000D01*
X209391323Y-101205315D01*
X209384727Y-101200000D01*
X208650000Y-101200000D01*
X208150000Y-101200000D01*
X207175001Y-101200000D01*
X198173550Y-101200000D01*
X197836819Y-100863269D01*
X197803334Y-100801946D01*
X197800500Y-100775588D01*
X197800500Y-100700000D01*
X207175000Y-100700000D01*
X209591638Y-100700000D01*
X209658677Y-100719685D01*
X209665273Y-100725000D01*
X210526000Y-100725000D01*
X210593039Y-100744685D01*
X210638794Y-100797489D01*
X210650000Y-100849000D01*
X210650000Y-101924999D01*
X210698308Y-101924999D01*
X210698322Y-101924998D01*
X210797607Y-101914855D01*
X210958481Y-101861547D01*
X210958492Y-101861542D01*
X211102728Y-101772575D01*
X211102732Y-101772572D01*
X211222572Y-101652732D01*
X211222575Y-101652728D01*
X211311542Y-101508492D01*
X211311547Y-101508481D01*
X211336401Y-101433478D01*
X211376173Y-101376033D01*
X211440689Y-101349210D01*
X211509465Y-101361525D01*
X211560665Y-101409068D01*
X211573183Y-101437887D01*
X211608716Y-101560193D01*
X211608717Y-101560196D01*
X211692314Y-101701552D01*
X211692321Y-101701561D01*
X211808438Y-101817678D01*
X211808447Y-101817685D01*
X211949801Y-101901281D01*
X212107514Y-101947100D01*
X212107511Y-101947100D01*
X212109998Y-101947295D01*
X212110000Y-101947295D01*
X212110000Y-100449000D01*
X212129685Y-100381961D01*
X212182489Y-100336206D01*
X212234000Y-100325000D01*
X212486000Y-100325000D01*
X212553039Y-100344685D01*
X212598794Y-100397489D01*
X212610000Y-100449000D01*
X212610000Y-101947295D01*
X212610001Y-101947295D01*
X212612486Y-101947100D01*
X212770198Y-101901281D01*
X212822379Y-101870422D01*
X212890103Y-101853239D01*
X212956365Y-101875399D01*
X213000129Y-101929865D01*
X213009500Y-101977154D01*
X213009500Y-102370645D01*
X212989815Y-102437684D01*
X212937011Y-102483439D01*
X212930294Y-102486271D01*
X212867374Y-102510646D01*
X212867359Y-102510653D01*
X212693960Y-102618017D01*
X212693958Y-102618019D01*
X212543237Y-102755418D01*
X212420327Y-102918178D01*
X212329422Y-103100739D01*
X212329417Y-103100752D01*
X212273602Y-103296917D01*
X212254785Y-103499999D01*
X212254785Y-103500000D01*
X212273602Y-103703082D01*
X212329417Y-103899247D01*
X212329422Y-103899260D01*
X212420327Y-104081821D01*
X212543237Y-104244581D01*
X212693958Y-104381980D01*
X212693960Y-104381982D01*
X212793141Y-104443392D01*
X212867363Y-104489348D01*
X213057544Y-104563024D01*
X213258024Y-104600500D01*
X213258026Y-104600500D01*
X213461974Y-104600500D01*
X213461976Y-104600500D01*
X213662456Y-104563024D01*
X213852637Y-104489348D01*
X214026041Y-104381981D01*
X214176764Y-104244579D01*
X214299673Y-104081821D01*
X214390582Y-103899250D01*
X214446397Y-103703083D01*
X214465215Y-103500000D01*
X214459115Y-103434174D01*
X214446397Y-103296917D01*
X214433048Y-103250000D01*
X214390582Y-103100750D01*
X214390159Y-103099901D01*
X214314076Y-102947104D01*
X214299673Y-102918179D01*
X214176764Y-102755421D01*
X214176762Y-102755418D01*
X214026041Y-102618019D01*
X214026039Y-102618017D01*
X213852640Y-102510653D01*
X213852625Y-102510646D01*
X213789706Y-102486271D01*
X213734304Y-102443698D01*
X213710714Y-102377931D01*
X213710500Y-102370645D01*
X213710500Y-101822405D01*
X213730185Y-101755366D01*
X213782989Y-101709611D01*
X213815101Y-101699931D01*
X213905304Y-101685646D01*
X214018342Y-101628050D01*
X214108050Y-101538342D01*
X214154516Y-101447145D01*
X214202490Y-101396352D01*
X214270311Y-101379557D01*
X214336445Y-101402094D01*
X214375482Y-101447145D01*
X214421950Y-101538342D01*
X214511658Y-101628050D01*
X214511660Y-101628051D01*
X214513181Y-101629572D01*
X214546666Y-101690895D01*
X214549500Y-101717254D01*
X214549500Y-102546144D01*
X214568759Y-102618019D01*
X214570716Y-102625323D01*
X214573386Y-102635289D01*
X214619527Y-102715208D01*
X214619531Y-102715213D01*
X214851422Y-102947104D01*
X214884907Y-103008427D01*
X214879923Y-103078119D01*
X214874745Y-103090049D01*
X214869419Y-103100745D01*
X214869419Y-103100746D01*
X214813602Y-103296917D01*
X214794785Y-103499999D01*
X214794785Y-103500000D01*
X214813602Y-103703082D01*
X214869417Y-103899247D01*
X214869422Y-103899260D01*
X214960327Y-104081821D01*
X215083237Y-104244581D01*
X215233958Y-104381980D01*
X215233960Y-104381982D01*
X215333141Y-104443392D01*
X215407363Y-104489348D01*
X215597544Y-104563024D01*
X215798024Y-104600500D01*
X215798026Y-104600500D01*
X216001974Y-104600500D01*
X216001976Y-104600500D01*
X216202456Y-104563024D01*
X216392637Y-104489348D01*
X216566041Y-104381981D01*
X216716764Y-104244579D01*
X216839673Y-104081821D01*
X216897382Y-103965925D01*
X216920635Y-103919228D01*
X216968138Y-103867991D01*
X217031635Y-103850500D01*
X217308365Y-103850500D01*
X217375404Y-103870185D01*
X217419365Y-103919228D01*
X217500327Y-104081821D01*
X217623237Y-104244581D01*
X217773958Y-104381980D01*
X217773960Y-104381982D01*
X217873141Y-104443392D01*
X217947363Y-104489348D01*
X218137544Y-104563024D01*
X218338024Y-104600500D01*
X218338026Y-104600500D01*
X218541974Y-104600500D01*
X218541976Y-104600500D01*
X218742456Y-104563024D01*
X218932637Y-104489348D01*
X219106041Y-104381981D01*
X219256764Y-104244579D01*
X219379673Y-104081821D01*
X219455276Y-103929989D01*
X219466817Y-103906812D01*
X219514319Y-103855575D01*
X219581982Y-103838153D01*
X219648323Y-103860078D01*
X219692278Y-103914389D01*
X219697592Y-103929989D01*
X219706567Y-103963485D01*
X219706570Y-103963492D01*
X219806399Y-104177578D01*
X219941894Y-104371082D01*
X220108917Y-104538105D01*
X220302421Y-104673600D01*
X220516507Y-104773429D01*
X220516516Y-104773433D01*
X220730000Y-104830634D01*
X220730000Y-103933012D01*
X220787007Y-103965925D01*
X220914174Y-104000000D01*
X221045826Y-104000000D01*
X221172993Y-103965925D01*
X221230000Y-103933012D01*
X221230000Y-104830633D01*
X221443483Y-104773433D01*
X221443492Y-104773429D01*
X221657578Y-104673600D01*
X221851082Y-104538105D01*
X222018105Y-104371082D01*
X222153600Y-104177578D01*
X222253429Y-103963492D01*
X222253432Y-103963486D01*
X222310636Y-103750000D01*
X221413012Y-103750000D01*
X221445925Y-103692993D01*
X221480000Y-103565826D01*
X221480000Y-103434174D01*
X221445925Y-103307007D01*
X221413012Y-103250000D01*
X222310636Y-103250000D01*
X222310635Y-103249999D01*
X222253432Y-103036513D01*
X222253429Y-103036507D01*
X222153600Y-102822422D01*
X222153599Y-102822420D01*
X222018113Y-102628926D01*
X222018108Y-102628920D01*
X221851082Y-102461894D01*
X221657578Y-102326399D01*
X221443492Y-102226570D01*
X221443486Y-102226567D01*
X221230000Y-102169364D01*
X221230000Y-103066988D01*
X221172993Y-103034075D01*
X221045826Y-103000000D01*
X220914174Y-103000000D01*
X220787007Y-103034075D01*
X220730000Y-103066988D01*
X220730000Y-102169364D01*
X220729999Y-102169364D01*
X220516513Y-102226567D01*
X220516507Y-102226570D01*
X220302422Y-102326399D01*
X220302420Y-102326400D01*
X220108926Y-102461886D01*
X220108920Y-102461891D01*
X219941891Y-102628920D01*
X219941886Y-102628926D01*
X219806400Y-102822420D01*
X219806399Y-102822422D01*
X219706570Y-103036507D01*
X219706568Y-103036511D01*
X219697592Y-103070011D01*
X219661226Y-103129671D01*
X219598379Y-103160199D01*
X219529003Y-103151904D01*
X219475126Y-103107418D01*
X219466817Y-103093188D01*
X219420415Y-103000000D01*
X219379673Y-102918179D01*
X219256764Y-102755421D01*
X219256762Y-102755418D01*
X219106041Y-102618019D01*
X219106039Y-102618017D01*
X218932642Y-102510655D01*
X218932639Y-102510653D01*
X218932637Y-102510652D01*
X218932636Y-102510651D01*
X218932635Y-102510651D01*
X218806769Y-102461891D01*
X218742456Y-102436976D01*
X218541976Y-102399500D01*
X218338024Y-102399500D01*
X218137544Y-102436976D01*
X218137541Y-102436976D01*
X218137541Y-102436977D01*
X217947364Y-102510651D01*
X217947357Y-102510655D01*
X217773960Y-102618017D01*
X217773958Y-102618019D01*
X217623237Y-102755418D01*
X217500327Y-102918178D01*
X217419365Y-103080772D01*
X217371862Y-103132009D01*
X217308365Y-103149500D01*
X217031635Y-103149500D01*
X216964596Y-103129815D01*
X216920635Y-103080772D01*
X216854076Y-102947104D01*
X216839673Y-102918179D01*
X216716764Y-102755421D01*
X216716762Y-102755418D01*
X216566041Y-102618019D01*
X216566039Y-102618017D01*
X216392642Y-102510655D01*
X216392639Y-102510653D01*
X216392637Y-102510652D01*
X216392636Y-102510651D01*
X216392635Y-102510651D01*
X216266769Y-102461891D01*
X216202456Y-102436976D01*
X216001976Y-102399500D01*
X215798024Y-102399500D01*
X215597544Y-102436976D01*
X215597541Y-102436976D01*
X215597541Y-102436977D01*
X215481963Y-102481752D01*
X215412339Y-102487614D01*
X215350599Y-102454904D01*
X215349488Y-102453806D01*
X215286819Y-102391137D01*
X215253334Y-102329814D01*
X215250500Y-102303456D01*
X215250500Y-101717254D01*
X215270185Y-101650215D01*
X215286819Y-101629572D01*
X215288339Y-101628051D01*
X215288342Y-101628050D01*
X215378050Y-101538342D01*
X215424516Y-101447145D01*
X215472490Y-101396352D01*
X215540311Y-101379557D01*
X215606445Y-101402094D01*
X215645482Y-101447145D01*
X215682158Y-101519124D01*
X215691951Y-101538343D01*
X215691954Y-101538347D01*
X215781652Y-101628045D01*
X215781654Y-101628046D01*
X215781658Y-101628050D01*
X215894694Y-101685645D01*
X215894698Y-101685647D01*
X215982116Y-101699491D01*
X215984888Y-101699931D01*
X215988475Y-101700499D01*
X215988481Y-101700500D01*
X216351518Y-101700499D01*
X216445304Y-101685646D01*
X216558342Y-101628050D01*
X216648050Y-101538342D01*
X216705646Y-101425304D01*
X216705646Y-101425302D01*
X216705647Y-101425301D01*
X216720499Y-101331524D01*
X216720500Y-101331519D01*
X216720499Y-101091868D01*
X216740183Y-101024831D01*
X216792987Y-100979076D01*
X216862146Y-100969132D01*
X216925701Y-100998157D01*
X216962884Y-101054979D01*
X216996981Y-101164396D01*
X217084927Y-101309877D01*
X217205122Y-101430072D01*
X217350604Y-101518019D01*
X217350603Y-101518019D01*
X217512894Y-101568590D01*
X217512893Y-101568590D01*
X217583408Y-101574998D01*
X217583426Y-101574999D01*
X217589999Y-101574998D01*
X217590000Y-101574998D01*
X217590000Y-100474000D01*
X217609685Y-100406961D01*
X217662489Y-100361206D01*
X217714000Y-100350000D01*
X217966000Y-100350000D01*
X218033039Y-100369685D01*
X218078794Y-100422489D01*
X218090000Y-100474000D01*
X218090000Y-101574999D01*
X218096581Y-101574999D01*
X218167102Y-101568591D01*
X218167107Y-101568590D01*
X218329396Y-101518018D01*
X218474877Y-101430072D01*
X218595072Y-101309877D01*
X218683018Y-101164396D01*
X218687585Y-101149742D01*
X218726321Y-101091593D01*
X218790345Y-101063618D01*
X218859331Y-101074697D01*
X218905741Y-101112995D01*
X218967850Y-101197150D01*
X219077118Y-101277793D01*
X219119845Y-101292744D01*
X219205299Y-101322646D01*
X219235730Y-101325500D01*
X219235734Y-101325500D01*
X219744270Y-101325500D01*
X219774699Y-101322646D01*
X219774701Y-101322646D01*
X219838790Y-101300219D01*
X219902882Y-101277793D01*
X220012150Y-101197150D01*
X220092793Y-101087882D01*
X220130866Y-100979076D01*
X220137646Y-100959701D01*
X220137646Y-100959699D01*
X220140500Y-100929269D01*
X220140500Y-100270730D01*
X220137646Y-100240300D01*
X220137646Y-100240298D01*
X220101656Y-100137448D01*
X220092793Y-100112118D01*
X220012150Y-100002850D01*
X219902882Y-99922207D01*
X219902880Y-99922206D01*
X219774700Y-99877353D01*
X219744270Y-99874500D01*
X219744266Y-99874500D01*
X219311544Y-99874500D01*
X219244505Y-99854815D01*
X219223863Y-99838181D01*
X217705213Y-98319531D01*
X217705208Y-98319527D01*
X217625291Y-98273387D01*
X217625287Y-98273385D01*
X217619926Y-98271949D01*
X217619926Y-98271948D01*
X217551476Y-98253608D01*
X217536144Y-98249500D01*
X217536143Y-98249500D01*
X216486092Y-98249500D01*
X216419053Y-98229815D01*
X216399587Y-98211913D01*
X216398372Y-98213129D01*
X216392627Y-98207384D01*
X216392621Y-98207379D01*
X216277625Y-98119139D01*
X216277624Y-98119138D01*
X216277622Y-98119137D01*
X216143712Y-98063671D01*
X216143710Y-98063670D01*
X216143709Y-98063670D01*
X216071854Y-98054210D01*
X216000001Y-98044750D01*
X215999999Y-98044750D01*
X215856291Y-98063670D01*
X215856287Y-98063671D01*
X215722377Y-98119137D01*
X215607379Y-98207379D01*
X215519137Y-98322377D01*
X215463671Y-98456287D01*
X215463670Y-98456291D01*
X215446067Y-98590000D01*
X215444750Y-98600000D01*
X215461942Y-98730587D01*
X215463670Y-98743708D01*
X215463671Y-98743712D01*
X215519138Y-98877623D01*
X215519139Y-98877625D01*
X215607380Y-98992623D01*
X215613126Y-98998369D01*
X215610574Y-99000920D01*
X215642091Y-99043873D01*
X215649500Y-99086092D01*
X215649500Y-99246145D01*
X215661173Y-99289711D01*
X215673384Y-99335283D01*
X215673387Y-99335290D01*
X215719527Y-99415208D01*
X215724476Y-99421657D01*
X215722431Y-99423226D01*
X215749766Y-99473286D01*
X215744782Y-99542978D01*
X215716283Y-99587324D01*
X215691952Y-99611655D01*
X215691949Y-99611659D01*
X215645483Y-99702852D01*
X215597508Y-99753648D01*
X215529687Y-99770442D01*
X215463552Y-99747904D01*
X215424516Y-99702852D01*
X215378050Y-99611658D01*
X215378047Y-99611655D01*
X215378045Y-99611652D01*
X215288347Y-99521954D01*
X215288344Y-99521952D01*
X215288342Y-99521950D01*
X215208301Y-99481167D01*
X215175301Y-99464352D01*
X215081524Y-99449500D01*
X214718482Y-99449500D01*
X214642843Y-99461480D01*
X214624696Y-99464354D01*
X214511658Y-99521950D01*
X214511657Y-99521951D01*
X214511652Y-99521954D01*
X214421954Y-99611652D01*
X214421949Y-99611659D01*
X214375483Y-99702852D01*
X214327508Y-99753648D01*
X214259687Y-99770442D01*
X214193552Y-99747904D01*
X214154516Y-99702852D01*
X214108050Y-99611658D01*
X214108047Y-99611655D01*
X214108045Y-99611652D01*
X214018347Y-99521954D01*
X214018344Y-99521952D01*
X214018342Y-99521950D01*
X213905304Y-99464354D01*
X213905302Y-99464353D01*
X213896609Y-99459924D01*
X213897593Y-99457991D01*
X213861635Y-99435954D01*
X213545212Y-99119531D01*
X213545207Y-99119527D01*
X213465289Y-99073387D01*
X213465288Y-99073386D01*
X213465287Y-99073386D01*
X213376143Y-99049500D01*
X213376142Y-99049500D01*
X211187459Y-99049500D01*
X211120420Y-99029815D01*
X211074665Y-98977011D01*
X211071790Y-98970071D01*
X211071627Y-98969773D01*
X211065121Y-98961082D01*
X210989687Y-98860313D01*
X210923911Y-98811074D01*
X210880228Y-98778373D01*
X210880226Y-98778372D01*
X210752114Y-98730588D01*
X210752112Y-98730587D01*
X210752110Y-98730587D01*
X210695501Y-98724500D01*
X210695485Y-98724500D01*
X210180770Y-98724500D01*
X210148678Y-98720275D01*
X210071144Y-98699500D01*
X210071143Y-98699500D01*
X209457791Y-98699500D01*
X209390752Y-98679815D01*
X209344997Y-98627011D01*
X209341609Y-98618833D01*
X209318797Y-98557671D01*
X209318793Y-98557664D01*
X209232547Y-98442455D01*
X209232544Y-98442452D01*
X209117335Y-98356206D01*
X209117328Y-98356202D01*
X208982482Y-98305908D01*
X208982483Y-98305908D01*
X208922883Y-98299501D01*
X208922881Y-98299500D01*
X208922873Y-98299500D01*
X208922864Y-98299500D01*
X207877129Y-98299500D01*
X207877123Y-98299501D01*
X207817516Y-98305908D01*
X207682671Y-98356202D01*
X207682664Y-98356206D01*
X207567455Y-98442452D01*
X207567452Y-98442455D01*
X207481206Y-98557664D01*
X207481202Y-98557671D01*
X207430910Y-98692513D01*
X207430909Y-98692517D01*
X207424500Y-98752127D01*
X207424500Y-98752134D01*
X207424500Y-98752135D01*
X207424500Y-99347870D01*
X207424501Y-99347876D01*
X207430908Y-99407483D01*
X207481202Y-99542328D01*
X207481206Y-99542335D01*
X207567452Y-99657544D01*
X207567455Y-99657547D01*
X207682664Y-99743793D01*
X207682673Y-99743798D01*
X207702468Y-99751181D01*
X207758402Y-99793051D01*
X207782820Y-99858515D01*
X207767969Y-99926788D01*
X207718565Y-99976194D01*
X207698141Y-99985069D01*
X207605878Y-100015642D01*
X207605875Y-100015643D01*
X207456654Y-100107684D01*
X207332684Y-100231654D01*
X207240643Y-100380875D01*
X207240641Y-100380880D01*
X207185494Y-100547302D01*
X207185493Y-100547309D01*
X207175000Y-100650013D01*
X207175000Y-100700000D01*
X197800500Y-100700000D01*
X197800500Y-93924500D01*
X197820185Y-93857461D01*
X197872989Y-93811706D01*
X197924500Y-93800500D01*
X216124457Y-93800500D01*
X216191496Y-93820185D01*
G37*
%TD.AperFunction*%
%TD*%
%TA.AperFunction,Conductor*%
%TO.N,GND*%
G36*
X227194632Y-94019685D02*
G01*
X227240387Y-94072489D01*
X227251593Y-94124000D01*
X227251593Y-96100000D01*
X243143553Y-96100000D01*
X243210592Y-96119685D01*
X243256347Y-96172489D01*
X243266291Y-96241647D01*
X243237266Y-96305203D01*
X243195955Y-96336383D01*
X243191514Y-96338453D01*
X243047271Y-96427424D01*
X243047267Y-96427427D01*
X242927427Y-96547267D01*
X242927424Y-96547271D01*
X242838457Y-96691507D01*
X242838452Y-96691518D01*
X242785144Y-96852393D01*
X242775000Y-96951677D01*
X242775000Y-97000000D01*
X243851000Y-97000000D01*
X243918039Y-97019685D01*
X243963794Y-97072489D01*
X243975000Y-97124000D01*
X243975000Y-98224999D01*
X243998308Y-98224999D01*
X243998322Y-98224998D01*
X244097607Y-98214855D01*
X244258481Y-98161547D01*
X244258492Y-98161542D01*
X244402728Y-98072575D01*
X244402732Y-98072572D01*
X244522573Y-97952731D01*
X244558348Y-97894731D01*
X244610296Y-97848006D01*
X244679258Y-97836783D01*
X244738194Y-97860558D01*
X244819774Y-97921628D01*
X244947886Y-97969412D01*
X245004515Y-97975500D01*
X245515956Y-97975499D01*
X245582995Y-97995183D01*
X245603637Y-98011818D01*
X246218571Y-98626753D01*
X246252056Y-98688076D01*
X246247072Y-98757768D01*
X246241377Y-98770725D01*
X246234926Y-98783387D01*
X246232995Y-98782403D01*
X246210954Y-98818363D01*
X245987180Y-99042138D01*
X245925857Y-99075623D01*
X245856166Y-99070639D01*
X245800232Y-99028768D01*
X245775815Y-98963303D01*
X245775499Y-98954457D01*
X245775499Y-98868482D01*
X245760646Y-98774696D01*
X245703050Y-98661658D01*
X245703046Y-98661654D01*
X245703045Y-98661652D01*
X245613347Y-98571954D01*
X245613344Y-98571952D01*
X245613342Y-98571950D01*
X245536517Y-98532805D01*
X245500301Y-98514352D01*
X245406524Y-98499500D01*
X244318482Y-98499500D01*
X244237519Y-98512323D01*
X244224696Y-98514354D01*
X244111658Y-98571950D01*
X244111657Y-98571951D01*
X244111652Y-98571954D01*
X244020426Y-98663181D01*
X243959103Y-98696666D01*
X243932745Y-98699500D01*
X242338434Y-98699500D01*
X242271395Y-98679815D01*
X242269574Y-98678623D01*
X242247740Y-98664034D01*
X242247739Y-98664033D01*
X242247738Y-98664033D01*
X242174676Y-98649500D01*
X242174674Y-98649500D01*
X241924500Y-98649500D01*
X241857461Y-98629815D01*
X241811706Y-98577011D01*
X241800500Y-98525500D01*
X241800500Y-98128858D01*
X241800500Y-98128856D01*
X241776614Y-98039712D01*
X241763842Y-98017590D01*
X241742110Y-97979950D01*
X241725499Y-97917952D01*
X241725499Y-97500000D01*
X242775001Y-97500000D01*
X242775001Y-97548322D01*
X242785144Y-97647607D01*
X242838452Y-97808481D01*
X242838457Y-97808492D01*
X242927424Y-97952728D01*
X242927427Y-97952732D01*
X243047267Y-98072572D01*
X243047271Y-98072575D01*
X243191507Y-98161542D01*
X243191518Y-98161547D01*
X243352393Y-98214855D01*
X243451683Y-98224999D01*
X243475000Y-98224998D01*
X243475000Y-97500000D01*
X242775001Y-97500000D01*
X241725499Y-97500000D01*
X241725499Y-97454518D01*
X241725498Y-97454509D01*
X241719412Y-97397885D01*
X241701588Y-97350101D01*
X241671628Y-97269774D01*
X241589687Y-97160313D01*
X241516155Y-97105268D01*
X241480228Y-97078373D01*
X241480226Y-97078372D01*
X241352114Y-97030588D01*
X241352112Y-97030587D01*
X241352110Y-97030587D01*
X241295493Y-97024500D01*
X240754518Y-97024500D01*
X240754509Y-97024501D01*
X240697885Y-97030587D01*
X240569771Y-97078373D01*
X240488195Y-97139439D01*
X240422730Y-97163855D01*
X240354458Y-97149002D01*
X240308347Y-97105268D01*
X240272571Y-97047266D01*
X240152732Y-96927427D01*
X240152728Y-96927424D01*
X240008492Y-96838457D01*
X240008481Y-96838452D01*
X239847606Y-96785144D01*
X239748322Y-96775000D01*
X239725000Y-96775000D01*
X239725000Y-98644000D01*
X239705315Y-98711039D01*
X239652511Y-98756794D01*
X239601000Y-98768000D01*
X239500000Y-98768000D01*
X239500000Y-99626000D01*
X239480315Y-99693039D01*
X239427511Y-99738794D01*
X239376000Y-99750000D01*
X238268000Y-99750000D01*
X238268000Y-99851000D01*
X238248315Y-99918039D01*
X238195511Y-99963794D01*
X238144000Y-99975000D01*
X236275001Y-99975000D01*
X236275001Y-99998322D01*
X236285144Y-100097607D01*
X236338452Y-100258481D01*
X236338457Y-100258492D01*
X236427424Y-100402728D01*
X236427427Y-100402732D01*
X236547266Y-100522571D01*
X236605268Y-100558347D01*
X236651992Y-100610295D01*
X236663215Y-100679258D01*
X236639439Y-100738195D01*
X236578374Y-100819769D01*
X236578372Y-100819773D01*
X236578372Y-100819774D01*
X236569398Y-100843834D01*
X236530587Y-100947889D01*
X236524500Y-101004498D01*
X236524500Y-101545481D01*
X236524501Y-101545490D01*
X236530587Y-101602114D01*
X236575444Y-101722375D01*
X236578372Y-101730226D01*
X236660313Y-101839687D01*
X236769774Y-101921628D01*
X236897886Y-101969412D01*
X236954515Y-101975500D01*
X237545484Y-101975499D01*
X237602114Y-101969412D01*
X237730226Y-101921628D01*
X237839687Y-101839687D01*
X237921628Y-101730226D01*
X237930602Y-101706163D01*
X237972473Y-101650233D01*
X238037937Y-101625816D01*
X238046783Y-101625500D01*
X238175500Y-101625500D01*
X238242539Y-101645185D01*
X238288294Y-101697989D01*
X238299500Y-101749500D01*
X238299500Y-101824678D01*
X238314032Y-101897735D01*
X238314033Y-101897739D01*
X238329995Y-101921628D01*
X238369399Y-101980601D01*
X238433434Y-102023387D01*
X238452260Y-102035966D01*
X238452264Y-102035967D01*
X238525321Y-102050499D01*
X238525324Y-102050500D01*
X238525326Y-102050500D01*
X239553457Y-102050500D01*
X239620496Y-102070185D01*
X239641138Y-102086819D01*
X240019531Y-102465212D01*
X240084788Y-102530469D01*
X240084791Y-102530470D01*
X240084794Y-102530473D01*
X240164706Y-102576611D01*
X240164707Y-102576611D01*
X240164712Y-102576614D01*
X240253856Y-102600500D01*
X240253858Y-102600500D01*
X242346142Y-102600500D01*
X242346144Y-102600500D01*
X242435288Y-102576614D01*
X242442781Y-102572288D01*
X242515212Y-102530470D01*
X242780470Y-102265212D01*
X242790719Y-102247459D01*
X242841283Y-102199244D01*
X242909889Y-102186018D01*
X242974755Y-102211984D01*
X243012667Y-102262001D01*
X243014552Y-102266552D01*
X243019139Y-102277625D01*
X243107379Y-102392621D01*
X243222375Y-102480861D01*
X243356291Y-102536330D01*
X243483280Y-102553048D01*
X243499999Y-102555250D01*
X243500000Y-102555250D01*
X243500001Y-102555250D01*
X243514977Y-102553278D01*
X243643709Y-102536330D01*
X243777625Y-102480861D01*
X243825014Y-102444497D01*
X243890182Y-102419304D01*
X243958627Y-102433342D01*
X244008617Y-102482156D01*
X244024500Y-102542874D01*
X244024500Y-102976144D01*
X244030509Y-103032023D01*
X244030560Y-103032160D01*
X244030568Y-103032273D01*
X244032294Y-103039579D01*
X244031111Y-103039858D01*
X244035549Y-103101851D01*
X244002067Y-103163176D01*
X243940746Y-103196665D01*
X243914381Y-103199500D01*
X235246543Y-103199500D01*
X235179504Y-103179815D01*
X235158862Y-103163181D01*
X234621007Y-102625326D01*
X234065212Y-102069530D01*
X234065211Y-102069529D01*
X234065208Y-102069527D01*
X233985290Y-102023387D01*
X233985289Y-102023386D01*
X233985288Y-102023386D01*
X233896144Y-101999500D01*
X227163856Y-101999500D01*
X227163853Y-101999500D01*
X227139291Y-102006081D01*
X227139292Y-102006082D01*
X227074710Y-102023386D01*
X227074709Y-102023387D01*
X226994791Y-102069527D01*
X226994786Y-102069531D01*
X226701137Y-102363181D01*
X226639814Y-102396666D01*
X226613456Y-102399500D01*
X225185323Y-102399500D01*
X225112264Y-102414032D01*
X225112260Y-102414033D01*
X225029399Y-102469399D01*
X224974033Y-102552260D01*
X224974032Y-102552264D01*
X224959500Y-102625321D01*
X224959500Y-104374678D01*
X224974032Y-104447735D01*
X224974033Y-104447739D01*
X224974034Y-104447740D01*
X225029399Y-104530601D01*
X225112260Y-104585966D01*
X225112264Y-104585967D01*
X225185321Y-104600499D01*
X225185324Y-104600500D01*
X225185326Y-104600500D01*
X226934676Y-104600500D01*
X226934677Y-104600499D01*
X227007740Y-104585966D01*
X227090601Y-104530601D01*
X227145966Y-104447740D01*
X227160500Y-104374674D01*
X227160500Y-102946544D01*
X227180185Y-102879505D01*
X227196819Y-102858863D01*
X227318863Y-102736819D01*
X227380186Y-102703334D01*
X227406544Y-102700500D01*
X227575685Y-102700500D01*
X227642724Y-102720185D01*
X227688479Y-102772989D01*
X227698423Y-102842147D01*
X227674639Y-102899227D01*
X227660327Y-102918178D01*
X227569422Y-103100739D01*
X227569417Y-103100752D01*
X227513602Y-103296917D01*
X227494785Y-103499999D01*
X227494785Y-103500000D01*
X227513602Y-103703082D01*
X227569417Y-103899247D01*
X227569422Y-103899260D01*
X227660327Y-104081821D01*
X227783237Y-104244581D01*
X227933958Y-104381980D01*
X227933960Y-104381982D01*
X228033141Y-104443392D01*
X228107363Y-104489348D01*
X228297544Y-104563024D01*
X228498024Y-104600500D01*
X228498026Y-104600500D01*
X228701974Y-104600500D01*
X228701976Y-104600500D01*
X228902456Y-104563024D01*
X229092637Y-104489348D01*
X229266041Y-104381981D01*
X229416764Y-104244579D01*
X229539673Y-104081821D01*
X229625962Y-103908529D01*
X229626817Y-103906812D01*
X229674319Y-103855575D01*
X229741982Y-103838153D01*
X229808323Y-103860078D01*
X229852278Y-103914389D01*
X229857592Y-103929989D01*
X229866567Y-103963485D01*
X229866570Y-103963492D01*
X229966399Y-104177578D01*
X230101894Y-104371082D01*
X230268917Y-104538105D01*
X230462421Y-104673600D01*
X230676507Y-104773429D01*
X230676516Y-104773433D01*
X230890000Y-104830634D01*
X230890000Y-103933012D01*
X230947007Y-103965925D01*
X231074174Y-104000000D01*
X231205826Y-104000000D01*
X231332993Y-103965925D01*
X231390000Y-103933012D01*
X231390000Y-104830633D01*
X231603483Y-104773433D01*
X231603492Y-104773429D01*
X231817578Y-104673600D01*
X232011082Y-104538105D01*
X232178105Y-104371082D01*
X232313600Y-104177578D01*
X232413429Y-103963492D01*
X232413432Y-103963486D01*
X232470636Y-103750000D01*
X231573012Y-103750000D01*
X231605925Y-103692993D01*
X231640000Y-103565826D01*
X231640000Y-103434174D01*
X231605925Y-103307007D01*
X231573012Y-103250000D01*
X232470636Y-103250000D01*
X232470635Y-103249999D01*
X232413432Y-103036513D01*
X232413429Y-103036507D01*
X232339006Y-102876905D01*
X232328514Y-102807827D01*
X232357034Y-102744043D01*
X232415510Y-102705804D01*
X232451388Y-102700500D01*
X233653456Y-102700500D01*
X233720495Y-102720185D01*
X233741137Y-102736819D01*
X234265525Y-103261206D01*
X234769531Y-103765212D01*
X234834788Y-103830469D01*
X234834791Y-103830470D01*
X234834794Y-103830473D01*
X234914706Y-103876611D01*
X234914707Y-103876611D01*
X234914712Y-103876614D01*
X235003856Y-103900500D01*
X243651000Y-103900500D01*
X243718039Y-103920185D01*
X243763794Y-103972989D01*
X243775000Y-104024500D01*
X243775000Y-104037500D01*
X245740456Y-104037500D01*
X245807495Y-104057185D01*
X245828137Y-104073819D01*
X245844528Y-104090210D01*
X245844530Y-104090212D01*
X246534787Y-104780469D01*
X246534788Y-104780470D01*
X246534790Y-104780471D01*
X246570570Y-104801128D01*
X246570572Y-104801130D01*
X246570573Y-104801130D01*
X246589533Y-104812077D01*
X246614712Y-104826614D01*
X246703856Y-104850500D01*
X246703864Y-104850500D01*
X246707975Y-104851042D01*
X246711192Y-104852465D01*
X246711706Y-104852603D01*
X246711684Y-104852683D01*
X246771871Y-104879310D01*
X246807969Y-104930647D01*
X246827663Y-104983447D01*
X246827664Y-104983450D01*
X246908528Y-105091472D01*
X246908529Y-105091473D01*
X246913843Y-105098571D01*
X246911644Y-105100216D01*
X246938360Y-105149142D01*
X246933376Y-105218834D01*
X246891504Y-105274767D01*
X246826040Y-105299184D01*
X246817194Y-105299500D01*
X245526492Y-105299500D01*
X245459453Y-105279815D01*
X245413698Y-105227011D01*
X245403754Y-105157853D01*
X245432779Y-105094297D01*
X245449583Y-105078233D01*
X245455077Y-105073888D01*
X245573885Y-104955080D01*
X245662091Y-104812077D01*
X245662093Y-104812072D01*
X245714942Y-104652583D01*
X245724999Y-104554150D01*
X245725000Y-104554137D01*
X245725000Y-104537500D01*
X243775001Y-104537500D01*
X243775001Y-104554152D01*
X243785056Y-104652583D01*
X243837906Y-104812072D01*
X243837908Y-104812077D01*
X243926114Y-104955080D01*
X244044922Y-105073888D01*
X244050417Y-105078233D01*
X244090795Y-105135254D01*
X244093935Y-105205053D01*
X244058840Y-105265469D01*
X243996653Y-105297321D01*
X243973508Y-105299500D01*
X224724000Y-105299500D01*
X224656961Y-105279815D01*
X224611206Y-105227011D01*
X224600000Y-105175500D01*
X224600000Y-99475000D01*
X236275000Y-99475000D01*
X237000000Y-99475000D01*
X237500000Y-99475000D01*
X238007000Y-99475000D01*
X238007000Y-99374000D01*
X238026685Y-99306961D01*
X238079489Y-99261206D01*
X238131000Y-99250000D01*
X239000000Y-99250000D01*
X239000000Y-98481000D01*
X239019685Y-98413961D01*
X239072489Y-98368206D01*
X239124000Y-98357000D01*
X239225000Y-98357000D01*
X239225000Y-98000000D01*
X238525001Y-98000000D01*
X238525001Y-98048322D01*
X238535144Y-98147608D01*
X238566431Y-98242028D01*
X238568832Y-98311856D01*
X238533100Y-98371898D01*
X238470580Y-98403090D01*
X238461984Y-98404320D01*
X238442626Y-98406401D01*
X238442620Y-98406403D01*
X238307913Y-98456645D01*
X238307906Y-98456649D01*
X238192812Y-98542809D01*
X238192809Y-98542812D01*
X238106649Y-98657906D01*
X238106645Y-98657913D01*
X238056402Y-98792621D01*
X238054930Y-98798854D01*
X238020356Y-98859570D01*
X237958445Y-98891955D01*
X237888853Y-98885728D01*
X237869155Y-98875876D01*
X237808488Y-98838455D01*
X237808481Y-98838452D01*
X237647606Y-98785144D01*
X237548322Y-98775000D01*
X237500000Y-98775000D01*
X237500000Y-99475000D01*
X237000000Y-99475000D01*
X237000000Y-98775000D01*
X236999999Y-98774999D01*
X236951693Y-98775000D01*
X236951675Y-98775001D01*
X236852392Y-98785144D01*
X236691518Y-98838452D01*
X236691507Y-98838457D01*
X236547271Y-98927424D01*
X236547267Y-98927427D01*
X236427427Y-99047267D01*
X236427424Y-99047271D01*
X236338457Y-99191507D01*
X236338452Y-99191518D01*
X236285144Y-99352393D01*
X236275000Y-99451677D01*
X236275000Y-99475000D01*
X224600000Y-99475000D01*
X224600000Y-99000000D01*
X225500000Y-99000000D01*
X225500000Y-97500000D01*
X238525000Y-97500000D01*
X239225000Y-97500000D01*
X239225000Y-96774999D01*
X239201693Y-96775000D01*
X239201674Y-96775001D01*
X239102392Y-96785144D01*
X238941518Y-96838452D01*
X238941507Y-96838457D01*
X238797271Y-96927424D01*
X238797267Y-96927427D01*
X238677427Y-97047267D01*
X238677424Y-97047271D01*
X238588457Y-97191507D01*
X238588452Y-97191518D01*
X238535144Y-97352393D01*
X238525000Y-97451677D01*
X238525000Y-97500000D01*
X225500000Y-97500000D01*
X225500000Y-97000000D01*
X224600000Y-97000000D01*
X224600000Y-94124000D01*
X224619685Y-94056961D01*
X224672489Y-94011206D01*
X224724000Y-94000000D01*
X227127593Y-94000000D01*
X227194632Y-94019685D01*
G37*
%TD.AperFunction*%
%TA.AperFunction,Conductor*%
G36*
X257232539Y-94019685D02*
G01*
X257278294Y-94072489D01*
X257289500Y-94124000D01*
X257289500Y-100865798D01*
X257269815Y-100932837D01*
X257253279Y-100953382D01*
X252953154Y-105263084D01*
X252891868Y-105296637D01*
X252865375Y-105299500D01*
X249682806Y-105299500D01*
X249615767Y-105279815D01*
X249570012Y-105227011D01*
X249560068Y-105157853D01*
X249586890Y-105099120D01*
X249586157Y-105098571D01*
X249588680Y-105095199D01*
X249589093Y-105094297D01*
X249590436Y-105092853D01*
X249591467Y-105091475D01*
X249591472Y-105091472D01*
X249672336Y-104983450D01*
X249719491Y-104857022D01*
X249725053Y-104805287D01*
X249725499Y-104801144D01*
X249725500Y-104801128D01*
X249725500Y-104198870D01*
X249725499Y-104198855D01*
X249722428Y-104170295D01*
X249719491Y-104142978D01*
X249714820Y-104130455D01*
X249672337Y-104016552D01*
X249672335Y-104016549D01*
X249645934Y-103981281D01*
X249591472Y-103908528D01*
X249591470Y-103908527D01*
X249587733Y-103903534D01*
X249563316Y-103838069D01*
X249563000Y-103829223D01*
X249563000Y-103558018D01*
X249582685Y-103490979D01*
X249635489Y-103445224D01*
X249643668Y-103441836D01*
X249695945Y-103422338D01*
X249695945Y-103422337D01*
X249695950Y-103422336D01*
X249803972Y-103341472D01*
X249884836Y-103233450D01*
X249931991Y-103107022D01*
X249935646Y-103073023D01*
X249937999Y-103051144D01*
X249938000Y-103051129D01*
X249938000Y-102523870D01*
X249937999Y-102523855D01*
X249933376Y-102480861D01*
X249931991Y-102467978D01*
X249924859Y-102448855D01*
X249884837Y-102341552D01*
X249880586Y-102333767D01*
X249882410Y-102332770D01*
X249862111Y-102278339D01*
X249876967Y-102210067D01*
X249926375Y-102160664D01*
X249985796Y-102145500D01*
X251063201Y-102145500D01*
X251214711Y-102115362D01*
X251236208Y-102111086D01*
X251370410Y-102055498D01*
X251399171Y-102043585D01*
X251399171Y-102043584D01*
X251399178Y-102043582D01*
X251545848Y-101945580D01*
X251593693Y-101897735D01*
X251662319Y-101829110D01*
X251723642Y-101795625D01*
X251793334Y-101800609D01*
X251837681Y-101829110D01*
X251954148Y-101945577D01*
X251954152Y-101945580D01*
X252100815Y-102043578D01*
X252100828Y-102043585D01*
X252263787Y-102111084D01*
X252263792Y-102111086D01*
X252263796Y-102111086D01*
X252263797Y-102111087D01*
X252436798Y-102145500D01*
X252436801Y-102145500D01*
X253473110Y-102145500D01*
X253473396Y-102145485D01*
X253513196Y-102145486D01*
X253780561Y-102115365D01*
X254042873Y-102055497D01*
X254296831Y-101966637D01*
X254539244Y-101849900D01*
X254767062Y-101706756D01*
X254977421Y-101539004D01*
X255003110Y-101513314D01*
X255003124Y-101513303D01*
X255010186Y-101506241D01*
X255010188Y-101506240D01*
X255074563Y-101441864D01*
X255134915Y-101381515D01*
X255134918Y-101381510D01*
X255138526Y-101377903D01*
X255138539Y-101377889D01*
X255874444Y-100641983D01*
X255874452Y-100641977D01*
X255881513Y-100634916D01*
X255881515Y-100634915D01*
X255907551Y-100608877D01*
X255907592Y-100608855D01*
X255943889Y-100572557D01*
X255943890Y-100572558D01*
X256039016Y-100477431D01*
X256206769Y-100267071D01*
X256349914Y-100039252D01*
X256466652Y-99796838D01*
X256555513Y-99542877D01*
X256596727Y-99362298D01*
X256615378Y-99280580D01*
X256615378Y-99280574D01*
X256615381Y-99280564D01*
X256645502Y-99013197D01*
X256645500Y-98878668D01*
X256645500Y-98834788D01*
X256645500Y-95949301D01*
X256645500Y-95949298D01*
X256611087Y-95776297D01*
X256611086Y-95776296D01*
X256611086Y-95776292D01*
X256610551Y-95775000D01*
X256543585Y-95613328D01*
X256543578Y-95613315D01*
X256445580Y-95466652D01*
X256445577Y-95466648D01*
X256316610Y-95337681D01*
X256283125Y-95276358D01*
X256288109Y-95206666D01*
X256316610Y-95162319D01*
X256445577Y-95033351D01*
X256445580Y-95033348D01*
X256543582Y-94886678D01*
X256611087Y-94723708D01*
X256645500Y-94550699D01*
X256645500Y-94374301D01*
X256645500Y-94124000D01*
X256665185Y-94056961D01*
X256717989Y-94011206D01*
X256769500Y-94000000D01*
X257165500Y-94000000D01*
X257232539Y-94019685D01*
G37*
%TD.AperFunction*%
%TA.AperFunction,Conductor*%
G36*
X243999784Y-99420185D02*
G01*
X244020426Y-99436819D01*
X244020926Y-99437319D01*
X244054411Y-99498642D01*
X244049427Y-99568334D01*
X244026987Y-99603249D01*
X244027689Y-99603759D01*
X244021949Y-99611659D01*
X243959923Y-99733391D01*
X243957991Y-99732406D01*
X243935954Y-99768363D01*
X242861681Y-100842637D01*
X242800358Y-100876122D01*
X242730666Y-100871138D01*
X242674733Y-100829266D01*
X242650316Y-100763802D01*
X242650000Y-100754956D01*
X242650000Y-100552172D01*
X242649999Y-100552155D01*
X242643598Y-100492627D01*
X242643596Y-100492620D01*
X242593354Y-100357913D01*
X242593350Y-100357906D01*
X242507191Y-100242814D01*
X242507185Y-100242807D01*
X242450188Y-100200139D01*
X242408318Y-100144205D01*
X242400500Y-100100873D01*
X242400500Y-99524500D01*
X242420185Y-99457461D01*
X242472989Y-99411706D01*
X242524500Y-99400500D01*
X243932745Y-99400500D01*
X243999784Y-99420185D01*
G37*
%TD.AperFunction*%
%TA.AperFunction,Conductor*%
G36*
X254193039Y-95794685D02*
G01*
X254238794Y-95847489D01*
X254250000Y-95899000D01*
X254250000Y-96974999D01*
X254298308Y-96974999D01*
X254298322Y-96974998D01*
X254397607Y-96964855D01*
X254558481Y-96911547D01*
X254558488Y-96911544D01*
X254665402Y-96845598D01*
X254732795Y-96827157D01*
X254799458Y-96848079D01*
X254844228Y-96901721D01*
X254854500Y-96951136D01*
X254854500Y-98785359D01*
X254854499Y-98785385D01*
X254854499Y-98872601D01*
X254853902Y-98884754D01*
X254844082Y-98984471D01*
X254839340Y-99008311D01*
X254812033Y-99098337D01*
X254802730Y-99120797D01*
X254758382Y-99203767D01*
X254744878Y-99223978D01*
X254681408Y-99301317D01*
X254673235Y-99310334D01*
X253810454Y-100173117D01*
X253801438Y-100181290D01*
X253723970Y-100244866D01*
X253703757Y-100258371D01*
X253620789Y-100302717D01*
X253598330Y-100312019D01*
X253508309Y-100339325D01*
X253484469Y-100344067D01*
X253384602Y-100353902D01*
X253372449Y-100354499D01*
X253284380Y-100354499D01*
X253284360Y-100354500D01*
X252436799Y-100354500D01*
X252263797Y-100388912D01*
X252263787Y-100388915D01*
X252100828Y-100456414D01*
X252100815Y-100456421D01*
X251954152Y-100554419D01*
X251954148Y-100554422D01*
X251837681Y-100670890D01*
X251776358Y-100704375D01*
X251706666Y-100699391D01*
X251662319Y-100670890D01*
X251545851Y-100554422D01*
X251545847Y-100554419D01*
X251399184Y-100456421D01*
X251399171Y-100456414D01*
X251236212Y-100388915D01*
X251236202Y-100388912D01*
X251063201Y-100354500D01*
X251063199Y-100354500D01*
X249501436Y-100354500D01*
X249477244Y-100352117D01*
X249300701Y-100317000D01*
X249300699Y-100317000D01*
X248413469Y-100317000D01*
X248346430Y-100297315D01*
X248322414Y-100277172D01*
X248297296Y-100250000D01*
X247011500Y-100250000D01*
X246944461Y-100230315D01*
X246898706Y-100177511D01*
X246887500Y-100126000D01*
X246887500Y-99874000D01*
X246907185Y-99806961D01*
X246959989Y-99761206D01*
X247011500Y-99750000D01*
X248297295Y-99750000D01*
X248297295Y-99749998D01*
X248297100Y-99747513D01*
X248251281Y-99589801D01*
X248167685Y-99448447D01*
X248167678Y-99448438D01*
X248081538Y-99362298D01*
X248048053Y-99300975D01*
X248046746Y-99255219D01*
X248050500Y-99231519D01*
X248050499Y-98868482D01*
X248035646Y-98774696D01*
X247978050Y-98661658D01*
X247978046Y-98661654D01*
X247978045Y-98661652D01*
X247888347Y-98571954D01*
X247888344Y-98571952D01*
X247888342Y-98571950D01*
X247811517Y-98532805D01*
X247775301Y-98514352D01*
X247681524Y-98499500D01*
X247681519Y-98499500D01*
X247612000Y-98499500D01*
X247544961Y-98479815D01*
X247499206Y-98427011D01*
X247488000Y-98375500D01*
X247488000Y-98271537D01*
X247507685Y-98204498D01*
X247537689Y-98172270D01*
X247542328Y-98168797D01*
X247542331Y-98168796D01*
X247657546Y-98082546D01*
X247743796Y-97967331D01*
X247751180Y-97947532D01*
X247793050Y-97891598D01*
X247858514Y-97867179D01*
X247926787Y-97882029D01*
X247976194Y-97931433D01*
X247985069Y-97951859D01*
X248015641Y-98044119D01*
X248015643Y-98044124D01*
X248107684Y-98193345D01*
X248231654Y-98317315D01*
X248380875Y-98409356D01*
X248380880Y-98409358D01*
X248547302Y-98464505D01*
X248547309Y-98464506D01*
X248650019Y-98474999D01*
X248699999Y-98474998D01*
X248700000Y-98474998D01*
X248700000Y-97500000D01*
X249200000Y-97500000D01*
X249200000Y-98474999D01*
X249249972Y-98474999D01*
X249249986Y-98474998D01*
X249352697Y-98464505D01*
X249519119Y-98409358D01*
X249519124Y-98409356D01*
X249668345Y-98317315D01*
X249792315Y-98193345D01*
X249884356Y-98044124D01*
X249884358Y-98044119D01*
X249939505Y-97877697D01*
X249939506Y-97877690D01*
X249949999Y-97774986D01*
X249950000Y-97774973D01*
X249950000Y-97500000D01*
X249200000Y-97500000D01*
X248700000Y-97500000D01*
X248700000Y-97124000D01*
X248719685Y-97056961D01*
X248772489Y-97011206D01*
X248824000Y-97000000D01*
X249949999Y-97000000D01*
X249949999Y-96725028D01*
X249949998Y-96725013D01*
X249939505Y-96622302D01*
X249884358Y-96455880D01*
X249884356Y-96455875D01*
X249792315Y-96306653D01*
X249787839Y-96300993D01*
X249790400Y-96298967D01*
X249763857Y-96250358D01*
X249768841Y-96180666D01*
X249810713Y-96124733D01*
X249876177Y-96100316D01*
X249885023Y-96100000D01*
X252901001Y-96100000D01*
X252968040Y-96119685D01*
X253013795Y-96172489D01*
X253025001Y-96224000D01*
X253025001Y-96298322D01*
X253035144Y-96397607D01*
X253088452Y-96558481D01*
X253088457Y-96558492D01*
X253177424Y-96702728D01*
X253177427Y-96702732D01*
X253297267Y-96822572D01*
X253297271Y-96822575D01*
X253441507Y-96911542D01*
X253441518Y-96911547D01*
X253602393Y-96964855D01*
X253701683Y-96974999D01*
X253749999Y-96974998D01*
X253750000Y-96974998D01*
X253750000Y-95899000D01*
X253769685Y-95831961D01*
X253822489Y-95786206D01*
X253874000Y-95775000D01*
X254126000Y-95775000D01*
X254193039Y-95794685D01*
G37*
%TD.AperFunction*%
%TD*%
%TA.AperFunction,Conductor*%
%TO.N,GND*%
G36*
X225500000Y-99000000D02*
G01*
X222000000Y-99000000D01*
X222000000Y-97000000D01*
X225500000Y-97000000D01*
X225500000Y-99000000D01*
G37*
%TD.AperFunction*%
%TD*%
M02*
