%TF.GenerationSoftware,KiCad,Pcbnew,8.0.0-1.fc39*%
%TF.CreationDate,2024-05-13T23:25:18+02:00*%
%TF.ProjectId,radio433,72616469-6f34-4333-932e-6b696361645f,rev?*%
%TF.SameCoordinates,Original*%
%TF.FileFunction,Soldermask,Top*%
%TF.FilePolarity,Negative*%
%FSLAX46Y46*%
G04 Gerber Fmt 4.6, Leading zero omitted, Abs format (unit mm)*
G04 Created by KiCad (PCBNEW 8.0.0-1.fc39) date 2024-05-13 23:25:18*
%MOMM*%
%LPD*%
G01*
G04 APERTURE LIST*
G04 Aperture macros list*
%AMRoundRect*
0 Rectangle with rounded corners*
0 $1 Rounding radius*
0 $2 $3 $4 $5 $6 $7 $8 $9 X,Y pos of 4 corners*
0 Add a 4 corners polygon primitive as box body*
4,1,4,$2,$3,$4,$5,$6,$7,$8,$9,$2,$3,0*
0 Add four circle primitives for the rounded corners*
1,1,$1+$1,$2,$3*
1,1,$1+$1,$4,$5*
1,1,$1+$1,$6,$7*
1,1,$1+$1,$8,$9*
0 Add four rect primitives between the rounded corners*
20,1,$1+$1,$2,$3,$4,$5,0*
20,1,$1+$1,$4,$5,$6,$7,0*
20,1,$1+$1,$6,$7,$8,$9,0*
20,1,$1+$1,$8,$9,$2,$3,0*%
G04 Aperture macros list end*
%ADD10RoundRect,0.225000X-0.250000X0.225000X-0.250000X-0.225000X0.250000X-0.225000X0.250000X0.225000X0*%
%ADD11RoundRect,0.218750X-0.218750X-0.256250X0.218750X-0.256250X0.218750X0.256250X-0.218750X0.256250X0*%
%ADD12R,1.400000X1.200000*%
%ADD13RoundRect,0.225000X0.225000X0.250000X-0.225000X0.250000X-0.225000X-0.250000X0.225000X-0.250000X0*%
%ADD14RoundRect,0.225000X-0.225000X-0.250000X0.225000X-0.250000X0.225000X0.250000X-0.225000X0.250000X0*%
%ADD15R,1.600000X0.410000*%
%ADD16RoundRect,0.218750X0.256250X-0.218750X0.256250X0.218750X-0.256250X0.218750X-0.256250X-0.218750X0*%
%ADD17R,1.700000X1.700000*%
%ADD18O,1.700000X1.700000*%
%ADD19RoundRect,0.250000X-0.250000X-0.475000X0.250000X-0.475000X0.250000X0.475000X-0.250000X0.475000X0*%
%ADD20RoundRect,0.150000X0.512500X0.150000X-0.512500X0.150000X-0.512500X-0.150000X0.512500X-0.150000X0*%
%ADD21RoundRect,0.218750X-0.256250X0.218750X-0.256250X-0.218750X0.256250X-0.218750X0.256250X0.218750X0*%
%ADD22RoundRect,0.225000X0.250000X-0.225000X0.250000X0.225000X-0.250000X0.225000X-0.250000X-0.225000X0*%
%ADD23RoundRect,0.250000X0.250000X0.475000X-0.250000X0.475000X-0.250000X-0.475000X0.250000X-0.475000X0*%
G04 APERTURE END LIST*
D10*
%TO.C,C3*%
X254000000Y-94475000D03*
X254000000Y-96025000D03*
%TD*%
D11*
%TO.C,R3*%
X200705000Y-101510000D03*
X202280000Y-101510000D03*
%TD*%
D12*
%TO.C,Y3*%
X239250000Y-101200000D03*
X241450000Y-101200000D03*
X241450000Y-99500000D03*
X239250000Y-99500000D03*
%TD*%
D10*
%TO.C,C13*%
X202200000Y-98225000D03*
X202200000Y-99775000D03*
%TD*%
%TO.C,C12*%
X212700000Y-98125000D03*
X212700000Y-99675000D03*
%TD*%
D13*
%TO.C,C6*%
X245275000Y-97250000D03*
X243725000Y-97250000D03*
%TD*%
D14*
%TO.C,C14*%
X208825000Y-100500000D03*
X210375000Y-100500000D03*
%TD*%
%TO.C,C4*%
X239475000Y-97750000D03*
X241025000Y-97750000D03*
%TD*%
D15*
%TO.C,U2*%
X204345700Y-94627500D03*
X204345700Y-95262500D03*
X204345700Y-95897500D03*
X204345700Y-96532500D03*
X204345700Y-97167500D03*
X204345700Y-97802500D03*
X204345700Y-98437500D03*
X204345700Y-99072500D03*
X209654300Y-99072500D03*
X209654300Y-98437500D03*
X209654300Y-97802500D03*
X209654300Y-97167500D03*
X209654300Y-96532500D03*
X209654300Y-95897500D03*
X209654300Y-95262500D03*
X209654300Y-94627500D03*
%TD*%
D16*
%TO.C,L2*%
X255750000Y-96037500D03*
X255750000Y-94462500D03*
%TD*%
D17*
%TO.C,J2*%
X220980000Y-103500000D03*
D18*
X218440000Y-103500000D03*
X215900000Y-103500000D03*
X213360000Y-103500000D03*
X210820000Y-103500000D03*
X208280000Y-103500000D03*
X205740000Y-103500000D03*
%TD*%
D17*
%TO.C,J1*%
X226060000Y-103500000D03*
D18*
X228600000Y-103500000D03*
X231140000Y-103500000D03*
%TD*%
D19*
%TO.C,C9*%
X217750000Y-98300000D03*
X219650000Y-98300000D03*
%TD*%
D20*
%TO.C,U1*%
X247137500Y-100950000D03*
X247137500Y-100000000D03*
X247137500Y-99050000D03*
X244862500Y-99050000D03*
X244862500Y-100000000D03*
X244862500Y-100950000D03*
%TD*%
D21*
%TO.C,L3*%
X191750000Y-95912500D03*
X191750000Y-97487500D03*
%TD*%
D10*
%TO.C,C5*%
X237250000Y-99725000D03*
X237250000Y-101275000D03*
%TD*%
D13*
%TO.C,C8*%
X215975000Y-98300000D03*
X214425000Y-98300000D03*
%TD*%
D14*
%TO.C,C10*%
X197129300Y-95937500D03*
X198679300Y-95937500D03*
%TD*%
D11*
%TO.C,R2*%
X247462500Y-104500000D03*
X249037500Y-104500000D03*
%TD*%
D16*
%TO.C,L1*%
X249212500Y-102787500D03*
X249212500Y-101212500D03*
%TD*%
%TO.C,L4*%
X200904300Y-95975000D03*
X200904300Y-94400000D03*
%TD*%
D14*
%TO.C,C2*%
X250975000Y-101250000D03*
X252525000Y-101250000D03*
%TD*%
D12*
%TO.C,Y2*%
X213200000Y-96250000D03*
X215400000Y-96250000D03*
X215400000Y-94550000D03*
X213200000Y-94550000D03*
%TD*%
D22*
%TO.C,C7*%
X217525000Y-96175000D03*
X217525000Y-94625000D03*
%TD*%
D16*
%TO.C,R1*%
X244750000Y-104287500D03*
X244750000Y-102712500D03*
%TD*%
D23*
%TO.C,C1*%
X248950000Y-97250000D03*
X247050000Y-97250000D03*
%TD*%
D14*
%TO.C,C11*%
X193654300Y-95937500D03*
X195204300Y-95937500D03*
%TD*%
M02*
