%TF.GenerationSoftware,KiCad,Pcbnew,8.0.0-1.fc39*%
%TF.CreationDate,2024-05-13T23:25:18+02:00*%
%TF.ProjectId,radio433,72616469-6f34-4333-932e-6b696361645f,rev?*%
%TF.SameCoordinates,Original*%
%TF.FileFunction,Legend,Bot*%
%TF.FilePolarity,Positive*%
%FSLAX46Y46*%
G04 Gerber Fmt 4.6, Leading zero omitted, Abs format (unit mm)*
G04 Created by KiCad (PCBNEW 8.0.0-1.fc39) date 2024-05-13 23:25:18*
%MOMM*%
%LPD*%
G01*
G04 APERTURE LIST*
%ADD10C,0.100000*%
%ADD11C,0.080000*%
G04 APERTURE END LIST*
D10*
X226316115Y-100991466D02*
X225554211Y-100991466D01*
X225935163Y-101372419D02*
X225935163Y-100610514D01*
D11*
X209336892Y-101927840D02*
X209254035Y-101946887D01*
X209254035Y-101946887D02*
X209115940Y-101946887D01*
X209115940Y-101946887D02*
X209060702Y-101927840D01*
X209060702Y-101927840D02*
X209033083Y-101908792D01*
X209033083Y-101908792D02*
X209005464Y-101870697D01*
X209005464Y-101870697D02*
X209005464Y-101832601D01*
X209005464Y-101832601D02*
X209033083Y-101794506D01*
X209033083Y-101794506D02*
X209060702Y-101775459D01*
X209060702Y-101775459D02*
X209115940Y-101756411D01*
X209115940Y-101756411D02*
X209226416Y-101737363D01*
X209226416Y-101737363D02*
X209281654Y-101718316D01*
X209281654Y-101718316D02*
X209309273Y-101699268D01*
X209309273Y-101699268D02*
X209336892Y-101661173D01*
X209336892Y-101661173D02*
X209336892Y-101623078D01*
X209336892Y-101623078D02*
X209309273Y-101584982D01*
X209309273Y-101584982D02*
X209281654Y-101565935D01*
X209281654Y-101565935D02*
X209226416Y-101546887D01*
X209226416Y-101546887D02*
X209088321Y-101546887D01*
X209088321Y-101546887D02*
X209005464Y-101565935D01*
X208756892Y-101946887D02*
X208756892Y-101546887D01*
X208756892Y-101737363D02*
X208425464Y-101737363D01*
X208425464Y-101946887D02*
X208425464Y-101546887D01*
X208149273Y-101946887D02*
X208149273Y-101546887D01*
X208149273Y-101546887D02*
X208011178Y-101546887D01*
X208011178Y-101546887D02*
X207928321Y-101565935D01*
X207928321Y-101565935D02*
X207873083Y-101604030D01*
X207873083Y-101604030D02*
X207845464Y-101642125D01*
X207845464Y-101642125D02*
X207817845Y-101718316D01*
X207817845Y-101718316D02*
X207817845Y-101775459D01*
X207817845Y-101775459D02*
X207845464Y-101851649D01*
X207845464Y-101851649D02*
X207873083Y-101889744D01*
X207873083Y-101889744D02*
X207928321Y-101927840D01*
X207928321Y-101927840D02*
X208011178Y-101946887D01*
X208011178Y-101946887D02*
X208149273Y-101946887D01*
X207569273Y-101946887D02*
X207569273Y-101546887D01*
X207569273Y-101546887D02*
X207237845Y-101946887D01*
X207237845Y-101946887D02*
X207237845Y-101546887D01*
D10*
X228127580Y-101196115D02*
X229127580Y-101196115D01*
X229127580Y-101196115D02*
X229127580Y-100958020D01*
X229127580Y-100958020D02*
X229079961Y-100815163D01*
X229079961Y-100815163D02*
X228984723Y-100719925D01*
X228984723Y-100719925D02*
X228889485Y-100672306D01*
X228889485Y-100672306D02*
X228699009Y-100624687D01*
X228699009Y-100624687D02*
X228556152Y-100624687D01*
X228556152Y-100624687D02*
X228365676Y-100672306D01*
X228365676Y-100672306D02*
X228270438Y-100719925D01*
X228270438Y-100719925D02*
X228175200Y-100815163D01*
X228175200Y-100815163D02*
X228127580Y-100958020D01*
X228127580Y-100958020D02*
X228127580Y-101196115D01*
X228127580Y-100196115D02*
X229127580Y-100196115D01*
X228127580Y-99719925D02*
X229127580Y-99719925D01*
X229127580Y-99719925D02*
X228127580Y-99148497D01*
X228127580Y-99148497D02*
X229127580Y-99148497D01*
D11*
X205977845Y-101936887D02*
X206171178Y-101746411D01*
X206309273Y-101936887D02*
X206309273Y-101536887D01*
X206309273Y-101536887D02*
X206088321Y-101536887D01*
X206088321Y-101536887D02*
X206033083Y-101555935D01*
X206033083Y-101555935D02*
X206005464Y-101574982D01*
X206005464Y-101574982D02*
X205977845Y-101613078D01*
X205977845Y-101613078D02*
X205977845Y-101670220D01*
X205977845Y-101670220D02*
X206005464Y-101708316D01*
X206005464Y-101708316D02*
X206033083Y-101727363D01*
X206033083Y-101727363D02*
X206088321Y-101746411D01*
X206088321Y-101746411D02*
X206309273Y-101746411D01*
X205756892Y-101917840D02*
X205674035Y-101936887D01*
X205674035Y-101936887D02*
X205535940Y-101936887D01*
X205535940Y-101936887D02*
X205480702Y-101917840D01*
X205480702Y-101917840D02*
X205453083Y-101898792D01*
X205453083Y-101898792D02*
X205425464Y-101860697D01*
X205425464Y-101860697D02*
X205425464Y-101822601D01*
X205425464Y-101822601D02*
X205453083Y-101784506D01*
X205453083Y-101784506D02*
X205480702Y-101765459D01*
X205480702Y-101765459D02*
X205535940Y-101746411D01*
X205535940Y-101746411D02*
X205646416Y-101727363D01*
X205646416Y-101727363D02*
X205701654Y-101708316D01*
X205701654Y-101708316D02*
X205729273Y-101689268D01*
X205729273Y-101689268D02*
X205756892Y-101651173D01*
X205756892Y-101651173D02*
X205756892Y-101613078D01*
X205756892Y-101613078D02*
X205729273Y-101574982D01*
X205729273Y-101574982D02*
X205701654Y-101555935D01*
X205701654Y-101555935D02*
X205646416Y-101536887D01*
X205646416Y-101536887D02*
X205508321Y-101536887D01*
X205508321Y-101536887D02*
X205425464Y-101555935D01*
X205204511Y-101917840D02*
X205121654Y-101936887D01*
X205121654Y-101936887D02*
X204983559Y-101936887D01*
X204983559Y-101936887D02*
X204928321Y-101917840D01*
X204928321Y-101917840D02*
X204900702Y-101898792D01*
X204900702Y-101898792D02*
X204873083Y-101860697D01*
X204873083Y-101860697D02*
X204873083Y-101822601D01*
X204873083Y-101822601D02*
X204900702Y-101784506D01*
X204900702Y-101784506D02*
X204928321Y-101765459D01*
X204928321Y-101765459D02*
X204983559Y-101746411D01*
X204983559Y-101746411D02*
X205094035Y-101727363D01*
X205094035Y-101727363D02*
X205149273Y-101708316D01*
X205149273Y-101708316D02*
X205176892Y-101689268D01*
X205176892Y-101689268D02*
X205204511Y-101651173D01*
X205204511Y-101651173D02*
X205204511Y-101613078D01*
X205204511Y-101613078D02*
X205176892Y-101574982D01*
X205176892Y-101574982D02*
X205149273Y-101555935D01*
X205149273Y-101555935D02*
X205094035Y-101536887D01*
X205094035Y-101536887D02*
X204955940Y-101536887D01*
X204955940Y-101536887D02*
X204873083Y-101555935D01*
X204624511Y-101936887D02*
X204624511Y-101536887D01*
X213505464Y-101565935D02*
X213560702Y-101546887D01*
X213560702Y-101546887D02*
X213643559Y-101546887D01*
X213643559Y-101546887D02*
X213726416Y-101565935D01*
X213726416Y-101565935D02*
X213781654Y-101604030D01*
X213781654Y-101604030D02*
X213809273Y-101642125D01*
X213809273Y-101642125D02*
X213836892Y-101718316D01*
X213836892Y-101718316D02*
X213836892Y-101775459D01*
X213836892Y-101775459D02*
X213809273Y-101851649D01*
X213809273Y-101851649D02*
X213781654Y-101889744D01*
X213781654Y-101889744D02*
X213726416Y-101927840D01*
X213726416Y-101927840D02*
X213643559Y-101946887D01*
X213643559Y-101946887D02*
X213588321Y-101946887D01*
X213588321Y-101946887D02*
X213505464Y-101927840D01*
X213505464Y-101927840D02*
X213477845Y-101908792D01*
X213477845Y-101908792D02*
X213477845Y-101775459D01*
X213477845Y-101775459D02*
X213588321Y-101775459D01*
X213229273Y-101946887D02*
X213229273Y-101546887D01*
X213229273Y-101546887D02*
X212897845Y-101946887D01*
X212897845Y-101946887D02*
X212897845Y-101546887D01*
X212621654Y-101946887D02*
X212621654Y-101546887D01*
X212621654Y-101546887D02*
X212483559Y-101546887D01*
X212483559Y-101546887D02*
X212400702Y-101565935D01*
X212400702Y-101565935D02*
X212345464Y-101604030D01*
X212345464Y-101604030D02*
X212317845Y-101642125D01*
X212317845Y-101642125D02*
X212290226Y-101718316D01*
X212290226Y-101718316D02*
X212290226Y-101775459D01*
X212290226Y-101775459D02*
X212317845Y-101851649D01*
X212317845Y-101851649D02*
X212345464Y-101889744D01*
X212345464Y-101889744D02*
X212400702Y-101927840D01*
X212400702Y-101927840D02*
X212483559Y-101946887D01*
X212483559Y-101946887D02*
X212621654Y-101946887D01*
D10*
X231689961Y-100672306D02*
X231737580Y-100767544D01*
X231737580Y-100767544D02*
X231737580Y-100910401D01*
X231737580Y-100910401D02*
X231689961Y-101053258D01*
X231689961Y-101053258D02*
X231594723Y-101148496D01*
X231594723Y-101148496D02*
X231499485Y-101196115D01*
X231499485Y-101196115D02*
X231309009Y-101243734D01*
X231309009Y-101243734D02*
X231166152Y-101243734D01*
X231166152Y-101243734D02*
X230975676Y-101196115D01*
X230975676Y-101196115D02*
X230880438Y-101148496D01*
X230880438Y-101148496D02*
X230785200Y-101053258D01*
X230785200Y-101053258D02*
X230737580Y-100910401D01*
X230737580Y-100910401D02*
X230737580Y-100815163D01*
X230737580Y-100815163D02*
X230785200Y-100672306D01*
X230785200Y-100672306D02*
X230832819Y-100624687D01*
X230832819Y-100624687D02*
X231166152Y-100624687D01*
X231166152Y-100624687D02*
X231166152Y-100815163D01*
X230737580Y-100196115D02*
X231737580Y-100196115D01*
X231737580Y-100196115D02*
X230737580Y-99624687D01*
X230737580Y-99624687D02*
X231737580Y-99624687D01*
X230737580Y-99148496D02*
X231737580Y-99148496D01*
X231737580Y-99148496D02*
X231737580Y-98910401D01*
X231737580Y-98910401D02*
X231689961Y-98767544D01*
X231689961Y-98767544D02*
X231594723Y-98672306D01*
X231594723Y-98672306D02*
X231499485Y-98624687D01*
X231499485Y-98624687D02*
X231309009Y-98577068D01*
X231309009Y-98577068D02*
X231166152Y-98577068D01*
X231166152Y-98577068D02*
X230975676Y-98624687D01*
X230975676Y-98624687D02*
X230880438Y-98672306D01*
X230880438Y-98672306D02*
X230785200Y-98767544D01*
X230785200Y-98767544D02*
X230737580Y-98910401D01*
X230737580Y-98910401D02*
X230737580Y-99148496D01*
D11*
X218059273Y-101946887D02*
X218059273Y-101546887D01*
X218059273Y-101546887D02*
X217921178Y-101546887D01*
X217921178Y-101546887D02*
X217838321Y-101565935D01*
X217838321Y-101565935D02*
X217783083Y-101604030D01*
X217783083Y-101604030D02*
X217755464Y-101642125D01*
X217755464Y-101642125D02*
X217727845Y-101718316D01*
X217727845Y-101718316D02*
X217727845Y-101775459D01*
X217727845Y-101775459D02*
X217755464Y-101851649D01*
X217755464Y-101851649D02*
X217783083Y-101889744D01*
X217783083Y-101889744D02*
X217838321Y-101927840D01*
X217838321Y-101927840D02*
X217921178Y-101946887D01*
X217921178Y-101946887D02*
X218059273Y-101946887D01*
X217368797Y-101546887D02*
X217258321Y-101546887D01*
X217258321Y-101546887D02*
X217203083Y-101565935D01*
X217203083Y-101565935D02*
X217147845Y-101604030D01*
X217147845Y-101604030D02*
X217120226Y-101680220D01*
X217120226Y-101680220D02*
X217120226Y-101813554D01*
X217120226Y-101813554D02*
X217147845Y-101889744D01*
X217147845Y-101889744D02*
X217203083Y-101927840D01*
X217203083Y-101927840D02*
X217258321Y-101946887D01*
X217258321Y-101946887D02*
X217368797Y-101946887D01*
X217368797Y-101946887D02*
X217424035Y-101927840D01*
X217424035Y-101927840D02*
X217479273Y-101889744D01*
X217479273Y-101889744D02*
X217506892Y-101813554D01*
X217506892Y-101813554D02*
X217506892Y-101680220D01*
X217506892Y-101680220D02*
X217479273Y-101604030D01*
X217479273Y-101604030D02*
X217424035Y-101565935D01*
X217424035Y-101565935D02*
X217368797Y-101546887D01*
X216871654Y-101546887D02*
X216871654Y-101870697D01*
X216871654Y-101870697D02*
X216844035Y-101908792D01*
X216844035Y-101908792D02*
X216816416Y-101927840D01*
X216816416Y-101927840D02*
X216761178Y-101946887D01*
X216761178Y-101946887D02*
X216650702Y-101946887D01*
X216650702Y-101946887D02*
X216595464Y-101927840D01*
X216595464Y-101927840D02*
X216567845Y-101908792D01*
X216567845Y-101908792D02*
X216540226Y-101870697D01*
X216540226Y-101870697D02*
X216540226Y-101546887D01*
X216346892Y-101546887D02*
X216015464Y-101546887D01*
X216181178Y-101946887D02*
X216181178Y-101546887D01*
X211227845Y-101908792D02*
X211255464Y-101927840D01*
X211255464Y-101927840D02*
X211338321Y-101946887D01*
X211338321Y-101946887D02*
X211393559Y-101946887D01*
X211393559Y-101946887D02*
X211476416Y-101927840D01*
X211476416Y-101927840D02*
X211531654Y-101889744D01*
X211531654Y-101889744D02*
X211559273Y-101851649D01*
X211559273Y-101851649D02*
X211586892Y-101775459D01*
X211586892Y-101775459D02*
X211586892Y-101718316D01*
X211586892Y-101718316D02*
X211559273Y-101642125D01*
X211559273Y-101642125D02*
X211531654Y-101604030D01*
X211531654Y-101604030D02*
X211476416Y-101565935D01*
X211476416Y-101565935D02*
X211393559Y-101546887D01*
X211393559Y-101546887D02*
X211338321Y-101546887D01*
X211338321Y-101546887D02*
X211255464Y-101565935D01*
X211255464Y-101565935D02*
X211227845Y-101584982D01*
X210703083Y-101946887D02*
X210979273Y-101946887D01*
X210979273Y-101946887D02*
X210979273Y-101546887D01*
X210509749Y-101946887D02*
X210509749Y-101546887D01*
X210178321Y-101946887D02*
X210426892Y-101718316D01*
X210178321Y-101546887D02*
X210509749Y-101775459D01*
X221059273Y-101794506D02*
X220617369Y-101794506D01*
X220838321Y-101946887D02*
X220838321Y-101642125D01*
M02*
