%TF.GenerationSoftware,KiCad,Pcbnew,8.0.0-1.fc39*%
%TF.CreationDate,2024-05-13T23:25:18+02:00*%
%TF.ProjectId,radio433,72616469-6f34-4333-932e-6b696361645f,rev?*%
%TF.SameCoordinates,Original*%
%TF.FileFunction,Legend,Top*%
%TF.FilePolarity,Positive*%
%FSLAX46Y46*%
G04 Gerber Fmt 4.6, Leading zero omitted, Abs format (unit mm)*
G04 Created by KiCad (PCBNEW 8.0.0-1.fc39) date 2024-05-13 23:25:18*
%MOMM*%
%LPD*%
G01*
G04 APERTURE LIST*
%ADD10C,0.080000*%
%ADD11C,0.100000*%
%ADD12C,0.150000*%
%ADD13C,0.120000*%
%ADD14C,0.000000*%
G04 APERTURE END LIST*
D10*
X207163107Y-101927840D02*
X207245964Y-101946887D01*
X207245964Y-101946887D02*
X207384059Y-101946887D01*
X207384059Y-101946887D02*
X207439297Y-101927840D01*
X207439297Y-101927840D02*
X207466916Y-101908792D01*
X207466916Y-101908792D02*
X207494535Y-101870697D01*
X207494535Y-101870697D02*
X207494535Y-101832601D01*
X207494535Y-101832601D02*
X207466916Y-101794506D01*
X207466916Y-101794506D02*
X207439297Y-101775459D01*
X207439297Y-101775459D02*
X207384059Y-101756411D01*
X207384059Y-101756411D02*
X207273583Y-101737363D01*
X207273583Y-101737363D02*
X207218345Y-101718316D01*
X207218345Y-101718316D02*
X207190726Y-101699268D01*
X207190726Y-101699268D02*
X207163107Y-101661173D01*
X207163107Y-101661173D02*
X207163107Y-101623078D01*
X207163107Y-101623078D02*
X207190726Y-101584982D01*
X207190726Y-101584982D02*
X207218345Y-101565935D01*
X207218345Y-101565935D02*
X207273583Y-101546887D01*
X207273583Y-101546887D02*
X207411678Y-101546887D01*
X207411678Y-101546887D02*
X207494535Y-101565935D01*
X207743107Y-101946887D02*
X207743107Y-101546887D01*
X207743107Y-101737363D02*
X208074535Y-101737363D01*
X208074535Y-101946887D02*
X208074535Y-101546887D01*
X208350726Y-101946887D02*
X208350726Y-101546887D01*
X208350726Y-101546887D02*
X208488821Y-101546887D01*
X208488821Y-101546887D02*
X208571678Y-101565935D01*
X208571678Y-101565935D02*
X208626916Y-101604030D01*
X208626916Y-101604030D02*
X208654535Y-101642125D01*
X208654535Y-101642125D02*
X208682154Y-101718316D01*
X208682154Y-101718316D02*
X208682154Y-101775459D01*
X208682154Y-101775459D02*
X208654535Y-101851649D01*
X208654535Y-101851649D02*
X208626916Y-101889744D01*
X208626916Y-101889744D02*
X208571678Y-101927840D01*
X208571678Y-101927840D02*
X208488821Y-101946887D01*
X208488821Y-101946887D02*
X208350726Y-101946887D01*
X208930726Y-101946887D02*
X208930726Y-101546887D01*
X208930726Y-101546887D02*
X209262154Y-101946887D01*
X209262154Y-101946887D02*
X209262154Y-101546887D01*
X205022154Y-101946887D02*
X204828821Y-101756411D01*
X204690726Y-101946887D02*
X204690726Y-101546887D01*
X204690726Y-101546887D02*
X204911678Y-101546887D01*
X204911678Y-101546887D02*
X204966916Y-101565935D01*
X204966916Y-101565935D02*
X204994535Y-101584982D01*
X204994535Y-101584982D02*
X205022154Y-101623078D01*
X205022154Y-101623078D02*
X205022154Y-101680220D01*
X205022154Y-101680220D02*
X204994535Y-101718316D01*
X204994535Y-101718316D02*
X204966916Y-101737363D01*
X204966916Y-101737363D02*
X204911678Y-101756411D01*
X204911678Y-101756411D02*
X204690726Y-101756411D01*
X205243107Y-101927840D02*
X205325964Y-101946887D01*
X205325964Y-101946887D02*
X205464059Y-101946887D01*
X205464059Y-101946887D02*
X205519297Y-101927840D01*
X205519297Y-101927840D02*
X205546916Y-101908792D01*
X205546916Y-101908792D02*
X205574535Y-101870697D01*
X205574535Y-101870697D02*
X205574535Y-101832601D01*
X205574535Y-101832601D02*
X205546916Y-101794506D01*
X205546916Y-101794506D02*
X205519297Y-101775459D01*
X205519297Y-101775459D02*
X205464059Y-101756411D01*
X205464059Y-101756411D02*
X205353583Y-101737363D01*
X205353583Y-101737363D02*
X205298345Y-101718316D01*
X205298345Y-101718316D02*
X205270726Y-101699268D01*
X205270726Y-101699268D02*
X205243107Y-101661173D01*
X205243107Y-101661173D02*
X205243107Y-101623078D01*
X205243107Y-101623078D02*
X205270726Y-101584982D01*
X205270726Y-101584982D02*
X205298345Y-101565935D01*
X205298345Y-101565935D02*
X205353583Y-101546887D01*
X205353583Y-101546887D02*
X205491678Y-101546887D01*
X205491678Y-101546887D02*
X205574535Y-101565935D01*
X205795488Y-101927840D02*
X205878345Y-101946887D01*
X205878345Y-101946887D02*
X206016440Y-101946887D01*
X206016440Y-101946887D02*
X206071678Y-101927840D01*
X206071678Y-101927840D02*
X206099297Y-101908792D01*
X206099297Y-101908792D02*
X206126916Y-101870697D01*
X206126916Y-101870697D02*
X206126916Y-101832601D01*
X206126916Y-101832601D02*
X206099297Y-101794506D01*
X206099297Y-101794506D02*
X206071678Y-101775459D01*
X206071678Y-101775459D02*
X206016440Y-101756411D01*
X206016440Y-101756411D02*
X205905964Y-101737363D01*
X205905964Y-101737363D02*
X205850726Y-101718316D01*
X205850726Y-101718316D02*
X205823107Y-101699268D01*
X205823107Y-101699268D02*
X205795488Y-101661173D01*
X205795488Y-101661173D02*
X205795488Y-101623078D01*
X205795488Y-101623078D02*
X205823107Y-101584982D01*
X205823107Y-101584982D02*
X205850726Y-101565935D01*
X205850726Y-101565935D02*
X205905964Y-101546887D01*
X205905964Y-101546887D02*
X206044059Y-101546887D01*
X206044059Y-101546887D02*
X206126916Y-101565935D01*
X206375488Y-101946887D02*
X206375488Y-101546887D01*
D11*
X233303884Y-90133609D02*
X233303884Y-89800276D01*
X233303884Y-89895514D02*
X233351503Y-89847895D01*
X233351503Y-89847895D02*
X233399122Y-89824085D01*
X233399122Y-89824085D02*
X233494360Y-89800276D01*
X233494360Y-89800276D02*
X233589598Y-89800276D01*
X234351503Y-90133609D02*
X234351503Y-89871704D01*
X234351503Y-89871704D02*
X234303884Y-89824085D01*
X234303884Y-89824085D02*
X234208646Y-89800276D01*
X234208646Y-89800276D02*
X234018170Y-89800276D01*
X234018170Y-89800276D02*
X233922932Y-89824085D01*
X234351503Y-90109800D02*
X234256265Y-90133609D01*
X234256265Y-90133609D02*
X234018170Y-90133609D01*
X234018170Y-90133609D02*
X233922932Y-90109800D01*
X233922932Y-90109800D02*
X233875313Y-90062180D01*
X233875313Y-90062180D02*
X233875313Y-90014561D01*
X233875313Y-90014561D02*
X233922932Y-89966942D01*
X233922932Y-89966942D02*
X234018170Y-89943133D01*
X234018170Y-89943133D02*
X234256265Y-89943133D01*
X234256265Y-89943133D02*
X234351503Y-89919323D01*
X235256265Y-90133609D02*
X235256265Y-89633609D01*
X235256265Y-90109800D02*
X235161027Y-90133609D01*
X235161027Y-90133609D02*
X234970551Y-90133609D01*
X234970551Y-90133609D02*
X234875313Y-90109800D01*
X234875313Y-90109800D02*
X234827694Y-90085990D01*
X234827694Y-90085990D02*
X234780075Y-90038371D01*
X234780075Y-90038371D02*
X234780075Y-89895514D01*
X234780075Y-89895514D02*
X234827694Y-89847895D01*
X234827694Y-89847895D02*
X234875313Y-89824085D01*
X234875313Y-89824085D02*
X234970551Y-89800276D01*
X234970551Y-89800276D02*
X235161027Y-89800276D01*
X235161027Y-89800276D02*
X235256265Y-89824085D01*
X235732456Y-90133609D02*
X235732456Y-89800276D01*
X235732456Y-89633609D02*
X235684837Y-89657419D01*
X235684837Y-89657419D02*
X235732456Y-89681228D01*
X235732456Y-89681228D02*
X235780075Y-89657419D01*
X235780075Y-89657419D02*
X235732456Y-89633609D01*
X235732456Y-89633609D02*
X235732456Y-89681228D01*
X236351503Y-90133609D02*
X236256265Y-90109800D01*
X236256265Y-90109800D02*
X236208646Y-90085990D01*
X236208646Y-90085990D02*
X236161027Y-90038371D01*
X236161027Y-90038371D02*
X236161027Y-89895514D01*
X236161027Y-89895514D02*
X236208646Y-89847895D01*
X236208646Y-89847895D02*
X236256265Y-89824085D01*
X236256265Y-89824085D02*
X236351503Y-89800276D01*
X236351503Y-89800276D02*
X236494360Y-89800276D01*
X236494360Y-89800276D02*
X236589598Y-89824085D01*
X236589598Y-89824085D02*
X236637217Y-89847895D01*
X236637217Y-89847895D02*
X236684836Y-89895514D01*
X236684836Y-89895514D02*
X236684836Y-90038371D01*
X236684836Y-90038371D02*
X236637217Y-90085990D01*
X236637217Y-90085990D02*
X236589598Y-90109800D01*
X236589598Y-90109800D02*
X236494360Y-90133609D01*
X236494360Y-90133609D02*
X236351503Y-90133609D01*
X237541979Y-89800276D02*
X237541979Y-90133609D01*
X237303884Y-89609800D02*
X237065789Y-89966942D01*
X237065789Y-89966942D02*
X237684836Y-89966942D01*
X237970551Y-89633609D02*
X238589598Y-89633609D01*
X238589598Y-89633609D02*
X238256265Y-89824085D01*
X238256265Y-89824085D02*
X238399122Y-89824085D01*
X238399122Y-89824085D02*
X238494360Y-89847895D01*
X238494360Y-89847895D02*
X238541979Y-89871704D01*
X238541979Y-89871704D02*
X238589598Y-89919323D01*
X238589598Y-89919323D02*
X238589598Y-90038371D01*
X238589598Y-90038371D02*
X238541979Y-90085990D01*
X238541979Y-90085990D02*
X238494360Y-90109800D01*
X238494360Y-90109800D02*
X238399122Y-90133609D01*
X238399122Y-90133609D02*
X238113408Y-90133609D01*
X238113408Y-90133609D02*
X238018170Y-90109800D01*
X238018170Y-90109800D02*
X237970551Y-90085990D01*
X238922932Y-89633609D02*
X239541979Y-89633609D01*
X239541979Y-89633609D02*
X239208646Y-89824085D01*
X239208646Y-89824085D02*
X239351503Y-89824085D01*
X239351503Y-89824085D02*
X239446741Y-89847895D01*
X239446741Y-89847895D02*
X239494360Y-89871704D01*
X239494360Y-89871704D02*
X239541979Y-89919323D01*
X239541979Y-89919323D02*
X239541979Y-90038371D01*
X239541979Y-90038371D02*
X239494360Y-90085990D01*
X239494360Y-90085990D02*
X239446741Y-90109800D01*
X239446741Y-90109800D02*
X239351503Y-90133609D01*
X239351503Y-90133609D02*
X239065789Y-90133609D01*
X239065789Y-90133609D02*
X238970551Y-90109800D01*
X238970551Y-90109800D02*
X238922932Y-90085990D01*
X239732456Y-90181228D02*
X240494360Y-90181228D01*
X240589599Y-89633609D02*
X241161027Y-89633609D01*
X240875313Y-90133609D02*
X240875313Y-89633609D01*
X241399123Y-90133609D02*
X241922932Y-89800276D01*
X241399123Y-89800276D02*
X241922932Y-90133609D01*
D10*
X216190726Y-101946887D02*
X216190726Y-101546887D01*
X216190726Y-101546887D02*
X216328821Y-101546887D01*
X216328821Y-101546887D02*
X216411678Y-101565935D01*
X216411678Y-101565935D02*
X216466916Y-101604030D01*
X216466916Y-101604030D02*
X216494535Y-101642125D01*
X216494535Y-101642125D02*
X216522154Y-101718316D01*
X216522154Y-101718316D02*
X216522154Y-101775459D01*
X216522154Y-101775459D02*
X216494535Y-101851649D01*
X216494535Y-101851649D02*
X216466916Y-101889744D01*
X216466916Y-101889744D02*
X216411678Y-101927840D01*
X216411678Y-101927840D02*
X216328821Y-101946887D01*
X216328821Y-101946887D02*
X216190726Y-101946887D01*
X216881202Y-101546887D02*
X216991678Y-101546887D01*
X216991678Y-101546887D02*
X217046916Y-101565935D01*
X217046916Y-101565935D02*
X217102154Y-101604030D01*
X217102154Y-101604030D02*
X217129773Y-101680220D01*
X217129773Y-101680220D02*
X217129773Y-101813554D01*
X217129773Y-101813554D02*
X217102154Y-101889744D01*
X217102154Y-101889744D02*
X217046916Y-101927840D01*
X217046916Y-101927840D02*
X216991678Y-101946887D01*
X216991678Y-101946887D02*
X216881202Y-101946887D01*
X216881202Y-101946887D02*
X216825964Y-101927840D01*
X216825964Y-101927840D02*
X216770726Y-101889744D01*
X216770726Y-101889744D02*
X216743107Y-101813554D01*
X216743107Y-101813554D02*
X216743107Y-101680220D01*
X216743107Y-101680220D02*
X216770726Y-101604030D01*
X216770726Y-101604030D02*
X216825964Y-101565935D01*
X216825964Y-101565935D02*
X216881202Y-101546887D01*
X217378345Y-101546887D02*
X217378345Y-101870697D01*
X217378345Y-101870697D02*
X217405964Y-101908792D01*
X217405964Y-101908792D02*
X217433583Y-101927840D01*
X217433583Y-101927840D02*
X217488821Y-101946887D01*
X217488821Y-101946887D02*
X217599297Y-101946887D01*
X217599297Y-101946887D02*
X217654535Y-101927840D01*
X217654535Y-101927840D02*
X217682154Y-101908792D01*
X217682154Y-101908792D02*
X217709773Y-101870697D01*
X217709773Y-101870697D02*
X217709773Y-101546887D01*
X217903107Y-101546887D02*
X218234535Y-101546887D01*
X218068821Y-101946887D02*
X218068821Y-101546887D01*
X212554535Y-101565935D02*
X212499297Y-101546887D01*
X212499297Y-101546887D02*
X212416440Y-101546887D01*
X212416440Y-101546887D02*
X212333583Y-101565935D01*
X212333583Y-101565935D02*
X212278345Y-101604030D01*
X212278345Y-101604030D02*
X212250726Y-101642125D01*
X212250726Y-101642125D02*
X212223107Y-101718316D01*
X212223107Y-101718316D02*
X212223107Y-101775459D01*
X212223107Y-101775459D02*
X212250726Y-101851649D01*
X212250726Y-101851649D02*
X212278345Y-101889744D01*
X212278345Y-101889744D02*
X212333583Y-101927840D01*
X212333583Y-101927840D02*
X212416440Y-101946887D01*
X212416440Y-101946887D02*
X212471678Y-101946887D01*
X212471678Y-101946887D02*
X212554535Y-101927840D01*
X212554535Y-101927840D02*
X212582154Y-101908792D01*
X212582154Y-101908792D02*
X212582154Y-101775459D01*
X212582154Y-101775459D02*
X212471678Y-101775459D01*
X212830726Y-101946887D02*
X212830726Y-101546887D01*
X212830726Y-101546887D02*
X213162154Y-101946887D01*
X213162154Y-101946887D02*
X213162154Y-101546887D01*
X213438345Y-101946887D02*
X213438345Y-101546887D01*
X213438345Y-101546887D02*
X213576440Y-101546887D01*
X213576440Y-101546887D02*
X213659297Y-101565935D01*
X213659297Y-101565935D02*
X213714535Y-101604030D01*
X213714535Y-101604030D02*
X213742154Y-101642125D01*
X213742154Y-101642125D02*
X213769773Y-101718316D01*
X213769773Y-101718316D02*
X213769773Y-101775459D01*
X213769773Y-101775459D02*
X213742154Y-101851649D01*
X213742154Y-101851649D02*
X213714535Y-101889744D01*
X213714535Y-101889744D02*
X213659297Y-101927840D01*
X213659297Y-101927840D02*
X213576440Y-101946887D01*
X213576440Y-101946887D02*
X213438345Y-101946887D01*
X210522154Y-101908792D02*
X210494535Y-101927840D01*
X210494535Y-101927840D02*
X210411678Y-101946887D01*
X210411678Y-101946887D02*
X210356440Y-101946887D01*
X210356440Y-101946887D02*
X210273583Y-101927840D01*
X210273583Y-101927840D02*
X210218345Y-101889744D01*
X210218345Y-101889744D02*
X210190726Y-101851649D01*
X210190726Y-101851649D02*
X210163107Y-101775459D01*
X210163107Y-101775459D02*
X210163107Y-101718316D01*
X210163107Y-101718316D02*
X210190726Y-101642125D01*
X210190726Y-101642125D02*
X210218345Y-101604030D01*
X210218345Y-101604030D02*
X210273583Y-101565935D01*
X210273583Y-101565935D02*
X210356440Y-101546887D01*
X210356440Y-101546887D02*
X210411678Y-101546887D01*
X210411678Y-101546887D02*
X210494535Y-101565935D01*
X210494535Y-101565935D02*
X210522154Y-101584982D01*
X211046916Y-101946887D02*
X210770726Y-101946887D01*
X210770726Y-101946887D02*
X210770726Y-101546887D01*
X211240250Y-101946887D02*
X211240250Y-101546887D01*
X211571678Y-101946887D02*
X211323107Y-101718316D01*
X211571678Y-101546887D02*
X211240250Y-101775459D01*
D11*
X230610038Y-100672306D02*
X230562419Y-100767544D01*
X230562419Y-100767544D02*
X230562419Y-100910401D01*
X230562419Y-100910401D02*
X230610038Y-101053258D01*
X230610038Y-101053258D02*
X230705276Y-101148496D01*
X230705276Y-101148496D02*
X230800514Y-101196115D01*
X230800514Y-101196115D02*
X230990990Y-101243734D01*
X230990990Y-101243734D02*
X231133847Y-101243734D01*
X231133847Y-101243734D02*
X231324323Y-101196115D01*
X231324323Y-101196115D02*
X231419561Y-101148496D01*
X231419561Y-101148496D02*
X231514800Y-101053258D01*
X231514800Y-101053258D02*
X231562419Y-100910401D01*
X231562419Y-100910401D02*
X231562419Y-100815163D01*
X231562419Y-100815163D02*
X231514800Y-100672306D01*
X231514800Y-100672306D02*
X231467180Y-100624687D01*
X231467180Y-100624687D02*
X231133847Y-100624687D01*
X231133847Y-100624687D02*
X231133847Y-100815163D01*
X231562419Y-100196115D02*
X230562419Y-100196115D01*
X230562419Y-100196115D02*
X231562419Y-99624687D01*
X231562419Y-99624687D02*
X230562419Y-99624687D01*
X231562419Y-99148496D02*
X230562419Y-99148496D01*
X230562419Y-99148496D02*
X230562419Y-98910401D01*
X230562419Y-98910401D02*
X230610038Y-98767544D01*
X230610038Y-98767544D02*
X230705276Y-98672306D01*
X230705276Y-98672306D02*
X230800514Y-98624687D01*
X230800514Y-98624687D02*
X230990990Y-98577068D01*
X230990990Y-98577068D02*
X231133847Y-98577068D01*
X231133847Y-98577068D02*
X231324323Y-98624687D01*
X231324323Y-98624687D02*
X231419561Y-98672306D01*
X231419561Y-98672306D02*
X231514800Y-98767544D01*
X231514800Y-98767544D02*
X231562419Y-98910401D01*
X231562419Y-98910401D02*
X231562419Y-99148496D01*
X229042419Y-101196115D02*
X228042419Y-101196115D01*
X228042419Y-101196115D02*
X228042419Y-100958020D01*
X228042419Y-100958020D02*
X228090038Y-100815163D01*
X228090038Y-100815163D02*
X228185276Y-100719925D01*
X228185276Y-100719925D02*
X228280514Y-100672306D01*
X228280514Y-100672306D02*
X228470990Y-100624687D01*
X228470990Y-100624687D02*
X228613847Y-100624687D01*
X228613847Y-100624687D02*
X228804323Y-100672306D01*
X228804323Y-100672306D02*
X228899561Y-100719925D01*
X228899561Y-100719925D02*
X228994800Y-100815163D01*
X228994800Y-100815163D02*
X229042419Y-100958020D01*
X229042419Y-100958020D02*
X229042419Y-101196115D01*
X229042419Y-100196115D02*
X228042419Y-100196115D01*
X229042419Y-99719925D02*
X228042419Y-99719925D01*
X228042419Y-99719925D02*
X229042419Y-99148497D01*
X229042419Y-99148497D02*
X228042419Y-99148497D01*
X212903884Y-87733609D02*
X212903884Y-87400276D01*
X212903884Y-87495514D02*
X212951503Y-87447895D01*
X212951503Y-87447895D02*
X212999122Y-87424085D01*
X212999122Y-87424085D02*
X213094360Y-87400276D01*
X213094360Y-87400276D02*
X213189598Y-87400276D01*
X213951503Y-87733609D02*
X213951503Y-87471704D01*
X213951503Y-87471704D02*
X213903884Y-87424085D01*
X213903884Y-87424085D02*
X213808646Y-87400276D01*
X213808646Y-87400276D02*
X213618170Y-87400276D01*
X213618170Y-87400276D02*
X213522932Y-87424085D01*
X213951503Y-87709800D02*
X213856265Y-87733609D01*
X213856265Y-87733609D02*
X213618170Y-87733609D01*
X213618170Y-87733609D02*
X213522932Y-87709800D01*
X213522932Y-87709800D02*
X213475313Y-87662180D01*
X213475313Y-87662180D02*
X213475313Y-87614561D01*
X213475313Y-87614561D02*
X213522932Y-87566942D01*
X213522932Y-87566942D02*
X213618170Y-87543133D01*
X213618170Y-87543133D02*
X213856265Y-87543133D01*
X213856265Y-87543133D02*
X213951503Y-87519323D01*
X214856265Y-87733609D02*
X214856265Y-87233609D01*
X214856265Y-87709800D02*
X214761027Y-87733609D01*
X214761027Y-87733609D02*
X214570551Y-87733609D01*
X214570551Y-87733609D02*
X214475313Y-87709800D01*
X214475313Y-87709800D02*
X214427694Y-87685990D01*
X214427694Y-87685990D02*
X214380075Y-87638371D01*
X214380075Y-87638371D02*
X214380075Y-87495514D01*
X214380075Y-87495514D02*
X214427694Y-87447895D01*
X214427694Y-87447895D02*
X214475313Y-87424085D01*
X214475313Y-87424085D02*
X214570551Y-87400276D01*
X214570551Y-87400276D02*
X214761027Y-87400276D01*
X214761027Y-87400276D02*
X214856265Y-87424085D01*
X215332456Y-87733609D02*
X215332456Y-87400276D01*
X215332456Y-87233609D02*
X215284837Y-87257419D01*
X215284837Y-87257419D02*
X215332456Y-87281228D01*
X215332456Y-87281228D02*
X215380075Y-87257419D01*
X215380075Y-87257419D02*
X215332456Y-87233609D01*
X215332456Y-87233609D02*
X215332456Y-87281228D01*
X215951503Y-87733609D02*
X215856265Y-87709800D01*
X215856265Y-87709800D02*
X215808646Y-87685990D01*
X215808646Y-87685990D02*
X215761027Y-87638371D01*
X215761027Y-87638371D02*
X215761027Y-87495514D01*
X215761027Y-87495514D02*
X215808646Y-87447895D01*
X215808646Y-87447895D02*
X215856265Y-87424085D01*
X215856265Y-87424085D02*
X215951503Y-87400276D01*
X215951503Y-87400276D02*
X216094360Y-87400276D01*
X216094360Y-87400276D02*
X216189598Y-87424085D01*
X216189598Y-87424085D02*
X216237217Y-87447895D01*
X216237217Y-87447895D02*
X216284836Y-87495514D01*
X216284836Y-87495514D02*
X216284836Y-87638371D01*
X216284836Y-87638371D02*
X216237217Y-87685990D01*
X216237217Y-87685990D02*
X216189598Y-87709800D01*
X216189598Y-87709800D02*
X216094360Y-87733609D01*
X216094360Y-87733609D02*
X215951503Y-87733609D01*
X217141979Y-87400276D02*
X217141979Y-87733609D01*
X216903884Y-87209800D02*
X216665789Y-87566942D01*
X216665789Y-87566942D02*
X217284836Y-87566942D01*
X217570551Y-87233609D02*
X218189598Y-87233609D01*
X218189598Y-87233609D02*
X217856265Y-87424085D01*
X217856265Y-87424085D02*
X217999122Y-87424085D01*
X217999122Y-87424085D02*
X218094360Y-87447895D01*
X218094360Y-87447895D02*
X218141979Y-87471704D01*
X218141979Y-87471704D02*
X218189598Y-87519323D01*
X218189598Y-87519323D02*
X218189598Y-87638371D01*
X218189598Y-87638371D02*
X218141979Y-87685990D01*
X218141979Y-87685990D02*
X218094360Y-87709800D01*
X218094360Y-87709800D02*
X217999122Y-87733609D01*
X217999122Y-87733609D02*
X217713408Y-87733609D01*
X217713408Y-87733609D02*
X217618170Y-87709800D01*
X217618170Y-87709800D02*
X217570551Y-87685990D01*
X218522932Y-87233609D02*
X219141979Y-87233609D01*
X219141979Y-87233609D02*
X218808646Y-87424085D01*
X218808646Y-87424085D02*
X218951503Y-87424085D01*
X218951503Y-87424085D02*
X219046741Y-87447895D01*
X219046741Y-87447895D02*
X219094360Y-87471704D01*
X219094360Y-87471704D02*
X219141979Y-87519323D01*
X219141979Y-87519323D02*
X219141979Y-87638371D01*
X219141979Y-87638371D02*
X219094360Y-87685990D01*
X219094360Y-87685990D02*
X219046741Y-87709800D01*
X219046741Y-87709800D02*
X218951503Y-87733609D01*
X218951503Y-87733609D02*
X218665789Y-87733609D01*
X218665789Y-87733609D02*
X218570551Y-87709800D01*
X218570551Y-87709800D02*
X218522932Y-87685990D01*
X219332456Y-87781228D02*
X220094360Y-87781228D01*
X220903884Y-87733609D02*
X220570551Y-87495514D01*
X220332456Y-87733609D02*
X220332456Y-87233609D01*
X220332456Y-87233609D02*
X220713408Y-87233609D01*
X220713408Y-87233609D02*
X220808646Y-87257419D01*
X220808646Y-87257419D02*
X220856265Y-87281228D01*
X220856265Y-87281228D02*
X220903884Y-87328847D01*
X220903884Y-87328847D02*
X220903884Y-87400276D01*
X220903884Y-87400276D02*
X220856265Y-87447895D01*
X220856265Y-87447895D02*
X220808646Y-87471704D01*
X220808646Y-87471704D02*
X220713408Y-87495514D01*
X220713408Y-87495514D02*
X220332456Y-87495514D01*
X221237218Y-87733609D02*
X221761027Y-87400276D01*
X221237218Y-87400276D02*
X221761027Y-87733609D01*
D10*
X220690726Y-101794506D02*
X221132631Y-101794506D01*
X220911678Y-101946887D02*
X220911678Y-101642125D01*
D11*
X225803884Y-100991466D02*
X226565789Y-100991466D01*
X226184836Y-101372419D02*
X226184836Y-100610514D01*
D12*
X253109580Y-95416666D02*
X253157200Y-95464285D01*
X253157200Y-95464285D02*
X253204819Y-95607142D01*
X253204819Y-95607142D02*
X253204819Y-95702380D01*
X253204819Y-95702380D02*
X253157200Y-95845237D01*
X253157200Y-95845237D02*
X253061961Y-95940475D01*
X253061961Y-95940475D02*
X252966723Y-95988094D01*
X252966723Y-95988094D02*
X252776247Y-96035713D01*
X252776247Y-96035713D02*
X252633390Y-96035713D01*
X252633390Y-96035713D02*
X252442914Y-95988094D01*
X252442914Y-95988094D02*
X252347676Y-95940475D01*
X252347676Y-95940475D02*
X252252438Y-95845237D01*
X252252438Y-95845237D02*
X252204819Y-95702380D01*
X252204819Y-95702380D02*
X252204819Y-95607142D01*
X252204819Y-95607142D02*
X252252438Y-95464285D01*
X252252438Y-95464285D02*
X252300057Y-95416666D01*
X252204819Y-95083332D02*
X252204819Y-94464285D01*
X252204819Y-94464285D02*
X252585771Y-94797618D01*
X252585771Y-94797618D02*
X252585771Y-94654761D01*
X252585771Y-94654761D02*
X252633390Y-94559523D01*
X252633390Y-94559523D02*
X252681009Y-94511904D01*
X252681009Y-94511904D02*
X252776247Y-94464285D01*
X252776247Y-94464285D02*
X253014342Y-94464285D01*
X253014342Y-94464285D02*
X253109580Y-94511904D01*
X253109580Y-94511904D02*
X253157200Y-94559523D01*
X253157200Y-94559523D02*
X253204819Y-94654761D01*
X253204819Y-94654761D02*
X253204819Y-94940475D01*
X253204819Y-94940475D02*
X253157200Y-95035713D01*
X253157200Y-95035713D02*
X253109580Y-95083332D01*
X198693333Y-101994819D02*
X198360000Y-101518628D01*
X198121905Y-101994819D02*
X198121905Y-100994819D01*
X198121905Y-100994819D02*
X198502857Y-100994819D01*
X198502857Y-100994819D02*
X198598095Y-101042438D01*
X198598095Y-101042438D02*
X198645714Y-101090057D01*
X198645714Y-101090057D02*
X198693333Y-101185295D01*
X198693333Y-101185295D02*
X198693333Y-101328152D01*
X198693333Y-101328152D02*
X198645714Y-101423390D01*
X198645714Y-101423390D02*
X198598095Y-101471009D01*
X198598095Y-101471009D02*
X198502857Y-101518628D01*
X198502857Y-101518628D02*
X198121905Y-101518628D01*
X199026667Y-100994819D02*
X199645714Y-100994819D01*
X199645714Y-100994819D02*
X199312381Y-101375771D01*
X199312381Y-101375771D02*
X199455238Y-101375771D01*
X199455238Y-101375771D02*
X199550476Y-101423390D01*
X199550476Y-101423390D02*
X199598095Y-101471009D01*
X199598095Y-101471009D02*
X199645714Y-101566247D01*
X199645714Y-101566247D02*
X199645714Y-101804342D01*
X199645714Y-101804342D02*
X199598095Y-101899580D01*
X199598095Y-101899580D02*
X199550476Y-101947200D01*
X199550476Y-101947200D02*
X199455238Y-101994819D01*
X199455238Y-101994819D02*
X199169524Y-101994819D01*
X199169524Y-101994819D02*
X199074286Y-101947200D01*
X199074286Y-101947200D02*
X199026667Y-101899580D01*
X237773809Y-102728628D02*
X237773809Y-103204819D01*
X237440476Y-102204819D02*
X237773809Y-102728628D01*
X237773809Y-102728628D02*
X238107142Y-102204819D01*
X238345238Y-102204819D02*
X238964285Y-102204819D01*
X238964285Y-102204819D02*
X238630952Y-102585771D01*
X238630952Y-102585771D02*
X238773809Y-102585771D01*
X238773809Y-102585771D02*
X238869047Y-102633390D01*
X238869047Y-102633390D02*
X238916666Y-102681009D01*
X238916666Y-102681009D02*
X238964285Y-102776247D01*
X238964285Y-102776247D02*
X238964285Y-103014342D01*
X238964285Y-103014342D02*
X238916666Y-103109580D01*
X238916666Y-103109580D02*
X238869047Y-103157200D01*
X238869047Y-103157200D02*
X238773809Y-103204819D01*
X238773809Y-103204819D02*
X238488095Y-103204819D01*
X238488095Y-103204819D02*
X238392857Y-103157200D01*
X238392857Y-103157200D02*
X238345238Y-103109580D01*
X201134580Y-99742857D02*
X201182200Y-99790476D01*
X201182200Y-99790476D02*
X201229819Y-99933333D01*
X201229819Y-99933333D02*
X201229819Y-100028571D01*
X201229819Y-100028571D02*
X201182200Y-100171428D01*
X201182200Y-100171428D02*
X201086961Y-100266666D01*
X201086961Y-100266666D02*
X200991723Y-100314285D01*
X200991723Y-100314285D02*
X200801247Y-100361904D01*
X200801247Y-100361904D02*
X200658390Y-100361904D01*
X200658390Y-100361904D02*
X200467914Y-100314285D01*
X200467914Y-100314285D02*
X200372676Y-100266666D01*
X200372676Y-100266666D02*
X200277438Y-100171428D01*
X200277438Y-100171428D02*
X200229819Y-100028571D01*
X200229819Y-100028571D02*
X200229819Y-99933333D01*
X200229819Y-99933333D02*
X200277438Y-99790476D01*
X200277438Y-99790476D02*
X200325057Y-99742857D01*
X201229819Y-98790476D02*
X201229819Y-99361904D01*
X201229819Y-99076190D02*
X200229819Y-99076190D01*
X200229819Y-99076190D02*
X200372676Y-99171428D01*
X200372676Y-99171428D02*
X200467914Y-99266666D01*
X200467914Y-99266666D02*
X200515533Y-99361904D01*
X200229819Y-98457142D02*
X200229819Y-97838095D01*
X200229819Y-97838095D02*
X200610771Y-98171428D01*
X200610771Y-98171428D02*
X200610771Y-98028571D01*
X200610771Y-98028571D02*
X200658390Y-97933333D01*
X200658390Y-97933333D02*
X200706009Y-97885714D01*
X200706009Y-97885714D02*
X200801247Y-97838095D01*
X200801247Y-97838095D02*
X201039342Y-97838095D01*
X201039342Y-97838095D02*
X201134580Y-97885714D01*
X201134580Y-97885714D02*
X201182200Y-97933333D01*
X201182200Y-97933333D02*
X201229819Y-98028571D01*
X201229819Y-98028571D02*
X201229819Y-98314285D01*
X201229819Y-98314285D02*
X201182200Y-98409523D01*
X201182200Y-98409523D02*
X201134580Y-98457142D01*
X211749366Y-98950000D02*
X211782700Y-98983333D01*
X211782700Y-98983333D02*
X211816033Y-99083333D01*
X211816033Y-99083333D02*
X211816033Y-99150000D01*
X211816033Y-99150000D02*
X211782700Y-99250000D01*
X211782700Y-99250000D02*
X211716033Y-99316667D01*
X211716033Y-99316667D02*
X211649366Y-99350000D01*
X211649366Y-99350000D02*
X211516033Y-99383333D01*
X211516033Y-99383333D02*
X211416033Y-99383333D01*
X211416033Y-99383333D02*
X211282700Y-99350000D01*
X211282700Y-99350000D02*
X211216033Y-99316667D01*
X211216033Y-99316667D02*
X211149366Y-99250000D01*
X211149366Y-99250000D02*
X211116033Y-99150000D01*
X211116033Y-99150000D02*
X211116033Y-99083333D01*
X211116033Y-99083333D02*
X211149366Y-98983333D01*
X211149366Y-98983333D02*
X211182700Y-98950000D01*
X211816033Y-98283333D02*
X211816033Y-98683333D01*
X211816033Y-98483333D02*
X211116033Y-98483333D01*
X211116033Y-98483333D02*
X211216033Y-98550000D01*
X211216033Y-98550000D02*
X211282700Y-98616667D01*
X211282700Y-98616667D02*
X211316033Y-98683333D01*
X211182700Y-98016666D02*
X211149366Y-97983333D01*
X211149366Y-97983333D02*
X211116033Y-97916666D01*
X211116033Y-97916666D02*
X211116033Y-97750000D01*
X211116033Y-97750000D02*
X211149366Y-97683333D01*
X211149366Y-97683333D02*
X211182700Y-97650000D01*
X211182700Y-97650000D02*
X211249366Y-97616666D01*
X211249366Y-97616666D02*
X211316033Y-97616666D01*
X211316033Y-97616666D02*
X211416033Y-97650000D01*
X211416033Y-97650000D02*
X211816033Y-98050000D01*
X211816033Y-98050000D02*
X211816033Y-97616666D01*
X242233333Y-96919366D02*
X242200000Y-96952700D01*
X242200000Y-96952700D02*
X242100000Y-96986033D01*
X242100000Y-96986033D02*
X242033333Y-96986033D01*
X242033333Y-96986033D02*
X241933333Y-96952700D01*
X241933333Y-96952700D02*
X241866667Y-96886033D01*
X241866667Y-96886033D02*
X241833333Y-96819366D01*
X241833333Y-96819366D02*
X241800000Y-96686033D01*
X241800000Y-96686033D02*
X241800000Y-96586033D01*
X241800000Y-96586033D02*
X241833333Y-96452700D01*
X241833333Y-96452700D02*
X241866667Y-96386033D01*
X241866667Y-96386033D02*
X241933333Y-96319366D01*
X241933333Y-96319366D02*
X242033333Y-96286033D01*
X242033333Y-96286033D02*
X242100000Y-96286033D01*
X242100000Y-96286033D02*
X242200000Y-96319366D01*
X242200000Y-96319366D02*
X242233333Y-96352700D01*
X242833333Y-96286033D02*
X242700000Y-96286033D01*
X242700000Y-96286033D02*
X242633333Y-96319366D01*
X242633333Y-96319366D02*
X242600000Y-96352700D01*
X242600000Y-96352700D02*
X242533333Y-96452700D01*
X242533333Y-96452700D02*
X242500000Y-96586033D01*
X242500000Y-96586033D02*
X242500000Y-96852700D01*
X242500000Y-96852700D02*
X242533333Y-96919366D01*
X242533333Y-96919366D02*
X242566667Y-96952700D01*
X242566667Y-96952700D02*
X242633333Y-96986033D01*
X242633333Y-96986033D02*
X242766667Y-96986033D01*
X242766667Y-96986033D02*
X242833333Y-96952700D01*
X242833333Y-96952700D02*
X242866667Y-96919366D01*
X242866667Y-96919366D02*
X242900000Y-96852700D01*
X242900000Y-96852700D02*
X242900000Y-96686033D01*
X242900000Y-96686033D02*
X242866667Y-96619366D01*
X242866667Y-96619366D02*
X242833333Y-96586033D01*
X242833333Y-96586033D02*
X242766667Y-96552700D01*
X242766667Y-96552700D02*
X242633333Y-96552700D01*
X242633333Y-96552700D02*
X242566667Y-96586033D01*
X242566667Y-96586033D02*
X242533333Y-96619366D01*
X242533333Y-96619366D02*
X242500000Y-96686033D01*
X205957142Y-100859580D02*
X205909523Y-100907200D01*
X205909523Y-100907200D02*
X205766666Y-100954819D01*
X205766666Y-100954819D02*
X205671428Y-100954819D01*
X205671428Y-100954819D02*
X205528571Y-100907200D01*
X205528571Y-100907200D02*
X205433333Y-100811961D01*
X205433333Y-100811961D02*
X205385714Y-100716723D01*
X205385714Y-100716723D02*
X205338095Y-100526247D01*
X205338095Y-100526247D02*
X205338095Y-100383390D01*
X205338095Y-100383390D02*
X205385714Y-100192914D01*
X205385714Y-100192914D02*
X205433333Y-100097676D01*
X205433333Y-100097676D02*
X205528571Y-100002438D01*
X205528571Y-100002438D02*
X205671428Y-99954819D01*
X205671428Y-99954819D02*
X205766666Y-99954819D01*
X205766666Y-99954819D02*
X205909523Y-100002438D01*
X205909523Y-100002438D02*
X205957142Y-100050057D01*
X206909523Y-100954819D02*
X206338095Y-100954819D01*
X206623809Y-100954819D02*
X206623809Y-99954819D01*
X206623809Y-99954819D02*
X206528571Y-100097676D01*
X206528571Y-100097676D02*
X206433333Y-100192914D01*
X206433333Y-100192914D02*
X206338095Y-100240533D01*
X207766666Y-100288152D02*
X207766666Y-100954819D01*
X207528571Y-99907200D02*
X207290476Y-100621485D01*
X207290476Y-100621485D02*
X207909523Y-100621485D01*
X237503333Y-98119580D02*
X237455714Y-98167200D01*
X237455714Y-98167200D02*
X237312857Y-98214819D01*
X237312857Y-98214819D02*
X237217619Y-98214819D01*
X237217619Y-98214819D02*
X237074762Y-98167200D01*
X237074762Y-98167200D02*
X236979524Y-98071961D01*
X236979524Y-98071961D02*
X236931905Y-97976723D01*
X236931905Y-97976723D02*
X236884286Y-97786247D01*
X236884286Y-97786247D02*
X236884286Y-97643390D01*
X236884286Y-97643390D02*
X236931905Y-97452914D01*
X236931905Y-97452914D02*
X236979524Y-97357676D01*
X236979524Y-97357676D02*
X237074762Y-97262438D01*
X237074762Y-97262438D02*
X237217619Y-97214819D01*
X237217619Y-97214819D02*
X237312857Y-97214819D01*
X237312857Y-97214819D02*
X237455714Y-97262438D01*
X237455714Y-97262438D02*
X237503333Y-97310057D01*
X238360476Y-97548152D02*
X238360476Y-98214819D01*
X238122381Y-97167200D02*
X237884286Y-97881485D01*
X237884286Y-97881485D02*
X238503333Y-97881485D01*
X210954819Y-95861904D02*
X211764342Y-95861904D01*
X211764342Y-95861904D02*
X211859580Y-95814285D01*
X211859580Y-95814285D02*
X211907200Y-95766666D01*
X211907200Y-95766666D02*
X211954819Y-95671428D01*
X211954819Y-95671428D02*
X211954819Y-95480952D01*
X211954819Y-95480952D02*
X211907200Y-95385714D01*
X211907200Y-95385714D02*
X211859580Y-95338095D01*
X211859580Y-95338095D02*
X211764342Y-95290476D01*
X211764342Y-95290476D02*
X210954819Y-95290476D01*
X211050057Y-94861904D02*
X211002438Y-94814285D01*
X211002438Y-94814285D02*
X210954819Y-94719047D01*
X210954819Y-94719047D02*
X210954819Y-94480952D01*
X210954819Y-94480952D02*
X211002438Y-94385714D01*
X211002438Y-94385714D02*
X211050057Y-94338095D01*
X211050057Y-94338095D02*
X211145295Y-94290476D01*
X211145295Y-94290476D02*
X211240533Y-94290476D01*
X211240533Y-94290476D02*
X211383390Y-94338095D01*
X211383390Y-94338095D02*
X211954819Y-94909523D01*
X211954819Y-94909523D02*
X211954819Y-94290476D01*
X256204819Y-97916666D02*
X256204819Y-98392856D01*
X256204819Y-98392856D02*
X255204819Y-98392856D01*
X255300057Y-97630951D02*
X255252438Y-97583332D01*
X255252438Y-97583332D02*
X255204819Y-97488094D01*
X255204819Y-97488094D02*
X255204819Y-97249999D01*
X255204819Y-97249999D02*
X255252438Y-97154761D01*
X255252438Y-97154761D02*
X255300057Y-97107142D01*
X255300057Y-97107142D02*
X255395295Y-97059523D01*
X255395295Y-97059523D02*
X255490533Y-97059523D01*
X255490533Y-97059523D02*
X255633390Y-97107142D01*
X255633390Y-97107142D02*
X256204819Y-97678570D01*
X256204819Y-97678570D02*
X256204819Y-97059523D01*
X202736666Y-102994819D02*
X202736666Y-103709104D01*
X202736666Y-103709104D02*
X202689047Y-103851961D01*
X202689047Y-103851961D02*
X202593809Y-103947200D01*
X202593809Y-103947200D02*
X202450952Y-103994819D01*
X202450952Y-103994819D02*
X202355714Y-103994819D01*
X203165238Y-103090057D02*
X203212857Y-103042438D01*
X203212857Y-103042438D02*
X203308095Y-102994819D01*
X203308095Y-102994819D02*
X203546190Y-102994819D01*
X203546190Y-102994819D02*
X203641428Y-103042438D01*
X203641428Y-103042438D02*
X203689047Y-103090057D01*
X203689047Y-103090057D02*
X203736666Y-103185295D01*
X203736666Y-103185295D02*
X203736666Y-103280533D01*
X203736666Y-103280533D02*
X203689047Y-103423390D01*
X203689047Y-103423390D02*
X203117619Y-103994819D01*
X203117619Y-103994819D02*
X203736666Y-103994819D01*
X233766666Y-103954819D02*
X233766666Y-104669104D01*
X233766666Y-104669104D02*
X233719047Y-104811961D01*
X233719047Y-104811961D02*
X233623809Y-104907200D01*
X233623809Y-104907200D02*
X233480952Y-104954819D01*
X233480952Y-104954819D02*
X233385714Y-104954819D01*
X234766666Y-104954819D02*
X234195238Y-104954819D01*
X234480952Y-104954819D02*
X234480952Y-103954819D01*
X234480952Y-103954819D02*
X234385714Y-104097676D01*
X234385714Y-104097676D02*
X234290476Y-104192914D01*
X234290476Y-104192914D02*
X234195238Y-104240533D01*
X218233333Y-100459580D02*
X218185714Y-100507200D01*
X218185714Y-100507200D02*
X218042857Y-100554819D01*
X218042857Y-100554819D02*
X217947619Y-100554819D01*
X217947619Y-100554819D02*
X217804762Y-100507200D01*
X217804762Y-100507200D02*
X217709524Y-100411961D01*
X217709524Y-100411961D02*
X217661905Y-100316723D01*
X217661905Y-100316723D02*
X217614286Y-100126247D01*
X217614286Y-100126247D02*
X217614286Y-99983390D01*
X217614286Y-99983390D02*
X217661905Y-99792914D01*
X217661905Y-99792914D02*
X217709524Y-99697676D01*
X217709524Y-99697676D02*
X217804762Y-99602438D01*
X217804762Y-99602438D02*
X217947619Y-99554819D01*
X217947619Y-99554819D02*
X218042857Y-99554819D01*
X218042857Y-99554819D02*
X218185714Y-99602438D01*
X218185714Y-99602438D02*
X218233333Y-99650057D01*
X218709524Y-100554819D02*
X218900000Y-100554819D01*
X218900000Y-100554819D02*
X218995238Y-100507200D01*
X218995238Y-100507200D02*
X219042857Y-100459580D01*
X219042857Y-100459580D02*
X219138095Y-100316723D01*
X219138095Y-100316723D02*
X219185714Y-100126247D01*
X219185714Y-100126247D02*
X219185714Y-99745295D01*
X219185714Y-99745295D02*
X219138095Y-99650057D01*
X219138095Y-99650057D02*
X219090476Y-99602438D01*
X219090476Y-99602438D02*
X218995238Y-99554819D01*
X218995238Y-99554819D02*
X218804762Y-99554819D01*
X218804762Y-99554819D02*
X218709524Y-99602438D01*
X218709524Y-99602438D02*
X218661905Y-99650057D01*
X218661905Y-99650057D02*
X218614286Y-99745295D01*
X218614286Y-99745295D02*
X218614286Y-99983390D01*
X218614286Y-99983390D02*
X218661905Y-100078628D01*
X218661905Y-100078628D02*
X218709524Y-100126247D01*
X218709524Y-100126247D02*
X218804762Y-100173866D01*
X218804762Y-100173866D02*
X218995238Y-100173866D01*
X218995238Y-100173866D02*
X219090476Y-100126247D01*
X219090476Y-100126247D02*
X219138095Y-100078628D01*
X219138095Y-100078628D02*
X219185714Y-99983390D01*
X248738095Y-98954819D02*
X248738095Y-99764342D01*
X248738095Y-99764342D02*
X248785714Y-99859580D01*
X248785714Y-99859580D02*
X248833333Y-99907200D01*
X248833333Y-99907200D02*
X248928571Y-99954819D01*
X248928571Y-99954819D02*
X249119047Y-99954819D01*
X249119047Y-99954819D02*
X249214285Y-99907200D01*
X249214285Y-99907200D02*
X249261904Y-99859580D01*
X249261904Y-99859580D02*
X249309523Y-99764342D01*
X249309523Y-99764342D02*
X249309523Y-98954819D01*
X250309523Y-99954819D02*
X249738095Y-99954819D01*
X250023809Y-99954819D02*
X250023809Y-98954819D01*
X250023809Y-98954819D02*
X249928571Y-99097676D01*
X249928571Y-99097676D02*
X249833333Y-99192914D01*
X249833333Y-99192914D02*
X249738095Y-99240533D01*
X190624819Y-97736666D02*
X190624819Y-98212856D01*
X190624819Y-98212856D02*
X189624819Y-98212856D01*
X189624819Y-97498570D02*
X189624819Y-96879523D01*
X189624819Y-96879523D02*
X190005771Y-97212856D01*
X190005771Y-97212856D02*
X190005771Y-97069999D01*
X190005771Y-97069999D02*
X190053390Y-96974761D01*
X190053390Y-96974761D02*
X190101009Y-96927142D01*
X190101009Y-96927142D02*
X190196247Y-96879523D01*
X190196247Y-96879523D02*
X190434342Y-96879523D01*
X190434342Y-96879523D02*
X190529580Y-96927142D01*
X190529580Y-96927142D02*
X190577200Y-96974761D01*
X190577200Y-96974761D02*
X190624819Y-97069999D01*
X190624819Y-97069999D02*
X190624819Y-97355713D01*
X190624819Y-97355713D02*
X190577200Y-97450951D01*
X190577200Y-97450951D02*
X190529580Y-97498570D01*
X236109580Y-100916666D02*
X236157200Y-100964285D01*
X236157200Y-100964285D02*
X236204819Y-101107142D01*
X236204819Y-101107142D02*
X236204819Y-101202380D01*
X236204819Y-101202380D02*
X236157200Y-101345237D01*
X236157200Y-101345237D02*
X236061961Y-101440475D01*
X236061961Y-101440475D02*
X235966723Y-101488094D01*
X235966723Y-101488094D02*
X235776247Y-101535713D01*
X235776247Y-101535713D02*
X235633390Y-101535713D01*
X235633390Y-101535713D02*
X235442914Y-101488094D01*
X235442914Y-101488094D02*
X235347676Y-101440475D01*
X235347676Y-101440475D02*
X235252438Y-101345237D01*
X235252438Y-101345237D02*
X235204819Y-101202380D01*
X235204819Y-101202380D02*
X235204819Y-101107142D01*
X235204819Y-101107142D02*
X235252438Y-100964285D01*
X235252438Y-100964285D02*
X235300057Y-100916666D01*
X235204819Y-100011904D02*
X235204819Y-100488094D01*
X235204819Y-100488094D02*
X235681009Y-100535713D01*
X235681009Y-100535713D02*
X235633390Y-100488094D01*
X235633390Y-100488094D02*
X235585771Y-100392856D01*
X235585771Y-100392856D02*
X235585771Y-100154761D01*
X235585771Y-100154761D02*
X235633390Y-100059523D01*
X235633390Y-100059523D02*
X235681009Y-100011904D01*
X235681009Y-100011904D02*
X235776247Y-99964285D01*
X235776247Y-99964285D02*
X236014342Y-99964285D01*
X236014342Y-99964285D02*
X236109580Y-100011904D01*
X236109580Y-100011904D02*
X236157200Y-100059523D01*
X236157200Y-100059523D02*
X236204819Y-100154761D01*
X236204819Y-100154761D02*
X236204819Y-100392856D01*
X236204819Y-100392856D02*
X236157200Y-100488094D01*
X236157200Y-100488094D02*
X236109580Y-100535713D01*
X215033333Y-100089580D02*
X214985714Y-100137200D01*
X214985714Y-100137200D02*
X214842857Y-100184819D01*
X214842857Y-100184819D02*
X214747619Y-100184819D01*
X214747619Y-100184819D02*
X214604762Y-100137200D01*
X214604762Y-100137200D02*
X214509524Y-100041961D01*
X214509524Y-100041961D02*
X214461905Y-99946723D01*
X214461905Y-99946723D02*
X214414286Y-99756247D01*
X214414286Y-99756247D02*
X214414286Y-99613390D01*
X214414286Y-99613390D02*
X214461905Y-99422914D01*
X214461905Y-99422914D02*
X214509524Y-99327676D01*
X214509524Y-99327676D02*
X214604762Y-99232438D01*
X214604762Y-99232438D02*
X214747619Y-99184819D01*
X214747619Y-99184819D02*
X214842857Y-99184819D01*
X214842857Y-99184819D02*
X214985714Y-99232438D01*
X214985714Y-99232438D02*
X215033333Y-99280057D01*
X215604762Y-99613390D02*
X215509524Y-99565771D01*
X215509524Y-99565771D02*
X215461905Y-99518152D01*
X215461905Y-99518152D02*
X215414286Y-99422914D01*
X215414286Y-99422914D02*
X215414286Y-99375295D01*
X215414286Y-99375295D02*
X215461905Y-99280057D01*
X215461905Y-99280057D02*
X215509524Y-99232438D01*
X215509524Y-99232438D02*
X215604762Y-99184819D01*
X215604762Y-99184819D02*
X215795238Y-99184819D01*
X215795238Y-99184819D02*
X215890476Y-99232438D01*
X215890476Y-99232438D02*
X215938095Y-99280057D01*
X215938095Y-99280057D02*
X215985714Y-99375295D01*
X215985714Y-99375295D02*
X215985714Y-99422914D01*
X215985714Y-99422914D02*
X215938095Y-99518152D01*
X215938095Y-99518152D02*
X215890476Y-99565771D01*
X215890476Y-99565771D02*
X215795238Y-99613390D01*
X215795238Y-99613390D02*
X215604762Y-99613390D01*
X215604762Y-99613390D02*
X215509524Y-99661009D01*
X215509524Y-99661009D02*
X215461905Y-99708628D01*
X215461905Y-99708628D02*
X215414286Y-99803866D01*
X215414286Y-99803866D02*
X215414286Y-99994342D01*
X215414286Y-99994342D02*
X215461905Y-100089580D01*
X215461905Y-100089580D02*
X215509524Y-100137200D01*
X215509524Y-100137200D02*
X215604762Y-100184819D01*
X215604762Y-100184819D02*
X215795238Y-100184819D01*
X215795238Y-100184819D02*
X215890476Y-100137200D01*
X215890476Y-100137200D02*
X215938095Y-100089580D01*
X215938095Y-100089580D02*
X215985714Y-99994342D01*
X215985714Y-99994342D02*
X215985714Y-99803866D01*
X215985714Y-99803866D02*
X215938095Y-99708628D01*
X215938095Y-99708628D02*
X215890476Y-99661009D01*
X215890476Y-99661009D02*
X215795238Y-99613390D01*
X196967142Y-98409580D02*
X196919523Y-98457200D01*
X196919523Y-98457200D02*
X196776666Y-98504819D01*
X196776666Y-98504819D02*
X196681428Y-98504819D01*
X196681428Y-98504819D02*
X196538571Y-98457200D01*
X196538571Y-98457200D02*
X196443333Y-98361961D01*
X196443333Y-98361961D02*
X196395714Y-98266723D01*
X196395714Y-98266723D02*
X196348095Y-98076247D01*
X196348095Y-98076247D02*
X196348095Y-97933390D01*
X196348095Y-97933390D02*
X196395714Y-97742914D01*
X196395714Y-97742914D02*
X196443333Y-97647676D01*
X196443333Y-97647676D02*
X196538571Y-97552438D01*
X196538571Y-97552438D02*
X196681428Y-97504819D01*
X196681428Y-97504819D02*
X196776666Y-97504819D01*
X196776666Y-97504819D02*
X196919523Y-97552438D01*
X196919523Y-97552438D02*
X196967142Y-97600057D01*
X197919523Y-98504819D02*
X197348095Y-98504819D01*
X197633809Y-98504819D02*
X197633809Y-97504819D01*
X197633809Y-97504819D02*
X197538571Y-97647676D01*
X197538571Y-97647676D02*
X197443333Y-97742914D01*
X197443333Y-97742914D02*
X197348095Y-97790533D01*
X198538571Y-97504819D02*
X198633809Y-97504819D01*
X198633809Y-97504819D02*
X198729047Y-97552438D01*
X198729047Y-97552438D02*
X198776666Y-97600057D01*
X198776666Y-97600057D02*
X198824285Y-97695295D01*
X198824285Y-97695295D02*
X198871904Y-97885771D01*
X198871904Y-97885771D02*
X198871904Y-98123866D01*
X198871904Y-98123866D02*
X198824285Y-98314342D01*
X198824285Y-98314342D02*
X198776666Y-98409580D01*
X198776666Y-98409580D02*
X198729047Y-98457200D01*
X198729047Y-98457200D02*
X198633809Y-98504819D01*
X198633809Y-98504819D02*
X198538571Y-98504819D01*
X198538571Y-98504819D02*
X198443333Y-98457200D01*
X198443333Y-98457200D02*
X198395714Y-98409580D01*
X198395714Y-98409580D02*
X198348095Y-98314342D01*
X198348095Y-98314342D02*
X198300476Y-98123866D01*
X198300476Y-98123866D02*
X198300476Y-97885771D01*
X198300476Y-97885771D02*
X198348095Y-97695295D01*
X198348095Y-97695295D02*
X198395714Y-97600057D01*
X198395714Y-97600057D02*
X198443333Y-97552438D01*
X198443333Y-97552438D02*
X198538571Y-97504819D01*
X250583333Y-104954819D02*
X250250000Y-104478628D01*
X250011905Y-104954819D02*
X250011905Y-103954819D01*
X250011905Y-103954819D02*
X250392857Y-103954819D01*
X250392857Y-103954819D02*
X250488095Y-104002438D01*
X250488095Y-104002438D02*
X250535714Y-104050057D01*
X250535714Y-104050057D02*
X250583333Y-104145295D01*
X250583333Y-104145295D02*
X250583333Y-104288152D01*
X250583333Y-104288152D02*
X250535714Y-104383390D01*
X250535714Y-104383390D02*
X250488095Y-104431009D01*
X250488095Y-104431009D02*
X250392857Y-104478628D01*
X250392857Y-104478628D02*
X250011905Y-104478628D01*
X250964286Y-104050057D02*
X251011905Y-104002438D01*
X251011905Y-104002438D02*
X251107143Y-103954819D01*
X251107143Y-103954819D02*
X251345238Y-103954819D01*
X251345238Y-103954819D02*
X251440476Y-104002438D01*
X251440476Y-104002438D02*
X251488095Y-104050057D01*
X251488095Y-104050057D02*
X251535714Y-104145295D01*
X251535714Y-104145295D02*
X251535714Y-104240533D01*
X251535714Y-104240533D02*
X251488095Y-104383390D01*
X251488095Y-104383390D02*
X250916667Y-104954819D01*
X250916667Y-104954819D02*
X251535714Y-104954819D01*
X251204819Y-103166666D02*
X251204819Y-103642856D01*
X251204819Y-103642856D02*
X250204819Y-103642856D01*
X251204819Y-102309523D02*
X251204819Y-102880951D01*
X251204819Y-102595237D02*
X250204819Y-102595237D01*
X250204819Y-102595237D02*
X250347676Y-102690475D01*
X250347676Y-102690475D02*
X250442914Y-102785713D01*
X250442914Y-102785713D02*
X250490533Y-102880951D01*
X199063333Y-95074819D02*
X198587143Y-95074819D01*
X198587143Y-95074819D02*
X198587143Y-94074819D01*
X199825238Y-94408152D02*
X199825238Y-95074819D01*
X199587143Y-94027200D02*
X199349048Y-94741485D01*
X199349048Y-94741485D02*
X199968095Y-94741485D01*
X251583333Y-100109580D02*
X251535714Y-100157200D01*
X251535714Y-100157200D02*
X251392857Y-100204819D01*
X251392857Y-100204819D02*
X251297619Y-100204819D01*
X251297619Y-100204819D02*
X251154762Y-100157200D01*
X251154762Y-100157200D02*
X251059524Y-100061961D01*
X251059524Y-100061961D02*
X251011905Y-99966723D01*
X251011905Y-99966723D02*
X250964286Y-99776247D01*
X250964286Y-99776247D02*
X250964286Y-99633390D01*
X250964286Y-99633390D02*
X251011905Y-99442914D01*
X251011905Y-99442914D02*
X251059524Y-99347676D01*
X251059524Y-99347676D02*
X251154762Y-99252438D01*
X251154762Y-99252438D02*
X251297619Y-99204819D01*
X251297619Y-99204819D02*
X251392857Y-99204819D01*
X251392857Y-99204819D02*
X251535714Y-99252438D01*
X251535714Y-99252438D02*
X251583333Y-99300057D01*
X251964286Y-99300057D02*
X252011905Y-99252438D01*
X252011905Y-99252438D02*
X252107143Y-99204819D01*
X252107143Y-99204819D02*
X252345238Y-99204819D01*
X252345238Y-99204819D02*
X252440476Y-99252438D01*
X252440476Y-99252438D02*
X252488095Y-99300057D01*
X252488095Y-99300057D02*
X252535714Y-99395295D01*
X252535714Y-99395295D02*
X252535714Y-99490533D01*
X252535714Y-99490533D02*
X252488095Y-99633390D01*
X252488095Y-99633390D02*
X251916667Y-100204819D01*
X251916667Y-100204819D02*
X252535714Y-100204819D01*
X217023809Y-93278628D02*
X217023809Y-93754819D01*
X216690476Y-92754819D02*
X217023809Y-93278628D01*
X217023809Y-93278628D02*
X217357142Y-92754819D01*
X217642857Y-92850057D02*
X217690476Y-92802438D01*
X217690476Y-92802438D02*
X217785714Y-92754819D01*
X217785714Y-92754819D02*
X218023809Y-92754819D01*
X218023809Y-92754819D02*
X218119047Y-92802438D01*
X218119047Y-92802438D02*
X218166666Y-92850057D01*
X218166666Y-92850057D02*
X218214285Y-92945295D01*
X218214285Y-92945295D02*
X218214285Y-93040533D01*
X218214285Y-93040533D02*
X218166666Y-93183390D01*
X218166666Y-93183390D02*
X217595238Y-93754819D01*
X217595238Y-93754819D02*
X218214285Y-93754819D01*
X219459580Y-95866666D02*
X219507200Y-95914285D01*
X219507200Y-95914285D02*
X219554819Y-96057142D01*
X219554819Y-96057142D02*
X219554819Y-96152380D01*
X219554819Y-96152380D02*
X219507200Y-96295237D01*
X219507200Y-96295237D02*
X219411961Y-96390475D01*
X219411961Y-96390475D02*
X219316723Y-96438094D01*
X219316723Y-96438094D02*
X219126247Y-96485713D01*
X219126247Y-96485713D02*
X218983390Y-96485713D01*
X218983390Y-96485713D02*
X218792914Y-96438094D01*
X218792914Y-96438094D02*
X218697676Y-96390475D01*
X218697676Y-96390475D02*
X218602438Y-96295237D01*
X218602438Y-96295237D02*
X218554819Y-96152380D01*
X218554819Y-96152380D02*
X218554819Y-96057142D01*
X218554819Y-96057142D02*
X218602438Y-95914285D01*
X218602438Y-95914285D02*
X218650057Y-95866666D01*
X218554819Y-95533332D02*
X218554819Y-94866666D01*
X218554819Y-94866666D02*
X219554819Y-95295237D01*
X243774819Y-103666666D02*
X243298628Y-103999999D01*
X243774819Y-104238094D02*
X242774819Y-104238094D01*
X242774819Y-104238094D02*
X242774819Y-103857142D01*
X242774819Y-103857142D02*
X242822438Y-103761904D01*
X242822438Y-103761904D02*
X242870057Y-103714285D01*
X242870057Y-103714285D02*
X242965295Y-103666666D01*
X242965295Y-103666666D02*
X243108152Y-103666666D01*
X243108152Y-103666666D02*
X243203390Y-103714285D01*
X243203390Y-103714285D02*
X243251009Y-103761904D01*
X243251009Y-103761904D02*
X243298628Y-103857142D01*
X243298628Y-103857142D02*
X243298628Y-104238094D01*
X243774819Y-102714285D02*
X243774819Y-103285713D01*
X243774819Y-102999999D02*
X242774819Y-102999999D01*
X242774819Y-102999999D02*
X242917676Y-103095237D01*
X242917676Y-103095237D02*
X243012914Y-103190475D01*
X243012914Y-103190475D02*
X243060533Y-103285713D01*
X247833333Y-95859580D02*
X247785714Y-95907200D01*
X247785714Y-95907200D02*
X247642857Y-95954819D01*
X247642857Y-95954819D02*
X247547619Y-95954819D01*
X247547619Y-95954819D02*
X247404762Y-95907200D01*
X247404762Y-95907200D02*
X247309524Y-95811961D01*
X247309524Y-95811961D02*
X247261905Y-95716723D01*
X247261905Y-95716723D02*
X247214286Y-95526247D01*
X247214286Y-95526247D02*
X247214286Y-95383390D01*
X247214286Y-95383390D02*
X247261905Y-95192914D01*
X247261905Y-95192914D02*
X247309524Y-95097676D01*
X247309524Y-95097676D02*
X247404762Y-95002438D01*
X247404762Y-95002438D02*
X247547619Y-94954819D01*
X247547619Y-94954819D02*
X247642857Y-94954819D01*
X247642857Y-94954819D02*
X247785714Y-95002438D01*
X247785714Y-95002438D02*
X247833333Y-95050057D01*
X248785714Y-95954819D02*
X248214286Y-95954819D01*
X248500000Y-95954819D02*
X248500000Y-94954819D01*
X248500000Y-94954819D02*
X248404762Y-95097676D01*
X248404762Y-95097676D02*
X248309524Y-95192914D01*
X248309524Y-95192914D02*
X248214286Y-95240533D01*
X193787142Y-98559580D02*
X193739523Y-98607200D01*
X193739523Y-98607200D02*
X193596666Y-98654819D01*
X193596666Y-98654819D02*
X193501428Y-98654819D01*
X193501428Y-98654819D02*
X193358571Y-98607200D01*
X193358571Y-98607200D02*
X193263333Y-98511961D01*
X193263333Y-98511961D02*
X193215714Y-98416723D01*
X193215714Y-98416723D02*
X193168095Y-98226247D01*
X193168095Y-98226247D02*
X193168095Y-98083390D01*
X193168095Y-98083390D02*
X193215714Y-97892914D01*
X193215714Y-97892914D02*
X193263333Y-97797676D01*
X193263333Y-97797676D02*
X193358571Y-97702438D01*
X193358571Y-97702438D02*
X193501428Y-97654819D01*
X193501428Y-97654819D02*
X193596666Y-97654819D01*
X193596666Y-97654819D02*
X193739523Y-97702438D01*
X193739523Y-97702438D02*
X193787142Y-97750057D01*
X194739523Y-98654819D02*
X194168095Y-98654819D01*
X194453809Y-98654819D02*
X194453809Y-97654819D01*
X194453809Y-97654819D02*
X194358571Y-97797676D01*
X194358571Y-97797676D02*
X194263333Y-97892914D01*
X194263333Y-97892914D02*
X194168095Y-97940533D01*
X195691904Y-98654819D02*
X195120476Y-98654819D01*
X195406190Y-98654819D02*
X195406190Y-97654819D01*
X195406190Y-97654819D02*
X195310952Y-97797676D01*
X195310952Y-97797676D02*
X195215714Y-97892914D01*
X195215714Y-97892914D02*
X195120476Y-97940533D01*
D13*
%TO.C,C3*%
X253490000Y-95109420D02*
X253490000Y-95390580D01*
X254510000Y-95109420D02*
X254510000Y-95390580D01*
%TO.C,R3*%
X201329721Y-101000000D02*
X201655279Y-101000000D01*
X201329721Y-102020000D02*
X201655279Y-102020000D01*
%TO.C,Y3*%
X238350000Y-98700000D02*
X238350000Y-102000000D01*
X238350000Y-102000000D02*
X242350000Y-102000000D01*
%TO.C,C13*%
X201690000Y-98859420D02*
X201690000Y-99140580D01*
X202710000Y-98859420D02*
X202710000Y-99140580D01*
%TO.C,C12*%
X212190000Y-98759420D02*
X212190000Y-99040580D01*
X213210000Y-98759420D02*
X213210000Y-99040580D01*
D14*
%TO.C,Logo1*%
G36*
X240912614Y-85806264D02*
G01*
X240929035Y-85820361D01*
X240960588Y-85865060D01*
X240958913Y-85901907D01*
X240924315Y-85929829D01*
X240895232Y-85939982D01*
X240835300Y-85968511D01*
X240766196Y-86021080D01*
X240692843Y-86091548D01*
X240620161Y-86173777D01*
X240553072Y-86261624D01*
X240496495Y-86348952D01*
X240455353Y-86429618D01*
X240434565Y-86497484D01*
X240433008Y-86516729D01*
X240424712Y-86550106D01*
X240405187Y-86587464D01*
X240382482Y-86615679D01*
X240367897Y-86622916D01*
X240342570Y-86615934D01*
X240334298Y-86612819D01*
X240298555Y-86581390D01*
X240277551Y-86527333D01*
X240274075Y-86460073D01*
X240279244Y-86426785D01*
X240309064Y-86331066D01*
X240356570Y-86238982D01*
X240425888Y-86143942D01*
X240521141Y-86039355D01*
X240522619Y-86037852D01*
X240623005Y-85939328D01*
X240705602Y-85866720D01*
X240773135Y-85818568D01*
X240828331Y-85793414D01*
X240873915Y-85789799D01*
X240912614Y-85806264D01*
G37*
G36*
X246161144Y-86133241D02*
G01*
X246170597Y-86137497D01*
X246216392Y-86168816D01*
X246251549Y-86210259D01*
X246273570Y-86254633D01*
X246279958Y-86294749D01*
X246268215Y-86323414D01*
X246238674Y-86333492D01*
X246208243Y-86323045D01*
X246167929Y-86297144D01*
X246158055Y-86289216D01*
X246112028Y-86258820D01*
X246069385Y-86252791D01*
X246055870Y-86254853D01*
X245963312Y-86287877D01*
X245864604Y-86348650D01*
X245764431Y-86432471D01*
X245667478Y-86534641D01*
X245578430Y-86650460D01*
X245501972Y-86775228D01*
X245467288Y-86845288D01*
X245428266Y-86930314D01*
X245399569Y-86987603D01*
X245377884Y-87020790D01*
X245359895Y-87033510D01*
X245342288Y-87029396D01*
X245321748Y-87012083D01*
X245318293Y-87008657D01*
X245296082Y-86969870D01*
X245294085Y-86915530D01*
X245312826Y-86842230D01*
X245352825Y-86746566D01*
X245361159Y-86729111D01*
X245396889Y-86660127D01*
X245434251Y-86600655D01*
X245479734Y-86542117D01*
X245539825Y-86475937D01*
X245596344Y-86418172D01*
X245719191Y-86301797D01*
X245827710Y-86214367D01*
X245924031Y-86154838D01*
X246010289Y-86122170D01*
X246088615Y-86115318D01*
X246161144Y-86133241D01*
G37*
G36*
X238485336Y-87154349D02*
G01*
X238499984Y-87191177D01*
X238500214Y-87198336D01*
X238484178Y-87253980D01*
X238439391Y-87299636D01*
X238370833Y-87331004D01*
X238337722Y-87338612D01*
X238283586Y-87352139D01*
X238258120Y-87368134D01*
X238256856Y-87374879D01*
X238247585Y-87390487D01*
X238231200Y-87391254D01*
X238186946Y-87396458D01*
X238161292Y-87424608D01*
X238158126Y-87443549D01*
X238142439Y-87470752D01*
X238094342Y-87494951D01*
X238085622Y-87497939D01*
X238033359Y-87519693D01*
X237991372Y-87544799D01*
X237982996Y-87551989D01*
X237951256Y-87575381D01*
X237930417Y-87582112D01*
X237905058Y-87593614D01*
X237869980Y-87622191D01*
X237860440Y-87631712D01*
X237804256Y-87673182D01*
X237744128Y-87689533D01*
X237689409Y-87678673D01*
X237678854Y-87672305D01*
X237650128Y-87638502D01*
X237647277Y-87593391D01*
X237670943Y-87534328D01*
X237721770Y-87458665D01*
X237734793Y-87441887D01*
X237781253Y-87382676D01*
X237823663Y-87327925D01*
X237854279Y-87287647D01*
X237858800Y-87281536D01*
X237899471Y-87241073D01*
X237944322Y-87213236D01*
X237994501Y-87201370D01*
X238023745Y-87216521D01*
X238031657Y-87258349D01*
X238028271Y-87285154D01*
X238023906Y-87323410D01*
X238027273Y-87342243D01*
X238028509Y-87342651D01*
X238051849Y-87334727D01*
X238097248Y-87313551D01*
X238157160Y-87283020D01*
X238224042Y-87247028D01*
X238290350Y-87209471D01*
X238317059Y-87193659D01*
X238392358Y-87155551D01*
X238448955Y-87142461D01*
X238485336Y-87154349D01*
G37*
G36*
X240775503Y-86863892D02*
G01*
X240811755Y-86905104D01*
X240812857Y-86907455D01*
X240819271Y-86956795D01*
X240797741Y-87001257D01*
X240754422Y-87033242D01*
X240701357Y-87045095D01*
X240645488Y-87053620D01*
X240599550Y-87072663D01*
X240570842Y-87097479D01*
X240566663Y-87123323D01*
X240570793Y-87129990D01*
X240599555Y-87151064D01*
X240614104Y-87154502D01*
X240649508Y-87167847D01*
X240691204Y-87200999D01*
X240729284Y-87243636D01*
X240753840Y-87285433D01*
X240757992Y-87304435D01*
X240744014Y-87361235D01*
X240705746Y-87428808D01*
X240648688Y-87501107D01*
X240578336Y-87572087D01*
X240500189Y-87635700D01*
X240419746Y-87685900D01*
X240403980Y-87693744D01*
X240362999Y-87717024D01*
X240336622Y-87738901D01*
X240335204Y-87740871D01*
X240288323Y-87790003D01*
X240232055Y-87806407D01*
X240198218Y-87801622D01*
X240145456Y-87776717D01*
X240119462Y-87741292D01*
X240123149Y-87701033D01*
X240136595Y-87681352D01*
X240173411Y-87649649D01*
X240202164Y-87633487D01*
X240237721Y-87614370D01*
X240289659Y-87579886D01*
X240350565Y-87535745D01*
X240413026Y-87487661D01*
X240469630Y-87441346D01*
X240512964Y-87402512D01*
X240535615Y-87376872D01*
X240535960Y-87376252D01*
X240547317Y-87354920D01*
X240549092Y-87340574D01*
X240535929Y-87327169D01*
X240502474Y-87308662D01*
X240455003Y-87284866D01*
X240379725Y-87236138D01*
X240337535Y-87182874D01*
X240328740Y-87126245D01*
X240353646Y-87067421D01*
X240387816Y-87028785D01*
X240482450Y-86949323D01*
X240571663Y-86892209D01*
X240652329Y-86858338D01*
X240721318Y-86848601D01*
X240775503Y-86863892D01*
G37*
G36*
X243925668Y-86820708D02*
G01*
X243973063Y-86839123D01*
X243987645Y-86846951D01*
X244058944Y-86903396D01*
X244099910Y-86975120D01*
X244110450Y-87044768D01*
X244106141Y-87086733D01*
X244088971Y-87122286D01*
X244052570Y-87162846D01*
X244035588Y-87178964D01*
X243911882Y-87274695D01*
X243759951Y-87359290D01*
X243592168Y-87427440D01*
X243497275Y-87460825D01*
X243430224Y-87486676D01*
X243386170Y-87507536D01*
X243360263Y-87525950D01*
X243347658Y-87544464D01*
X243344330Y-87557555D01*
X243349900Y-87583511D01*
X243378617Y-87608641D01*
X243418129Y-87629992D01*
X243465189Y-87655439D01*
X243487523Y-87677311D01*
X243492433Y-87704063D01*
X243491522Y-87714986D01*
X243485413Y-87742911D01*
X243469225Y-87757355D01*
X243433589Y-87763501D01*
X243400618Y-87765295D01*
X243342708Y-87764476D01*
X243294060Y-87758288D01*
X243278974Y-87753892D01*
X243220019Y-87712564D01*
X243184124Y-87650699D01*
X243172850Y-87574368D01*
X243187759Y-87489642D01*
X243201828Y-87453829D01*
X243240596Y-87386452D01*
X243299891Y-87304565D01*
X243330375Y-87267642D01*
X243528901Y-87267642D01*
X243529749Y-87282654D01*
X243536912Y-87288824D01*
X243557318Y-87285356D01*
X243597894Y-87271455D01*
X243643714Y-87254454D01*
X243740021Y-87213280D01*
X243824550Y-87167072D01*
X243892187Y-87119480D01*
X243937823Y-87074151D01*
X243956346Y-87034731D01*
X243956510Y-87031239D01*
X243943153Y-86997120D01*
X243907623Y-86982330D01*
X243856726Y-86988028D01*
X243812113Y-87006689D01*
X243767179Y-87035840D01*
X243713033Y-87077837D01*
X243656154Y-87126710D01*
X243603021Y-87176490D01*
X243560114Y-87221204D01*
X243533914Y-87254884D01*
X243528901Y-87267642D01*
X243330375Y-87267642D01*
X243373666Y-87215206D01*
X243455876Y-87125409D01*
X243540476Y-87042211D01*
X243601558Y-86988622D01*
X243694782Y-86914216D01*
X243768769Y-86862069D01*
X243828556Y-86830334D01*
X243879177Y-86817163D01*
X243925668Y-86820708D01*
G37*
G36*
X244733129Y-86895962D02*
G01*
X244756521Y-86931097D01*
X244759721Y-86956947D01*
X244743639Y-87002458D01*
X244699904Y-87055518D01*
X244632885Y-87111647D01*
X244566296Y-87155245D01*
X244496263Y-87202126D01*
X244435905Y-87252679D01*
X244391332Y-87300899D01*
X244368653Y-87340776D01*
X244367015Y-87351196D01*
X244382569Y-87382220D01*
X244426192Y-87401509D01*
X244493326Y-87407611D01*
X244536176Y-87405074D01*
X244642763Y-87390252D01*
X244740181Y-87369281D01*
X244819754Y-87344361D01*
X244868361Y-87320762D01*
X244908007Y-87301185D01*
X244940578Y-87304707D01*
X244950443Y-87309447D01*
X244970203Y-87323984D01*
X244978060Y-87344907D01*
X244973610Y-87379253D01*
X244956450Y-87434058D01*
X244940854Y-87477078D01*
X244926267Y-87529407D01*
X244922046Y-87573398D01*
X244923892Y-87585215D01*
X244929753Y-87638948D01*
X244913868Y-87680455D01*
X244880253Y-87701000D01*
X244870307Y-87701842D01*
X244839978Y-87695250D01*
X244815958Y-87670305D01*
X244793176Y-87625581D01*
X244770152Y-87578793D01*
X244749891Y-87546345D01*
X244742775Y-87539019D01*
X244714969Y-87539827D01*
X244668333Y-87559619D01*
X244609329Y-87594346D01*
X244544415Y-87639956D01*
X244480052Y-87692397D01*
X244442467Y-87727343D01*
X244376965Y-87798074D01*
X244334037Y-87860681D01*
X244309029Y-87918431D01*
X244279171Y-87986116D01*
X244244956Y-88021048D01*
X244221451Y-88026826D01*
X244206235Y-88016310D01*
X244188667Y-87999973D01*
X244158547Y-87947033D01*
X244156204Y-87879597D01*
X244180729Y-87801806D01*
X244231214Y-87717801D01*
X244258064Y-87683869D01*
X244305101Y-87628139D01*
X244332240Y-87591731D01*
X244340856Y-87567174D01*
X244332321Y-87546998D01*
X244308011Y-87523735D01*
X244290309Y-87508559D01*
X244249419Y-87468067D01*
X244228170Y-87428081D01*
X244218147Y-87372054D01*
X244217478Y-87365344D01*
X244214296Y-87316006D01*
X244219660Y-87281252D01*
X244238417Y-87248673D01*
X244275415Y-87205858D01*
X244282993Y-87197617D01*
X244336064Y-87146964D01*
X244404060Y-87091344D01*
X244472069Y-87042928D01*
X244531003Y-87001673D01*
X244581214Y-86960920D01*
X244613135Y-86928535D01*
X244615919Y-86924635D01*
X244652977Y-86890517D01*
X244695330Y-86881697D01*
X244733129Y-86895962D01*
G37*
G36*
X247930624Y-86855962D02*
G01*
X247964866Y-86877850D01*
X247989127Y-86907197D01*
X247993090Y-86921968D01*
X247982352Y-86940927D01*
X247952874Y-86980304D01*
X247908701Y-87035002D01*
X247853876Y-87099921D01*
X247830879Y-87126453D01*
X247758647Y-87211391D01*
X247706765Y-87278238D01*
X247671186Y-87332879D01*
X247647859Y-87381199D01*
X247639660Y-87404399D01*
X247621135Y-87457365D01*
X247604187Y-87485053D01*
X247582217Y-87495401D01*
X247563012Y-87496590D01*
X247517918Y-87482660D01*
X247491512Y-87443815D01*
X247484882Y-87384476D01*
X247499114Y-87309062D01*
X247509484Y-87279010D01*
X247507110Y-87260835D01*
X247481175Y-87261477D01*
X247435737Y-87279570D01*
X247374854Y-87313747D01*
X247340870Y-87335779D01*
X247235903Y-87401447D01*
X247132377Y-87456878D01*
X247035672Y-87499892D01*
X246951168Y-87528311D01*
X246884247Y-87539954D01*
X246847150Y-87535785D01*
X246791598Y-87499319D01*
X246749886Y-87441339D01*
X246733462Y-87390679D01*
X246725502Y-87349201D01*
X246718623Y-87326817D01*
X246717288Y-87325546D01*
X246691877Y-87334825D01*
X246648765Y-87358573D01*
X246597563Y-87390661D01*
X246547879Y-87424957D01*
X246509322Y-87455330D01*
X246499919Y-87464225D01*
X246444104Y-87504378D01*
X246387910Y-87514550D01*
X246337750Y-87495021D01*
X246304861Y-87455676D01*
X246293651Y-87425306D01*
X246298490Y-87397898D01*
X246322949Y-87369936D01*
X246370599Y-87337906D01*
X246445014Y-87298293D01*
X246484651Y-87278772D01*
X246562340Y-87238542D01*
X246653342Y-87187462D01*
X246751017Y-87129679D01*
X246848725Y-87069340D01*
X246939826Y-87010593D01*
X247017679Y-86957583D01*
X247075646Y-86914458D01*
X247096266Y-86896810D01*
X247140267Y-86871181D01*
X247188076Y-86865618D01*
X247229540Y-86878297D01*
X247254506Y-86907396D01*
X247257655Y-86925792D01*
X247246165Y-86945508D01*
X247214912Y-86983477D01*
X247168717Y-87034170D01*
X247114486Y-87089976D01*
X247032068Y-87176304D01*
X246972268Y-87247502D01*
X246936236Y-87301922D01*
X246925121Y-87337916D01*
X246932389Y-87351028D01*
X246964497Y-87352981D01*
X247022174Y-87336919D01*
X247102753Y-87304143D01*
X247203568Y-87255953D01*
X247321953Y-87193651D01*
X247455243Y-87118538D01*
X247600771Y-87031914D01*
X247656211Y-86997810D01*
X247734719Y-86949493D01*
X247804273Y-86907405D01*
X247859079Y-86874998D01*
X247893343Y-86855723D01*
X247900585Y-86852227D01*
X247930624Y-86855962D01*
G37*
G36*
X235292603Y-85736365D02*
G01*
X235301695Y-85767289D01*
X235299627Y-85787708D01*
X235290150Y-85807409D01*
X235268355Y-85831996D01*
X235229333Y-85867072D01*
X235172775Y-85914435D01*
X235076065Y-85999722D01*
X234982870Y-86093573D01*
X234888981Y-86200933D01*
X234790189Y-86326745D01*
X234682285Y-86475953D01*
X234628365Y-86553902D01*
X234560500Y-86649816D01*
X234477023Y-86762661D01*
X234384414Y-86884094D01*
X234289157Y-87005770D01*
X234197734Y-87119345D01*
X234116627Y-87216474D01*
X234088241Y-87249174D01*
X234046838Y-87296531D01*
X233993839Y-87357661D01*
X233939858Y-87420318D01*
X233933345Y-87427910D01*
X233873721Y-87496104D01*
X233804495Y-87573296D01*
X233739749Y-87643802D01*
X233734261Y-87649669D01*
X233605378Y-87790234D01*
X233502164Y-87909505D01*
X233424747Y-88007316D01*
X233373259Y-88083502D01*
X233347828Y-88137898D01*
X233346114Y-88144926D01*
X233329905Y-88197843D01*
X233307888Y-88235195D01*
X233285561Y-88247832D01*
X233261613Y-88241385D01*
X233249170Y-88237103D01*
X233196914Y-88204404D01*
X233159531Y-88155729D01*
X233146544Y-88107109D01*
X233153263Y-88064135D01*
X233174644Y-88013033D01*
X233212522Y-87951352D01*
X233268735Y-87876644D01*
X233345118Y-87786459D01*
X233443506Y-87678349D01*
X233559178Y-87556656D01*
X233627065Y-87485692D01*
X233690434Y-87418353D01*
X233743576Y-87360785D01*
X233780783Y-87319133D01*
X233789812Y-87308442D01*
X233821462Y-87270460D01*
X233844028Y-87244754D01*
X233848731Y-87240024D01*
X233867522Y-87220290D01*
X233902387Y-87180694D01*
X233947741Y-87127856D01*
X233997998Y-87068394D01*
X234047575Y-87008927D01*
X234090887Y-86956074D01*
X234122348Y-86916453D01*
X234127704Y-86909396D01*
X234168740Y-86857370D01*
X234211053Y-86807980D01*
X234221758Y-86796393D01*
X234257090Y-86756071D01*
X234303635Y-86698727D01*
X234355481Y-86632154D01*
X234406715Y-86564145D01*
X234451425Y-86502493D01*
X234483697Y-86454992D01*
X234494304Y-86437153D01*
X234521914Y-86392786D01*
X234558815Y-86343656D01*
X234598057Y-86297831D01*
X234632686Y-86263375D01*
X234655751Y-86248355D01*
X234657150Y-86248232D01*
X234663604Y-86255009D01*
X234651729Y-86265075D01*
X234636102Y-86278321D01*
X234652508Y-86281863D01*
X234656331Y-86281917D01*
X234677593Y-86274434D01*
X234677476Y-86246053D01*
X234676469Y-86241856D01*
X234682513Y-86203582D01*
X234712390Y-86150615D01*
X234761530Y-86087324D01*
X234825364Y-86018083D01*
X234899321Y-85947261D01*
X234978830Y-85879230D01*
X235059323Y-85818362D01*
X235136228Y-85769026D01*
X235204975Y-85735595D01*
X235206295Y-85735097D01*
X235260400Y-85723376D01*
X235292603Y-85736365D01*
G37*
G36*
X239913381Y-86018024D02*
G01*
X239945194Y-86048365D01*
X239954086Y-86096793D01*
X239949070Y-86129138D01*
X239927785Y-86148388D01*
X239887635Y-86161919D01*
X239835514Y-86186915D01*
X239775793Y-86236899D01*
X239706312Y-86313983D01*
X239629180Y-86414394D01*
X239604332Y-86450837D01*
X239598804Y-86473060D01*
X239611431Y-86494238D01*
X239621145Y-86505193D01*
X239641438Y-86537304D01*
X239638472Y-86566958D01*
X239609672Y-86597106D01*
X239552459Y-86630699D01*
X239483996Y-86662255D01*
X239442512Y-86692044D01*
X239403257Y-86738899D01*
X239394884Y-86752645D01*
X239359433Y-86808181D01*
X239314766Y-86867988D01*
X239296857Y-86889385D01*
X239252653Y-86946058D01*
X239200943Y-87022101D01*
X239145763Y-87110441D01*
X239091144Y-87204004D01*
X239041122Y-87295720D01*
X238999730Y-87378514D01*
X238971002Y-87445315D01*
X238960524Y-87479067D01*
X238952285Y-87531805D01*
X238951875Y-87570528D01*
X238955985Y-87582623D01*
X238977273Y-87582836D01*
X239021618Y-87571145D01*
X239080962Y-87549868D01*
X239107419Y-87539055D01*
X239184976Y-87507080D01*
X239236594Y-87488647D01*
X239267385Y-87482945D01*
X239282462Y-87489165D01*
X239286940Y-87506497D01*
X239287015Y-87510616D01*
X239276183Y-87540915D01*
X239248974Y-87582921D01*
X239213320Y-87627072D01*
X239177152Y-87663803D01*
X239148401Y-87683553D01*
X239142602Y-87684738D01*
X239114571Y-87694625D01*
X239077734Y-87718446D01*
X239077209Y-87718858D01*
X239026380Y-87743953D01*
X238982903Y-87742791D01*
X238941578Y-87741027D01*
X238920336Y-87751432D01*
X238904869Y-87767156D01*
X238885838Y-87761677D01*
X238857428Y-87731856D01*
X238838025Y-87707017D01*
X238804029Y-87648297D01*
X238788178Y-87583003D01*
X238791323Y-87508255D01*
X238814314Y-87421177D01*
X238858003Y-87318889D01*
X238923241Y-87198514D01*
X239010878Y-87057173D01*
X239045909Y-87003858D01*
X239110435Y-86906170D01*
X239157683Y-86832984D01*
X239189844Y-86780669D01*
X239209105Y-86745596D01*
X239217655Y-86724135D01*
X239218598Y-86717473D01*
X239203126Y-86713172D01*
X239162664Y-86713300D01*
X239108940Y-86717547D01*
X239047847Y-86722781D01*
X239011691Y-86721218D01*
X238991642Y-86711539D01*
X238982107Y-86698601D01*
X238972873Y-86654421D01*
X238996998Y-86615340D01*
X239053965Y-86581698D01*
X239143257Y-86553839D01*
X239224663Y-86537970D01*
X239285900Y-86527334D01*
X239331911Y-86515001D01*
X239369127Y-86496095D01*
X239403984Y-86465737D01*
X239442914Y-86419049D01*
X239492352Y-86351153D01*
X239516917Y-86316388D01*
X239596591Y-86211650D01*
X239674050Y-86125435D01*
X239745917Y-86060814D01*
X239808818Y-86020854D01*
X239855567Y-86008509D01*
X239913381Y-86018024D01*
G37*
G36*
X246405949Y-86639617D02*
G01*
X246465466Y-86681044D01*
X246506891Y-86741616D01*
X246525662Y-86814397D01*
X246517219Y-86892455D01*
X246514615Y-86900540D01*
X246476593Y-86977428D01*
X246413515Y-87066253D01*
X246330289Y-87162449D01*
X246231822Y-87261448D01*
X246123023Y-87358685D01*
X246008800Y-87449592D01*
X245894060Y-87529602D01*
X245783713Y-87594150D01*
X245752470Y-87609687D01*
X245686702Y-87640886D01*
X245627969Y-87668725D01*
X245587016Y-87688111D01*
X245581426Y-87690751D01*
X245548170Y-87719675D01*
X245507925Y-87776211D01*
X245472641Y-87838947D01*
X245316196Y-88115047D01*
X245143477Y-88369365D01*
X244957006Y-88598703D01*
X244759303Y-88799862D01*
X244625054Y-88914713D01*
X244556543Y-88965818D01*
X244507093Y-88993121D01*
X244471837Y-88997267D01*
X244445906Y-88978901D01*
X244425464Y-88941157D01*
X244411740Y-88897546D01*
X244409815Y-88866308D01*
X244411330Y-88862426D01*
X244430672Y-88844633D01*
X244470598Y-88815422D01*
X244522268Y-88781247D01*
X244689760Y-88657810D01*
X244851849Y-88503903D01*
X245005562Y-88323178D01*
X245147925Y-88119286D01*
X245275966Y-87895879D01*
X245326389Y-87793640D01*
X245363923Y-87710982D01*
X245387862Y-87649433D01*
X245400869Y-87600001D01*
X245405604Y-87553695D01*
X245405638Y-87525907D01*
X245405278Y-87491067D01*
X245407459Y-87460205D01*
X245411089Y-87444691D01*
X245693847Y-87444691D01*
X245698836Y-87461820D01*
X245702261Y-87462381D01*
X245727166Y-87455126D01*
X245768980Y-87436915D01*
X245786364Y-87428333D01*
X245905082Y-87358176D01*
X246030203Y-87267727D01*
X246150445Y-87165982D01*
X246254530Y-87061932D01*
X246274637Y-87039043D01*
X246333203Y-86965639D01*
X246368550Y-86908072D01*
X246383665Y-86860192D01*
X246382000Y-86818044D01*
X246362125Y-86794489D01*
X246321134Y-86787489D01*
X246267403Y-86796259D01*
X246209306Y-86820016D01*
X246181992Y-86836746D01*
X246129601Y-86877700D01*
X246069154Y-86932201D01*
X246005758Y-86994714D01*
X245944522Y-87059703D01*
X245890554Y-87121634D01*
X245848960Y-87174971D01*
X245824850Y-87214180D01*
X245820887Y-87228058D01*
X245811046Y-87249681D01*
X245786079Y-87286807D01*
X245770087Y-87307794D01*
X245732490Y-87360802D01*
X245706071Y-87408727D01*
X245693847Y-87444691D01*
X245411089Y-87444691D01*
X245414418Y-87430463D01*
X245428395Y-87398985D01*
X245451625Y-87362916D01*
X245486348Y-87319399D01*
X245534802Y-87265578D01*
X245599223Y-87198596D01*
X245681850Y-87115598D01*
X245784921Y-87013728D01*
X245880753Y-86919522D01*
X245984585Y-86820173D01*
X246070668Y-86744469D01*
X246143101Y-86689730D01*
X246205984Y-86653281D01*
X246263419Y-86632442D01*
X246319505Y-86624537D01*
X246332899Y-86624267D01*
X246405949Y-86639617D01*
G37*
G36*
X237522744Y-87077219D02*
G01*
X237538948Y-87089506D01*
X237558468Y-87129810D01*
X237549152Y-87176889D01*
X237513870Y-87224679D01*
X237455496Y-87267119D01*
X237454575Y-87267621D01*
X237424791Y-87292377D01*
X237383078Y-87337609D01*
X237335987Y-87395007D01*
X237290066Y-87456259D01*
X237251868Y-87513054D01*
X237229838Y-87552759D01*
X237209188Y-87619103D01*
X237200476Y-87692889D01*
X237205081Y-87758084D01*
X237210531Y-87777067D01*
X237231065Y-87803013D01*
X237268780Y-87833180D01*
X237278065Y-87839181D01*
X237329686Y-87881156D01*
X237347445Y-87922116D01*
X237331220Y-87961633D01*
X237317040Y-87975422D01*
X237266279Y-88004066D01*
X237212892Y-88003302D01*
X237153850Y-87976068D01*
X237113901Y-87943055D01*
X237072229Y-87895576D01*
X237036659Y-87844253D01*
X237015020Y-87799706D01*
X237011871Y-87783428D01*
X237003005Y-87750536D01*
X236995532Y-87736280D01*
X236980678Y-87722261D01*
X236961149Y-87731796D01*
X236943349Y-87749609D01*
X236900552Y-87788269D01*
X236849412Y-87824386D01*
X236799425Y-87852350D01*
X236760087Y-87866551D01*
X236745887Y-87866268D01*
X236718542Y-87870511D01*
X236680834Y-87892481D01*
X236672316Y-87899257D01*
X236638700Y-87922843D01*
X236601215Y-87935668D01*
X236548059Y-87940735D01*
X236507104Y-87941304D01*
X236444278Y-87940142D01*
X236403842Y-87933875D01*
X236373989Y-87918330D01*
X236342915Y-87889336D01*
X236334254Y-87880221D01*
X236298837Y-87837750D01*
X236281792Y-87798345D01*
X236276768Y-87745401D01*
X236276645Y-87729630D01*
X236280426Y-87679753D01*
X236466212Y-87679753D01*
X236469138Y-87707118D01*
X236486173Y-87734031D01*
X236523936Y-87749215D01*
X236584869Y-87744270D01*
X236665104Y-87720026D01*
X236760774Y-87677313D01*
X236768219Y-87673514D01*
X236848032Y-87627211D01*
X236924178Y-87573706D01*
X236990998Y-87518015D01*
X237042832Y-87465152D01*
X237074021Y-87420131D01*
X237080551Y-87396768D01*
X237066184Y-87354790D01*
X237030756Y-87313233D01*
X236985774Y-87282981D01*
X236950992Y-87274233D01*
X236906140Y-87286954D01*
X236871010Y-87317910D01*
X236858194Y-87353241D01*
X236843230Y-87390332D01*
X236805582Y-87426172D01*
X236756111Y-87452817D01*
X236708968Y-87462381D01*
X236665856Y-87468792D01*
X236625593Y-87492227D01*
X236584242Y-87531091D01*
X236545191Y-87575706D01*
X236516422Y-87615826D01*
X236507461Y-87633718D01*
X236492101Y-87661205D01*
X236480745Y-87667634D01*
X236466212Y-87679753D01*
X236280426Y-87679753D01*
X236280687Y-87676316D01*
X236294765Y-87625098D01*
X236321808Y-87571566D01*
X236364745Y-87511308D01*
X236426503Y-87439914D01*
X236510012Y-87352971D01*
X236559446Y-87303667D01*
X236648634Y-87218191D01*
X236718468Y-87157377D01*
X236771221Y-87119378D01*
X236806049Y-87103138D01*
X236895384Y-87087768D01*
X236983798Y-87088855D01*
X237059242Y-87105704D01*
X237087625Y-87119380D01*
X237172058Y-87152426D01*
X237264040Y-87152520D01*
X237362018Y-87119686D01*
X237371319Y-87114992D01*
X237440272Y-87082952D01*
X237488571Y-87070692D01*
X237522744Y-87077219D01*
G37*
G36*
X243793502Y-86083500D02*
G01*
X243894708Y-86104126D01*
X243970211Y-86139911D01*
X244018534Y-86190602D01*
X244038202Y-86255947D01*
X244034752Y-86307069D01*
X244022037Y-86346557D01*
X243995798Y-86389217D01*
X243951335Y-86441572D01*
X243899673Y-86494635D01*
X243814516Y-86578353D01*
X243723725Y-86666153D01*
X243631948Y-86753678D01*
X243543834Y-86836570D01*
X243464031Y-86910470D01*
X243397185Y-86971021D01*
X243347945Y-87013865D01*
X243332752Y-87026220D01*
X243294788Y-87057908D01*
X243239438Y-87106728D01*
X243174006Y-87166132D01*
X243105793Y-87229572D01*
X243102895Y-87232303D01*
X242912889Y-87404237D01*
X242711806Y-87571393D01*
X242492825Y-87739193D01*
X242249126Y-87913059D01*
X242228968Y-87926973D01*
X242155048Y-87979607D01*
X242077005Y-88037914D01*
X242009920Y-88090587D01*
X242000839Y-88098043D01*
X241948047Y-88141163D01*
X241913959Y-88165892D01*
X241891139Y-88175903D01*
X241872152Y-88174871D01*
X241856588Y-88169317D01*
X241834232Y-88149054D01*
X241809675Y-88111851D01*
X241808352Y-88109334D01*
X241792917Y-88074038D01*
X241793999Y-88046875D01*
X241813465Y-88012089D01*
X241821227Y-88000641D01*
X241879637Y-87939180D01*
X241948110Y-87909716D01*
X241977789Y-87907095D01*
X241999573Y-87904037D01*
X242027491Y-87893204D01*
X242065566Y-87872110D01*
X242117819Y-87838267D01*
X242188271Y-87789190D01*
X242280945Y-87722390D01*
X242305938Y-87704176D01*
X242510844Y-87549804D01*
X242697154Y-87398665D01*
X242870382Y-87247001D01*
X243057955Y-87076951D01*
X243221722Y-86928328D01*
X243363247Y-86799614D01*
X243484096Y-86689289D01*
X243585834Y-86595835D01*
X243670024Y-86517732D01*
X243738233Y-86453460D01*
X243792024Y-86401502D01*
X243832963Y-86360338D01*
X243862614Y-86328448D01*
X243882543Y-86304313D01*
X243894313Y-86286415D01*
X243899490Y-86273234D01*
X243899639Y-86263251D01*
X243896324Y-86254947D01*
X243894820Y-86252448D01*
X243860909Y-86224050D01*
X243800578Y-86206507D01*
X243711700Y-86199466D01*
X243593721Y-86202481D01*
X243517438Y-86209999D01*
X243433591Y-86223166D01*
X243348896Y-86240301D01*
X243270071Y-86259722D01*
X243203832Y-86279746D01*
X243156898Y-86298691D01*
X243135984Y-86314876D01*
X243135500Y-86317232D01*
X243122580Y-86333955D01*
X243088176Y-86364631D01*
X243038820Y-86403585D01*
X243020045Y-86417523D01*
X242936236Y-86486144D01*
X242840737Y-86576664D01*
X242740278Y-86682151D01*
X242641586Y-86795677D01*
X242586828Y-86863728D01*
X242548676Y-86911869D01*
X242518371Y-86948615D01*
X242502314Y-86966210D01*
X242502128Y-86966354D01*
X242481379Y-86989306D01*
X242447022Y-87035137D01*
X242403294Y-87097545D01*
X242354435Y-87170227D01*
X242304684Y-87246878D01*
X242258279Y-87321195D01*
X242220115Y-87385721D01*
X242165110Y-87485951D01*
X242127270Y-87564015D01*
X242104214Y-87625827D01*
X242093564Y-87677298D01*
X242092133Y-87703793D01*
X242078430Y-87751738D01*
X242054746Y-87771961D01*
X242026606Y-87781751D01*
X242002435Y-87771425D01*
X241975901Y-87743772D01*
X241949326Y-87705286D01*
X241940117Y-87664110D01*
X241942322Y-87617463D01*
X241952443Y-87559539D01*
X241972886Y-87497866D01*
X242006273Y-87427046D01*
X242055228Y-87341681D01*
X242122374Y-87236374D01*
X242141691Y-87207227D01*
X242209423Y-87107468D01*
X242272532Y-87019245D01*
X242337507Y-86934150D01*
X242410837Y-86843776D01*
X242499012Y-86739716D01*
X242532571Y-86700828D01*
X242587099Y-86636945D01*
X242622767Y-86591251D01*
X242643558Y-86556470D01*
X242653451Y-86525325D01*
X242656430Y-86490539D01*
X242656577Y-86474185D01*
X242661182Y-86414092D01*
X242677805Y-86374242D01*
X242695062Y-86354834D01*
X242744908Y-86319466D01*
X242820550Y-86279783D01*
X242914410Y-86238989D01*
X243018914Y-86200289D01*
X243126485Y-86166890D01*
X243161157Y-86157631D01*
X243350419Y-86115098D01*
X243519882Y-86088734D01*
X243668068Y-86078285D01*
X243793502Y-86083500D01*
G37*
G36*
X236163519Y-85263925D02*
G01*
X236313114Y-85273162D01*
X236448894Y-85290276D01*
X236565992Y-85315099D01*
X236659539Y-85347462D01*
X236724670Y-85387195D01*
X236726262Y-85388615D01*
X236765829Y-85437375D01*
X236799739Y-85501148D01*
X236820637Y-85564535D01*
X236823921Y-85593047D01*
X236808025Y-85659651D01*
X236762056Y-85735021D01*
X236688342Y-85816957D01*
X236589212Y-85903257D01*
X236466996Y-85991719D01*
X236324023Y-86080144D01*
X236285520Y-86101869D01*
X236229634Y-86134550D01*
X236179933Y-86166472D01*
X236159206Y-86181421D01*
X236126271Y-86204360D01*
X236105376Y-86213762D01*
X236085766Y-86221553D01*
X236043649Y-86242465D01*
X235986308Y-86272800D01*
X235951652Y-86291759D01*
X235888020Y-86324872D01*
X235834175Y-86349064D01*
X235797911Y-86361016D01*
X235788494Y-86361256D01*
X235764098Y-86366659D01*
X235756914Y-86377333D01*
X235734243Y-86399393D01*
X235722139Y-86401910D01*
X235692306Y-86415215D01*
X235682818Y-86426886D01*
X235660094Y-86449308D01*
X235618439Y-86477645D01*
X235594778Y-86491027D01*
X235551159Y-86517055D01*
X235523209Y-86539371D01*
X235518108Y-86547297D01*
X235533142Y-86555444D01*
X235577257Y-86563474D01*
X235645329Y-86570649D01*
X235712200Y-86575203D01*
X235867755Y-86587820D01*
X235992502Y-86607668D01*
X236089328Y-86636062D01*
X236161118Y-86674320D01*
X236210759Y-86723758D01*
X236241138Y-86785692D01*
X236249752Y-86820394D01*
X236247853Y-86882742D01*
X236225738Y-86956533D01*
X236188473Y-87030167D01*
X236141124Y-87092040D01*
X236124213Y-87107848D01*
X236090834Y-87139186D01*
X236072564Y-87162662D01*
X236071392Y-87166654D01*
X236059622Y-87184161D01*
X236027870Y-87219405D01*
X235981481Y-87267126D01*
X235925794Y-87322060D01*
X235866153Y-87378946D01*
X235807898Y-87432520D01*
X235756371Y-87477521D01*
X235752796Y-87480513D01*
X235684950Y-87535568D01*
X235613459Y-87591070D01*
X235544014Y-87642891D01*
X235482303Y-87686903D01*
X235434018Y-87718980D01*
X235404849Y-87734994D01*
X235400511Y-87736051D01*
X235375513Y-87745871D01*
X235365115Y-87753360D01*
X235314711Y-87793908D01*
X235265032Y-87831140D01*
X235224151Y-87859274D01*
X235200144Y-87872527D01*
X235198210Y-87872886D01*
X235178018Y-87881649D01*
X235138536Y-87904495D01*
X235094050Y-87932752D01*
X235044327Y-87963912D01*
X235005174Y-87985564D01*
X234986779Y-87992617D01*
X234956749Y-88001020D01*
X234907570Y-88022920D01*
X234848893Y-88053353D01*
X234790368Y-88087356D01*
X234747513Y-88115672D01*
X234702936Y-88144189D01*
X234666541Y-88161380D01*
X234655753Y-88163661D01*
X234626823Y-88171028D01*
X234580704Y-88189831D01*
X234551417Y-88203884D01*
X234491827Y-88233510D01*
X234409090Y-88273810D01*
X234311068Y-88321010D01*
X234205622Y-88371335D01*
X234100614Y-88421013D01*
X234035971Y-88451330D01*
X233966891Y-88482558D01*
X233881547Y-88519668D01*
X233795476Y-88555932D01*
X233772649Y-88565311D01*
X233689541Y-88600859D01*
X233603138Y-88640486D01*
X233528836Y-88677067D01*
X233511807Y-88686057D01*
X233459112Y-88713575D01*
X233420490Y-88731966D01*
X233403369Y-88737724D01*
X233403109Y-88737353D01*
X233389077Y-88740819D01*
X233351845Y-88756623D01*
X233298716Y-88781610D01*
X233283853Y-88788898D01*
X233202338Y-88825863D01*
X233141893Y-88843514D01*
X233095433Y-88841963D01*
X233055871Y-88821323D01*
X233026107Y-88792993D01*
X232995702Y-88756347D01*
X232986911Y-88731689D01*
X232996248Y-88707761D01*
X232998598Y-88704138D01*
X233026626Y-88671261D01*
X233045378Y-88656587D01*
X233098733Y-88630185D01*
X233173014Y-88597827D01*
X233256656Y-88564261D01*
X233338091Y-88534234D01*
X233368901Y-88523804D01*
X233430987Y-88503046D01*
X233483921Y-88484532D01*
X233514288Y-88473046D01*
X233541277Y-88461749D01*
X233593631Y-88439900D01*
X233665129Y-88410092D01*
X233749554Y-88374917D01*
X233805062Y-88351801D01*
X233982265Y-88276376D01*
X234168715Y-88194085D01*
X234354307Y-88109537D01*
X234528937Y-88027341D01*
X234682501Y-87952107D01*
X234694490Y-87946064D01*
X234776856Y-87904499D01*
X234863532Y-87860854D01*
X234939838Y-87822519D01*
X234962639Y-87811093D01*
X235019466Y-87781115D01*
X235063679Y-87754946D01*
X235086688Y-87737717D01*
X235087655Y-87736432D01*
X235111434Y-87722892D01*
X235140213Y-87718947D01*
X235172049Y-87711465D01*
X235182463Y-87697566D01*
X235196485Y-87679735D01*
X235233519Y-87650366D01*
X235286732Y-87614649D01*
X235311907Y-87599216D01*
X235381279Y-87556072D01*
X235448606Y-87511288D01*
X235501375Y-87473246D01*
X235509535Y-87466818D01*
X235553449Y-87434398D01*
X235583104Y-87422552D01*
X235608509Y-87427749D01*
X235613316Y-87430175D01*
X235637698Y-87440320D01*
X235642321Y-87428009D01*
X235637221Y-87404357D01*
X235633681Y-87371908D01*
X235640613Y-87359755D01*
X235662047Y-87347986D01*
X235701291Y-87316112D01*
X235753080Y-87269282D01*
X235812146Y-87212645D01*
X235873226Y-87151351D01*
X235931053Y-87090549D01*
X235980362Y-87035387D01*
X236011276Y-86997274D01*
X236059785Y-86923282D01*
X236081230Y-86864105D01*
X236074366Y-86818005D01*
X236037949Y-86783242D01*
X235970732Y-86758077D01*
X235871470Y-86740769D01*
X235824090Y-86735800D01*
X235749900Y-86729157D01*
X235701004Y-86725505D01*
X235668627Y-86724738D01*
X235643993Y-86726754D01*
X235618327Y-86731448D01*
X235609574Y-86733267D01*
X235574625Y-86739635D01*
X235515544Y-86749481D01*
X235442031Y-86761211D01*
X235395769Y-86768377D01*
X235314319Y-86781513D01*
X235237741Y-86795018D01*
X235177516Y-86806820D01*
X235156308Y-86811636D01*
X235100176Y-86821211D01*
X235028997Y-86827586D01*
X234982210Y-86829111D01*
X234913315Y-86826112D01*
X234866416Y-86812408D01*
X234829616Y-86781907D01*
X234793684Y-86732607D01*
X234776596Y-86700605D01*
X234781287Y-86677745D01*
X234795699Y-86660041D01*
X234828652Y-86635147D01*
X234879109Y-86608557D01*
X234904856Y-86597817D01*
X234965180Y-86573593D01*
X235037952Y-86542474D01*
X235090657Y-86518843D01*
X235145105Y-86494405D01*
X235186533Y-86476975D01*
X235205972Y-86470327D01*
X235223535Y-86463134D01*
X235267334Y-86442967D01*
X235332904Y-86411948D01*
X235415782Y-86372197D01*
X235511505Y-86325836D01*
X235566501Y-86299025D01*
X235772292Y-86195647D01*
X235962180Y-86094594D01*
X236133425Y-85997528D01*
X236283291Y-85906110D01*
X236409041Y-85822003D01*
X236507936Y-85746867D01*
X236570541Y-85689527D01*
X236620483Y-85627247D01*
X236645087Y-85573079D01*
X236642948Y-85531082D01*
X236630797Y-85515397D01*
X236572713Y-85483957D01*
X236486098Y-85459684D01*
X236375884Y-85442649D01*
X236247003Y-85432920D01*
X236104389Y-85430569D01*
X235952975Y-85435664D01*
X235797692Y-85448276D01*
X235643473Y-85468473D01*
X235495252Y-85496326D01*
X235482550Y-85499171D01*
X235321746Y-85543238D01*
X235180517Y-85597174D01*
X235061702Y-85659193D01*
X234968138Y-85727508D01*
X234902664Y-85800329D01*
X234868118Y-85875871D01*
X234865731Y-85887610D01*
X234853497Y-85935160D01*
X234837496Y-85968235D01*
X234833596Y-85972416D01*
X234801715Y-85979033D01*
X234761459Y-85961478D01*
X234722144Y-85924856D01*
X234706927Y-85902991D01*
X234690621Y-85842985D01*
X234706400Y-85771785D01*
X234754142Y-85689724D01*
X234808741Y-85623556D01*
X234889540Y-85549978D01*
X234991101Y-85484833D01*
X235117146Y-85426282D01*
X235271401Y-85372482D01*
X235378665Y-85341818D01*
X235524329Y-85309132D01*
X235680513Y-85285169D01*
X235842351Y-85269759D01*
X236004975Y-85262734D01*
X236163519Y-85263925D01*
G37*
D13*
%TO.C,C6*%
X244640580Y-96740000D02*
X244359420Y-96740000D01*
X244640580Y-97760000D02*
X244359420Y-97760000D01*
%TO.C,C14*%
X209459420Y-99990000D02*
X209740580Y-99990000D01*
X209459420Y-101010000D02*
X209740580Y-101010000D01*
%TO.C,C4*%
X240109420Y-97240000D02*
X240390580Y-97240000D01*
X240109420Y-98260000D02*
X240390580Y-98260000D01*
D12*
%TO.C,U2*%
X205145700Y-94175000D02*
X208854300Y-94175000D01*
X205145700Y-99525000D02*
X208854300Y-99525000D01*
D13*
X203275000Y-94650000D02*
X202945000Y-94890000D01*
X202945000Y-94410000D01*
X203275000Y-94650000D01*
G36*
X203275000Y-94650000D02*
G01*
X202945000Y-94890000D01*
X202945000Y-94410000D01*
X203275000Y-94650000D01*
G37*
%TO.C,L2*%
X255240000Y-95412779D02*
X255240000Y-95087221D01*
X256260000Y-95412779D02*
X256260000Y-95087221D01*
%TO.C,J2*%
X204410000Y-102170000D02*
X204410000Y-104830000D01*
X219710000Y-102170000D02*
X204410000Y-102170000D01*
X219710000Y-102170000D02*
X219710000Y-104830000D01*
X219710000Y-104830000D02*
X204410000Y-104830000D01*
X220980000Y-102170000D02*
X222310000Y-102170000D01*
X222310000Y-102170000D02*
X222310000Y-103500000D01*
%TO.C,J1*%
X224730000Y-104830000D02*
X224730000Y-103500000D01*
X226060000Y-104830000D02*
X224730000Y-104830000D01*
X227330000Y-102170000D02*
X232470000Y-102170000D01*
X227330000Y-104830000D02*
X227330000Y-102170000D01*
X227330000Y-104830000D02*
X232470000Y-104830000D01*
X232470000Y-104830000D02*
X232470000Y-102170000D01*
%TO.C,C9*%
X218438748Y-97565000D02*
X218961252Y-97565000D01*
X218438748Y-99035000D02*
X218961252Y-99035000D01*
%TO.C,U1*%
X246000000Y-98440000D02*
X245200000Y-98440000D01*
X246000000Y-98440000D02*
X246800000Y-98440000D01*
X246000000Y-101560000D02*
X245200000Y-101560000D01*
X246000000Y-101560000D02*
X246800000Y-101560000D01*
X247540000Y-101840000D02*
X247060000Y-101840000D01*
X247300000Y-101510000D01*
X247540000Y-101840000D01*
G36*
X247540000Y-101840000D02*
G01*
X247060000Y-101840000D01*
X247300000Y-101510000D01*
X247540000Y-101840000D01*
G37*
%TO.C,L3*%
X191240000Y-96537221D02*
X191240000Y-96862779D01*
X192260000Y-96537221D02*
X192260000Y-96862779D01*
%TO.C,C5*%
X236740000Y-100359420D02*
X236740000Y-100640580D01*
X237760000Y-100359420D02*
X237760000Y-100640580D01*
%TO.C,C8*%
X215340580Y-97790000D02*
X215059420Y-97790000D01*
X215340580Y-98810000D02*
X215059420Y-98810000D01*
%TO.C,C10*%
X197763720Y-95427500D02*
X198044880Y-95427500D01*
X197763720Y-96447500D02*
X198044880Y-96447500D01*
%TO.C,R2*%
X248087221Y-103990000D02*
X248412779Y-103990000D01*
X248087221Y-105010000D02*
X248412779Y-105010000D01*
D14*
%TO.C,Logo2*%
G36*
X204345951Y-86282941D02*
G01*
X204362372Y-86297038D01*
X204393925Y-86341737D01*
X204392250Y-86378584D01*
X204357652Y-86406506D01*
X204328569Y-86416659D01*
X204268637Y-86445188D01*
X204199533Y-86497757D01*
X204126180Y-86568225D01*
X204053498Y-86650454D01*
X203986409Y-86738301D01*
X203929832Y-86825629D01*
X203888690Y-86906295D01*
X203867902Y-86974161D01*
X203866345Y-86993406D01*
X203858049Y-87026783D01*
X203838524Y-87064141D01*
X203815819Y-87092356D01*
X203801234Y-87099593D01*
X203775907Y-87092611D01*
X203767635Y-87089496D01*
X203731892Y-87058067D01*
X203710888Y-87004010D01*
X203707412Y-86936750D01*
X203712581Y-86903462D01*
X203742401Y-86807743D01*
X203789907Y-86715659D01*
X203859225Y-86620619D01*
X203954478Y-86516032D01*
X203955956Y-86514529D01*
X204056342Y-86416005D01*
X204138939Y-86343397D01*
X204206472Y-86295245D01*
X204261668Y-86270091D01*
X204307252Y-86266476D01*
X204345951Y-86282941D01*
G37*
G36*
X209594481Y-86609918D02*
G01*
X209603934Y-86614174D01*
X209649729Y-86645493D01*
X209684886Y-86686936D01*
X209706907Y-86731310D01*
X209713295Y-86771426D01*
X209701552Y-86800091D01*
X209672011Y-86810169D01*
X209641580Y-86799722D01*
X209601266Y-86773821D01*
X209591392Y-86765893D01*
X209545365Y-86735497D01*
X209502722Y-86729468D01*
X209489207Y-86731530D01*
X209396649Y-86764554D01*
X209297941Y-86825327D01*
X209197768Y-86909148D01*
X209100815Y-87011318D01*
X209011767Y-87127137D01*
X208935309Y-87251905D01*
X208900625Y-87321965D01*
X208861603Y-87406991D01*
X208832906Y-87464280D01*
X208811221Y-87497467D01*
X208793232Y-87510187D01*
X208775625Y-87506073D01*
X208755085Y-87488760D01*
X208751630Y-87485334D01*
X208729419Y-87446547D01*
X208727422Y-87392207D01*
X208746163Y-87318907D01*
X208786162Y-87223243D01*
X208794496Y-87205788D01*
X208830226Y-87136804D01*
X208867588Y-87077332D01*
X208913071Y-87018794D01*
X208973162Y-86952614D01*
X209029681Y-86894849D01*
X209152528Y-86778474D01*
X209261047Y-86691044D01*
X209357368Y-86631515D01*
X209443626Y-86598847D01*
X209521952Y-86591995D01*
X209594481Y-86609918D01*
G37*
G36*
X201918673Y-87631026D02*
G01*
X201933321Y-87667854D01*
X201933551Y-87675013D01*
X201917515Y-87730657D01*
X201872728Y-87776313D01*
X201804170Y-87807681D01*
X201771059Y-87815289D01*
X201716923Y-87828816D01*
X201691457Y-87844811D01*
X201690193Y-87851556D01*
X201680922Y-87867164D01*
X201664537Y-87867931D01*
X201620283Y-87873135D01*
X201594629Y-87901285D01*
X201591463Y-87920226D01*
X201575776Y-87947429D01*
X201527679Y-87971628D01*
X201518959Y-87974616D01*
X201466696Y-87996370D01*
X201424709Y-88021476D01*
X201416333Y-88028666D01*
X201384593Y-88052058D01*
X201363754Y-88058789D01*
X201338395Y-88070291D01*
X201303317Y-88098868D01*
X201293777Y-88108389D01*
X201237593Y-88149859D01*
X201177465Y-88166210D01*
X201122746Y-88155350D01*
X201112191Y-88148982D01*
X201083465Y-88115179D01*
X201080614Y-88070068D01*
X201104280Y-88011005D01*
X201155107Y-87935342D01*
X201168130Y-87918564D01*
X201214590Y-87859353D01*
X201257000Y-87804602D01*
X201287616Y-87764324D01*
X201292137Y-87758213D01*
X201332808Y-87717750D01*
X201377659Y-87689913D01*
X201427838Y-87678047D01*
X201457082Y-87693198D01*
X201464994Y-87735026D01*
X201461608Y-87761831D01*
X201457243Y-87800087D01*
X201460610Y-87818920D01*
X201461846Y-87819328D01*
X201485186Y-87811404D01*
X201530585Y-87790228D01*
X201590497Y-87759697D01*
X201657379Y-87723705D01*
X201723687Y-87686148D01*
X201750396Y-87670336D01*
X201825695Y-87632228D01*
X201882292Y-87619138D01*
X201918673Y-87631026D01*
G37*
G36*
X204208840Y-87340569D02*
G01*
X204245092Y-87381781D01*
X204246194Y-87384132D01*
X204252608Y-87433472D01*
X204231078Y-87477934D01*
X204187759Y-87509919D01*
X204134694Y-87521772D01*
X204078825Y-87530297D01*
X204032887Y-87549340D01*
X204004179Y-87574156D01*
X204000000Y-87600000D01*
X204004130Y-87606667D01*
X204032892Y-87627741D01*
X204047441Y-87631179D01*
X204082845Y-87644524D01*
X204124541Y-87677676D01*
X204162621Y-87720313D01*
X204187177Y-87762110D01*
X204191329Y-87781112D01*
X204177351Y-87837912D01*
X204139083Y-87905485D01*
X204082025Y-87977784D01*
X204011673Y-88048764D01*
X203933526Y-88112377D01*
X203853083Y-88162577D01*
X203837317Y-88170421D01*
X203796336Y-88193701D01*
X203769959Y-88215578D01*
X203768541Y-88217548D01*
X203721660Y-88266680D01*
X203665392Y-88283084D01*
X203631555Y-88278299D01*
X203578793Y-88253394D01*
X203552799Y-88217969D01*
X203556486Y-88177710D01*
X203569932Y-88158029D01*
X203606748Y-88126326D01*
X203635501Y-88110164D01*
X203671058Y-88091047D01*
X203722996Y-88056563D01*
X203783902Y-88012422D01*
X203846363Y-87964338D01*
X203902967Y-87918023D01*
X203946301Y-87879189D01*
X203968952Y-87853549D01*
X203969297Y-87852929D01*
X203980654Y-87831597D01*
X203982429Y-87817251D01*
X203969266Y-87803846D01*
X203935811Y-87785339D01*
X203888340Y-87761543D01*
X203813062Y-87712815D01*
X203770872Y-87659551D01*
X203762077Y-87602922D01*
X203786983Y-87544098D01*
X203821153Y-87505462D01*
X203915787Y-87426000D01*
X204005000Y-87368886D01*
X204085666Y-87335015D01*
X204154655Y-87325278D01*
X204208840Y-87340569D01*
G37*
G36*
X207359005Y-87297385D02*
G01*
X207406400Y-87315800D01*
X207420982Y-87323628D01*
X207492281Y-87380073D01*
X207533247Y-87451797D01*
X207543787Y-87521445D01*
X207539478Y-87563410D01*
X207522308Y-87598963D01*
X207485907Y-87639523D01*
X207468925Y-87655641D01*
X207345219Y-87751372D01*
X207193288Y-87835967D01*
X207025505Y-87904117D01*
X206930612Y-87937502D01*
X206863561Y-87963353D01*
X206819507Y-87984213D01*
X206793600Y-88002627D01*
X206780995Y-88021141D01*
X206777667Y-88034232D01*
X206783237Y-88060188D01*
X206811954Y-88085318D01*
X206851466Y-88106669D01*
X206898526Y-88132116D01*
X206920860Y-88153988D01*
X206925770Y-88180740D01*
X206924859Y-88191663D01*
X206918750Y-88219588D01*
X206902562Y-88234032D01*
X206866926Y-88240178D01*
X206833955Y-88241972D01*
X206776045Y-88241153D01*
X206727397Y-88234965D01*
X206712311Y-88230569D01*
X206653356Y-88189241D01*
X206617461Y-88127376D01*
X206606187Y-88051045D01*
X206621096Y-87966319D01*
X206635165Y-87930506D01*
X206673933Y-87863129D01*
X206733228Y-87781242D01*
X206763712Y-87744319D01*
X206962238Y-87744319D01*
X206963086Y-87759331D01*
X206970249Y-87765501D01*
X206990655Y-87762033D01*
X207031231Y-87748132D01*
X207077051Y-87731131D01*
X207173358Y-87689957D01*
X207257887Y-87643749D01*
X207325524Y-87596157D01*
X207371160Y-87550828D01*
X207389683Y-87511408D01*
X207389847Y-87507916D01*
X207376490Y-87473797D01*
X207340960Y-87459007D01*
X207290063Y-87464705D01*
X207245450Y-87483366D01*
X207200516Y-87512517D01*
X207146370Y-87554514D01*
X207089491Y-87603387D01*
X207036358Y-87653167D01*
X206993451Y-87697881D01*
X206967251Y-87731561D01*
X206962238Y-87744319D01*
X206763712Y-87744319D01*
X206807003Y-87691883D01*
X206889213Y-87602086D01*
X206973813Y-87518888D01*
X207034895Y-87465299D01*
X207128119Y-87390893D01*
X207202106Y-87338746D01*
X207261893Y-87307011D01*
X207312514Y-87293840D01*
X207359005Y-87297385D01*
G37*
G36*
X208166466Y-87372639D02*
G01*
X208189858Y-87407774D01*
X208193058Y-87433624D01*
X208176976Y-87479135D01*
X208133241Y-87532195D01*
X208066222Y-87588324D01*
X207999633Y-87631922D01*
X207929600Y-87678803D01*
X207869242Y-87729356D01*
X207824669Y-87777576D01*
X207801990Y-87817453D01*
X207800352Y-87827873D01*
X207815906Y-87858897D01*
X207859529Y-87878186D01*
X207926663Y-87884288D01*
X207969513Y-87881751D01*
X208076100Y-87866929D01*
X208173518Y-87845958D01*
X208253091Y-87821038D01*
X208301698Y-87797439D01*
X208341344Y-87777862D01*
X208373915Y-87781384D01*
X208383780Y-87786124D01*
X208403540Y-87800661D01*
X208411397Y-87821584D01*
X208406947Y-87855930D01*
X208389787Y-87910735D01*
X208374191Y-87953755D01*
X208359604Y-88006084D01*
X208355383Y-88050075D01*
X208357229Y-88061892D01*
X208363090Y-88115625D01*
X208347205Y-88157132D01*
X208313590Y-88177677D01*
X208303644Y-88178519D01*
X208273315Y-88171927D01*
X208249295Y-88146982D01*
X208226513Y-88102258D01*
X208203489Y-88055470D01*
X208183228Y-88023022D01*
X208176112Y-88015696D01*
X208148306Y-88016504D01*
X208101670Y-88036296D01*
X208042666Y-88071023D01*
X207977752Y-88116633D01*
X207913389Y-88169074D01*
X207875804Y-88204020D01*
X207810302Y-88274751D01*
X207767374Y-88337358D01*
X207742366Y-88395108D01*
X207712508Y-88462793D01*
X207678293Y-88497725D01*
X207654788Y-88503503D01*
X207639572Y-88492987D01*
X207622004Y-88476650D01*
X207591884Y-88423710D01*
X207589541Y-88356274D01*
X207614066Y-88278483D01*
X207664551Y-88194478D01*
X207691401Y-88160546D01*
X207738438Y-88104816D01*
X207765577Y-88068408D01*
X207774193Y-88043851D01*
X207765658Y-88023675D01*
X207741348Y-88000412D01*
X207723646Y-87985236D01*
X207682756Y-87944744D01*
X207661507Y-87904758D01*
X207651484Y-87848731D01*
X207650815Y-87842021D01*
X207647633Y-87792683D01*
X207652997Y-87757929D01*
X207671754Y-87725350D01*
X207708752Y-87682535D01*
X207716330Y-87674294D01*
X207769401Y-87623641D01*
X207837397Y-87568021D01*
X207905406Y-87519605D01*
X207964340Y-87478350D01*
X208014551Y-87437597D01*
X208046472Y-87405212D01*
X208049256Y-87401312D01*
X208086314Y-87367194D01*
X208128667Y-87358374D01*
X208166466Y-87372639D01*
G37*
G36*
X211363961Y-87332639D02*
G01*
X211398203Y-87354527D01*
X211422464Y-87383874D01*
X211426427Y-87398645D01*
X211415689Y-87417604D01*
X211386211Y-87456981D01*
X211342038Y-87511679D01*
X211287213Y-87576598D01*
X211264216Y-87603130D01*
X211191984Y-87688068D01*
X211140102Y-87754915D01*
X211104523Y-87809556D01*
X211081196Y-87857876D01*
X211072997Y-87881076D01*
X211054472Y-87934042D01*
X211037524Y-87961730D01*
X211015554Y-87972078D01*
X210996349Y-87973267D01*
X210951255Y-87959337D01*
X210924849Y-87920492D01*
X210918219Y-87861153D01*
X210932451Y-87785739D01*
X210942821Y-87755687D01*
X210940447Y-87737512D01*
X210914512Y-87738154D01*
X210869074Y-87756247D01*
X210808191Y-87790424D01*
X210774207Y-87812456D01*
X210669240Y-87878124D01*
X210565714Y-87933555D01*
X210469009Y-87976569D01*
X210384505Y-88004988D01*
X210317584Y-88016631D01*
X210280487Y-88012462D01*
X210224935Y-87975996D01*
X210183223Y-87918016D01*
X210166799Y-87867356D01*
X210158839Y-87825878D01*
X210151960Y-87803494D01*
X210150625Y-87802223D01*
X210125214Y-87811502D01*
X210082102Y-87835250D01*
X210030900Y-87867338D01*
X209981216Y-87901634D01*
X209942659Y-87932007D01*
X209933256Y-87940902D01*
X209877441Y-87981055D01*
X209821247Y-87991227D01*
X209771087Y-87971698D01*
X209738198Y-87932353D01*
X209726988Y-87901983D01*
X209731827Y-87874575D01*
X209756286Y-87846613D01*
X209803936Y-87814583D01*
X209878351Y-87774970D01*
X209917988Y-87755449D01*
X209995677Y-87715219D01*
X210086679Y-87664139D01*
X210184354Y-87606356D01*
X210282062Y-87546017D01*
X210373163Y-87487270D01*
X210451016Y-87434260D01*
X210508983Y-87391135D01*
X210529603Y-87373487D01*
X210573604Y-87347858D01*
X210621413Y-87342295D01*
X210662877Y-87354974D01*
X210687843Y-87384073D01*
X210690992Y-87402469D01*
X210679502Y-87422185D01*
X210648249Y-87460154D01*
X210602054Y-87510847D01*
X210547823Y-87566653D01*
X210465405Y-87652981D01*
X210405605Y-87724179D01*
X210369573Y-87778599D01*
X210358458Y-87814593D01*
X210365726Y-87827705D01*
X210397834Y-87829658D01*
X210455511Y-87813596D01*
X210536090Y-87780820D01*
X210636905Y-87732630D01*
X210755290Y-87670328D01*
X210888580Y-87595215D01*
X211034108Y-87508591D01*
X211089548Y-87474487D01*
X211168056Y-87426170D01*
X211237610Y-87384082D01*
X211292416Y-87351675D01*
X211326680Y-87332400D01*
X211333922Y-87328904D01*
X211363961Y-87332639D01*
G37*
G36*
X198725940Y-86213042D02*
G01*
X198735032Y-86243966D01*
X198732964Y-86264385D01*
X198723487Y-86284086D01*
X198701692Y-86308673D01*
X198662670Y-86343749D01*
X198606112Y-86391112D01*
X198509402Y-86476399D01*
X198416207Y-86570250D01*
X198322318Y-86677610D01*
X198223526Y-86803422D01*
X198115622Y-86952630D01*
X198061702Y-87030579D01*
X197993837Y-87126493D01*
X197910360Y-87239338D01*
X197817751Y-87360771D01*
X197722494Y-87482447D01*
X197631071Y-87596022D01*
X197549964Y-87693151D01*
X197521578Y-87725851D01*
X197480175Y-87773208D01*
X197427176Y-87834338D01*
X197373195Y-87896995D01*
X197366682Y-87904587D01*
X197307058Y-87972781D01*
X197237832Y-88049973D01*
X197173086Y-88120479D01*
X197167598Y-88126346D01*
X197038715Y-88266911D01*
X196935501Y-88386182D01*
X196858084Y-88483993D01*
X196806596Y-88560179D01*
X196781165Y-88614575D01*
X196779451Y-88621603D01*
X196763242Y-88674520D01*
X196741225Y-88711872D01*
X196718898Y-88724509D01*
X196694950Y-88718062D01*
X196682507Y-88713780D01*
X196630251Y-88681081D01*
X196592868Y-88632406D01*
X196579881Y-88583786D01*
X196586600Y-88540812D01*
X196607981Y-88489710D01*
X196645859Y-88428029D01*
X196702072Y-88353321D01*
X196778455Y-88263136D01*
X196876843Y-88155026D01*
X196992515Y-88033333D01*
X197060402Y-87962369D01*
X197123771Y-87895030D01*
X197176913Y-87837462D01*
X197214120Y-87795810D01*
X197223149Y-87785119D01*
X197254799Y-87747137D01*
X197277365Y-87721431D01*
X197282068Y-87716701D01*
X197300859Y-87696967D01*
X197335724Y-87657371D01*
X197381078Y-87604533D01*
X197431335Y-87545071D01*
X197480912Y-87485604D01*
X197524224Y-87432751D01*
X197555685Y-87393130D01*
X197561041Y-87386073D01*
X197602077Y-87334047D01*
X197644390Y-87284657D01*
X197655095Y-87273070D01*
X197690427Y-87232748D01*
X197736972Y-87175404D01*
X197788818Y-87108831D01*
X197840052Y-87040822D01*
X197884762Y-86979170D01*
X197917034Y-86931669D01*
X197927641Y-86913830D01*
X197955251Y-86869463D01*
X197992152Y-86820333D01*
X198031394Y-86774508D01*
X198066023Y-86740052D01*
X198089088Y-86725032D01*
X198090487Y-86724909D01*
X198096941Y-86731686D01*
X198085066Y-86741752D01*
X198069439Y-86754998D01*
X198085845Y-86758540D01*
X198089668Y-86758594D01*
X198110930Y-86751111D01*
X198110813Y-86722730D01*
X198109806Y-86718533D01*
X198115850Y-86680259D01*
X198145727Y-86627292D01*
X198194867Y-86564001D01*
X198258701Y-86494760D01*
X198332658Y-86423938D01*
X198412167Y-86355907D01*
X198492660Y-86295039D01*
X198569565Y-86245703D01*
X198638312Y-86212272D01*
X198639632Y-86211774D01*
X198693737Y-86200053D01*
X198725940Y-86213042D01*
G37*
G36*
X203346718Y-86494701D02*
G01*
X203378531Y-86525042D01*
X203387423Y-86573470D01*
X203382407Y-86605815D01*
X203361122Y-86625065D01*
X203320972Y-86638596D01*
X203268851Y-86663592D01*
X203209130Y-86713576D01*
X203139649Y-86790660D01*
X203062517Y-86891071D01*
X203037669Y-86927514D01*
X203032141Y-86949737D01*
X203044768Y-86970915D01*
X203054482Y-86981870D01*
X203074775Y-87013981D01*
X203071809Y-87043635D01*
X203043009Y-87073783D01*
X202985796Y-87107376D01*
X202917333Y-87138932D01*
X202875849Y-87168721D01*
X202836594Y-87215576D01*
X202828221Y-87229322D01*
X202792770Y-87284858D01*
X202748103Y-87344665D01*
X202730194Y-87366062D01*
X202685990Y-87422735D01*
X202634280Y-87498778D01*
X202579100Y-87587118D01*
X202524481Y-87680681D01*
X202474459Y-87772397D01*
X202433067Y-87855191D01*
X202404339Y-87921992D01*
X202393861Y-87955744D01*
X202385622Y-88008482D01*
X202385212Y-88047205D01*
X202389322Y-88059300D01*
X202410610Y-88059513D01*
X202454955Y-88047822D01*
X202514299Y-88026545D01*
X202540756Y-88015732D01*
X202618313Y-87983757D01*
X202669931Y-87965324D01*
X202700722Y-87959622D01*
X202715799Y-87965842D01*
X202720277Y-87983174D01*
X202720352Y-87987293D01*
X202709520Y-88017592D01*
X202682311Y-88059598D01*
X202646657Y-88103749D01*
X202610489Y-88140480D01*
X202581738Y-88160230D01*
X202575939Y-88161415D01*
X202547908Y-88171302D01*
X202511071Y-88195123D01*
X202510546Y-88195535D01*
X202459717Y-88220630D01*
X202416240Y-88219468D01*
X202374915Y-88217704D01*
X202353673Y-88228109D01*
X202338206Y-88243833D01*
X202319175Y-88238354D01*
X202290765Y-88208533D01*
X202271362Y-88183694D01*
X202237366Y-88124974D01*
X202221515Y-88059680D01*
X202224660Y-87984932D01*
X202247651Y-87897854D01*
X202291340Y-87795566D01*
X202356578Y-87675191D01*
X202444215Y-87533850D01*
X202479246Y-87480535D01*
X202543772Y-87382847D01*
X202591020Y-87309661D01*
X202623181Y-87257346D01*
X202642442Y-87222273D01*
X202650992Y-87200812D01*
X202651935Y-87194150D01*
X202636463Y-87189849D01*
X202596001Y-87189977D01*
X202542277Y-87194224D01*
X202481184Y-87199458D01*
X202445028Y-87197895D01*
X202424979Y-87188216D01*
X202415444Y-87175278D01*
X202406210Y-87131098D01*
X202430335Y-87092017D01*
X202487302Y-87058375D01*
X202576594Y-87030516D01*
X202658000Y-87014647D01*
X202719237Y-87004011D01*
X202765248Y-86991678D01*
X202802464Y-86972772D01*
X202837321Y-86942414D01*
X202876251Y-86895726D01*
X202925689Y-86827830D01*
X202950254Y-86793065D01*
X203029928Y-86688327D01*
X203107387Y-86602112D01*
X203179254Y-86537491D01*
X203242155Y-86497531D01*
X203288904Y-86485186D01*
X203346718Y-86494701D01*
G37*
G36*
X209839286Y-87116294D02*
G01*
X209898803Y-87157721D01*
X209940228Y-87218293D01*
X209958999Y-87291074D01*
X209950556Y-87369132D01*
X209947952Y-87377217D01*
X209909930Y-87454105D01*
X209846852Y-87542930D01*
X209763626Y-87639126D01*
X209665159Y-87738125D01*
X209556360Y-87835362D01*
X209442137Y-87926269D01*
X209327397Y-88006279D01*
X209217050Y-88070827D01*
X209185807Y-88086364D01*
X209120039Y-88117563D01*
X209061306Y-88145402D01*
X209020353Y-88164788D01*
X209014763Y-88167428D01*
X208981507Y-88196352D01*
X208941262Y-88252888D01*
X208905978Y-88315624D01*
X208749533Y-88591724D01*
X208576814Y-88846042D01*
X208390343Y-89075380D01*
X208192640Y-89276539D01*
X208058391Y-89391390D01*
X207989880Y-89442495D01*
X207940430Y-89469798D01*
X207905174Y-89473944D01*
X207879243Y-89455578D01*
X207858801Y-89417834D01*
X207845077Y-89374223D01*
X207843152Y-89342985D01*
X207844667Y-89339103D01*
X207864009Y-89321310D01*
X207903935Y-89292099D01*
X207955605Y-89257924D01*
X208123097Y-89134487D01*
X208285186Y-88980580D01*
X208438899Y-88799855D01*
X208581262Y-88595963D01*
X208709303Y-88372556D01*
X208759726Y-88270317D01*
X208797260Y-88187659D01*
X208821199Y-88126110D01*
X208834206Y-88076678D01*
X208838941Y-88030372D01*
X208838975Y-88002584D01*
X208838615Y-87967744D01*
X208840796Y-87936882D01*
X208844426Y-87921368D01*
X209127184Y-87921368D01*
X209132173Y-87938497D01*
X209135598Y-87939058D01*
X209160503Y-87931803D01*
X209202317Y-87913592D01*
X209219701Y-87905010D01*
X209338419Y-87834853D01*
X209463540Y-87744404D01*
X209583782Y-87642659D01*
X209687867Y-87538609D01*
X209707974Y-87515720D01*
X209766540Y-87442316D01*
X209801887Y-87384749D01*
X209817002Y-87336869D01*
X209815337Y-87294721D01*
X209795462Y-87271166D01*
X209754471Y-87264166D01*
X209700740Y-87272936D01*
X209642643Y-87296693D01*
X209615329Y-87313423D01*
X209562938Y-87354377D01*
X209502491Y-87408878D01*
X209439095Y-87471391D01*
X209377859Y-87536380D01*
X209323891Y-87598311D01*
X209282297Y-87651648D01*
X209258187Y-87690857D01*
X209254224Y-87704735D01*
X209244383Y-87726358D01*
X209219416Y-87763484D01*
X209203424Y-87784471D01*
X209165827Y-87837479D01*
X209139408Y-87885404D01*
X209127184Y-87921368D01*
X208844426Y-87921368D01*
X208847755Y-87907140D01*
X208861732Y-87875662D01*
X208884962Y-87839593D01*
X208919685Y-87796076D01*
X208968139Y-87742255D01*
X209032560Y-87675273D01*
X209115187Y-87592275D01*
X209218258Y-87490405D01*
X209314090Y-87396199D01*
X209417922Y-87296850D01*
X209504005Y-87221146D01*
X209576438Y-87166407D01*
X209639321Y-87129958D01*
X209696756Y-87109119D01*
X209752842Y-87101214D01*
X209766236Y-87100944D01*
X209839286Y-87116294D01*
G37*
G36*
X200956081Y-87553896D02*
G01*
X200972285Y-87566183D01*
X200991805Y-87606487D01*
X200982489Y-87653566D01*
X200947207Y-87701356D01*
X200888833Y-87743796D01*
X200887912Y-87744298D01*
X200858128Y-87769054D01*
X200816415Y-87814286D01*
X200769324Y-87871684D01*
X200723403Y-87932936D01*
X200685205Y-87989731D01*
X200663175Y-88029436D01*
X200642525Y-88095780D01*
X200633813Y-88169566D01*
X200638418Y-88234761D01*
X200643868Y-88253744D01*
X200664402Y-88279690D01*
X200702117Y-88309857D01*
X200711402Y-88315858D01*
X200763023Y-88357833D01*
X200780782Y-88398793D01*
X200764557Y-88438310D01*
X200750377Y-88452099D01*
X200699616Y-88480743D01*
X200646229Y-88479979D01*
X200587187Y-88452745D01*
X200547238Y-88419732D01*
X200505566Y-88372253D01*
X200469996Y-88320930D01*
X200448357Y-88276383D01*
X200445208Y-88260105D01*
X200436342Y-88227213D01*
X200428869Y-88212957D01*
X200414015Y-88198938D01*
X200394486Y-88208473D01*
X200376686Y-88226286D01*
X200333889Y-88264946D01*
X200282749Y-88301063D01*
X200232762Y-88329027D01*
X200193424Y-88343228D01*
X200179224Y-88342945D01*
X200151879Y-88347188D01*
X200114171Y-88369158D01*
X200105653Y-88375934D01*
X200072037Y-88399520D01*
X200034552Y-88412345D01*
X199981396Y-88417412D01*
X199940441Y-88417981D01*
X199877615Y-88416819D01*
X199837179Y-88410552D01*
X199807326Y-88395007D01*
X199776252Y-88366013D01*
X199767591Y-88356898D01*
X199732174Y-88314427D01*
X199715129Y-88275022D01*
X199710105Y-88222078D01*
X199709982Y-88206307D01*
X199713763Y-88156430D01*
X199899549Y-88156430D01*
X199902475Y-88183795D01*
X199919510Y-88210708D01*
X199957273Y-88225892D01*
X200018206Y-88220947D01*
X200098441Y-88196703D01*
X200194111Y-88153990D01*
X200201556Y-88150191D01*
X200281369Y-88103888D01*
X200357515Y-88050383D01*
X200424335Y-87994692D01*
X200476169Y-87941829D01*
X200507358Y-87896808D01*
X200513888Y-87873445D01*
X200499521Y-87831467D01*
X200464093Y-87789910D01*
X200419111Y-87759658D01*
X200384329Y-87750910D01*
X200339477Y-87763631D01*
X200304347Y-87794587D01*
X200291531Y-87829918D01*
X200276567Y-87867009D01*
X200238919Y-87902849D01*
X200189448Y-87929494D01*
X200142305Y-87939058D01*
X200099193Y-87945469D01*
X200058930Y-87968904D01*
X200017579Y-88007768D01*
X199978528Y-88052383D01*
X199949759Y-88092503D01*
X199940798Y-88110395D01*
X199925438Y-88137882D01*
X199914082Y-88144311D01*
X199899549Y-88156430D01*
X199713763Y-88156430D01*
X199714024Y-88152993D01*
X199728102Y-88101775D01*
X199755145Y-88048243D01*
X199798082Y-87987985D01*
X199859840Y-87916591D01*
X199943349Y-87829648D01*
X199992783Y-87780344D01*
X200081971Y-87694868D01*
X200151805Y-87634054D01*
X200204558Y-87596055D01*
X200239386Y-87579815D01*
X200328721Y-87564445D01*
X200417135Y-87565532D01*
X200492579Y-87582381D01*
X200520962Y-87596057D01*
X200605395Y-87629103D01*
X200697377Y-87629197D01*
X200795355Y-87596363D01*
X200804656Y-87591669D01*
X200873609Y-87559629D01*
X200921908Y-87547369D01*
X200956081Y-87553896D01*
G37*
G36*
X207226839Y-86560177D02*
G01*
X207328045Y-86580803D01*
X207403548Y-86616588D01*
X207451871Y-86667279D01*
X207471539Y-86732624D01*
X207468089Y-86783746D01*
X207455374Y-86823234D01*
X207429135Y-86865894D01*
X207384672Y-86918249D01*
X207333010Y-86971312D01*
X207247853Y-87055030D01*
X207157062Y-87142830D01*
X207065285Y-87230355D01*
X206977171Y-87313247D01*
X206897368Y-87387147D01*
X206830522Y-87447698D01*
X206781282Y-87490542D01*
X206766089Y-87502897D01*
X206728125Y-87534585D01*
X206672775Y-87583405D01*
X206607343Y-87642809D01*
X206539130Y-87706249D01*
X206536232Y-87708980D01*
X206346226Y-87880914D01*
X206145143Y-88048070D01*
X205926162Y-88215870D01*
X205682463Y-88389736D01*
X205662305Y-88403650D01*
X205588385Y-88456284D01*
X205510342Y-88514591D01*
X205443257Y-88567264D01*
X205434176Y-88574720D01*
X205381384Y-88617840D01*
X205347296Y-88642569D01*
X205324476Y-88652580D01*
X205305489Y-88651548D01*
X205289925Y-88645994D01*
X205267569Y-88625731D01*
X205243012Y-88588528D01*
X205241689Y-88586011D01*
X205226254Y-88550715D01*
X205227336Y-88523552D01*
X205246802Y-88488766D01*
X205254564Y-88477318D01*
X205312974Y-88415857D01*
X205381447Y-88386393D01*
X205411126Y-88383772D01*
X205432910Y-88380714D01*
X205460828Y-88369881D01*
X205498903Y-88348787D01*
X205551156Y-88314944D01*
X205621608Y-88265867D01*
X205714282Y-88199067D01*
X205739275Y-88180853D01*
X205944181Y-88026481D01*
X206130491Y-87875342D01*
X206303719Y-87723678D01*
X206491292Y-87553628D01*
X206655059Y-87405005D01*
X206796584Y-87276291D01*
X206917433Y-87165966D01*
X207019171Y-87072512D01*
X207103361Y-86994409D01*
X207171570Y-86930137D01*
X207225361Y-86878179D01*
X207266300Y-86837015D01*
X207295951Y-86805125D01*
X207315880Y-86780990D01*
X207327650Y-86763092D01*
X207332827Y-86749911D01*
X207332976Y-86739928D01*
X207329661Y-86731624D01*
X207328157Y-86729125D01*
X207294246Y-86700727D01*
X207233915Y-86683184D01*
X207145037Y-86676143D01*
X207027058Y-86679158D01*
X206950775Y-86686676D01*
X206866928Y-86699843D01*
X206782233Y-86716978D01*
X206703408Y-86736399D01*
X206637169Y-86756423D01*
X206590235Y-86775368D01*
X206569321Y-86791553D01*
X206568837Y-86793909D01*
X206555917Y-86810632D01*
X206521513Y-86841308D01*
X206472157Y-86880262D01*
X206453382Y-86894200D01*
X206369573Y-86962821D01*
X206274074Y-87053341D01*
X206173615Y-87158828D01*
X206074923Y-87272354D01*
X206020165Y-87340405D01*
X205982013Y-87388546D01*
X205951708Y-87425292D01*
X205935651Y-87442887D01*
X205935465Y-87443031D01*
X205914716Y-87465983D01*
X205880359Y-87511814D01*
X205836631Y-87574222D01*
X205787772Y-87646904D01*
X205738021Y-87723555D01*
X205691616Y-87797872D01*
X205653452Y-87862398D01*
X205598447Y-87962628D01*
X205560607Y-88040692D01*
X205537551Y-88102504D01*
X205526901Y-88153975D01*
X205525470Y-88180470D01*
X205511767Y-88228415D01*
X205488083Y-88248638D01*
X205459943Y-88258428D01*
X205435772Y-88248102D01*
X205409238Y-88220449D01*
X205382663Y-88181963D01*
X205373454Y-88140787D01*
X205375659Y-88094140D01*
X205385780Y-88036216D01*
X205406223Y-87974543D01*
X205439610Y-87903723D01*
X205488565Y-87818358D01*
X205555711Y-87713051D01*
X205575028Y-87683904D01*
X205642760Y-87584145D01*
X205705869Y-87495922D01*
X205770844Y-87410827D01*
X205844174Y-87320453D01*
X205932349Y-87216393D01*
X205965908Y-87177505D01*
X206020436Y-87113622D01*
X206056104Y-87067928D01*
X206076895Y-87033147D01*
X206086788Y-87002002D01*
X206089767Y-86967216D01*
X206089914Y-86950862D01*
X206094519Y-86890769D01*
X206111142Y-86850919D01*
X206128399Y-86831511D01*
X206178245Y-86796143D01*
X206253887Y-86756460D01*
X206347747Y-86715666D01*
X206452251Y-86676966D01*
X206559822Y-86643567D01*
X206594494Y-86634308D01*
X206783756Y-86591775D01*
X206953219Y-86565411D01*
X207101405Y-86554962D01*
X207226839Y-86560177D01*
G37*
G36*
X199596856Y-85740602D02*
G01*
X199746451Y-85749839D01*
X199882231Y-85766953D01*
X199999329Y-85791776D01*
X200092876Y-85824139D01*
X200158007Y-85863872D01*
X200159599Y-85865292D01*
X200199166Y-85914052D01*
X200233076Y-85977825D01*
X200253974Y-86041212D01*
X200257258Y-86069724D01*
X200241362Y-86136328D01*
X200195393Y-86211698D01*
X200121679Y-86293634D01*
X200022549Y-86379934D01*
X199900333Y-86468396D01*
X199757360Y-86556821D01*
X199718857Y-86578546D01*
X199662971Y-86611227D01*
X199613270Y-86643149D01*
X199592543Y-86658098D01*
X199559608Y-86681037D01*
X199538713Y-86690439D01*
X199519103Y-86698230D01*
X199476986Y-86719142D01*
X199419645Y-86749477D01*
X199384989Y-86768436D01*
X199321357Y-86801549D01*
X199267512Y-86825741D01*
X199231248Y-86837693D01*
X199221831Y-86837933D01*
X199197435Y-86843336D01*
X199190251Y-86854010D01*
X199167580Y-86876070D01*
X199155476Y-86878587D01*
X199125643Y-86891892D01*
X199116155Y-86903563D01*
X199093431Y-86925985D01*
X199051776Y-86954322D01*
X199028115Y-86967704D01*
X198984496Y-86993732D01*
X198956546Y-87016048D01*
X198951445Y-87023974D01*
X198966479Y-87032121D01*
X199010594Y-87040151D01*
X199078666Y-87047326D01*
X199145537Y-87051880D01*
X199301092Y-87064497D01*
X199425839Y-87084345D01*
X199522665Y-87112739D01*
X199594455Y-87150997D01*
X199644096Y-87200435D01*
X199674475Y-87262369D01*
X199683089Y-87297071D01*
X199681190Y-87359419D01*
X199659075Y-87433210D01*
X199621810Y-87506844D01*
X199574461Y-87568717D01*
X199557550Y-87584525D01*
X199524171Y-87615863D01*
X199505901Y-87639339D01*
X199504729Y-87643331D01*
X199492959Y-87660838D01*
X199461207Y-87696082D01*
X199414818Y-87743803D01*
X199359131Y-87798737D01*
X199299490Y-87855623D01*
X199241235Y-87909197D01*
X199189708Y-87954198D01*
X199186133Y-87957190D01*
X199118287Y-88012245D01*
X199046796Y-88067747D01*
X198977351Y-88119568D01*
X198915640Y-88163580D01*
X198867355Y-88195657D01*
X198838186Y-88211671D01*
X198833848Y-88212728D01*
X198808850Y-88222548D01*
X198798452Y-88230037D01*
X198748048Y-88270585D01*
X198698369Y-88307817D01*
X198657488Y-88335951D01*
X198633481Y-88349204D01*
X198631547Y-88349563D01*
X198611355Y-88358326D01*
X198571873Y-88381172D01*
X198527387Y-88409429D01*
X198477664Y-88440589D01*
X198438511Y-88462241D01*
X198420116Y-88469294D01*
X198390086Y-88477697D01*
X198340907Y-88499597D01*
X198282230Y-88530030D01*
X198223705Y-88564033D01*
X198180850Y-88592349D01*
X198136273Y-88620866D01*
X198099878Y-88638057D01*
X198089090Y-88640338D01*
X198060160Y-88647705D01*
X198014041Y-88666508D01*
X197984754Y-88680561D01*
X197925164Y-88710187D01*
X197842427Y-88750487D01*
X197744405Y-88797687D01*
X197638959Y-88848012D01*
X197533951Y-88897690D01*
X197469308Y-88928007D01*
X197400228Y-88959235D01*
X197314884Y-88996345D01*
X197228813Y-89032609D01*
X197205986Y-89041988D01*
X197122878Y-89077536D01*
X197036475Y-89117163D01*
X196962173Y-89153744D01*
X196945144Y-89162734D01*
X196892449Y-89190252D01*
X196853827Y-89208643D01*
X196836706Y-89214401D01*
X196836446Y-89214030D01*
X196822414Y-89217496D01*
X196785182Y-89233300D01*
X196732053Y-89258287D01*
X196717190Y-89265575D01*
X196635675Y-89302540D01*
X196575230Y-89320191D01*
X196528770Y-89318640D01*
X196489208Y-89298000D01*
X196459444Y-89269670D01*
X196429039Y-89233024D01*
X196420248Y-89208366D01*
X196429585Y-89184438D01*
X196431935Y-89180815D01*
X196459963Y-89147938D01*
X196478715Y-89133264D01*
X196532070Y-89106862D01*
X196606351Y-89074504D01*
X196689993Y-89040938D01*
X196771428Y-89010911D01*
X196802238Y-89000481D01*
X196864324Y-88979723D01*
X196917258Y-88961209D01*
X196947625Y-88949723D01*
X196974614Y-88938426D01*
X197026968Y-88916577D01*
X197098466Y-88886769D01*
X197182891Y-88851594D01*
X197238399Y-88828478D01*
X197415602Y-88753053D01*
X197602052Y-88670762D01*
X197787644Y-88586214D01*
X197962274Y-88504018D01*
X198115838Y-88428784D01*
X198127827Y-88422741D01*
X198210193Y-88381176D01*
X198296869Y-88337531D01*
X198373175Y-88299196D01*
X198395976Y-88287770D01*
X198452803Y-88257792D01*
X198497016Y-88231623D01*
X198520025Y-88214394D01*
X198520992Y-88213109D01*
X198544771Y-88199569D01*
X198573550Y-88195624D01*
X198605386Y-88188142D01*
X198615800Y-88174243D01*
X198629822Y-88156412D01*
X198666856Y-88127043D01*
X198720069Y-88091326D01*
X198745244Y-88075893D01*
X198814616Y-88032749D01*
X198881943Y-87987965D01*
X198934712Y-87949923D01*
X198942872Y-87943495D01*
X198986786Y-87911075D01*
X199016441Y-87899229D01*
X199041846Y-87904426D01*
X199046653Y-87906852D01*
X199071035Y-87916997D01*
X199075658Y-87904686D01*
X199070558Y-87881034D01*
X199067018Y-87848585D01*
X199073950Y-87836432D01*
X199095384Y-87824663D01*
X199134628Y-87792789D01*
X199186417Y-87745959D01*
X199245483Y-87689322D01*
X199306563Y-87628028D01*
X199364390Y-87567226D01*
X199413699Y-87512064D01*
X199444613Y-87473951D01*
X199493122Y-87399959D01*
X199514567Y-87340782D01*
X199507703Y-87294682D01*
X199471286Y-87259919D01*
X199404069Y-87234754D01*
X199304807Y-87217446D01*
X199257427Y-87212477D01*
X199183237Y-87205834D01*
X199134341Y-87202182D01*
X199101964Y-87201415D01*
X199077330Y-87203431D01*
X199051664Y-87208125D01*
X199042911Y-87209944D01*
X199007962Y-87216312D01*
X198948881Y-87226158D01*
X198875368Y-87237888D01*
X198829106Y-87245054D01*
X198747656Y-87258190D01*
X198671078Y-87271695D01*
X198610853Y-87283497D01*
X198589645Y-87288313D01*
X198533513Y-87297888D01*
X198462334Y-87304263D01*
X198415547Y-87305788D01*
X198346652Y-87302789D01*
X198299753Y-87289085D01*
X198262953Y-87258584D01*
X198227021Y-87209284D01*
X198209933Y-87177282D01*
X198214624Y-87154422D01*
X198229036Y-87136718D01*
X198261989Y-87111824D01*
X198312446Y-87085234D01*
X198338193Y-87074494D01*
X198398517Y-87050270D01*
X198471289Y-87019151D01*
X198523994Y-86995520D01*
X198578442Y-86971082D01*
X198619870Y-86953652D01*
X198639309Y-86947004D01*
X198656872Y-86939811D01*
X198700671Y-86919644D01*
X198766241Y-86888625D01*
X198849119Y-86848874D01*
X198944842Y-86802513D01*
X198999838Y-86775702D01*
X199205629Y-86672324D01*
X199395517Y-86571271D01*
X199566762Y-86474205D01*
X199716628Y-86382787D01*
X199842378Y-86298680D01*
X199941273Y-86223544D01*
X200003878Y-86166204D01*
X200053820Y-86103924D01*
X200078424Y-86049756D01*
X200076285Y-86007759D01*
X200064134Y-85992074D01*
X200006050Y-85960634D01*
X199919435Y-85936361D01*
X199809221Y-85919326D01*
X199680340Y-85909597D01*
X199537726Y-85907246D01*
X199386312Y-85912341D01*
X199231029Y-85924953D01*
X199076810Y-85945150D01*
X198928589Y-85973003D01*
X198915887Y-85975848D01*
X198755083Y-86019915D01*
X198613854Y-86073851D01*
X198495039Y-86135870D01*
X198401475Y-86204185D01*
X198336001Y-86277006D01*
X198301455Y-86352548D01*
X198299068Y-86364287D01*
X198286834Y-86411837D01*
X198270833Y-86444912D01*
X198266933Y-86449093D01*
X198235052Y-86455710D01*
X198194796Y-86438155D01*
X198155481Y-86401533D01*
X198140264Y-86379668D01*
X198123958Y-86319662D01*
X198139737Y-86248462D01*
X198187479Y-86166401D01*
X198242078Y-86100233D01*
X198322877Y-86026655D01*
X198424438Y-85961510D01*
X198550483Y-85902959D01*
X198704738Y-85849159D01*
X198812002Y-85818495D01*
X198957666Y-85785809D01*
X199113850Y-85761846D01*
X199275688Y-85746436D01*
X199438312Y-85739411D01*
X199596856Y-85740602D01*
G37*
D13*
%TO.C,L1*%
X248702500Y-102162779D02*
X248702500Y-101837221D01*
X249722500Y-102162779D02*
X249722500Y-101837221D01*
%TO.C,L4*%
X200394300Y-95350279D02*
X200394300Y-95024721D01*
X201414300Y-95350279D02*
X201414300Y-95024721D01*
%TO.C,C2*%
X251609420Y-100740000D02*
X251890580Y-100740000D01*
X251609420Y-101760000D02*
X251890580Y-101760000D01*
%TO.C,Y2*%
X212300000Y-93750000D02*
X212300000Y-97050000D01*
X212300000Y-97050000D02*
X216300000Y-97050000D01*
%TO.C,C7*%
X217015000Y-95540580D02*
X217015000Y-95259420D01*
X218035000Y-95540580D02*
X218035000Y-95259420D01*
%TO.C,R1*%
X244240000Y-103662779D02*
X244240000Y-103337221D01*
X245260000Y-103662779D02*
X245260000Y-103337221D01*
%TO.C,C1*%
X248261252Y-96515000D02*
X247738748Y-96515000D01*
X248261252Y-97985000D02*
X247738748Y-97985000D01*
%TO.C,C11*%
X194288720Y-95427500D02*
X194569880Y-95427500D01*
X194288720Y-96447500D02*
X194569880Y-96447500D01*
%TD*%
M02*
