M48
; DRILL file {KiCad 8.0.0-1.fc39} date 2024-05-13T23:25:15+0200
; FORMAT={-:-/ absolute / inch / decimal}
; #@! TF.CreationDate,2024-05-13T23:25:15+02:00
; #@! TF.GenerationSoftware,Kicad,Pcbnew,8.0.0-1.fc39
; #@! TF.FileFunction,Plated,1,2,PTH
FMAT,2
INCH
; #@! TA.AperFunction,Plated,PTH,ViaDrill
T1C0.0118
; #@! TA.AperFunction,Plated,PTH,ComponentDrill
T2C0.0236
; #@! TA.AperFunction,Plated,PTH,ComponentDrill
T3C0.0394
%
G90
G05
T1
X7.628Y-4.0059
X7.628Y-4.0354
X7.6476Y-3.6516
X7.6476Y-3.6811
X7.6575Y-4.0059
X7.6575Y-4.0354
X7.6772Y-3.6516
X7.6772Y-3.6811
X7.687Y-4.0059
X7.687Y-4.0354
X7.7067Y-3.6516
X7.7067Y-3.6811
X7.7165Y-4.0059
X7.7165Y-4.0354
X7.7362Y-3.6516
X7.7362Y-3.6811
X8.0618Y-3.974
X8.0984Y-3.8543
X8.1429Y-3.7878
X8.174Y-3.7421
X8.1929Y-3.8898
X8.3159Y-3.9812
X8.3268Y-3.811
X8.4299Y-3.9819
X8.5354Y-3.9173
X8.7815Y-3.8484
X8.7815Y-3.878
X8.8287Y-3.8484
X8.8287Y-3.878
X8.8622Y-3.7244
X8.8622Y-3.752
X8.8843Y-3.6661
X8.8898Y-3.7244
X8.8898Y-3.752
X9.5673Y-3.9386
X9.5866Y-4.0157
X9.8819Y-3.8091
X9.8819Y-3.8386
X9.8819Y-3.8681
X9.8819Y-3.8976
X9.9114Y-3.8091
X9.9114Y-3.8386
X9.9114Y-3.8681
X9.9114Y-3.8976
X9.9303Y-4.0807
X9.9303Y-4.1102
X9.9598Y-4.0807
X9.9598Y-4.1102
X9.9894Y-4.0807
T2
X7.4792Y-3.376
X7.5186Y-3.5354
X7.5592Y-3.376
X7.5986Y-3.5354
X7.6392Y-3.376
X7.6786Y-3.5354
X7.7192Y-3.376
X7.7586Y-3.5354
X7.7992Y-3.376
X7.8386Y-3.5354
X7.8792Y-3.376
X7.9186Y-3.5354
X7.9592Y-3.376
X7.9986Y-3.5354
X8.0392Y-3.376
X8.0786Y-3.5354
X8.1192Y-3.376
X8.1586Y-3.5354
X8.1992Y-3.376
X8.2386Y-3.5354
X8.2792Y-3.376
X8.3186Y-3.5354
X8.3592Y-3.376
X8.3986Y-3.5354
X8.4392Y-3.376
X8.4786Y-3.5354
X8.5192Y-3.376
X8.5586Y-3.5354
X8.5992Y-3.376
X8.6386Y-3.5354
X8.6792Y-3.376
X8.7186Y-3.5354
T3
X8.1Y-4.0748
X8.2Y-4.0748
X8.3Y-4.0748
X8.4Y-4.0748
X8.5Y-4.0748
X8.6Y-4.0748
X8.7Y-4.0748
X8.9Y-4.0748
X9.0Y-4.0748
X9.1Y-4.0748
M30
