%TF.GenerationSoftware,KiCad,Pcbnew,8.0.0-1.fc39*%
%TF.CreationDate,2024-05-13T23:25:17+02:00*%
%TF.ProjectId,radio433,72616469-6f34-4333-932e-6b696361645f,rev?*%
%TF.SameCoordinates,Original*%
%TF.FileFunction,Copper,L1,Top*%
%TF.FilePolarity,Positive*%
%FSLAX46Y46*%
G04 Gerber Fmt 4.6, Leading zero omitted, Abs format (unit mm)*
G04 Created by KiCad (PCBNEW 8.0.0-1.fc39) date 2024-05-13 23:25:17*
%MOMM*%
%LPD*%
G01*
G04 APERTURE LIST*
G04 Aperture macros list*
%AMRoundRect*
0 Rectangle with rounded corners*
0 $1 Rounding radius*
0 $2 $3 $4 $5 $6 $7 $8 $9 X,Y pos of 4 corners*
0 Add a 4 corners polygon primitive as box body*
4,1,4,$2,$3,$4,$5,$6,$7,$8,$9,$2,$3,0*
0 Add four circle primitives for the rounded corners*
1,1,$1+$1,$2,$3*
1,1,$1+$1,$4,$5*
1,1,$1+$1,$6,$7*
1,1,$1+$1,$8,$9*
0 Add four rect primitives between the rounded corners*
20,1,$1+$1,$2,$3,$4,$5,0*
20,1,$1+$1,$4,$5,$6,$7,0*
20,1,$1+$1,$6,$7,$8,$9,0*
20,1,$1+$1,$8,$9,$2,$3,0*%
%AMHorizOval*
0 Thick line with rounded ends*
0 $1 width*
0 $2 $3 position (X,Y) of the first rounded end (center of the circle)*
0 $4 $5 position (X,Y) of the second rounded end (center of the circle)*
0 Add line between two ends*
20,1,$1,$2,$3,$4,$5,0*
0 Add two circle primitives to create the rounded ends*
1,1,$1,$2,$3*
1,1,$1,$4,$5*%
G04 Aperture macros list end*
%TA.AperFunction,SMDPad,CuDef*%
%ADD10RoundRect,0.225000X-0.250000X0.225000X-0.250000X-0.225000X0.250000X-0.225000X0.250000X0.225000X0*%
%TD*%
%TA.AperFunction,SMDPad,CuDef*%
%ADD11RoundRect,0.218750X-0.218750X-0.256250X0.218750X-0.256250X0.218750X0.256250X-0.218750X0.256250X0*%
%TD*%
%TA.AperFunction,SMDPad,CuDef*%
%ADD12R,1.400000X1.200000*%
%TD*%
%TA.AperFunction,SMDPad,CuDef*%
%ADD13RoundRect,0.225000X0.225000X0.250000X-0.225000X0.250000X-0.225000X-0.250000X0.225000X-0.250000X0*%
%TD*%
%TA.AperFunction,SMDPad,CuDef*%
%ADD14RoundRect,0.225000X-0.225000X-0.250000X0.225000X-0.250000X0.225000X0.250000X-0.225000X0.250000X0*%
%TD*%
%TA.AperFunction,SMDPad,CuDef*%
%ADD15R,1.600000X0.410000*%
%TD*%
%TA.AperFunction,SMDPad,CuDef*%
%ADD16HorizOval,2.000000X-0.707107X0.707107X0.707107X-0.707107X0*%
%TD*%
%TA.AperFunction,SMDPad,CuDef*%
%ADD17O,2.000000X12.300000*%
%TD*%
%TA.AperFunction,SMDPad,CuDef*%
%ADD18O,2.000000X3.000000*%
%TD*%
%TA.AperFunction,SMDPad,CuDef*%
%ADD19O,2.000000X12.700000*%
%TD*%
%TA.AperFunction,SMDPad,CuDef*%
%ADD20HorizOval,2.000000X0.601041X0.601041X-0.601041X-0.601041X0*%
%TD*%
%TA.AperFunction,SMDPad,CuDef*%
%ADD21O,29.500000X2.000000*%
%TD*%
%TA.AperFunction,SMDPad,CuDef*%
%ADD22RoundRect,0.218750X0.256250X-0.218750X0.256250X0.218750X-0.256250X0.218750X-0.256250X-0.218750X0*%
%TD*%
%TA.AperFunction,ComponentPad*%
%ADD23R,1.700000X1.700000*%
%TD*%
%TA.AperFunction,ComponentPad*%
%ADD24O,1.700000X1.700000*%
%TD*%
%TA.AperFunction,SMDPad,CuDef*%
%ADD25RoundRect,0.250000X-0.250000X-0.475000X0.250000X-0.475000X0.250000X0.475000X-0.250000X0.475000X0*%
%TD*%
%TA.AperFunction,SMDPad,CuDef*%
%ADD26RoundRect,0.150000X0.512500X0.150000X-0.512500X0.150000X-0.512500X-0.150000X0.512500X-0.150000X0*%
%TD*%
%TA.AperFunction,SMDPad,CuDef*%
%ADD27RoundRect,0.218750X-0.256250X0.218750X-0.256250X-0.218750X0.256250X-0.218750X0.256250X0.218750X0*%
%TD*%
%TA.AperFunction,SMDPad,CuDef*%
%ADD28HorizOval,1.050000X0.080850X0.468069X-0.080850X-0.468069X0*%
%TD*%
%TA.AperFunction,SMDPad,CuDef*%
%ADD29HorizOval,1.050000X0.527649X3.054764X-0.527649X-3.054764X0*%
%TD*%
%TA.AperFunction,ComponentPad*%
%ADD30C,0.900000*%
%TD*%
%TA.AperFunction,SMDPad,CuDef*%
%ADD31HorizOval,1.050000X0.484399X2.017668X-0.484399X-2.017668X0*%
%TD*%
%TA.AperFunction,SMDPad,CuDef*%
%ADD32RoundRect,0.225000X0.250000X-0.225000X0.250000X0.225000X-0.250000X0.225000X-0.250000X-0.225000X0*%
%TD*%
%TA.AperFunction,SMDPad,CuDef*%
%ADD33RoundRect,0.250000X0.250000X0.475000X-0.250000X0.475000X-0.250000X-0.475000X0.250000X-0.475000X0*%
%TD*%
%TA.AperFunction,ViaPad*%
%ADD34C,0.600000*%
%TD*%
%TA.AperFunction,Conductor*%
%ADD35C,0.200000*%
%TD*%
%TA.AperFunction,Conductor*%
%ADD36C,1.290000*%
%TD*%
%TA.AperFunction,Conductor*%
%ADD37C,0.250000*%
%TD*%
G04 APERTURE END LIST*
D10*
%TO.P,C3,1*%
%TO.N,/PAOUT_CL*%
X254000000Y-94475000D03*
%TO.P,C3,2*%
%TO.N,GND*%
X254000000Y-96025000D03*
%TD*%
D11*
%TO.P,R3,1*%
%TO.N,/SHDN*%
X200705000Y-101510000D03*
%TO.P,R3,2*%
%TO.N,GND*%
X202280000Y-101510000D03*
%TD*%
D12*
%TO.P,Y3,1,1*%
%TO.N,Net-(U1-XTLIN)*%
X239250000Y-101200000D03*
%TO.P,Y3,2,2*%
%TO.N,GND*%
X241450000Y-101200000D03*
%TO.P,Y3,3,3*%
%TO.N,Net-(U1-XTLOUT)*%
X241450000Y-99500000D03*
%TO.P,Y3,4,4*%
%TO.N,GND*%
X239250000Y-99500000D03*
%TD*%
D10*
%TO.P,C13,1*%
%TO.N,/VDD_RX*%
X202200000Y-98225000D03*
%TO.P,C13,2*%
%TO.N,/SHDN*%
X202200000Y-99775000D03*
%TD*%
%TO.P,C12,1*%
%TO.N,/VDD_RX*%
X212700000Y-98125000D03*
%TO.P,C12,2*%
%TO.N,GND*%
X212700000Y-99675000D03*
%TD*%
D13*
%TO.P,C6,1*%
%TO.N,/VDD_TX*%
X245275000Y-97250000D03*
%TO.P,C6,2*%
%TO.N,GND*%
X243725000Y-97250000D03*
%TD*%
D14*
%TO.P,C14,1*%
%TO.N,Net-(U2-CTH)*%
X208825000Y-100500000D03*
%TO.P,C14,2*%
%TO.N,GND*%
X210375000Y-100500000D03*
%TD*%
%TO.P,C4,1*%
%TO.N,GND*%
X239475000Y-97750000D03*
%TO.P,C4,2*%
%TO.N,Net-(U1-XTLOUT)*%
X241025000Y-97750000D03*
%TD*%
D15*
%TO.P,U2,1,RO1*%
%TO.N,Net-(U2-RO1)*%
X204345700Y-94627500D03*
%TO.P,U2,2,GNDRF*%
%TO.N,GND*%
X204345700Y-95262500D03*
%TO.P,U2,3,ANT*%
%TO.N,/ANT*%
X204345700Y-95897500D03*
%TO.P,U2,4,GNDRF*%
%TO.N,GND*%
X204345700Y-96532500D03*
%TO.P,U2,5,VDD*%
%TO.N,/VDD_RX*%
X204345700Y-97167500D03*
%TO.P,U2,6,SQ*%
%TO.N,unconnected-(U2-SQ-Pad6)*%
X204345700Y-97802500D03*
%TO.P,U2,7,SEL0*%
%TO.N,/VDD_RX*%
X204345700Y-98437500D03*
%TO.P,U2,8,SHDN*%
%TO.N,/SHDN*%
X204345700Y-99072500D03*
%TO.P,U2,9,GND*%
%TO.N,GND*%
X209654300Y-99072500D03*
%TO.P,U2,10,DO*%
%TO.N,/DOUT*%
X209654300Y-98437500D03*
%TO.P,U2,11,SEL1*%
%TO.N,/VDD_RX*%
X209654300Y-97802500D03*
%TO.P,U2,12,CTH*%
%TO.N,Net-(U2-CTH)*%
X209654300Y-97167500D03*
%TO.P,U2,13,CAGC*%
%TO.N,Net-(U2-CAGC)*%
X209654300Y-96532500D03*
%TO.P,U2,14,RSSI*%
%TO.N,/RSSI*%
X209654300Y-95897500D03*
%TO.P,U2,15,SCLK*%
%TO.N,/SCLK*%
X209654300Y-95262500D03*
%TO.P,U2,16,RO2*%
%TO.N,Net-(U2-RO2)*%
X209654300Y-94627500D03*
%TD*%
D16*
%TO.P,AE1,1*%
%TO.N,/PAOUT_CL*%
X255041593Y-81250000D03*
D17*
X255751593Y-87100000D03*
D18*
X255751593Y-91750000D03*
D19*
%TO.P,AE1,2*%
%TO.N,GND*%
X225671593Y-87120000D03*
D20*
X226271593Y-81160000D03*
D21*
X240625000Y-80552050D03*
%TD*%
D22*
%TO.P,L2,1,1*%
%TO.N,/PAOUT_C*%
X255750000Y-96037500D03*
%TO.P,L2,2,2*%
%TO.N,/PAOUT_CL*%
X255750000Y-94462500D03*
%TD*%
D23*
%TO.P,J2,1,Pin_1*%
%TO.N,/VDD_RX*%
X220980000Y-103500000D03*
D24*
%TO.P,J2,2,Pin_2*%
%TO.N,/DOUT*%
X218440000Y-103500000D03*
%TO.P,J2,3,Pin_3*%
X215900000Y-103500000D03*
%TO.P,J2,4,Pin_4*%
%TO.N,GND*%
X213360000Y-103500000D03*
%TO.P,J2,5,Pin_5*%
%TO.N,/SCLK*%
X210820000Y-103500000D03*
%TO.P,J2,6,Pin_6*%
%TO.N,/SHDN*%
X208280000Y-103500000D03*
%TO.P,J2,7,Pin_7*%
%TO.N,/RSSI*%
X205740000Y-103500000D03*
%TD*%
D23*
%TO.P,J1,1,Pin_1*%
%TO.N,/VDD_TX*%
X226060000Y-103500000D03*
D24*
%TO.P,J1,2,Pin_2*%
%TO.N,/DIN*%
X228600000Y-103500000D03*
%TO.P,J1,3,Pin_3*%
%TO.N,GND*%
X231140000Y-103500000D03*
%TD*%
D25*
%TO.P,C9,1*%
%TO.N,Net-(U2-CAGC)*%
X217750000Y-98300000D03*
%TO.P,C9,2*%
%TO.N,GND*%
X219650000Y-98300000D03*
%TD*%
D26*
%TO.P,U1,1,PAOUT*%
%TO.N,/PAOUT*%
X247137500Y-100950000D03*
%TO.P,U1,2,VSS*%
%TO.N,GND*%
X247137500Y-100000000D03*
%TO.P,U1,3,VDD*%
%TO.N,/VDD_TX*%
X247137500Y-99050000D03*
%TO.P,U1,4,XTLOUT*%
%TO.N,Net-(U1-XTLOUT)*%
X244862500Y-99050000D03*
%TO.P,U1,5,XTLIN*%
%TO.N,Net-(U1-XTLIN)*%
X244862500Y-100000000D03*
%TO.P,U1,6,ASK*%
%TO.N,/DIN*%
X244862500Y-100950000D03*
%TD*%
D27*
%TO.P,L3,1,1*%
%TO.N,/ANT_CC*%
X191750000Y-95912500D03*
%TO.P,L3,2,2*%
%TO.N,GND*%
X191750000Y-97487500D03*
%TD*%
D10*
%TO.P,C5,1*%
%TO.N,GND*%
X237250000Y-99725000D03*
%TO.P,C5,2*%
%TO.N,Net-(U1-XTLIN)*%
X237250000Y-101275000D03*
%TD*%
D13*
%TO.P,C8,1*%
%TO.N,GND*%
X215975000Y-98300000D03*
%TO.P,C8,2*%
%TO.N,Net-(U2-RO2)*%
X214425000Y-98300000D03*
%TD*%
D14*
%TO.P,C10,1*%
%TO.N,/ANT_C*%
X197129300Y-95937500D03*
%TO.P,C10,2*%
%TO.N,/ANT*%
X198679300Y-95937500D03*
%TD*%
D11*
%TO.P,R2,1*%
%TO.N,/VDD_TX*%
X247462500Y-104500000D03*
%TO.P,R2,2*%
%TO.N,Net-(L1-Pad1)*%
X249037500Y-104500000D03*
%TD*%
D22*
%TO.P,L1,1,1*%
%TO.N,Net-(L1-Pad1)*%
X249212500Y-102787500D03*
%TO.P,L1,2,2*%
%TO.N,/PAOUT*%
X249212500Y-101212500D03*
%TD*%
D28*
%TO.P,AE2,1,A*%
%TO.N,/ANT_CC*%
X189022000Y-91450000D03*
D29*
X189472000Y-88850000D03*
D30*
X189972000Y-85750000D03*
X190972000Y-89800000D03*
D31*
X191522000Y-87800000D03*
D30*
X192004000Y-85750000D03*
X193004000Y-89800000D03*
D31*
X193554000Y-87800000D03*
D30*
X194036000Y-85750000D03*
X195036000Y-89800000D03*
D31*
X195586000Y-87800000D03*
D30*
X196068000Y-85750000D03*
X197068000Y-89800000D03*
D31*
X197618000Y-87800000D03*
D30*
X198100000Y-85750000D03*
X199100000Y-89800000D03*
D31*
X199650000Y-87800000D03*
D30*
X200132000Y-85750000D03*
X201132000Y-89800000D03*
D31*
X201682000Y-87800000D03*
D30*
X202164000Y-85750000D03*
X203164000Y-89800000D03*
D31*
X203714000Y-87800000D03*
D30*
X204196000Y-85750000D03*
X205196000Y-89800000D03*
D31*
X205746000Y-87800000D03*
D30*
X206228000Y-85750000D03*
X207228000Y-89800000D03*
D31*
X207778000Y-87800000D03*
D30*
X208260000Y-85750000D03*
X209260000Y-89800000D03*
D31*
X209810000Y-87800000D03*
D30*
X210292000Y-85750000D03*
X211292000Y-89800000D03*
D31*
X211842000Y-87800000D03*
D30*
X212324000Y-85750000D03*
X213324000Y-89800000D03*
D31*
X213874000Y-87800000D03*
D30*
X214356000Y-85750000D03*
X215356000Y-89800000D03*
D31*
X215906000Y-87800000D03*
D30*
X216388000Y-85750000D03*
X217388000Y-89800000D03*
D31*
X217938000Y-87800000D03*
D30*
X218420000Y-85750000D03*
X219420000Y-89800000D03*
D31*
X219970000Y-87800000D03*
D30*
X220452000Y-85750000D03*
X221452000Y-89800000D03*
%TD*%
D22*
%TO.P,L4,1,1*%
%TO.N,/ANT*%
X200904300Y-95975000D03*
%TO.P,L4,2,2*%
%TO.N,GND*%
X200904300Y-94400000D03*
%TD*%
D14*
%TO.P,C2,1*%
%TO.N,/PAOUT*%
X250975000Y-101250000D03*
%TO.P,C2,2*%
%TO.N,/PAOUT_C*%
X252525000Y-101250000D03*
%TD*%
D12*
%TO.P,Y2,1,1*%
%TO.N,Net-(U2-RO2)*%
X213200000Y-96250000D03*
%TO.P,Y2,2,2*%
%TO.N,GND*%
X215400000Y-96250000D03*
%TO.P,Y2,3,3*%
%TO.N,Net-(U2-RO1)*%
X215400000Y-94550000D03*
%TO.P,Y2,4,4*%
%TO.N,GND*%
X213200000Y-94550000D03*
%TD*%
D32*
%TO.P,C7,1*%
%TO.N,GND*%
X217525000Y-96175000D03*
%TO.P,C7,2*%
%TO.N,Net-(U2-RO1)*%
X217525000Y-94625000D03*
%TD*%
D22*
%TO.P,R1,1*%
%TO.N,GND*%
X244750000Y-104287500D03*
%TO.P,R1,2*%
%TO.N,/DIN*%
X244750000Y-102712500D03*
%TD*%
D33*
%TO.P,C1,1*%
%TO.N,GND*%
X248950000Y-97250000D03*
%TO.P,C1,2*%
%TO.N,/VDD_TX*%
X247050000Y-97250000D03*
%TD*%
D14*
%TO.P,C11,1*%
%TO.N,/ANT_CC*%
X193654300Y-95937500D03*
%TO.P,C11,2*%
%TO.N,/ANT_C*%
X195204300Y-95937500D03*
%TD*%
D34*
%TO.N,GND*%
X196500000Y-93500000D03*
X251000000Y-99000000D03*
X194250000Y-92750000D03*
X252230000Y-103650000D03*
X195250000Y-102500000D03*
X225800000Y-95300000D03*
X225100000Y-94600000D03*
X252980000Y-103650000D03*
X214120000Y-101140000D03*
X253730000Y-103650000D03*
X225800000Y-94600000D03*
X196500000Y-92750000D03*
X225100000Y-95300000D03*
X223050000Y-98500000D03*
X195000000Y-93500000D03*
X194500000Y-102500000D03*
X251750000Y-99000000D03*
X251750000Y-96750000D03*
X196000000Y-102500000D03*
X195000000Y-92750000D03*
X224250000Y-98500000D03*
X194250000Y-93500000D03*
X193750000Y-101750000D03*
X193750000Y-102500000D03*
X251000000Y-97500000D03*
X243010000Y-100040000D03*
X195250000Y-101750000D03*
X195750000Y-93500000D03*
X196000000Y-101750000D03*
X251750000Y-98250000D03*
X223050000Y-97750000D03*
X251750000Y-97500000D03*
X251000000Y-98250000D03*
X252230000Y-104400000D03*
X252980000Y-104400000D03*
X224250000Y-97750000D03*
X251000000Y-96750000D03*
X225660000Y-93120000D03*
X194500000Y-101750000D03*
X195750000Y-92750000D03*
%TO.N,/DIN*%
X243500000Y-102000000D03*
%TO.N,Net-(U2-CAGC)*%
X216800000Y-99500000D03*
X211500000Y-96800000D03*
%TO.N,/VDD_RX*%
X205700000Y-97900000D03*
X208100000Y-98800000D03*
%TO.N,/SCLK*%
X207620000Y-95050000D03*
X211223805Y-101121377D03*
%TO.N,/RSSI*%
X206830000Y-96210000D03*
X204770000Y-100940000D03*
%TD*%
D35*
%TO.N,GND*%
X213360000Y-102183200D02*
X213360000Y-103500000D01*
X212700000Y-99675000D02*
X214120000Y-101095000D01*
X210249300Y-99072500D02*
X213360000Y-102183200D01*
X209654300Y-99072500D02*
X210249300Y-99072500D01*
X241450000Y-101200000D02*
X241850000Y-101200000D01*
X209654300Y-99779300D02*
X210375000Y-100500000D01*
X214120000Y-101095000D02*
X214120000Y-101140000D01*
X213200000Y-94550000D02*
X213300000Y-94550000D01*
X209654300Y-99072500D02*
X209654300Y-99779300D01*
X241850000Y-101200000D02*
X243010000Y-100040000D01*
X213300000Y-94550000D02*
X215000000Y-96250000D01*
X215000000Y-96250000D02*
X215400000Y-96250000D01*
%TO.N,Net-(U1-XTLIN)*%
X242300000Y-102250000D02*
X240300000Y-102250000D01*
X244200001Y-100000000D02*
X242500000Y-101700001D01*
X239175000Y-101275000D02*
X239250000Y-101200000D01*
X242500000Y-101700001D02*
X242500000Y-102050000D01*
X242500000Y-102050000D02*
X242300000Y-102250000D01*
X237250000Y-101275000D02*
X239175000Y-101275000D01*
X240300000Y-102250000D02*
X239250000Y-101200000D01*
X244862500Y-100000000D02*
X244200001Y-100000000D01*
%TO.N,Net-(U1-XTLOUT)*%
X241450000Y-99500000D02*
X241450000Y-98175000D01*
X241450000Y-98175000D02*
X241025000Y-97750000D01*
X241900000Y-99050000D02*
X244862500Y-99050000D01*
X241450000Y-99500000D02*
X241900000Y-99050000D01*
%TO.N,/VDD_TX*%
X246750000Y-104500000D02*
X247462500Y-104500000D01*
X227210000Y-102350000D02*
X226060000Y-103500000D01*
X235050000Y-103550000D02*
X245800000Y-103550000D01*
X247137500Y-99050000D02*
X247137500Y-97337500D01*
X233850000Y-102350000D02*
X227210000Y-102350000D01*
X247137500Y-97337500D02*
X247050000Y-97250000D01*
X245800000Y-103550000D02*
X246125000Y-103875000D01*
X233850000Y-102350000D02*
X235050000Y-103550000D01*
X246125000Y-99400001D02*
X246125000Y-103875000D01*
X246475001Y-99050000D02*
X246125000Y-99400001D01*
X245337500Y-97250000D02*
X245275000Y-97250000D01*
X247137500Y-99050000D02*
X245337500Y-97250000D01*
X247137500Y-99050000D02*
X246475001Y-99050000D01*
X246125000Y-103875000D02*
X246750000Y-104500000D01*
%TO.N,/DIN*%
X244750000Y-101062500D02*
X244862500Y-100950000D01*
X243500000Y-102000000D02*
X244037500Y-102000000D01*
X244037500Y-102000000D02*
X244750000Y-102712500D01*
X244750000Y-102712500D02*
X244750000Y-101062500D01*
%TO.N,Net-(U2-RO1)*%
X215550000Y-94550000D02*
X215625000Y-94625000D01*
X205323200Y-93650000D02*
X214500000Y-93650000D01*
X204345700Y-94627500D02*
X205323200Y-93650000D01*
X215400000Y-94550000D02*
X215550000Y-94550000D01*
X215625000Y-94625000D02*
X217525000Y-94625000D01*
X214500000Y-93650000D02*
X215400000Y-94550000D01*
%TO.N,Net-(U2-RO2)*%
X213200000Y-97075000D02*
X214425000Y-98300000D01*
X213100000Y-96250000D02*
X211477500Y-94627500D01*
X213200000Y-96250000D02*
X213100000Y-96250000D01*
X211477500Y-94627500D02*
X209654300Y-94627500D01*
X213200000Y-96250000D02*
X213200000Y-97075000D01*
%TO.N,Net-(U2-CAGC)*%
X211232500Y-96532500D02*
X211500000Y-96800000D01*
X209654300Y-96532500D02*
X211232500Y-96532500D01*
X216800000Y-99500000D02*
X216800000Y-99250000D01*
X216800000Y-99250000D02*
X217750000Y-98300000D01*
%TO.N,/SHDN*%
X208280000Y-103500000D02*
X204345700Y-99565700D01*
X203643200Y-99775000D02*
X204345700Y-99072500D01*
X200705000Y-101270000D02*
X202200000Y-99775000D01*
X202200000Y-99775000D02*
X203643200Y-99775000D01*
X204345700Y-99565700D02*
X204345700Y-99072500D01*
X200705000Y-101510000D02*
X200705000Y-101270000D01*
%TO.N,Net-(U2-CTH)*%
X207500000Y-98321800D02*
X207500000Y-99175000D01*
X207500000Y-99175000D02*
X208825000Y-100500000D01*
X208654300Y-97167500D02*
X207500000Y-98321800D01*
X209654300Y-97167500D02*
X208654300Y-97167500D01*
%TO.N,/VDD_RX*%
X202200000Y-98225000D02*
X202412500Y-98437500D01*
X205700000Y-97521800D02*
X205345700Y-97167500D01*
X208684300Y-97802500D02*
X208100000Y-98386800D01*
X216925000Y-102350000D02*
X212700000Y-98125000D01*
X205700000Y-97900000D02*
X205700000Y-97521800D01*
X208100000Y-98386800D02*
X208100000Y-98800000D01*
X219830000Y-102350000D02*
X216925000Y-102350000D01*
X204345700Y-98437500D02*
X205162500Y-98437500D01*
X220980000Y-103500000D02*
X219830000Y-102350000D01*
X205162500Y-98437500D02*
X205700000Y-97900000D01*
X209654300Y-97802500D02*
X212377500Y-97802500D01*
X203257500Y-97167500D02*
X204345700Y-97167500D01*
X205345700Y-97167500D02*
X204345700Y-97167500D01*
X212377500Y-97802500D02*
X212700000Y-98125000D01*
X209654300Y-97802500D02*
X208684300Y-97802500D01*
X202412500Y-98437500D02*
X204345700Y-98437500D01*
X202200000Y-98225000D02*
X203257500Y-97167500D01*
%TO.N,/DOUT*%
X215900000Y-103500000D02*
X218440000Y-103500000D01*
X215301304Y-103500000D02*
X215900000Y-103500000D01*
X211275652Y-99058852D02*
X211275652Y-99474348D01*
X209654300Y-98437500D02*
X210654300Y-98437500D01*
X211275652Y-99474348D02*
X215301304Y-103500000D01*
X210654300Y-98437500D02*
X211275652Y-99058852D01*
%TO.N,/SCLK*%
X211223805Y-101121377D02*
X210820000Y-101525182D01*
X210820000Y-101525182D02*
X210820000Y-103500000D01*
X207832500Y-95262500D02*
X209654300Y-95262500D01*
X207620000Y-95050000D02*
X207832500Y-95262500D01*
%TO.N,/RSSI*%
X205740000Y-101910000D02*
X204770000Y-100940000D01*
X205740000Y-103500000D02*
X205740000Y-101910000D01*
X207142500Y-95897500D02*
X209654300Y-95897500D01*
X206830000Y-96210000D02*
X207142500Y-95897500D01*
%TO.N,Net-(L1-Pad1)*%
X249212500Y-104325000D02*
X249037500Y-104500000D01*
X249212500Y-102787500D02*
X249212500Y-104325000D01*
D36*
%TO.N,/PAOUT_CL*%
X254000000Y-94475000D02*
X255737500Y-94475000D01*
X255737500Y-94475000D02*
X255750000Y-94462500D01*
X255750000Y-94462500D02*
X255750000Y-91751593D01*
X255750000Y-91751593D02*
X255751593Y-91750000D01*
%TO.N,/PAOUT*%
X249250000Y-101250000D02*
X249212500Y-101212500D01*
X250975000Y-101250000D02*
X249250000Y-101250000D01*
X249212500Y-101212500D02*
X247155000Y-101212500D01*
X247155000Y-101212500D02*
X247137500Y-101195000D01*
%TO.N,/PAOUT_C*%
X255750000Y-98878680D02*
X255750000Y-96037500D01*
X254439340Y-100810660D02*
X255310660Y-99939340D01*
X252525000Y-101250000D02*
X253378680Y-101250000D01*
X253378680Y-101250000D02*
G75*
G03*
X254439350Y-100810670I20J1500000D01*
G01*
X255310660Y-99939340D02*
G75*
G03*
X255749985Y-98878680I-1060660J1060640D01*
G01*
%TO.N,/ANT_CC*%
X191750000Y-95912500D02*
X193629300Y-95912500D01*
X193629300Y-95912500D02*
X193654300Y-95937500D01*
X189022000Y-93980680D02*
X189022000Y-91450000D01*
X189893160Y-95473160D02*
X189461340Y-95041340D01*
X191750000Y-95912500D02*
X190953820Y-95912500D01*
X190953820Y-95912500D02*
G75*
G02*
X189893150Y-95473170I-20J1500000D01*
G01*
X189022000Y-93980680D02*
G75*
G03*
X189461330Y-95041350I1500000J-20D01*
G01*
%TO.N,/ANT*%
X200904300Y-95975000D02*
X198716800Y-95975000D01*
X198716800Y-95975000D02*
X198679300Y-95937500D01*
X200904300Y-95975000D02*
X202650700Y-95975000D01*
D37*
X202728200Y-95897500D02*
X202650700Y-95975000D01*
X204345700Y-95897500D02*
X202728200Y-95897500D01*
D36*
%TO.N,/ANT_C*%
X195204300Y-95937500D02*
X197129300Y-95937500D01*
%TD*%
%TA.AperFunction,Conductor*%
%TO.N,GND*%
G36*
X188415039Y-85230185D02*
G01*
X188460794Y-85282989D01*
X188472000Y-85334500D01*
X188472000Y-90072601D01*
X188470191Y-90093707D01*
X188355113Y-90759931D01*
X188352462Y-90771781D01*
X188351668Y-90774660D01*
X188340605Y-90838705D01*
X188321517Y-90886489D01*
X188228421Y-91025815D01*
X188228414Y-91025828D01*
X188160915Y-91188787D01*
X188160912Y-91188797D01*
X188126500Y-91361798D01*
X188126500Y-94074691D01*
X188126514Y-94074982D01*
X188126514Y-94115196D01*
X188153476Y-94354518D01*
X188156636Y-94382567D01*
X188156637Y-94382573D01*
X188212061Y-94625412D01*
X188216503Y-94644873D01*
X188235841Y-94700141D01*
X188305360Y-94898825D01*
X188308955Y-94906291D01*
X188422100Y-95141244D01*
X188472049Y-95220739D01*
X188565240Y-95369057D01*
X188732995Y-95579421D01*
X188761421Y-95607847D01*
X188761452Y-95607881D01*
X188820508Y-95666936D01*
X188828118Y-95674546D01*
X188828119Y-95674548D01*
X188828120Y-95674548D01*
X188894809Y-95741239D01*
X188894830Y-95741258D01*
X189193952Y-96040380D01*
X189193963Y-96040392D01*
X189197582Y-96044011D01*
X189197585Y-96044015D01*
X189223623Y-96070052D01*
X189223646Y-96070094D01*
X189355069Y-96201516D01*
X189545915Y-96353708D01*
X189565429Y-96369269D01*
X189793248Y-96512414D01*
X190035662Y-96629152D01*
X190035665Y-96629153D01*
X190035667Y-96629154D01*
X190070240Y-96641251D01*
X190289623Y-96718013D01*
X190289632Y-96718015D01*
X190551919Y-96777878D01*
X190551925Y-96777878D01*
X190551936Y-96777881D01*
X190734818Y-96798484D01*
X190799231Y-96825549D01*
X190838787Y-96883143D01*
X190840926Y-96952980D01*
X190838641Y-96960707D01*
X190785057Y-97122414D01*
X190775000Y-97220849D01*
X190775000Y-97237500D01*
X192724999Y-97237500D01*
X192724999Y-97220864D01*
X192724998Y-97220847D01*
X192714943Y-97122416D01*
X192664770Y-96971004D01*
X192662368Y-96901176D01*
X192698100Y-96841134D01*
X192760620Y-96809941D01*
X192782476Y-96808000D01*
X193428208Y-96808000D01*
X193452398Y-96810382D01*
X193480648Y-96816002D01*
X193566098Y-96833000D01*
X193566101Y-96833000D01*
X193742501Y-96833000D01*
X193908399Y-96800000D01*
X193915508Y-96798586D01*
X194058834Y-96739218D01*
X194078476Y-96731082D01*
X194078476Y-96731081D01*
X194078478Y-96731081D01*
X194225148Y-96633080D01*
X194270228Y-96588000D01*
X194341619Y-96516610D01*
X194402942Y-96483125D01*
X194472634Y-96488109D01*
X194516981Y-96516610D01*
X194633448Y-96633077D01*
X194633452Y-96633080D01*
X194780115Y-96731078D01*
X194780128Y-96731085D01*
X194922501Y-96790057D01*
X194943092Y-96798586D01*
X194943096Y-96798586D01*
X194943097Y-96798587D01*
X195116098Y-96833000D01*
X195116101Y-96833000D01*
X197217501Y-96833000D01*
X197383399Y-96800000D01*
X197390508Y-96798586D01*
X197536062Y-96738296D01*
X197553471Y-96731085D01*
X197553471Y-96731084D01*
X197553478Y-96731082D01*
X197700148Y-96633080D01*
X197745228Y-96588000D01*
X197816619Y-96516610D01*
X197877942Y-96483125D01*
X197947634Y-96488109D01*
X197991981Y-96516610D01*
X198145948Y-96670577D01*
X198145952Y-96670580D01*
X198292615Y-96768578D01*
X198292628Y-96768585D01*
X198455587Y-96836084D01*
X198455592Y-96836086D01*
X198455596Y-96836086D01*
X198455597Y-96836087D01*
X198628598Y-96870500D01*
X198628601Y-96870500D01*
X202738901Y-96870500D01*
X202744964Y-96869903D01*
X202745122Y-96871511D01*
X202806912Y-96877032D01*
X202862095Y-96919888D01*
X202885348Y-96985775D01*
X202869289Y-97053774D01*
X202849208Y-97080109D01*
X202441135Y-97488181D01*
X202379812Y-97521666D01*
X202353454Y-97524500D01*
X201904518Y-97524500D01*
X201904509Y-97524501D01*
X201847885Y-97530587D01*
X201719773Y-97578372D01*
X201610313Y-97660313D01*
X201528373Y-97769771D01*
X201480587Y-97897889D01*
X201474500Y-97954498D01*
X201474500Y-98495481D01*
X201474501Y-98495490D01*
X201480587Y-98552114D01*
X201521500Y-98661802D01*
X201528372Y-98680226D01*
X201610313Y-98789687D01*
X201719774Y-98871628D01*
X201752458Y-98883818D01*
X201808390Y-98925687D01*
X201832808Y-98991151D01*
X201817957Y-99059424D01*
X201768552Y-99108830D01*
X201752461Y-99116179D01*
X201719774Y-99128371D01*
X201610313Y-99210313D01*
X201528373Y-99319771D01*
X201480587Y-99447889D01*
X201474500Y-99504498D01*
X201474500Y-99953455D01*
X201454815Y-100020494D01*
X201438181Y-100041136D01*
X200731137Y-100748181D01*
X200669814Y-100781666D01*
X200643456Y-100784500D01*
X200441355Y-100784500D01*
X200385475Y-100790509D01*
X200259052Y-100837662D01*
X200259049Y-100837664D01*
X200151028Y-100918528D01*
X200070164Y-101026549D01*
X200070162Y-101026552D01*
X200023009Y-101152975D01*
X200017000Y-101208855D01*
X200017000Y-101811144D01*
X200023009Y-101867024D01*
X200070162Y-101993447D01*
X200070164Y-101993450D01*
X200151028Y-102101472D01*
X200236469Y-102165432D01*
X200259049Y-102182335D01*
X200259052Y-102182337D01*
X200377646Y-102226570D01*
X200385478Y-102229491D01*
X200414818Y-102232645D01*
X200441355Y-102235499D01*
X200441370Y-102235500D01*
X200968630Y-102235500D01*
X200968644Y-102235499D01*
X200990523Y-102233146D01*
X201024522Y-102229491D01*
X201150950Y-102182336D01*
X201258972Y-102101472D01*
X201258974Y-102101468D01*
X201262935Y-102098504D01*
X201328399Y-102074087D01*
X201396672Y-102088938D01*
X201442784Y-102132674D01*
X201493610Y-102215075D01*
X201493613Y-102215079D01*
X201612419Y-102333885D01*
X201755422Y-102422091D01*
X201755427Y-102422093D01*
X201914916Y-102474942D01*
X202013356Y-102484999D01*
X202030000Y-102484998D01*
X202030000Y-101760000D01*
X202530000Y-101760000D01*
X202530000Y-102484999D01*
X202546636Y-102484999D01*
X202546652Y-102484998D01*
X202645083Y-102474943D01*
X202804572Y-102422093D01*
X202804577Y-102422091D01*
X202947580Y-102333885D01*
X203066385Y-102215080D01*
X203154591Y-102072077D01*
X203154593Y-102072072D01*
X203207442Y-101912583D01*
X203217499Y-101814150D01*
X203217500Y-101814137D01*
X203217500Y-101760000D01*
X202530000Y-101760000D01*
X202030000Y-101760000D01*
X202030000Y-101384000D01*
X202049685Y-101316961D01*
X202102489Y-101271206D01*
X202154000Y-101260000D01*
X203217499Y-101260000D01*
X203217499Y-101205864D01*
X203217498Y-101205847D01*
X203207443Y-101107416D01*
X203154593Y-100947927D01*
X203154591Y-100947922D01*
X203066385Y-100804919D01*
X202947580Y-100686114D01*
X202804577Y-100597908D01*
X202804572Y-100597906D01*
X202780534Y-100589941D01*
X202723089Y-100550168D01*
X202696266Y-100485652D01*
X202708581Y-100416877D01*
X202745224Y-100372970D01*
X202789687Y-100339687D01*
X202871628Y-100230226D01*
X202880602Y-100206163D01*
X202922473Y-100150233D01*
X202987937Y-100125816D01*
X202996783Y-100125500D01*
X203689342Y-100125500D01*
X203689344Y-100125500D01*
X203778488Y-100101614D01*
X203799255Y-100089624D01*
X203858412Y-100055470D01*
X204011421Y-99902460D01*
X204072742Y-99868977D01*
X204142433Y-99873961D01*
X204186781Y-99902462D01*
X204538692Y-100254374D01*
X204572177Y-100315697D01*
X204567193Y-100385389D01*
X204525321Y-100441322D01*
X204498470Y-100456613D01*
X204492380Y-100459135D01*
X204492379Y-100459136D01*
X204377379Y-100547379D01*
X204289137Y-100662377D01*
X204233671Y-100796287D01*
X204233670Y-100796291D01*
X204214750Y-100939999D01*
X204214750Y-100940000D01*
X204233670Y-101083708D01*
X204233671Y-101083712D01*
X204289137Y-101217622D01*
X204289138Y-101217624D01*
X204289139Y-101217625D01*
X204377379Y-101332621D01*
X204492375Y-101420861D01*
X204626291Y-101476330D01*
X204770000Y-101495250D01*
X204778129Y-101495250D01*
X204778129Y-101498828D01*
X204830970Y-101507031D01*
X204865878Y-101531560D01*
X205353181Y-102018863D01*
X205386666Y-102080186D01*
X205389500Y-102106544D01*
X205389500Y-102370645D01*
X205369815Y-102437684D01*
X205317011Y-102483439D01*
X205310294Y-102486271D01*
X205247374Y-102510646D01*
X205247359Y-102510653D01*
X205073960Y-102618017D01*
X205073958Y-102618019D01*
X204923237Y-102755418D01*
X204800327Y-102918178D01*
X204709422Y-103100739D01*
X204709417Y-103100752D01*
X204653602Y-103296917D01*
X204634785Y-103499999D01*
X204634785Y-103500000D01*
X204653602Y-103703082D01*
X204709417Y-103899247D01*
X204709422Y-103899260D01*
X204800327Y-104081821D01*
X204923237Y-104244581D01*
X205073958Y-104381980D01*
X205073960Y-104381982D01*
X205173141Y-104443392D01*
X205247363Y-104489348D01*
X205437544Y-104563024D01*
X205638024Y-104600500D01*
X205638026Y-104600500D01*
X205841974Y-104600500D01*
X205841976Y-104600500D01*
X206042456Y-104563024D01*
X206232637Y-104489348D01*
X206406041Y-104381981D01*
X206556764Y-104244579D01*
X206679673Y-104081821D01*
X206770582Y-103899250D01*
X206826397Y-103703083D01*
X206845215Y-103500000D01*
X206839115Y-103434174D01*
X206826397Y-103296917D01*
X206813048Y-103250000D01*
X206770582Y-103100750D01*
X206770159Y-103099901D01*
X206680672Y-102920186D01*
X206679673Y-102918179D01*
X206556764Y-102755421D01*
X206556762Y-102755418D01*
X206406041Y-102618019D01*
X206406039Y-102618017D01*
X206232640Y-102510653D01*
X206232625Y-102510646D01*
X206169706Y-102486271D01*
X206114304Y-102443698D01*
X206090714Y-102377931D01*
X206090500Y-102370645D01*
X206090500Y-102105543D01*
X206110185Y-102038504D01*
X206162989Y-101992749D01*
X206232147Y-101982805D01*
X206295703Y-102011830D01*
X206302169Y-102017851D01*
X206683819Y-102399500D01*
X207231423Y-102947104D01*
X207264908Y-103008427D01*
X207259924Y-103078119D01*
X207254743Y-103090054D01*
X207249420Y-103100743D01*
X207249419Y-103100746D01*
X207193602Y-103296917D01*
X207174785Y-103499999D01*
X207174785Y-103500000D01*
X207193602Y-103703082D01*
X207249417Y-103899247D01*
X207249422Y-103899260D01*
X207340327Y-104081821D01*
X207463237Y-104244581D01*
X207613958Y-104381980D01*
X207613960Y-104381982D01*
X207713141Y-104443392D01*
X207787363Y-104489348D01*
X207977544Y-104563024D01*
X208178024Y-104600500D01*
X208178026Y-104600500D01*
X208381974Y-104600500D01*
X208381976Y-104600500D01*
X208582456Y-104563024D01*
X208772637Y-104489348D01*
X208946041Y-104381981D01*
X209096764Y-104244579D01*
X209219673Y-104081821D01*
X209310582Y-103899250D01*
X209366397Y-103703083D01*
X209385215Y-103500000D01*
X209379115Y-103434174D01*
X209366397Y-103296917D01*
X209353048Y-103250000D01*
X209310582Y-103100750D01*
X209310159Y-103099901D01*
X209220672Y-102920186D01*
X209219673Y-102918179D01*
X209096764Y-102755421D01*
X209096762Y-102755418D01*
X208946041Y-102618019D01*
X208946039Y-102618017D01*
X208772642Y-102510655D01*
X208772639Y-102510653D01*
X208772637Y-102510652D01*
X208772636Y-102510651D01*
X208772635Y-102510651D01*
X208646769Y-102461891D01*
X208582456Y-102436976D01*
X208381976Y-102399500D01*
X208178024Y-102399500D01*
X208026739Y-102427779D01*
X207977538Y-102436977D01*
X207861961Y-102481752D01*
X207792338Y-102487614D01*
X207730598Y-102454904D01*
X207729487Y-102453806D01*
X205015363Y-99739681D01*
X204981878Y-99678358D01*
X204986862Y-99608666D01*
X205028734Y-99552733D01*
X205094198Y-99528316D01*
X205103044Y-99528000D01*
X205170376Y-99528000D01*
X205170377Y-99527999D01*
X205243440Y-99513466D01*
X205326301Y-99458101D01*
X205381666Y-99375240D01*
X205396200Y-99302174D01*
X205396200Y-98842826D01*
X205385347Y-98788267D01*
X205391573Y-98718681D01*
X205419281Y-98676399D01*
X205604123Y-98491557D01*
X205665444Y-98458074D01*
X205691871Y-98457144D01*
X205691871Y-98455250D01*
X205700000Y-98455250D01*
X205843709Y-98436330D01*
X205977625Y-98380861D01*
X206092621Y-98292621D01*
X206180861Y-98177625D01*
X206236330Y-98043709D01*
X206255250Y-97900000D01*
X206236330Y-97756291D01*
X206180861Y-97622375D01*
X206092621Y-97507379D01*
X206092619Y-97507378D01*
X206092619Y-97507377D01*
X206083691Y-97500527D01*
X206042489Y-97444099D01*
X206039407Y-97434257D01*
X206026614Y-97386512D01*
X206008565Y-97355250D01*
X205980470Y-97306588D01*
X205662901Y-96989019D01*
X205629416Y-96927696D01*
X205634400Y-96858004D01*
X205634402Y-96858001D01*
X205639297Y-96844876D01*
X205639298Y-96844872D01*
X205645699Y-96785344D01*
X205645700Y-96785327D01*
X205645700Y-96737500D01*
X205294581Y-96737500D01*
X205247130Y-96728062D01*
X205243438Y-96726532D01*
X205170377Y-96712000D01*
X205170374Y-96712000D01*
X204264700Y-96712000D01*
X204197661Y-96692315D01*
X204151906Y-96639511D01*
X204140700Y-96588000D01*
X204140700Y-96477000D01*
X204160385Y-96409961D01*
X204213189Y-96364206D01*
X204264700Y-96353000D01*
X205170376Y-96353000D01*
X205170377Y-96352999D01*
X205188888Y-96349317D01*
X205243438Y-96338467D01*
X205247130Y-96336938D01*
X205294581Y-96327500D01*
X205645700Y-96327500D01*
X205645700Y-96279672D01*
X205645699Y-96279655D01*
X205639298Y-96220127D01*
X205639296Y-96220120D01*
X205589054Y-96085413D01*
X205589052Y-96085410D01*
X205504012Y-95971812D01*
X205479594Y-95906347D01*
X205494445Y-95838074D01*
X205504012Y-95823188D01*
X205589052Y-95709589D01*
X205589054Y-95709586D01*
X205639296Y-95574879D01*
X205639298Y-95574872D01*
X205645699Y-95515344D01*
X205645700Y-95515327D01*
X205645700Y-95467500D01*
X205294581Y-95467500D01*
X205247130Y-95458062D01*
X205243438Y-95456532D01*
X205170377Y-95442000D01*
X205170374Y-95442000D01*
X204264700Y-95442000D01*
X204197661Y-95422315D01*
X204151906Y-95369511D01*
X204140700Y-95318000D01*
X204140700Y-95207000D01*
X204160385Y-95139961D01*
X204213189Y-95094206D01*
X204264700Y-95083000D01*
X205170376Y-95083000D01*
X205170377Y-95082999D01*
X205188888Y-95079317D01*
X205243438Y-95068467D01*
X205247130Y-95066938D01*
X205294581Y-95057500D01*
X205645700Y-95057500D01*
X205645700Y-95009672D01*
X205645699Y-95009655D01*
X205639298Y-94950127D01*
X205639296Y-94950120D01*
X205589054Y-94815413D01*
X205589050Y-94815406D01*
X205502891Y-94700314D01*
X205502885Y-94700307D01*
X205445888Y-94657639D01*
X205404018Y-94601705D01*
X205396200Y-94558373D01*
X205396200Y-94397823D01*
X205396199Y-94397821D01*
X205381667Y-94324764D01*
X205381666Y-94324762D01*
X205381666Y-94324760D01*
X205343055Y-94266974D01*
X205322178Y-94200298D01*
X205340663Y-94132918D01*
X205358471Y-94110409D01*
X205432064Y-94036817D01*
X205493387Y-94003334D01*
X205519744Y-94000500D01*
X208626206Y-94000500D01*
X208693245Y-94020185D01*
X208739000Y-94072989D01*
X208748944Y-94142147D01*
X208719919Y-94205703D01*
X208695099Y-94227599D01*
X208673699Y-94241899D01*
X208618333Y-94324760D01*
X208618332Y-94324764D01*
X208603800Y-94397821D01*
X208603800Y-94788000D01*
X208584115Y-94855039D01*
X208531311Y-94900794D01*
X208479800Y-94912000D01*
X208241550Y-94912000D01*
X208174511Y-94892315D01*
X208128756Y-94839511D01*
X208126989Y-94835453D01*
X208107333Y-94788000D01*
X208100861Y-94772375D01*
X208012621Y-94657379D01*
X207897625Y-94569139D01*
X207897624Y-94569138D01*
X207897622Y-94569137D01*
X207763712Y-94513671D01*
X207763710Y-94513670D01*
X207763709Y-94513670D01*
X207691854Y-94504210D01*
X207620001Y-94494750D01*
X207619999Y-94494750D01*
X207476291Y-94513670D01*
X207476287Y-94513671D01*
X207342377Y-94569137D01*
X207227379Y-94657379D01*
X207139137Y-94772377D01*
X207083671Y-94906287D01*
X207083670Y-94906291D01*
X207069448Y-95014319D01*
X207064750Y-95050000D01*
X207083140Y-95189687D01*
X207083670Y-95193708D01*
X207083671Y-95193712D01*
X207139138Y-95327623D01*
X207139139Y-95327625D01*
X207158494Y-95352849D01*
X207183688Y-95418018D01*
X207169650Y-95486463D01*
X207120836Y-95536452D01*
X207092212Y-95548110D01*
X207042734Y-95561368D01*
X207042733Y-95561367D01*
X207007216Y-95570884D01*
X207007209Y-95570887D01*
X206927292Y-95617027D01*
X206927282Y-95617034D01*
X206925871Y-95618446D01*
X206924388Y-95619255D01*
X206920843Y-95621976D01*
X206920418Y-95621422D01*
X206864546Y-95651927D01*
X206838128Y-95653017D01*
X206838128Y-95654750D01*
X206830000Y-95654750D01*
X206686291Y-95673670D01*
X206686287Y-95673671D01*
X206552377Y-95729137D01*
X206437379Y-95817379D01*
X206349137Y-95932377D01*
X206293671Y-96066287D01*
X206293670Y-96066291D01*
X206274750Y-96210000D01*
X206290219Y-96327500D01*
X206293670Y-96353708D01*
X206293671Y-96353712D01*
X206349137Y-96487622D01*
X206349138Y-96487624D01*
X206349139Y-96487625D01*
X206437379Y-96602621D01*
X206552375Y-96690861D01*
X206686291Y-96746330D01*
X206806636Y-96762174D01*
X206829999Y-96765250D01*
X206830000Y-96765250D01*
X206830001Y-96765250D01*
X206853364Y-96762174D01*
X206973709Y-96746330D01*
X207107625Y-96690861D01*
X207222621Y-96602621D01*
X207310861Y-96487625D01*
X207366330Y-96353709D01*
X207366331Y-96353700D01*
X207368433Y-96345859D01*
X207370241Y-96346343D01*
X207394325Y-96291912D01*
X207452652Y-96253445D01*
X207488992Y-96248000D01*
X208479800Y-96248000D01*
X208546839Y-96267685D01*
X208592594Y-96320489D01*
X208603800Y-96372000D01*
X208603800Y-96723018D01*
X208584115Y-96790057D01*
X208531311Y-96835812D01*
X208526432Y-96837568D01*
X208526519Y-96837777D01*
X208519009Y-96840887D01*
X208439091Y-96887027D01*
X208439086Y-96887031D01*
X207219531Y-98106586D01*
X207219527Y-98106591D01*
X207178517Y-98177624D01*
X207178517Y-98177625D01*
X207173386Y-98186510D01*
X207149500Y-98275656D01*
X207149500Y-99221144D01*
X207164064Y-99275499D01*
X207164065Y-99275502D01*
X207173384Y-99310284D01*
X207173385Y-99310286D01*
X207219527Y-99390208D01*
X207219531Y-99390213D01*
X208088181Y-100258863D01*
X208121666Y-100320186D01*
X208124500Y-100346544D01*
X208124500Y-100795481D01*
X208124501Y-100795490D01*
X208130587Y-100852114D01*
X208163368Y-100939999D01*
X208178372Y-100980226D01*
X208260313Y-101089687D01*
X208369774Y-101171628D01*
X208497886Y-101219412D01*
X208554515Y-101225500D01*
X209095484Y-101225499D01*
X209152114Y-101219412D01*
X209280226Y-101171628D01*
X209361804Y-101110559D01*
X209427264Y-101086143D01*
X209495538Y-101100994D01*
X209541650Y-101144730D01*
X209577424Y-101202728D01*
X209577427Y-101202732D01*
X209697267Y-101322572D01*
X209697271Y-101322575D01*
X209841507Y-101411542D01*
X209841518Y-101411547D01*
X210002393Y-101464855D01*
X210101683Y-101474999D01*
X210125000Y-101474998D01*
X210125000Y-100374000D01*
X210144685Y-100306961D01*
X210197489Y-100261206D01*
X210249000Y-100250000D01*
X211324997Y-100250000D01*
X211352628Y-100222369D01*
X211413951Y-100188884D01*
X211483643Y-100193868D01*
X211527991Y-100222369D01*
X213255154Y-101949532D01*
X213288639Y-102010855D01*
X213283655Y-102080547D01*
X213241783Y-102136480D01*
X213178282Y-102160741D01*
X213124682Y-102165430D01*
X213124673Y-102165432D01*
X212896516Y-102226566D01*
X212896507Y-102226570D01*
X212682422Y-102326399D01*
X212682420Y-102326400D01*
X212488926Y-102461886D01*
X212488920Y-102461891D01*
X212321891Y-102628920D01*
X212321886Y-102628926D01*
X212186400Y-102822420D01*
X212186399Y-102822422D01*
X212086570Y-103036507D01*
X212086568Y-103036511D01*
X212077592Y-103070011D01*
X212041226Y-103129671D01*
X211978379Y-103160199D01*
X211909003Y-103151904D01*
X211855126Y-103107418D01*
X211846817Y-103093188D01*
X211800415Y-103000000D01*
X211759673Y-102918179D01*
X211636764Y-102755421D01*
X211636762Y-102755418D01*
X211486041Y-102618019D01*
X211486039Y-102618017D01*
X211312640Y-102510653D01*
X211312625Y-102510646D01*
X211249706Y-102486271D01*
X211194304Y-102443698D01*
X211170714Y-102377931D01*
X211170500Y-102370645D01*
X211170500Y-101792389D01*
X211190185Y-101725350D01*
X211242989Y-101679595D01*
X211278311Y-101669450D01*
X211367514Y-101657707D01*
X211501430Y-101602238D01*
X211616426Y-101513998D01*
X211704666Y-101399002D01*
X211760135Y-101265086D01*
X211779055Y-101121377D01*
X211760135Y-100977668D01*
X211704666Y-100843752D01*
X211616426Y-100728756D01*
X211501430Y-100640516D01*
X211501429Y-100640515D01*
X211501427Y-100640514D01*
X211367517Y-100585048D01*
X211367515Y-100585047D01*
X211367514Y-100585047D01*
X211295659Y-100575587D01*
X211223806Y-100566127D01*
X211223804Y-100566127D01*
X211080096Y-100585047D01*
X211080092Y-100585048D01*
X210946181Y-100640515D01*
X210946179Y-100640516D01*
X210836891Y-100724376D01*
X210771722Y-100749570D01*
X210761405Y-100750000D01*
X210625000Y-100750000D01*
X210625000Y-101173136D01*
X210605315Y-101240175D01*
X210588682Y-101260816D01*
X210539530Y-101309968D01*
X210493387Y-101389891D01*
X210493386Y-101389894D01*
X210469500Y-101479038D01*
X210469500Y-102370645D01*
X210449815Y-102437684D01*
X210397011Y-102483439D01*
X210390294Y-102486271D01*
X210327374Y-102510646D01*
X210327359Y-102510653D01*
X210153960Y-102618017D01*
X210153958Y-102618019D01*
X210003237Y-102755418D01*
X209880327Y-102918178D01*
X209789422Y-103100739D01*
X209789417Y-103100752D01*
X209733602Y-103296917D01*
X209714785Y-103499999D01*
X209714785Y-103500000D01*
X209733602Y-103703082D01*
X209789417Y-103899247D01*
X209789422Y-103899260D01*
X209880327Y-104081821D01*
X210003237Y-104244581D01*
X210153958Y-104381980D01*
X210153960Y-104381982D01*
X210253141Y-104443392D01*
X210327363Y-104489348D01*
X210517544Y-104563024D01*
X210718024Y-104600500D01*
X210718026Y-104600500D01*
X210921974Y-104600500D01*
X210921976Y-104600500D01*
X211122456Y-104563024D01*
X211312637Y-104489348D01*
X211486041Y-104381981D01*
X211636764Y-104244579D01*
X211759673Y-104081821D01*
X211821598Y-103957456D01*
X211846817Y-103906812D01*
X211894319Y-103855575D01*
X211961982Y-103838153D01*
X212028323Y-103860078D01*
X212072278Y-103914389D01*
X212077592Y-103929989D01*
X212086567Y-103963485D01*
X212086570Y-103963492D01*
X212186399Y-104177578D01*
X212321894Y-104371082D01*
X212488917Y-104538105D01*
X212682421Y-104673600D01*
X212896507Y-104773429D01*
X212896516Y-104773433D01*
X213110000Y-104830634D01*
X213110000Y-103933012D01*
X213167007Y-103965925D01*
X213294174Y-104000000D01*
X213425826Y-104000000D01*
X213552993Y-103965925D01*
X213610000Y-103933012D01*
X213610000Y-104830633D01*
X213823483Y-104773433D01*
X213823492Y-104773429D01*
X214037578Y-104673600D01*
X214231082Y-104538105D01*
X214398105Y-104371082D01*
X214533600Y-104177578D01*
X214633429Y-103963492D01*
X214633431Y-103963489D01*
X214642406Y-103929992D01*
X214678770Y-103870331D01*
X214741616Y-103839800D01*
X214810992Y-103848094D01*
X214864871Y-103892578D01*
X214873182Y-103906811D01*
X214960327Y-104081821D01*
X215083237Y-104244581D01*
X215233958Y-104381980D01*
X215233960Y-104381982D01*
X215333141Y-104443392D01*
X215407363Y-104489348D01*
X215597544Y-104563024D01*
X215798024Y-104600500D01*
X215798026Y-104600500D01*
X216001974Y-104600500D01*
X216001976Y-104600500D01*
X216202456Y-104563024D01*
X216392637Y-104489348D01*
X216566041Y-104381981D01*
X216716764Y-104244579D01*
X216839673Y-104081821D01*
X216897382Y-103965925D01*
X216920635Y-103919228D01*
X216968138Y-103867991D01*
X217031635Y-103850500D01*
X217308365Y-103850500D01*
X217375404Y-103870185D01*
X217419365Y-103919228D01*
X217500327Y-104081821D01*
X217623237Y-104244581D01*
X217773958Y-104381980D01*
X217773960Y-104381982D01*
X217873141Y-104443392D01*
X217947363Y-104489348D01*
X218137544Y-104563024D01*
X218338024Y-104600500D01*
X218338026Y-104600500D01*
X218541974Y-104600500D01*
X218541976Y-104600500D01*
X218742456Y-104563024D01*
X218932637Y-104489348D01*
X219106041Y-104381981D01*
X219256764Y-104244579D01*
X219379673Y-104081821D01*
X219470582Y-103899250D01*
X219526397Y-103703083D01*
X219545215Y-103500000D01*
X219539115Y-103434174D01*
X219526397Y-103296917D01*
X219513048Y-103250000D01*
X219470582Y-103100750D01*
X219470159Y-103099901D01*
X219380672Y-102920186D01*
X219379673Y-102918179D01*
X219365360Y-102899226D01*
X219340669Y-102833866D01*
X219355234Y-102765531D01*
X219404431Y-102715919D01*
X219464315Y-102700500D01*
X219633456Y-102700500D01*
X219700495Y-102720185D01*
X219721137Y-102736819D01*
X219843181Y-102858863D01*
X219876666Y-102920186D01*
X219879500Y-102946544D01*
X219879500Y-104374678D01*
X219894032Y-104447735D01*
X219894033Y-104447739D01*
X219894034Y-104447740D01*
X219949399Y-104530601D01*
X220032260Y-104585966D01*
X220032264Y-104585967D01*
X220105321Y-104600499D01*
X220105324Y-104600500D01*
X220105326Y-104600500D01*
X221854676Y-104600500D01*
X221854677Y-104600499D01*
X221927740Y-104585966D01*
X222010601Y-104530601D01*
X222065966Y-104447740D01*
X222080500Y-104374674D01*
X222080500Y-102625326D01*
X222080500Y-102625323D01*
X222080499Y-102625321D01*
X222065967Y-102552264D01*
X222065966Y-102552260D01*
X222038427Y-102511045D01*
X222010601Y-102469399D01*
X221955235Y-102432405D01*
X221927739Y-102414033D01*
X221927735Y-102414032D01*
X221854677Y-102399500D01*
X221854674Y-102399500D01*
X220426544Y-102399500D01*
X220359505Y-102379815D01*
X220338863Y-102363181D01*
X220045213Y-102069531D01*
X220045208Y-102069527D01*
X219965290Y-102023387D01*
X219965289Y-102023386D01*
X219965288Y-102023386D01*
X219876144Y-101999500D01*
X219876143Y-101999500D01*
X217121543Y-101999500D01*
X217054504Y-101979815D01*
X217033862Y-101963181D01*
X214307862Y-99237180D01*
X214274377Y-99175857D01*
X214279361Y-99106165D01*
X214321233Y-99050232D01*
X214386697Y-99025815D01*
X214395527Y-99025499D01*
X214695484Y-99025499D01*
X214752114Y-99019412D01*
X214880226Y-98971628D01*
X214961804Y-98910559D01*
X215027264Y-98886143D01*
X215095538Y-98900994D01*
X215141650Y-98944730D01*
X215177424Y-99002728D01*
X215177427Y-99002732D01*
X215297267Y-99122572D01*
X215297271Y-99122575D01*
X215441507Y-99211542D01*
X215441518Y-99211547D01*
X215602393Y-99264855D01*
X215701683Y-99274999D01*
X215725000Y-99274998D01*
X215725000Y-98174000D01*
X215744685Y-98106961D01*
X215797489Y-98061206D01*
X215849000Y-98050000D01*
X216101000Y-98050000D01*
X216168039Y-98069685D01*
X216213794Y-98122489D01*
X216225000Y-98174000D01*
X216225000Y-99274999D01*
X216225388Y-99275387D01*
X216258873Y-99336710D01*
X216260646Y-99379253D01*
X216248028Y-99475100D01*
X216244750Y-99500000D01*
X216259056Y-99608666D01*
X216263670Y-99643708D01*
X216263671Y-99643712D01*
X216319137Y-99777622D01*
X216319138Y-99777624D01*
X216319139Y-99777625D01*
X216407379Y-99892621D01*
X216522375Y-99980861D01*
X216656291Y-100036330D01*
X216783280Y-100053048D01*
X216799999Y-100055250D01*
X216800000Y-100055250D01*
X216800001Y-100055250D01*
X216814977Y-100053278D01*
X216943709Y-100036330D01*
X217077625Y-99980861D01*
X217192621Y-99892621D01*
X217280861Y-99777625D01*
X217336330Y-99643709D01*
X217355250Y-99500000D01*
X217344149Y-99415683D01*
X217354914Y-99346650D01*
X217401294Y-99294394D01*
X217467084Y-99275499D01*
X218047872Y-99275499D01*
X218107483Y-99269091D01*
X218242331Y-99218796D01*
X218357546Y-99132546D01*
X218443796Y-99017331D01*
X218451180Y-98997532D01*
X218493050Y-98941598D01*
X218558514Y-98917179D01*
X218626787Y-98932029D01*
X218676194Y-98981433D01*
X218685069Y-99001859D01*
X218715641Y-99094119D01*
X218715643Y-99094124D01*
X218807684Y-99243345D01*
X218931654Y-99367315D01*
X219080875Y-99459356D01*
X219080880Y-99459358D01*
X219247302Y-99514505D01*
X219247309Y-99514506D01*
X219350019Y-99524999D01*
X219399999Y-99524998D01*
X219400000Y-99524998D01*
X219400000Y-98550000D01*
X219900000Y-98550000D01*
X219900000Y-99524999D01*
X219949972Y-99524999D01*
X219949986Y-99524998D01*
X220052697Y-99514505D01*
X220219119Y-99459358D01*
X220219124Y-99459356D01*
X220368345Y-99367315D01*
X220492315Y-99243345D01*
X220584356Y-99094124D01*
X220584358Y-99094119D01*
X220639505Y-98927697D01*
X220639506Y-98927690D01*
X220649999Y-98824986D01*
X220650000Y-98824973D01*
X220650000Y-98550000D01*
X219900000Y-98550000D01*
X219400000Y-98550000D01*
X219400000Y-97075000D01*
X219900000Y-97075000D01*
X219900000Y-98050000D01*
X220649999Y-98050000D01*
X220649999Y-97775028D01*
X220649998Y-97775013D01*
X220639505Y-97672302D01*
X220584358Y-97505880D01*
X220584356Y-97505875D01*
X220492315Y-97356654D01*
X220368345Y-97232684D01*
X220219124Y-97140643D01*
X220219119Y-97140641D01*
X220052697Y-97085494D01*
X220052690Y-97085493D01*
X219949986Y-97075000D01*
X219900000Y-97075000D01*
X219400000Y-97075000D01*
X219399999Y-97074999D01*
X219350029Y-97075000D01*
X219350011Y-97075001D01*
X219247302Y-97085494D01*
X219080880Y-97140641D01*
X219080875Y-97140643D01*
X218931654Y-97232684D01*
X218807684Y-97356654D01*
X218715643Y-97505875D01*
X218715642Y-97505878D01*
X218685069Y-97598141D01*
X218645296Y-97655585D01*
X218580780Y-97682408D01*
X218512004Y-97670093D01*
X218460804Y-97622549D01*
X218451181Y-97602468D01*
X218443798Y-97582673D01*
X218443793Y-97582664D01*
X218357547Y-97467455D01*
X218357544Y-97467452D01*
X218242335Y-97381206D01*
X218242328Y-97381202D01*
X218107486Y-97330910D01*
X218107485Y-97330909D01*
X218107483Y-97330909D01*
X218047873Y-97324500D01*
X218047863Y-97324500D01*
X218044571Y-97324146D01*
X218044740Y-97322566D01*
X217984753Y-97301346D01*
X217941938Y-97246132D01*
X217935771Y-97176535D01*
X217968209Y-97114652D01*
X218018364Y-97083125D01*
X218083479Y-97061548D01*
X218083492Y-97061542D01*
X218227728Y-96972575D01*
X218227732Y-96972572D01*
X218347572Y-96852732D01*
X218347575Y-96852728D01*
X218436542Y-96708492D01*
X218436547Y-96708481D01*
X218489855Y-96547606D01*
X218499999Y-96448322D01*
X218500000Y-96448309D01*
X218500000Y-96425000D01*
X216643000Y-96425000D01*
X216606681Y-96461319D01*
X216604609Y-96459247D01*
X216570511Y-96488794D01*
X216519000Y-96500000D01*
X215274000Y-96500000D01*
X215206961Y-96480315D01*
X215161206Y-96427511D01*
X215150000Y-96376000D01*
X215150000Y-96124000D01*
X215169685Y-96056961D01*
X215222489Y-96011206D01*
X215274000Y-96000000D01*
X216507000Y-96000000D01*
X216543319Y-95963681D01*
X216545390Y-95965752D01*
X216579489Y-95936206D01*
X216631000Y-95925000D01*
X218499999Y-95925000D01*
X218499999Y-95901692D01*
X218499998Y-95901677D01*
X218489855Y-95802392D01*
X218436547Y-95641518D01*
X218436542Y-95641507D01*
X218347575Y-95497271D01*
X218347572Y-95497267D01*
X218227732Y-95377427D01*
X218227728Y-95377424D01*
X218169730Y-95341650D01*
X218123005Y-95289702D01*
X218111784Y-95220739D01*
X218135558Y-95161805D01*
X218196628Y-95080226D01*
X218244412Y-94952114D01*
X218246764Y-94930240D01*
X218250499Y-94895501D01*
X218250499Y-94895494D01*
X218250500Y-94895485D01*
X218250499Y-94354516D01*
X218244735Y-94300887D01*
X218244412Y-94297885D01*
X218210029Y-94205703D01*
X218196628Y-94169774D01*
X218114687Y-94060313D01*
X218034786Y-94000500D01*
X218005228Y-93978373D01*
X218005226Y-93978372D01*
X217877114Y-93930588D01*
X217877112Y-93930587D01*
X217877110Y-93930587D01*
X217820493Y-93924500D01*
X217229518Y-93924500D01*
X217229509Y-93924501D01*
X217172885Y-93930587D01*
X217044773Y-93978372D01*
X216935313Y-94060313D01*
X216853373Y-94169771D01*
X216853372Y-94169774D01*
X216844397Y-94193836D01*
X216802527Y-94249767D01*
X216737063Y-94274184D01*
X216728217Y-94274500D01*
X216474500Y-94274500D01*
X216407461Y-94254815D01*
X216361706Y-94202011D01*
X216350500Y-94150500D01*
X216350500Y-93925323D01*
X216350499Y-93925321D01*
X216335967Y-93852264D01*
X216335966Y-93852260D01*
X216280601Y-93769399D01*
X216197740Y-93714034D01*
X216197739Y-93714033D01*
X216197735Y-93714032D01*
X216124677Y-93699500D01*
X216124674Y-93699500D01*
X215096544Y-93699500D01*
X215029505Y-93679815D01*
X215008863Y-93663181D01*
X214715213Y-93369531D01*
X214715208Y-93369527D01*
X214635290Y-93323387D01*
X214635289Y-93323386D01*
X214635288Y-93323386D01*
X214546144Y-93299500D01*
X205277056Y-93299500D01*
X205187912Y-93323386D01*
X205187909Y-93323387D01*
X205107991Y-93369527D01*
X205107986Y-93369531D01*
X204341837Y-94135681D01*
X204280514Y-94169166D01*
X204254156Y-94172000D01*
X203521023Y-94172000D01*
X203447964Y-94186532D01*
X203447960Y-94186533D01*
X203365099Y-94241899D01*
X203309733Y-94324760D01*
X203309732Y-94324764D01*
X203295200Y-94397821D01*
X203295200Y-94558373D01*
X203275515Y-94625412D01*
X203245512Y-94657639D01*
X203188514Y-94700307D01*
X203188508Y-94700314D01*
X203102349Y-94815406D01*
X203102345Y-94815413D01*
X203052103Y-94950120D01*
X203052101Y-94950127D01*
X203046419Y-95002973D01*
X203019680Y-95067524D01*
X202962287Y-95107371D01*
X202898939Y-95111333D01*
X202738903Y-95079500D01*
X202738899Y-95079500D01*
X201936776Y-95079500D01*
X201869737Y-95059815D01*
X201823982Y-95007011D01*
X201814038Y-94937853D01*
X201819070Y-94916496D01*
X201869242Y-94765083D01*
X201879299Y-94666650D01*
X201879300Y-94666637D01*
X201879300Y-94650000D01*
X199929301Y-94650000D01*
X199929301Y-94666652D01*
X199939356Y-94765083D01*
X199989530Y-94916496D01*
X199991932Y-94986324D01*
X199956200Y-95046366D01*
X199893680Y-95077559D01*
X199871824Y-95079500D01*
X198968236Y-95079500D01*
X198944044Y-95077117D01*
X198767501Y-95042000D01*
X198767499Y-95042000D01*
X198591101Y-95042000D01*
X198591099Y-95042000D01*
X198418097Y-95076412D01*
X198418087Y-95076415D01*
X198255128Y-95143914D01*
X198255115Y-95143921D01*
X198108452Y-95241919D01*
X198108448Y-95241922D01*
X197991981Y-95358390D01*
X197930658Y-95391875D01*
X197860966Y-95386891D01*
X197816619Y-95358390D01*
X197700151Y-95241922D01*
X197700147Y-95241919D01*
X197553484Y-95143921D01*
X197553471Y-95143914D01*
X197390512Y-95076415D01*
X197390502Y-95076412D01*
X197217501Y-95042000D01*
X197217499Y-95042000D01*
X195116101Y-95042000D01*
X195116099Y-95042000D01*
X194943097Y-95076412D01*
X194943087Y-95076415D01*
X194780128Y-95143914D01*
X194780115Y-95143921D01*
X194633452Y-95241919D01*
X194633448Y-95241922D01*
X194516981Y-95358390D01*
X194455658Y-95391875D01*
X194385966Y-95386891D01*
X194341619Y-95358390D01*
X194200151Y-95216922D01*
X194200147Y-95216919D01*
X194053484Y-95118921D01*
X194053471Y-95118914D01*
X193890512Y-95051415D01*
X193890502Y-95051412D01*
X193717501Y-95017000D01*
X193717499Y-95017000D01*
X191838199Y-95017000D01*
X191048140Y-95017000D01*
X191048120Y-95016999D01*
X190959898Y-95016999D01*
X190947745Y-95016402D01*
X190848028Y-95006582D01*
X190824188Y-95001840D01*
X190734162Y-94974533D01*
X190711703Y-94965231D01*
X190683445Y-94950127D01*
X190628729Y-94920881D01*
X190608523Y-94907380D01*
X190547346Y-94857174D01*
X190531174Y-94843902D01*
X190522158Y-94835730D01*
X190098882Y-94412454D01*
X190090715Y-94403444D01*
X190027128Y-94325963D01*
X190013628Y-94305757D01*
X190011024Y-94300886D01*
X189969281Y-94222788D01*
X189959980Y-94200330D01*
X189950711Y-94169774D01*
X189944713Y-94150000D01*
X199929300Y-94150000D01*
X200654300Y-94150000D01*
X200654300Y-93462500D01*
X201154300Y-93462500D01*
X201154300Y-94150000D01*
X201879299Y-94150000D01*
X201879299Y-94133364D01*
X201879298Y-94133347D01*
X201869243Y-94034916D01*
X201816393Y-93875427D01*
X201816391Y-93875422D01*
X201728185Y-93732419D01*
X201609380Y-93613614D01*
X201466377Y-93525408D01*
X201466372Y-93525406D01*
X201306883Y-93472557D01*
X201208450Y-93462500D01*
X201154300Y-93462500D01*
X200654300Y-93462500D01*
X200654299Y-93462499D01*
X200600164Y-93462500D01*
X200600147Y-93462501D01*
X200501715Y-93472557D01*
X200342227Y-93525406D01*
X200342222Y-93525408D01*
X200199219Y-93613614D01*
X200080414Y-93732419D01*
X199992208Y-93875422D01*
X199992206Y-93875427D01*
X199939357Y-94034916D01*
X199929300Y-94133349D01*
X199929300Y-94150000D01*
X189944713Y-94150000D01*
X189932673Y-94110308D01*
X189927932Y-94086469D01*
X189926604Y-94072989D01*
X189918096Y-93986601D01*
X189917500Y-93974448D01*
X189917501Y-93892493D01*
X189917500Y-93892487D01*
X189917500Y-91361801D01*
X189917500Y-91361798D01*
X189883087Y-91188797D01*
X189883084Y-91188786D01*
X189877010Y-91174123D01*
X189869379Y-91105566D01*
X189894217Y-90961770D01*
X189925025Y-90899062D01*
X189984846Y-90862963D01*
X190054688Y-90864936D01*
X190110112Y-90901668D01*
X190508894Y-91361801D01*
X190672000Y-91550000D01*
X222472000Y-91550000D01*
X222487819Y-91534181D01*
X222549142Y-91500696D01*
X222618834Y-91505680D01*
X222674767Y-91547552D01*
X222699184Y-91613016D01*
X222699500Y-91621862D01*
X222699500Y-96093620D01*
X222736025Y-96277243D01*
X222736027Y-96277251D01*
X222807676Y-96450228D01*
X222807681Y-96450237D01*
X222911697Y-96605907D01*
X222911700Y-96605911D01*
X223044085Y-96738296D01*
X223044088Y-96738298D01*
X223044092Y-96738302D01*
X223044886Y-96738832D01*
X223045208Y-96739218D01*
X223048796Y-96742162D01*
X223048237Y-96742842D01*
X223089693Y-96792440D01*
X223100000Y-96841937D01*
X223100000Y-97000000D01*
X222000000Y-97000000D01*
X222000000Y-99000000D01*
X223100000Y-99000000D01*
X223100000Y-99408061D01*
X223080315Y-99475100D01*
X223048510Y-99507481D01*
X223048800Y-99507834D01*
X223045519Y-99510525D01*
X223044900Y-99511157D01*
X223044096Y-99511694D01*
X223044088Y-99511700D01*
X222911700Y-99644088D01*
X222911697Y-99644092D01*
X222807681Y-99799762D01*
X222807676Y-99799771D01*
X222736027Y-99972748D01*
X222736025Y-99972756D01*
X222699500Y-100156379D01*
X222699500Y-105025500D01*
X222679815Y-105092539D01*
X222627011Y-105138294D01*
X222575500Y-105149500D01*
X191786543Y-105149500D01*
X191719504Y-105129815D01*
X191698862Y-105113181D01*
X187386819Y-100801137D01*
X187353334Y-100739814D01*
X187350500Y-100713456D01*
X187350500Y-97737500D01*
X190775001Y-97737500D01*
X190775001Y-97754152D01*
X190785056Y-97852583D01*
X190837906Y-98012072D01*
X190837908Y-98012077D01*
X190926114Y-98155080D01*
X191044919Y-98273885D01*
X191187922Y-98362091D01*
X191187927Y-98362093D01*
X191347416Y-98414942D01*
X191445855Y-98424999D01*
X191499999Y-98424998D01*
X191500000Y-98424998D01*
X191500000Y-97737500D01*
X192000000Y-97737500D01*
X192000000Y-98424999D01*
X192054136Y-98424999D01*
X192054152Y-98424998D01*
X192152583Y-98414943D01*
X192312072Y-98362093D01*
X192312077Y-98362091D01*
X192455080Y-98273885D01*
X192573885Y-98155080D01*
X192662091Y-98012077D01*
X192662093Y-98012072D01*
X192714942Y-97852583D01*
X192724999Y-97754150D01*
X192725000Y-97754137D01*
X192725000Y-97737500D01*
X192000000Y-97737500D01*
X191500000Y-97737500D01*
X190775001Y-97737500D01*
X187350500Y-97737500D01*
X187350500Y-85334500D01*
X187370185Y-85267461D01*
X187422989Y-85221706D01*
X187474500Y-85210500D01*
X188348000Y-85210500D01*
X188415039Y-85230185D01*
G37*
%TD.AperFunction*%
%TA.AperFunction,Conductor*%
G36*
X213880200Y-99801329D02*
G01*
X213886680Y-99807362D01*
X216305300Y-102225981D01*
X216338785Y-102287304D01*
X216333801Y-102356996D01*
X216291929Y-102412929D01*
X216226465Y-102437346D01*
X216194835Y-102435551D01*
X216063812Y-102411059D01*
X216001976Y-102399500D01*
X215798024Y-102399500D01*
X215597544Y-102436976D01*
X215597541Y-102436976D01*
X215597541Y-102436977D01*
X215407364Y-102510651D01*
X215407357Y-102510655D01*
X215233960Y-102618017D01*
X215233958Y-102618019D01*
X215154605Y-102690358D01*
X215091801Y-102720974D01*
X215022414Y-102712776D01*
X214983387Y-102686401D01*
X213100229Y-100803243D01*
X213066744Y-100741920D01*
X213071728Y-100672228D01*
X213113600Y-100616295D01*
X213148907Y-100597856D01*
X213258479Y-100561548D01*
X213258492Y-100561542D01*
X213402728Y-100472575D01*
X213402732Y-100472572D01*
X213522572Y-100352732D01*
X213522575Y-100352728D01*
X213611542Y-100208492D01*
X213611547Y-100208481D01*
X213664855Y-100047606D01*
X213674999Y-99948322D01*
X213674999Y-99895045D01*
X213694682Y-99828005D01*
X213747486Y-99782250D01*
X213816644Y-99772305D01*
X213880200Y-99801329D01*
G37*
%TD.AperFunction*%
%TD*%
%TA.AperFunction,Conductor*%
%TO.N,GND*%
G36*
X227194632Y-94019685D02*
G01*
X227240387Y-94072489D01*
X227251593Y-94124000D01*
X227251593Y-96100000D01*
X243143553Y-96100000D01*
X243210592Y-96119685D01*
X243256347Y-96172489D01*
X243266291Y-96241647D01*
X243237266Y-96305203D01*
X243195955Y-96336383D01*
X243191514Y-96338453D01*
X243047271Y-96427424D01*
X243047267Y-96427427D01*
X242927427Y-96547267D01*
X242927424Y-96547271D01*
X242838457Y-96691507D01*
X242838452Y-96691518D01*
X242785144Y-96852393D01*
X242775000Y-96951677D01*
X242775000Y-97000000D01*
X243851000Y-97000000D01*
X243918039Y-97019685D01*
X243963794Y-97072489D01*
X243975000Y-97124000D01*
X243975000Y-98224999D01*
X243998308Y-98224999D01*
X243998322Y-98224998D01*
X244097607Y-98214855D01*
X244258481Y-98161547D01*
X244258492Y-98161542D01*
X244402728Y-98072575D01*
X244402732Y-98072572D01*
X244522573Y-97952731D01*
X244558348Y-97894731D01*
X244610296Y-97848006D01*
X244679258Y-97836783D01*
X244738194Y-97860558D01*
X244819774Y-97921628D01*
X244947886Y-97969412D01*
X245004515Y-97975500D01*
X245515956Y-97975499D01*
X245582995Y-97995183D01*
X245603637Y-98011818D01*
X246218571Y-98626753D01*
X246252056Y-98688076D01*
X246247072Y-98757768D01*
X246241377Y-98770725D01*
X246234926Y-98783387D01*
X246232995Y-98782403D01*
X246210954Y-98818363D01*
X245987180Y-99042138D01*
X245925857Y-99075623D01*
X245856166Y-99070639D01*
X245800232Y-99028768D01*
X245775815Y-98963303D01*
X245775499Y-98954457D01*
X245775499Y-98868482D01*
X245760646Y-98774696D01*
X245703050Y-98661658D01*
X245703046Y-98661654D01*
X245703045Y-98661652D01*
X245613347Y-98571954D01*
X245613344Y-98571952D01*
X245613342Y-98571950D01*
X245536517Y-98532805D01*
X245500301Y-98514352D01*
X245406524Y-98499500D01*
X244318482Y-98499500D01*
X244237519Y-98512323D01*
X244224696Y-98514354D01*
X244111658Y-98571950D01*
X244111657Y-98571951D01*
X244111652Y-98571954D01*
X244020426Y-98663181D01*
X243959103Y-98696666D01*
X243932745Y-98699500D01*
X242338434Y-98699500D01*
X242271395Y-98679815D01*
X242269574Y-98678623D01*
X242247740Y-98664034D01*
X242247739Y-98664033D01*
X242247738Y-98664033D01*
X242174676Y-98649500D01*
X242174674Y-98649500D01*
X241924500Y-98649500D01*
X241857461Y-98629815D01*
X241811706Y-98577011D01*
X241800500Y-98525500D01*
X241800500Y-98128858D01*
X241800500Y-98128856D01*
X241776614Y-98039712D01*
X241763842Y-98017590D01*
X241742110Y-97979950D01*
X241725499Y-97917952D01*
X241725499Y-97500000D01*
X242775001Y-97500000D01*
X242775001Y-97548322D01*
X242785144Y-97647607D01*
X242838452Y-97808481D01*
X242838457Y-97808492D01*
X242927424Y-97952728D01*
X242927427Y-97952732D01*
X243047267Y-98072572D01*
X243047271Y-98072575D01*
X243191507Y-98161542D01*
X243191518Y-98161547D01*
X243352393Y-98214855D01*
X243451683Y-98224999D01*
X243475000Y-98224998D01*
X243475000Y-97500000D01*
X242775001Y-97500000D01*
X241725499Y-97500000D01*
X241725499Y-97454518D01*
X241725498Y-97454509D01*
X241719412Y-97397885D01*
X241701588Y-97350101D01*
X241671628Y-97269774D01*
X241589687Y-97160313D01*
X241516155Y-97105268D01*
X241480228Y-97078373D01*
X241480226Y-97078372D01*
X241352114Y-97030588D01*
X241352112Y-97030587D01*
X241352110Y-97030587D01*
X241295493Y-97024500D01*
X240754518Y-97024500D01*
X240754509Y-97024501D01*
X240697885Y-97030587D01*
X240569771Y-97078373D01*
X240488195Y-97139439D01*
X240422730Y-97163855D01*
X240354458Y-97149002D01*
X240308347Y-97105268D01*
X240272571Y-97047266D01*
X240152732Y-96927427D01*
X240152728Y-96927424D01*
X240008492Y-96838457D01*
X240008481Y-96838452D01*
X239847606Y-96785144D01*
X239748322Y-96775000D01*
X239725000Y-96775000D01*
X239725000Y-98644000D01*
X239705315Y-98711039D01*
X239652511Y-98756794D01*
X239601000Y-98768000D01*
X239500000Y-98768000D01*
X239500000Y-99626000D01*
X239480315Y-99693039D01*
X239427511Y-99738794D01*
X239376000Y-99750000D01*
X238268000Y-99750000D01*
X238268000Y-99851000D01*
X238248315Y-99918039D01*
X238195511Y-99963794D01*
X238144000Y-99975000D01*
X236275001Y-99975000D01*
X236275001Y-99998322D01*
X236285144Y-100097607D01*
X236338452Y-100258481D01*
X236338457Y-100258492D01*
X236427424Y-100402728D01*
X236427427Y-100402732D01*
X236547266Y-100522571D01*
X236605268Y-100558347D01*
X236651992Y-100610295D01*
X236663215Y-100679258D01*
X236639439Y-100738195D01*
X236578374Y-100819769D01*
X236578372Y-100819773D01*
X236578372Y-100819774D01*
X236569398Y-100843834D01*
X236530587Y-100947889D01*
X236524500Y-101004498D01*
X236524500Y-101545481D01*
X236524501Y-101545490D01*
X236530587Y-101602114D01*
X236575444Y-101722375D01*
X236578372Y-101730226D01*
X236660313Y-101839687D01*
X236769774Y-101921628D01*
X236897886Y-101969412D01*
X236954515Y-101975500D01*
X237545484Y-101975499D01*
X237602114Y-101969412D01*
X237730226Y-101921628D01*
X237839687Y-101839687D01*
X237921628Y-101730226D01*
X237930602Y-101706163D01*
X237972473Y-101650233D01*
X238037937Y-101625816D01*
X238046783Y-101625500D01*
X238175500Y-101625500D01*
X238242539Y-101645185D01*
X238288294Y-101697989D01*
X238299500Y-101749500D01*
X238299500Y-101824678D01*
X238314032Y-101897735D01*
X238314033Y-101897739D01*
X238329995Y-101921628D01*
X238369399Y-101980601D01*
X238433434Y-102023387D01*
X238452260Y-102035966D01*
X238452264Y-102035967D01*
X238525321Y-102050499D01*
X238525324Y-102050500D01*
X238525326Y-102050500D01*
X239553457Y-102050500D01*
X239620496Y-102070185D01*
X239641138Y-102086819D01*
X240019531Y-102465212D01*
X240084788Y-102530469D01*
X240084791Y-102530470D01*
X240084794Y-102530473D01*
X240164706Y-102576611D01*
X240164707Y-102576611D01*
X240164712Y-102576614D01*
X240253856Y-102600500D01*
X240253858Y-102600500D01*
X242346142Y-102600500D01*
X242346144Y-102600500D01*
X242435288Y-102576614D01*
X242442781Y-102572288D01*
X242515212Y-102530470D01*
X242780470Y-102265212D01*
X242790719Y-102247459D01*
X242841283Y-102199244D01*
X242909889Y-102186018D01*
X242974755Y-102211984D01*
X243012667Y-102262001D01*
X243014552Y-102266552D01*
X243019139Y-102277625D01*
X243107379Y-102392621D01*
X243222375Y-102480861D01*
X243356291Y-102536330D01*
X243483280Y-102553048D01*
X243499999Y-102555250D01*
X243500000Y-102555250D01*
X243500001Y-102555250D01*
X243514977Y-102553278D01*
X243643709Y-102536330D01*
X243777625Y-102480861D01*
X243825014Y-102444497D01*
X243890182Y-102419304D01*
X243958627Y-102433342D01*
X244008617Y-102482156D01*
X244024500Y-102542874D01*
X244024500Y-102976144D01*
X244030509Y-103032023D01*
X244030560Y-103032160D01*
X244030568Y-103032273D01*
X244032294Y-103039579D01*
X244031111Y-103039858D01*
X244035549Y-103101851D01*
X244002067Y-103163176D01*
X243940746Y-103196665D01*
X243914381Y-103199500D01*
X235246543Y-103199500D01*
X235179504Y-103179815D01*
X235158862Y-103163181D01*
X234621007Y-102625326D01*
X234065212Y-102069530D01*
X234065211Y-102069529D01*
X234065208Y-102069527D01*
X233985290Y-102023387D01*
X233985289Y-102023386D01*
X233985288Y-102023386D01*
X233896144Y-101999500D01*
X227163856Y-101999500D01*
X227163853Y-101999500D01*
X227139291Y-102006081D01*
X227139292Y-102006082D01*
X227074710Y-102023386D01*
X227074709Y-102023387D01*
X226994791Y-102069527D01*
X226994786Y-102069531D01*
X226701137Y-102363181D01*
X226639814Y-102396666D01*
X226613456Y-102399500D01*
X225185323Y-102399500D01*
X225112264Y-102414032D01*
X225112260Y-102414033D01*
X225029399Y-102469399D01*
X224974033Y-102552260D01*
X224974032Y-102552264D01*
X224959500Y-102625321D01*
X224959500Y-104374678D01*
X224974032Y-104447735D01*
X224974033Y-104447739D01*
X224974034Y-104447740D01*
X225029399Y-104530601D01*
X225112260Y-104585966D01*
X225112264Y-104585967D01*
X225185321Y-104600499D01*
X225185324Y-104600500D01*
X225185326Y-104600500D01*
X226934676Y-104600500D01*
X226934677Y-104600499D01*
X227007740Y-104585966D01*
X227090601Y-104530601D01*
X227145966Y-104447740D01*
X227160500Y-104374674D01*
X227160500Y-102946544D01*
X227180185Y-102879505D01*
X227196819Y-102858863D01*
X227318863Y-102736819D01*
X227380186Y-102703334D01*
X227406544Y-102700500D01*
X227575685Y-102700500D01*
X227642724Y-102720185D01*
X227688479Y-102772989D01*
X227698423Y-102842147D01*
X227674639Y-102899227D01*
X227660327Y-102918178D01*
X227569422Y-103100739D01*
X227569417Y-103100752D01*
X227513602Y-103296917D01*
X227494785Y-103499999D01*
X227494785Y-103500000D01*
X227513602Y-103703082D01*
X227569417Y-103899247D01*
X227569422Y-103899260D01*
X227660327Y-104081821D01*
X227783237Y-104244581D01*
X227933958Y-104381980D01*
X227933960Y-104381982D01*
X228033141Y-104443392D01*
X228107363Y-104489348D01*
X228297544Y-104563024D01*
X228498024Y-104600500D01*
X228498026Y-104600500D01*
X228701974Y-104600500D01*
X228701976Y-104600500D01*
X228902456Y-104563024D01*
X229092637Y-104489348D01*
X229266041Y-104381981D01*
X229416764Y-104244579D01*
X229539673Y-104081821D01*
X229625962Y-103908529D01*
X229626817Y-103906812D01*
X229674319Y-103855575D01*
X229741982Y-103838153D01*
X229808323Y-103860078D01*
X229852278Y-103914389D01*
X229857592Y-103929989D01*
X229866567Y-103963485D01*
X229866570Y-103963492D01*
X229966399Y-104177578D01*
X230101894Y-104371082D01*
X230268917Y-104538105D01*
X230462421Y-104673600D01*
X230676507Y-104773429D01*
X230676516Y-104773433D01*
X230890000Y-104830634D01*
X230890000Y-103933012D01*
X230947007Y-103965925D01*
X231074174Y-104000000D01*
X231205826Y-104000000D01*
X231332993Y-103965925D01*
X231390000Y-103933012D01*
X231390000Y-104830633D01*
X231603483Y-104773433D01*
X231603492Y-104773429D01*
X231817578Y-104673600D01*
X232011082Y-104538105D01*
X232178105Y-104371082D01*
X232313600Y-104177578D01*
X232413429Y-103963492D01*
X232413432Y-103963486D01*
X232470636Y-103750000D01*
X231573012Y-103750000D01*
X231605925Y-103692993D01*
X231640000Y-103565826D01*
X231640000Y-103434174D01*
X231605925Y-103307007D01*
X231573012Y-103250000D01*
X232470636Y-103250000D01*
X232470635Y-103249999D01*
X232413432Y-103036513D01*
X232413429Y-103036507D01*
X232339006Y-102876905D01*
X232328514Y-102807827D01*
X232357034Y-102744043D01*
X232415510Y-102705804D01*
X232451388Y-102700500D01*
X233653456Y-102700500D01*
X233720495Y-102720185D01*
X233741137Y-102736819D01*
X234265525Y-103261206D01*
X234769531Y-103765212D01*
X234834788Y-103830469D01*
X234834791Y-103830470D01*
X234834794Y-103830473D01*
X234914706Y-103876611D01*
X234914707Y-103876611D01*
X234914712Y-103876614D01*
X235003856Y-103900500D01*
X243651000Y-103900500D01*
X243718039Y-103920185D01*
X243763794Y-103972989D01*
X243775000Y-104024500D01*
X243775000Y-104037500D01*
X245740456Y-104037500D01*
X245807495Y-104057185D01*
X245828137Y-104073819D01*
X245844528Y-104090210D01*
X245844530Y-104090212D01*
X246534787Y-104780469D01*
X246534788Y-104780470D01*
X246534790Y-104780471D01*
X246570570Y-104801128D01*
X246570572Y-104801130D01*
X246570573Y-104801130D01*
X246589533Y-104812077D01*
X246614712Y-104826614D01*
X246703856Y-104850500D01*
X246703864Y-104850500D01*
X246707975Y-104851042D01*
X246711192Y-104852465D01*
X246711706Y-104852603D01*
X246711684Y-104852683D01*
X246771871Y-104879310D01*
X246807968Y-104930647D01*
X246827184Y-104982166D01*
X246832169Y-105051857D01*
X246798685Y-105113181D01*
X246737362Y-105146666D01*
X246711003Y-105149500D01*
X245676142Y-105149500D01*
X245609103Y-105129815D01*
X245563348Y-105077011D01*
X245553404Y-105007853D01*
X245570603Y-104960403D01*
X245662091Y-104812077D01*
X245662093Y-104812072D01*
X245714942Y-104652583D01*
X245724999Y-104554150D01*
X245725000Y-104554137D01*
X245725000Y-104537500D01*
X243775001Y-104537500D01*
X243775001Y-104554152D01*
X243785056Y-104652583D01*
X243837906Y-104812072D01*
X243837908Y-104812077D01*
X243929397Y-104960403D01*
X243947837Y-105027796D01*
X243926914Y-105094459D01*
X243873272Y-105139229D01*
X243823858Y-105149500D01*
X224724500Y-105149500D01*
X224657461Y-105129815D01*
X224611706Y-105077011D01*
X224600500Y-105025500D01*
X224600500Y-100155394D01*
X224600000Y-100145216D01*
X224600000Y-99475000D01*
X236275000Y-99475000D01*
X237000000Y-99475000D01*
X237500000Y-99475000D01*
X238007000Y-99475000D01*
X238007000Y-99374000D01*
X238026685Y-99306961D01*
X238079489Y-99261206D01*
X238131000Y-99250000D01*
X239000000Y-99250000D01*
X239000000Y-98481000D01*
X239019685Y-98413961D01*
X239072489Y-98368206D01*
X239124000Y-98357000D01*
X239225000Y-98357000D01*
X239225000Y-98000000D01*
X238525001Y-98000000D01*
X238525001Y-98048322D01*
X238535144Y-98147608D01*
X238566431Y-98242028D01*
X238568832Y-98311856D01*
X238533100Y-98371898D01*
X238470580Y-98403090D01*
X238461984Y-98404320D01*
X238442626Y-98406401D01*
X238442620Y-98406403D01*
X238307913Y-98456645D01*
X238307906Y-98456649D01*
X238192812Y-98542809D01*
X238192809Y-98542812D01*
X238106649Y-98657906D01*
X238106645Y-98657913D01*
X238056402Y-98792621D01*
X238054930Y-98798854D01*
X238020356Y-98859570D01*
X237958445Y-98891955D01*
X237888853Y-98885728D01*
X237869155Y-98875876D01*
X237808488Y-98838455D01*
X237808481Y-98838452D01*
X237647606Y-98785144D01*
X237548322Y-98775000D01*
X237500000Y-98775000D01*
X237500000Y-99475000D01*
X237000000Y-99475000D01*
X237000000Y-98775000D01*
X236999999Y-98774999D01*
X236951693Y-98775000D01*
X236951675Y-98775001D01*
X236852392Y-98785144D01*
X236691518Y-98838452D01*
X236691507Y-98838457D01*
X236547271Y-98927424D01*
X236547267Y-98927427D01*
X236427427Y-99047267D01*
X236427424Y-99047271D01*
X236338457Y-99191507D01*
X236338452Y-99191518D01*
X236285144Y-99352393D01*
X236275000Y-99451677D01*
X236275000Y-99475000D01*
X224600000Y-99475000D01*
X224600000Y-99000000D01*
X225500000Y-99000000D01*
X225500000Y-97500000D01*
X238525000Y-97500000D01*
X239225000Y-97500000D01*
X239225000Y-96774999D01*
X239201693Y-96775000D01*
X239201674Y-96775001D01*
X239102392Y-96785144D01*
X238941518Y-96838452D01*
X238941507Y-96838457D01*
X238797271Y-96927424D01*
X238797267Y-96927427D01*
X238677427Y-97047267D01*
X238677424Y-97047271D01*
X238588457Y-97191507D01*
X238588452Y-97191518D01*
X238535144Y-97352393D01*
X238525000Y-97451677D01*
X238525000Y-97500000D01*
X225500000Y-97500000D01*
X225500000Y-97000000D01*
X224600000Y-97000000D01*
X224600000Y-96104783D01*
X224600500Y-96094615D01*
X224600500Y-94124000D01*
X224620185Y-94056961D01*
X224672989Y-94011206D01*
X224724500Y-94000000D01*
X227127593Y-94000000D01*
X227194632Y-94019685D01*
G37*
%TD.AperFunction*%
%TA.AperFunction,Conductor*%
G36*
X257082539Y-94019685D02*
G01*
X257128294Y-94072489D01*
X257139500Y-94124000D01*
X257139500Y-100803763D01*
X257119815Y-100870802D01*
X257103279Y-100891347D01*
X252890925Y-105113084D01*
X252829639Y-105146637D01*
X252803146Y-105149500D01*
X249788997Y-105149500D01*
X249721958Y-105129815D01*
X249676203Y-105077011D01*
X249666259Y-105007853D01*
X249672815Y-104982167D01*
X249719490Y-104857024D01*
X249719489Y-104857024D01*
X249719491Y-104857022D01*
X249724324Y-104812072D01*
X249725499Y-104801144D01*
X249725500Y-104801128D01*
X249725500Y-104198870D01*
X249725499Y-104198855D01*
X249722428Y-104170295D01*
X249719491Y-104142978D01*
X249714820Y-104130455D01*
X249672337Y-104016552D01*
X249672335Y-104016549D01*
X249645934Y-103981281D01*
X249591472Y-103908528D01*
X249591470Y-103908527D01*
X249587733Y-103903534D01*
X249563316Y-103838069D01*
X249563000Y-103829223D01*
X249563000Y-103558018D01*
X249582685Y-103490979D01*
X249635489Y-103445224D01*
X249643668Y-103441836D01*
X249695945Y-103422338D01*
X249695945Y-103422337D01*
X249695950Y-103422336D01*
X249803972Y-103341472D01*
X249884836Y-103233450D01*
X249931991Y-103107022D01*
X249935646Y-103073023D01*
X249937999Y-103051144D01*
X249938000Y-103051129D01*
X249938000Y-102523870D01*
X249937999Y-102523855D01*
X249933376Y-102480861D01*
X249931991Y-102467978D01*
X249924859Y-102448855D01*
X249884837Y-102341552D01*
X249880586Y-102333767D01*
X249882410Y-102332770D01*
X249862111Y-102278339D01*
X249876967Y-102210067D01*
X249926375Y-102160664D01*
X249985796Y-102145500D01*
X251063201Y-102145500D01*
X251214711Y-102115362D01*
X251236208Y-102111086D01*
X251370410Y-102055498D01*
X251399171Y-102043585D01*
X251399171Y-102043584D01*
X251399178Y-102043582D01*
X251545848Y-101945580D01*
X251593693Y-101897735D01*
X251662319Y-101829110D01*
X251723642Y-101795625D01*
X251793334Y-101800609D01*
X251837681Y-101829110D01*
X251954148Y-101945577D01*
X251954152Y-101945580D01*
X252100815Y-102043578D01*
X252100828Y-102043585D01*
X252263787Y-102111084D01*
X252263792Y-102111086D01*
X252263796Y-102111086D01*
X252263797Y-102111087D01*
X252436798Y-102145500D01*
X252436801Y-102145500D01*
X253473110Y-102145500D01*
X253473396Y-102145485D01*
X253513196Y-102145486D01*
X253780561Y-102115365D01*
X254042873Y-102055497D01*
X254296831Y-101966637D01*
X254539244Y-101849900D01*
X254767062Y-101706756D01*
X254977421Y-101539004D01*
X255003110Y-101513314D01*
X255003124Y-101513303D01*
X255010186Y-101506241D01*
X255010188Y-101506240D01*
X255074563Y-101441864D01*
X255134915Y-101381515D01*
X255134918Y-101381510D01*
X255138526Y-101377903D01*
X255138539Y-101377889D01*
X255874444Y-100641983D01*
X255874452Y-100641977D01*
X255881513Y-100634916D01*
X255881515Y-100634915D01*
X255907551Y-100608877D01*
X255907592Y-100608855D01*
X255943889Y-100572557D01*
X255943890Y-100572558D01*
X256039016Y-100477431D01*
X256206769Y-100267071D01*
X256349914Y-100039252D01*
X256466652Y-99796838D01*
X256555513Y-99542877D01*
X256596727Y-99362298D01*
X256615378Y-99280580D01*
X256615378Y-99280574D01*
X256615381Y-99280564D01*
X256645502Y-99013197D01*
X256645500Y-98878668D01*
X256645500Y-98834788D01*
X256645500Y-95949301D01*
X256645500Y-95949298D01*
X256611087Y-95776297D01*
X256611086Y-95776296D01*
X256611086Y-95776292D01*
X256572779Y-95683809D01*
X256543585Y-95613328D01*
X256543578Y-95613315D01*
X256445580Y-95466652D01*
X256445577Y-95466648D01*
X256316610Y-95337681D01*
X256283125Y-95276358D01*
X256288109Y-95206666D01*
X256316610Y-95162319D01*
X256445577Y-95033351D01*
X256445580Y-95033348D01*
X256543582Y-94886678D01*
X256611087Y-94723708D01*
X256645500Y-94550699D01*
X256645500Y-94374301D01*
X256645500Y-94124000D01*
X256665185Y-94056961D01*
X256717989Y-94011206D01*
X256769500Y-94000000D01*
X257015500Y-94000000D01*
X257082539Y-94019685D01*
G37*
%TD.AperFunction*%
%TA.AperFunction,Conductor*%
G36*
X243999784Y-99420185D02*
G01*
X244020426Y-99436819D01*
X244020926Y-99437319D01*
X244054411Y-99498642D01*
X244049427Y-99568334D01*
X244026987Y-99603249D01*
X244027689Y-99603759D01*
X244021949Y-99611659D01*
X243959923Y-99733391D01*
X243957991Y-99732406D01*
X243935954Y-99768363D01*
X242861681Y-100842637D01*
X242800358Y-100876122D01*
X242730666Y-100871138D01*
X242674733Y-100829266D01*
X242650316Y-100763802D01*
X242650000Y-100754956D01*
X242650000Y-100552172D01*
X242649999Y-100552155D01*
X242643598Y-100492627D01*
X242643596Y-100492620D01*
X242593354Y-100357913D01*
X242593350Y-100357906D01*
X242507191Y-100242814D01*
X242507185Y-100242807D01*
X242450188Y-100200139D01*
X242408318Y-100144205D01*
X242400500Y-100100873D01*
X242400500Y-99524500D01*
X242420185Y-99457461D01*
X242472989Y-99411706D01*
X242524500Y-99400500D01*
X243932745Y-99400500D01*
X243999784Y-99420185D01*
G37*
%TD.AperFunction*%
%TA.AperFunction,Conductor*%
G36*
X254193039Y-95794685D02*
G01*
X254238794Y-95847489D01*
X254250000Y-95899000D01*
X254250000Y-96974999D01*
X254298308Y-96974999D01*
X254298322Y-96974998D01*
X254397607Y-96964855D01*
X254558481Y-96911547D01*
X254558488Y-96911544D01*
X254665402Y-96845598D01*
X254732795Y-96827157D01*
X254799458Y-96848079D01*
X254844228Y-96901721D01*
X254854500Y-96951136D01*
X254854500Y-98785359D01*
X254854499Y-98785385D01*
X254854499Y-98872601D01*
X254853902Y-98884754D01*
X254844082Y-98984471D01*
X254839340Y-99008311D01*
X254812033Y-99098337D01*
X254802730Y-99120797D01*
X254758382Y-99203767D01*
X254744878Y-99223978D01*
X254681408Y-99301317D01*
X254673235Y-99310334D01*
X253810454Y-100173117D01*
X253801438Y-100181290D01*
X253723970Y-100244866D01*
X253703757Y-100258371D01*
X253620789Y-100302717D01*
X253598330Y-100312019D01*
X253508309Y-100339325D01*
X253484469Y-100344067D01*
X253384602Y-100353902D01*
X253372449Y-100354499D01*
X253284380Y-100354499D01*
X253284360Y-100354500D01*
X252436799Y-100354500D01*
X252263797Y-100388912D01*
X252263787Y-100388915D01*
X252100828Y-100456414D01*
X252100815Y-100456421D01*
X251954152Y-100554419D01*
X251954148Y-100554422D01*
X251837681Y-100670890D01*
X251776358Y-100704375D01*
X251706666Y-100699391D01*
X251662319Y-100670890D01*
X251545851Y-100554422D01*
X251545847Y-100554419D01*
X251399184Y-100456421D01*
X251399171Y-100456414D01*
X251236212Y-100388915D01*
X251236202Y-100388912D01*
X251063201Y-100354500D01*
X251063199Y-100354500D01*
X249501436Y-100354500D01*
X249477244Y-100352117D01*
X249300701Y-100317000D01*
X249300699Y-100317000D01*
X248413469Y-100317000D01*
X248346430Y-100297315D01*
X248322414Y-100277172D01*
X248297296Y-100250000D01*
X247011500Y-100250000D01*
X246944461Y-100230315D01*
X246898706Y-100177511D01*
X246887500Y-100126000D01*
X246887500Y-99874000D01*
X246907185Y-99806961D01*
X246959989Y-99761206D01*
X247011500Y-99750000D01*
X248297295Y-99750000D01*
X248297295Y-99749998D01*
X248297100Y-99747513D01*
X248251281Y-99589801D01*
X248167685Y-99448447D01*
X248167678Y-99448438D01*
X248081538Y-99362298D01*
X248048053Y-99300975D01*
X248046746Y-99255219D01*
X248050500Y-99231519D01*
X248050499Y-98868482D01*
X248035646Y-98774696D01*
X247978050Y-98661658D01*
X247978046Y-98661654D01*
X247978045Y-98661652D01*
X247888347Y-98571954D01*
X247888344Y-98571952D01*
X247888342Y-98571950D01*
X247811517Y-98532805D01*
X247775301Y-98514352D01*
X247681524Y-98499500D01*
X247681519Y-98499500D01*
X247612000Y-98499500D01*
X247544961Y-98479815D01*
X247499206Y-98427011D01*
X247488000Y-98375500D01*
X247488000Y-98271537D01*
X247507685Y-98204498D01*
X247537689Y-98172270D01*
X247542328Y-98168797D01*
X247542331Y-98168796D01*
X247657546Y-98082546D01*
X247743796Y-97967331D01*
X247751180Y-97947532D01*
X247793050Y-97891598D01*
X247858514Y-97867179D01*
X247926787Y-97882029D01*
X247976194Y-97931433D01*
X247985069Y-97951859D01*
X248015641Y-98044119D01*
X248015643Y-98044124D01*
X248107684Y-98193345D01*
X248231654Y-98317315D01*
X248380875Y-98409356D01*
X248380880Y-98409358D01*
X248547302Y-98464505D01*
X248547309Y-98464506D01*
X248650019Y-98474999D01*
X248699999Y-98474998D01*
X248700000Y-98474998D01*
X248700000Y-97500000D01*
X249200000Y-97500000D01*
X249200000Y-98474999D01*
X249249972Y-98474999D01*
X249249986Y-98474998D01*
X249352697Y-98464505D01*
X249519119Y-98409358D01*
X249519124Y-98409356D01*
X249668345Y-98317315D01*
X249792315Y-98193345D01*
X249884356Y-98044124D01*
X249884358Y-98044119D01*
X249939505Y-97877697D01*
X249939506Y-97877690D01*
X249949999Y-97774986D01*
X249950000Y-97774973D01*
X249950000Y-97500000D01*
X249200000Y-97500000D01*
X248700000Y-97500000D01*
X248700000Y-97124000D01*
X248719685Y-97056961D01*
X248772489Y-97011206D01*
X248824000Y-97000000D01*
X249949999Y-97000000D01*
X249949999Y-96725028D01*
X249949998Y-96725013D01*
X249939505Y-96622302D01*
X249884358Y-96455880D01*
X249884356Y-96455875D01*
X249792315Y-96306653D01*
X249787839Y-96300993D01*
X249790400Y-96298967D01*
X249763857Y-96250358D01*
X249768841Y-96180666D01*
X249810713Y-96124733D01*
X249876177Y-96100316D01*
X249885023Y-96100000D01*
X252901001Y-96100000D01*
X252968040Y-96119685D01*
X253013795Y-96172489D01*
X253025001Y-96224000D01*
X253025001Y-96298322D01*
X253035144Y-96397607D01*
X253088452Y-96558481D01*
X253088457Y-96558492D01*
X253177424Y-96702728D01*
X253177427Y-96702732D01*
X253297267Y-96822572D01*
X253297271Y-96822575D01*
X253441507Y-96911542D01*
X253441518Y-96911547D01*
X253602393Y-96964855D01*
X253701683Y-96974999D01*
X253749999Y-96974998D01*
X253750000Y-96974998D01*
X253750000Y-95899000D01*
X253769685Y-95831961D01*
X253822489Y-95786206D01*
X253874000Y-95775000D01*
X254126000Y-95775000D01*
X254193039Y-95794685D01*
G37*
%TD.AperFunction*%
%TD*%
%TA.AperFunction,Conductor*%
%TO.N,GND*%
G36*
X225500000Y-99000000D02*
G01*
X222000000Y-99000000D01*
X222000000Y-97000000D01*
X225500000Y-97000000D01*
X225500000Y-99000000D01*
G37*
%TD.AperFunction*%
%TD*%
M02*
