*
G04 Mass Parameters ***
*
G04 Image ***
*
%INTX113-1C.SST*%
%ICAS*%
%MOIN*%
%IPPOS*%
%ASAXBY*%
G74*%FSLAN2X34Y34*%
*
G04 Aperture Definitions ***
*
%ADD10R,0.0500X0.0500*%
%ADD11R,0.0350X0.0350*%
%ADD12C,0.0620*%
%ADD13R,0.0620X0.0620*%
%ADD14C,0.0300*%
%ADD15C,0.0120*%
%ADD16R,0.0120X0.0600*%
%ADD17C,0.0800*%
%ADD18C,0.0200*%
%ADD19C,0.0300*%
%ADD20C,0.0350*%
%ADD21C,0.0150*%
%ADD22C,0.0100*%
%ADD23C,0.0820*%
%ADD24R,0.0820X0.0820*%
%ADD25R,0.0540X0.0540*%
%ADD26R,0.0390X0.0390*%
%ADD27C,0.0140*%
%ADD28R,0.0140X0.0700*%
%ADD29C,0.0720*%
%ADD30C,0.0070*%
%ADD31C,0.0030*%
%ADD32C,0.0060*%
%ADD33C,0.0080*%
%ADD34C,0.0050*%
%ADD35C,0.0010*%
%ADD36R,0.0120X0.0400*%
%ADD37C,0.0250*%
%ADD38R,0.0220X0.0400*%
%ADD39C,0.0600*%
%ADD40C,0.0700*%
%ADD41R,0.0270X0.0400*%
%ADD42C,0.0240*%
%ADD43R,0.0380X0.0320*%
*
G04 Plot Data ***
*
G54D22*
G01X0006287Y-0002042D02*
Y-0002542D01*
X0006204Y-0002458D01*
X0006037Y-0002125D01*
X0005954Y-0002042D01*
Y-0002542D01*
X0005629Y-0002292D02*
X0005379D01*
X0005712Y-0002542D02*
X0005379D01*
Y-0002042D01*
X0005712D01*
X0005054Y-0002292D02*
X0004804D01*
X0005137Y-0002542D02*
X0004804D01*
Y-0002042D01*
X0005137D01*
X0004437Y-0002292D02*
X0004562Y-0002542D01*
X0004229Y-0002292D02*
X0004479D01*
X0004562Y-0002208D01*
Y-0002125D01*
X0004479Y-0002042D01*
X0004229D01*
Y-0002542D01*
X0003987Y-0002458D02*
X0003945Y-0002542D01*
X0003695D01*
X0003654Y-0002458D01*
Y-0002125D01*
X0003695Y-0002042D01*
X0003945D01*
X0003987Y-0002125D01*
X0003412D02*
X0003370Y-0002042D01*
X0003120D01*
X0003079Y-0002125D01*
Y-0002208D01*
X0003120Y-0002292D01*
X0003370D01*
X0003412Y-0002375D01*
Y-0002458D01*
X0003370Y-0002542D01*
X0003120D01*
X0003079Y-0002458D01*
X0002075Y-0002542D02*
X0001825Y-0002292D01*
X0002075Y-0002042D01*
X0001741D02*
Y-0002542D01*
X0001500D02*
X0001208D01*
Y-0002042D01*
X0000966Y-0002542D02*
X0000800D01*
X0000883D02*
Y-0002042D01*
X0000966D02*
X0000800D01*
X0000475Y-0002125D02*
X0000433Y-0002042D01*
X0000183D01*
X0000142Y-0002125D01*
X0000141D02*
X0000142Y-0002208D01*
X0000141D02*
X0000183Y-0002292D01*
X0000433D01*
X0000475Y-0002375D01*
Y-0002458D01*
X0000433Y-0002542D01*
X0000183D01*
X0000142Y-0002458D01*
G54D30*
G01X0010950Y0003050D02*
X0010900D01*
Y0002450D01*
X0012150D01*
Y0003050D01*
X0010950D01*
X0007950Y0002550D02*
X0008000D01*
Y0003150D01*
X0006750D01*
Y0002550D01*
X0007950D01*
X0011850Y0008050D02*
Y0008100D01*
X0011250D01*
Y0006850D01*
X0011850D01*
Y0008050D01*
X0011200Y0006150D02*
Y0006200D01*
X0010600D01*
Y0004950D01*
X0011200D01*
Y0006150D01*
X0007450Y0006400D02*
X0007400D01*
Y0005800D01*
X0008650D01*
Y0006400D01*
X0007450D01*
X0012450Y0005950D02*
X0012500D01*
Y0006550D01*
X0011250D01*
Y0005950D01*
X0012450D01*
Y0004950D02*
X0012500D01*
Y0005550D01*
X0011250D01*
Y0004950D01*
X0012450D01*
X0009200Y0003050D02*
X0009150D01*
Y0002450D01*
X0010400D01*
Y0003050D01*
X0009200D01*
X0006800Y0004000D02*
X0006750D01*
Y0003400D01*
X0008000D01*
Y0004000D01*
X0006800D01*
X0000650Y0002450D02*
Y0002400D01*
X0001250D01*
Y0003650D01*
X0000650D01*
Y0002450D01*
X0012100Y0006900D02*
Y0006850D01*
X0012700D01*
Y0008100D01*
X0012100D01*
Y0006900D01*
G54D31*
G01X0010370Y0003820D02*
X0009130D01*
Y0003280D01*
X0010370D01*
Y0003820D01*
Y0004520D02*
X0009130D01*
Y0003980D01*
X0010370D01*
Y0004520D01*
X0008980Y0005830D02*
X0010220D01*
Y0006370D01*
X0008980D01*
Y0005830D01*
X0010220Y0005520D02*
X0008980D01*
Y0004980D01*
X0010220D01*
Y0005520D01*
G54D32*
G01X0011050Y0002200D02*
X0008200D01*
X0011150Y0000700D02*
X0008150D01*
G01X0011071Y0002200D02*
G03X0011050Y0002200I0000000J0000798D01*
G01X0011600Y0002000D02*
G03X0011071Y0002200I0000529J0000598D01*
G01X0008137Y0002202D02*
G03X0007600Y0002000I0000000J0000815D01*
G01X0008200Y0002200D02*
G03X0008137Y0002202I0000063J0000813D01*
G01X0011150Y0000700D02*
G03X0011650Y0000900I0000030J0000800D01*
G01X0007650D02*
G03X0008150Y0000700I0000530J0000600D01*
G54D33*
G01X0003342Y0006089D02*
X0003509Y0006422D01*
X0003286D01*
X0002960Y0006089D02*
X0002904Y0006144D01*
X0002876Y0006200D01*
Y0006311D01*
X0002904Y0006367D01*
X0002960Y0006422D01*
X0003015D01*
X0003071Y0006367D01*
X0003099Y0006311D01*
Y0006200D01*
X0003071Y0006144D01*
X0003015Y0006089D01*
X0002960D01*
X0002689Y0006422D02*
X0002522Y0006089D01*
X0002306Y0006200D02*
X0002084D01*
X0002195Y0006422D01*
X0002251D01*
Y0006089D01*
X0001896D02*
X0001785D01*
X0001841D02*
Y0006422D01*
X0001785Y0006367D01*
X0001542Y0006422D02*
X0001375Y0006089D01*
X0001132Y0006255D02*
X0000965D01*
X0000938Y0006311D01*
Y0006367D01*
X0000965Y0006422D01*
X0001132D01*
X0001160Y0006367D01*
Y0006311D01*
X0001049Y0006089D01*
X0000611D02*
X0000555Y0006144D01*
X0000528Y0006200D01*
Y0006311D01*
X0000555Y0006367D01*
X0000611Y0006422D01*
X0000667D01*
X0000666D02*
X0000722Y0006367D01*
X0000750Y0006311D01*
Y0006200D01*
X0000722Y0006144D01*
X0000667Y0006089D01*
X0000666D02*
X0000611D01*
X0003325Y0006817D02*
X0003297Y0006761D01*
X0003131D01*
X0003103Y0006817D01*
Y0007039D01*
X0003131Y0007094D01*
X0003297D01*
X0003325Y0007039D01*
X0002915Y0006761D02*
X0002804D01*
X0002860D02*
Y0007094D01*
X0002804Y0007039D01*
X0002561Y0006928D02*
X0002338D01*
X0001928Y0006817D02*
X0001984Y0006761D01*
X0002095D01*
X0002151Y0006817D01*
Y0006872D01*
X0002040Y0006983D01*
X0002151Y0007094D01*
X0001928D01*
X0001741Y0006761D02*
X0001630D01*
X0001685D02*
Y0007094D01*
X0001630Y0007039D01*
X0001386Y0006761D02*
X0001275D01*
X0001331D02*
Y0007094D01*
X0001275Y0007039D01*
X0001032Y0006761D02*
X0000865Y0007094D01*
X0001032D02*
X0000865Y0006761D01*
X0000539D02*
Y0007094D01*
X0000650D02*
X0000428D01*
X0010500Y0003850D02*
Y0004250D01*
X0011800D01*
Y0003850D01*
X0010500D01*
X0000400Y0001950D02*
Y0000950D01*
X0003500D01*
Y0001950D01*
X0002950D01*
X0001950D01*
X0000950D01*
X0000400D01*
X0006350Y0000950D02*
Y0001950D01*
X0004250D01*
Y0000950D01*
X0004800D01*
X0005800D01*
X0006350D01*
G54D34*
G01X0012511Y0003572D02*
X0012433D01*
X0012472D02*
Y0003805D01*
X0012433Y0003767D01*
X0012275Y0003805D02*
Y0003611D01*
X0012255Y0003572D01*
X0012139D01*
X0012119Y0003611D01*
Y0003805D01*
X0010142Y0007635D02*
Y0007752D01*
X0010181Y0007771D01*
X0010220D01*
X0010259Y0007752D01*
Y0007635D01*
X0010220Y0007616D01*
X0010181D01*
X0010026Y0007694D01*
X0010259Y0007496D02*
Y0007419D01*
Y0007458D02*
X0010026D01*
X0010064Y0007419D01*
X0010220Y0007260D02*
X0010259Y0007241D01*
Y0007124D01*
X0010220Y0007105D01*
X0010064D01*
X0010026Y0007124D01*
Y0007241D01*
X0010064Y0007260D01*
X0006461Y0002372D02*
X0006383D01*
X0006422D02*
Y0002605D01*
X0006383Y0002567D01*
X0006147Y0002372D02*
Y0002489D01*
X0006225Y0002605D02*
X0006167Y0002489D01*
X0006128D01*
X0006069Y0002605D01*
X0004886Y0002291D02*
X0004730D01*
X0004886Y0002446D01*
Y0002485D01*
X0004866Y0002524D01*
X0004750D01*
X0004730Y0002485D01*
X0004475Y0002369D02*
Y0002330D01*
X0004494Y0002291D01*
X0004572D01*
X0004591Y0002330D01*
Y0002524D01*
X0004611D02*
X0004533D01*
X0004097Y0001341D02*
X0004019D01*
X0004058D02*
Y0001574D01*
X0004019Y0001535D01*
X0012697Y0002119D02*
X0012736Y0002080D01*
X0012814D01*
X0012853Y0002119D01*
Y0002158D01*
X0012775Y0002236D01*
X0012853Y0002314D01*
X0012697D01*
X0012578Y0002080D02*
X0012500D01*
X0012539D02*
Y0002314D01*
X0012500Y0002275D01*
X0012342Y0002119D02*
X0012323Y0002080D01*
X0012206D01*
X0012186Y0002119D01*
Y0002275D01*
X0012206Y0002314D01*
X0012323D01*
X0012342Y0002275D01*
X0011608Y0008863D02*
Y0008708D01*
X0011453Y0008785D01*
Y0008824D01*
X0011686D01*
Y0008588D02*
Y0008452D01*
X0011453D01*
X0010947Y0006627D02*
X0010986Y0006647D01*
Y0006763D01*
X0010947Y0006783D01*
X0010869D01*
X0010830Y0006744D01*
Y0006627D01*
X0010753D01*
Y0006783D01*
X0010947Y0006508D02*
X0010986Y0006488D01*
Y0006372D01*
X0010947Y0006352D01*
X0010791D01*
X0010753Y0006372D01*
Y0006488D01*
X0010791Y0006508D01*
X0003186Y0002203D02*
X0003108D01*
X0003147D02*
Y0002437D01*
X0003108Y0002398D01*
X0002814Y0002281D02*
Y0002242D01*
X0002833Y0002203D01*
X0002911D01*
X0002930Y0002242D01*
Y0002437D01*
X0002950D02*
X0002872D01*
X0007150Y0006480D02*
X0007267Y0006714D01*
X0007111D01*
X0006934Y0006597D02*
X0006992Y0006480D01*
X0006836Y0006597D02*
X0006953D01*
X0006992Y0006636D01*
Y0006675D01*
X0006953Y0006714D01*
X0006836D01*
Y0006480D01*
X0008867Y0002730D02*
X0008711D01*
X0008867Y0002886D01*
Y0002925D01*
X0008848Y0002964D01*
X0008731D01*
X0008711Y0002925D01*
X0008592Y0002769D02*
X0008573Y0002730D01*
X0008456D01*
X0008436Y0002769D01*
Y0002925D01*
X0008456Y0002964D01*
X0008573D01*
X0008592Y0002925D01*
X0006313Y0003053D02*
X0006333Y0003014D01*
X0006449D01*
X0006469Y0003053D01*
Y0003131D01*
X0006430Y0003169D01*
X0006313D01*
Y0003247D01*
X0006469D01*
X0006194Y0003014D02*
X0006116D01*
X0006155D02*
Y0003247D01*
X0006116Y0003208D01*
X0005958Y0003053D02*
X0005938Y0003014D01*
X0005822D01*
X0005802Y0003053D01*
Y0003208D01*
X0005822Y0003247D01*
X0005938D01*
X0005958Y0003208D01*
X0009598Y0006635D02*
X0009442D01*
X0009598Y0006790D01*
Y0006829D01*
X0009579Y0006868D01*
X0009462D01*
X0009442Y0006829D01*
X0009323Y0006635D02*
X0009245D01*
X0009284D02*
Y0006868D01*
X0009245Y0006829D01*
X0009087Y0006673D02*
X0009068Y0006635D01*
X0008951D01*
X0008931Y0006673D01*
Y0006829D01*
X0008951Y0006868D01*
X0009068D01*
X0009087Y0006829D01*
X0012730Y0004614D02*
X0012652D01*
X0012691D02*
Y0004847D01*
X0012652Y0004808D01*
X0012494Y0004614D02*
X0012416D01*
X0012455D02*
Y0004847D01*
X0012416Y0004808D01*
X0012258Y0004653D02*
X0012238Y0004614D01*
X0012122D01*
X0012102Y0004653D01*
Y0004808D01*
X0012122Y0004847D01*
X0012238D01*
X0012258Y0004808D01*
X0003775Y0001353D02*
X0003697D01*
X0003736D02*
Y0001587D01*
X0003697Y0001548D01*
X0008699Y0004510D02*
X0008621D01*
X0008660D02*
Y0004743D01*
X0008621Y0004704D01*
X0008463Y0004548D02*
X0008443Y0004510D01*
X0008327D01*
X0008307Y0004548D01*
Y0004704D01*
X0008327Y0004743D01*
X0008443D01*
X0008463Y0004704D01*
X0008729Y0005160D02*
X0008652D01*
X0008690D02*
Y0005393D01*
X0008652Y0005354D01*
X0008493Y0005160D02*
X0008357D01*
Y0005393D01*
X0012797Y0005831D02*
X0012913D01*
X0012933Y0005792D01*
Y0005753D01*
X0012913Y0005714D01*
X0012797D01*
X0012777Y0005753D01*
Y0005792D01*
X0012855Y0005947D01*
X0012658Y0005753D02*
X0012638Y0005714D01*
X0012522D01*
X0012502Y0005753D01*
Y0005908D01*
X0012522Y0005947D01*
X0012638D01*
X0012658Y0005908D01*
X0007353Y0004308D02*
X0007197D01*
X0007275Y0004464D01*
X0007314D01*
Y0004230D01*
X0007078D02*
X0007000D01*
X0007039D02*
Y0004464D01*
X0007000Y0004425D01*
X0006842Y0004269D02*
X0006823Y0004230D01*
X0006706D01*
X0006686Y0004269D01*
Y0004425D01*
X0006706Y0004464D01*
X0006823D01*
X0006842Y0004425D01*
X0002090Y0012091D02*
X0002109Y0012052D01*
X0002226D01*
X0002245Y0012091D01*
Y0012169D01*
X0002206Y0012208D01*
X0002090D01*
Y0012285D01*
X0002245D01*
X0001970Y0012052D02*
X0001834D01*
Y0012285D01*
X0001720Y0003217D02*
Y0003061D01*
X0001564Y0003217D01*
X0001525D01*
X0001486Y0003198D01*
Y0003081D01*
X0001525Y0003061D01*
X0001603Y0002884D02*
X0001720Y0002942D01*
X0001603Y0002786D02*
Y0002903D01*
X0001564Y0002942D01*
X0001525D01*
X0001486Y0002903D01*
Y0002786D01*
X0001720D01*
X0008676Y0003810D02*
X0008638Y0003848D01*
X0008618Y0003887D01*
Y0003965D01*
X0008638Y0004004D01*
X0008676Y0004043D01*
X0008715D01*
X0008754Y0004004D01*
X0008774Y0003965D01*
Y0003887D01*
X0008754Y0003848D01*
X0008715Y0003810D01*
X0008676D01*
X0008499D02*
X0008421D01*
X0008460D02*
Y0004043D01*
X0008421Y0004004D01*
X0008263Y0003848D02*
X0008243Y0003810D01*
X0008127D01*
X0008107Y0003848D01*
Y0004004D01*
X0008127Y0004043D01*
X0008243D01*
X0008263Y0004004D01*
X0012520Y0008700D02*
X0012286Y0008817D01*
Y0008661D01*
X0012481Y0008542D02*
X0012520Y0008523D01*
Y0008406D01*
X0012481Y0008386D01*
X0012325D01*
X0012286Y0008406D01*
Y0008523D01*
X0012325Y0008542D01*
M02*
