*
G04 Mass Parameters ***
*
G04 Image ***
*
%INTX113-1C.AST*%
%ICAS*%
%MOIN*%
%IPPOS*%
%ASAXBY*%
G74*%FSLAN2X34Y34*%
*
G04 Aperture Definitions ***
*
%ADD10R,0.0500X0.0500*%
%ADD11R,0.0350X0.0350*%
%ADD12C,0.0620*%
%ADD13R,0.0620X0.0620*%
%ADD14C,0.0300*%
%ADD15C,0.0120*%
%ADD16R,0.0120X0.0600*%
%ADD17C,0.0800*%
%ADD18C,0.0200*%
%ADD19C,0.0300*%
%ADD20C,0.0350*%
%ADD21C,0.0150*%
%ADD22C,0.0100*%
%ADD23C,0.0820*%
%ADD24R,0.0820X0.0820*%
%ADD25R,0.0540X0.0540*%
%ADD26R,0.0390X0.0390*%
%ADD27C,0.0140*%
%ADD28R,0.0140X0.0700*%
%ADD29C,0.0720*%
%ADD30C,0.0070*%
%ADD31C,0.0030*%
%ADD32C,0.0060*%
%ADD33C,0.0080*%
%ADD34C,0.0050*%
%ADD35C,0.0010*%
%ADD36R,0.0120X0.0400*%
%ADD37C,0.0250*%
%ADD38R,0.0220X0.0400*%
%ADD39C,0.0600*%
%ADD40C,0.0700*%
%ADD41R,0.0270X0.0400*%
%ADD42C,0.0240*%
%ADD43R,0.0380X0.0320*%
*
G04 Plot Data ***
*
G54D21*
G01X0019258Y-0008317D02*
X0018925D01*
X0018924D02*
X0018841Y-0008483D01*
X0018675D01*
X0018674Y-0008317D02*
X0018675Y-0008983D01*
X0017708D02*
X0017625Y-0008817D01*
X0017624D02*
X0017625Y-0008483D01*
X0017624D02*
X0017708Y-0008317D01*
X0018208D01*
X0018291Y-0008483D01*
Y-0008817D01*
X0018208Y-0008983D01*
X0017708D01*
X0017158Y-0008317D02*
X0016658D01*
X0017241Y-0008983D02*
X0016908D01*
X0016825Y-0008817D01*
Y-0007983D01*
X0016275Y-0008317D02*
X0015775D01*
X0015691Y-0008483D01*
Y-0008817D01*
X0015775Y-0008983D01*
X0016275D01*
X0015225Y-0008317D02*
Y-0008983D01*
X0015308D02*
X0014725D01*
X0014641Y-0008817D01*
Y-0008317D01*
X0014258Y-0007983D02*
Y-0008983D01*
X0013758D01*
X0013675Y-0008817D01*
Y-0008483D01*
X0013758Y-0008317D01*
X0014258D01*
X0013291Y-0008983D02*
Y-0008483D01*
X0013208Y-0008317D01*
X0012708D01*
Y-0008983D01*
X0011741D02*
X0011658Y-0008817D01*
Y-0008483D01*
X0011741Y-0008317D01*
X0012241D01*
X0012325Y-0008483D01*
Y-0008817D01*
X0012241Y-0008983D01*
X0011741D01*
X0011275Y-0008317D02*
X0010775D01*
X0010691Y-0008483D01*
Y-0008817D01*
X0010775Y-0008983D01*
X0011275D01*
X0010141Y-0007984D02*
Y-0007982D01*
X0010142D01*
Y-0007984D01*
X0010141D01*
X0010308Y-0008983D02*
X0009975D01*
X0010141D02*
Y-0008317D01*
X0009975D01*
X0009175Y-0008983D02*
Y-0008483D01*
X0009508Y-0008983D02*
Y-0008483D01*
X0009425Y-0008317D01*
X0009258D01*
X0009175Y-0008483D01*
X0009091Y-0008317D01*
X0008925D01*
X0008841Y-0008483D01*
Y-0008983D01*
X0008375D02*
X0007875D01*
X0007791Y-0008817D01*
Y-0008483D01*
X0007875Y-0008317D01*
X0008375D01*
X0008458Y-0008483D01*
Y-0008650D01*
X0007791D01*
X0007408Y-0008150D02*
X0007325Y-0007983D01*
X0006825D01*
X0006741Y-0008150D01*
Y-0008317D01*
X0006825Y-0008483D01*
X0007325D01*
X0007408Y-0008650D01*
Y-0008817D01*
X0007325Y-0008983D01*
X0006825D01*
X0006741Y-0008817D01*
X0004933Y-0008983D02*
X0004600D01*
X0004766D02*
Y-0007983D01*
X0004600D01*
X0004050Y-0008983D02*
X0003550D01*
X0003466Y-0008817D01*
Y-0008483D01*
X0003550Y-0008317D01*
X0004050D01*
X0004133Y-0008483D01*
Y-0008650D01*
X0003466D01*
X0003083Y-0008317D02*
X0002750D01*
X0002667Y-0008483D01*
X0002500D01*
Y-0008317D02*
Y-0008983D01*
X0002116Y-0008317D02*
X0001617D01*
X0001616D02*
X0001533Y-0008483D01*
Y-0008817D01*
X0001617Y-0008983D01*
X0001616D02*
X0002117D01*
X0000982Y-0007984D02*
Y-0007982D01*
X0000984D01*
Y-0007984D01*
X0000982D01*
X0001150Y-0008983D02*
X0000817D01*
X0000983D02*
Y-0008317D01*
X0000817D01*
X0000350Y-0008983D02*
Y-0007983D01*
X0000183Y-0008150D01*
X0000017Y-0008483D01*
X-0000150Y-0008150D01*
X-0000317Y-0007983D01*
Y-0008983D01*
G54D22*
G01X0007270Y0016641D02*
X0007312Y0016558D01*
X0007562D01*
X0007604Y0016641D01*
Y0016808D01*
X0007520Y0016892D01*
X0007271D01*
X0007270D02*
X0007271Y0017058D01*
X0007270D02*
X0007604D01*
X0007029Y0016558D02*
X0006862D01*
X0006946D02*
Y0017058D01*
X0006862Y0016975D01*
X0006204Y0016641D02*
X0006287Y0016558D01*
X0006454D01*
X0006537Y0016641D01*
Y0016725D01*
X0006371Y0016892D01*
X0006537Y0017058D01*
X0006204D01*
X0005962Y0016558D02*
X0005796D01*
X0005879D02*
Y0017058D01*
X0005796Y0016975D01*
X0004108Y-0004608D02*
X0004066Y-0004692D01*
X0003816D01*
X0003774Y-0004608D01*
Y-0004275D01*
X0003816Y-0004192D01*
X0004066D01*
X0004108Y-0004275D01*
X0003533Y-0004692D02*
X0003366D01*
X0003449D02*
Y-0004192D01*
X0003366Y-0004275D01*
X0003041Y-0004442D02*
X0002708D01*
X0002133Y-0004608D02*
X0002216Y-0004692D01*
X0002383D01*
X0002466Y-0004608D01*
Y-0004525D01*
X0002299Y-0004358D01*
X0002466Y-0004192D01*
X0002133D01*
X0001891Y-0004692D02*
X0001725D01*
X0001808D02*
Y-0004192D01*
X0001725Y-0004275D01*
X0001400Y-0004692D02*
X0001233D01*
X0001316D02*
Y-0004192D01*
X0001233Y-0004275D01*
X0000908Y-0004692D02*
X0000658Y-0004192D01*
X0000908D02*
X0000658Y-0004692D01*
X0000208D02*
Y-0004192D01*
X0000375D02*
X0000042D01*
X0011112Y-0006542D02*
X0011237Y-0006792D01*
X0010904Y-0006542D02*
X0011154D01*
X0011237Y-0006458D01*
Y-0006375D01*
X0011154Y-0006292D01*
X0010904D01*
Y-0006792D01*
X0010579Y-0006542D02*
X0010329D01*
X0010662Y-0006792D02*
X0010329D01*
Y-0006292D01*
X0010662D01*
X0009754Y-0006542D02*
X0010004D01*
X0010087Y-0006458D01*
Y-0006375D01*
X0010004Y-0006292D01*
X0009754D01*
Y-0006792D01*
X0009179Y-0006542D02*
X0009429D01*
X0009512Y-0006458D01*
Y-0006375D01*
X0009429Y-0006292D01*
X0009179D01*
Y-0006792D01*
X0008646D02*
X0008604Y-0006708D01*
Y-0006375D01*
X0008646Y-0006292D01*
X0008896D01*
X0008937Y-0006375D01*
Y-0006708D01*
X0008896Y-0006792D01*
X0008646D01*
X0008362Y-0006708D02*
X0008321Y-0006792D01*
X0008071D01*
X0008029Y-0006708D01*
Y-0006375D01*
X0008071Y-0006292D01*
X0008321D01*
X0008362Y-0006375D01*
X0006941Y-0006542D02*
X0006692D01*
X0007025Y-0006792D02*
X0006692D01*
X0006691D02*
X0006692Y-0006292D01*
X0006691D02*
X0007025D01*
X0006325Y-0006542D02*
X0006450Y-0006792D01*
X0006116Y-0006542D02*
X0006366D01*
X0006450Y-0006458D01*
Y-0006375D01*
X0006366Y-0006292D01*
X0006117D01*
X0006116D02*
X0006117Y-0006792D01*
X0005875Y-0006625D02*
X0005542D01*
X0005875Y-0006792D02*
Y-0006542D01*
X0005750Y-0006292D01*
X0005667D01*
X0005666D02*
X0005542Y-0006542D01*
X0005541D02*
X0005542Y-0006792D01*
X0005008D02*
Y-0006292D01*
X0004966Y-0006792D02*
X0005216D01*
X0005300Y-0006708D01*
Y-0006625D01*
X0005258Y-0006542D01*
X0005008D02*
X0005258D01*
X0005300Y-0006458D01*
Y-0006375D01*
X0005216Y-0006292D01*
X0004967D01*
X0003962D02*
Y-0006792D01*
X0003879Y-0006708D01*
X0003712Y-0006375D01*
X0003629Y-0006292D01*
Y-0006792D01*
X0003096D02*
X0003054Y-0006708D01*
Y-0006375D01*
X0003096Y-0006292D01*
X0003346D01*
X0003387Y-0006375D01*
Y-0006708D01*
X0003346Y-0006792D01*
X0003096D01*
X0002050D02*
X0001800Y-0006542D01*
X0002050Y-0006292D01*
X0001716D02*
X0001717Y-0006792D01*
X0001475Y-0006375D02*
X0001433Y-0006292D01*
X0001183D01*
X0001142Y-0006375D01*
X0001141D02*
X0001142Y-0006458D01*
X0001141D02*
X0001183Y-0006542D01*
X0001433D01*
X0001475Y-0006625D01*
Y-0006708D01*
X0001433Y-0006792D01*
X0001183D01*
X0001142Y-0006708D01*
X0000900Y-0006625D02*
X0000567D01*
X0000900Y-0006792D02*
Y-0006542D01*
X0000775Y-0006292D01*
X0000692D01*
X0000691D02*
X0000567Y-0006542D01*
X0000566D02*
X0000567Y-0006792D01*
X0000325D02*
Y-0006292D01*
X0000241Y-0006375D01*
X0000158Y-0006542D01*
X0000075Y-0006375D01*
X-0000008Y-0006292D01*
Y-0006792D01*
X0011896Y-0005192D02*
Y-0005608D01*
X0011854Y-0005692D01*
X0011604D01*
X0011562Y-0005608D01*
Y-0005192D01*
X0011321Y-0005608D02*
X0011279Y-0005692D01*
X0011029D01*
X0010987Y-0005608D01*
Y-0005275D01*
X0011029Y-0005192D01*
X0011279D01*
X0011321Y-0005275D01*
X0009983Y-0005692D02*
X0009733D01*
X0009983Y-0005192D01*
X0009733D01*
X0009158Y-0005692D02*
X0009116Y-0005608D01*
Y-0005275D01*
X0009158Y-0005192D01*
X0009408D01*
X0009450Y-0005275D01*
Y-0005608D01*
X0009408Y-0005692D01*
X0009158D01*
X0008112D02*
X0007946D01*
X0008029D02*
Y-0005192D01*
X0007946Y-0005275D01*
X0006858Y-0005525D02*
X0006525D01*
X0006692Y-0005192D01*
X0006775D01*
Y-0005692D01*
X0006158Y-0005442D02*
X0006283Y-0005692D01*
X0005950Y-0005442D02*
X0006200D01*
X0006283Y-0005358D01*
Y-0005275D01*
X0006200Y-0005192D01*
X0005950D01*
Y-0005692D01*
X0005625Y-0005442D02*
X0005375D01*
Y-0005692D02*
Y-0005192D01*
X0005708D01*
X0004371Y-0005692D02*
X0004037D01*
X0004371Y-0005358D01*
Y-0005275D01*
X0004329Y-0005192D01*
X0004079D01*
X0004037Y-0005275D01*
X0003504Y-0005442D02*
X0003754D01*
X0003796Y-0005525D01*
Y-0005608D01*
X0003754Y-0005692D01*
X0003504D01*
X0003462Y-0005608D01*
Y-0005525D01*
X0003629Y-0005192D01*
X0003012Y-0005692D02*
X0002929Y-0005608D01*
X0002887Y-0005525D01*
Y-0005358D01*
X0002929Y-0005275D01*
X0003012Y-0005192D01*
X0003096D01*
X0003179Y-0005275D01*
X0003221Y-0005358D01*
Y-0005525D01*
X0003179Y-0005608D01*
X0003096Y-0005692D01*
X0003012D01*
X0001800Y-0005442D02*
Y-0005358D01*
X0001883D01*
Y-0005442D01*
X0001800D01*
Y-0005692D02*
Y-0005608D01*
X0001883D01*
Y-0005692D01*
X0001800D01*
X0001183D02*
Y-0005192D01*
X0001141Y-0005692D02*
X0001391D01*
X0001475Y-0005608D01*
Y-0005525D01*
X0001433Y-0005442D01*
X0001183D02*
X0001433D01*
X0001475Y-0005358D01*
Y-0005275D01*
X0001391Y-0005192D01*
X0001142D01*
X0000900Y-0005608D02*
X0000858Y-0005692D01*
X0000608D01*
X0000567Y-0005608D01*
X0000566D02*
X0000567Y-0005275D01*
X0000566D02*
X0000608Y-0005192D01*
X0000858D01*
X0000900Y-0005275D01*
X-0000008Y-0005442D02*
X0000241D01*
X0000325Y-0005358D01*
Y-0005275D01*
X0000241Y-0005192D01*
X-0000008D01*
Y-0005692D01*
X0010533Y-0004692D02*
X0010783Y-0004192D01*
X0010449D01*
X0009999Y-0004692D02*
X0009916Y-0004608D01*
X0009874Y-0004525D01*
Y-0004358D01*
X0009916Y-0004275D01*
X0009999Y-0004192D01*
X0010083D01*
X0010166Y-0004275D01*
X0010208Y-0004358D01*
Y-0004525D01*
X0010166Y-0004608D01*
X0010083Y-0004692D01*
X0009999D01*
X0009633Y-0004192D02*
X0009383Y-0004692D01*
X0009100Y-0004525D02*
X0008766D01*
X0008933Y-0004192D01*
X0009016D01*
Y-0004692D01*
X0008525D02*
X0008358D01*
X0008441D02*
Y-0004192D01*
X0008358Y-0004275D01*
X0008033Y-0004192D02*
X0007783Y-0004692D01*
X0007458Y-0004442D02*
X0007208D01*
X0007167Y-0004358D01*
X0007166D02*
X0007167Y-0004275D01*
X0007166D02*
X0007208Y-0004192D01*
X0007458D01*
X0007500Y-0004275D01*
Y-0004358D01*
X0007333Y-0004692D01*
X0006716D02*
X0006633Y-0004608D01*
X0006592Y-0004525D01*
X0006591D02*
X0006592Y-0004358D01*
X0006591D02*
X0006633Y-0004275D01*
X0006717Y-0004192D01*
X0006716D02*
X0006800D01*
X0006883Y-0004275D01*
X0006925Y-0004358D01*
Y-0004525D01*
X0006883Y-0004608D01*
X0006800Y-0004692D01*
X0006717D01*
X0013824Y-0003742D02*
X0013532D01*
Y-0003242D01*
X0013291Y-0003742D02*
Y-0003242D01*
X0013207Y-0003325D01*
X0013124Y-0003492D01*
X0013041Y-0003325D01*
X0012957Y-0003242D01*
Y-0003742D01*
X0012424Y-0003575D02*
Y-0003658D01*
X0012466Y-0003742D01*
X0012632D01*
X0012674Y-0003658D01*
Y-0003242D01*
X0012716D02*
X0012549D01*
X0011253Y-0003742D02*
Y-0003242D01*
X0011420D02*
X0011087D01*
X0010845Y-0003742D02*
X0010678D01*
X0010762D02*
Y-0003242D01*
X0010845D02*
X0010678D01*
X0010062Y-0003742D02*
Y-0003242D01*
X0010020Y-0003742D02*
X0010270D01*
X0010353Y-0003575D01*
Y-0003408D01*
X0010270Y-0003242D01*
X0010020D01*
X0009695Y-0003492D02*
X0009445D01*
X0009778Y-0003742D02*
X0009445D01*
Y-0003242D01*
X0009778D01*
X0008274Y-0003742D02*
Y-0003242D01*
X0008441D02*
X0008108D01*
X0007866Y-0003325D02*
X0007824Y-0003242D01*
X0007574D01*
X0007533Y-0003325D01*
X0007532D02*
X0007533Y-0003408D01*
X0007532D02*
X0007574Y-0003492D01*
X0007824D01*
X0007866Y-0003575D01*
Y-0003658D01*
X0007824Y-0003742D01*
X0007574D01*
X0007533Y-0003658D01*
X0007291Y-0003575D02*
X0006958D01*
X0007291Y-0003742D02*
Y-0003492D01*
X0007166Y-0003242D01*
X0007083D01*
X0007082D02*
X0006958Y-0003492D01*
X0006957D02*
X0006958Y-0003742D01*
X0006716D02*
X0006424D01*
Y-0003242D01*
X0005420Y-0003742D02*
X0005129D01*
Y-0003242D01*
X0004887Y-0003742D02*
Y-0003242D01*
X0004804Y-0003325D01*
X0004720Y-0003492D01*
X0004637Y-0003325D01*
X0004554Y-0003242D01*
Y-0003742D01*
X0004020Y-0003575D02*
X0004021Y-0003658D01*
X0004020D02*
X0004062Y-0003742D01*
X0004229D01*
X0004270Y-0003658D01*
Y-0003242D01*
X0004312D02*
X0004146D01*
X0003016D02*
Y-0003742D01*
X0002933Y-0003658D01*
X0002766Y-0003325D01*
X0002683Y-0003242D01*
Y-0003742D01*
X0002275Y-0003492D02*
X0002441D01*
Y-0003658D01*
X0002400Y-0003742D01*
X0002150D01*
X0002108Y-0003658D01*
Y-0003325D01*
X0002150Y-0003242D01*
X0002400D01*
X0002441Y-0003325D01*
X0001866Y-0003742D02*
X0001700D01*
X0001783D02*
Y-0003242D01*
X0001866D02*
X0001700D01*
X0001375Y-0003325D02*
X0001333Y-0003242D01*
X0001083D01*
X0001042Y-0003325D01*
X0001041D02*
X0001042Y-0003408D01*
X0001041D02*
X0001083Y-0003492D01*
X0001333D01*
X0001375Y-0003575D01*
Y-0003658D01*
X0001333Y-0003742D01*
X0001083D01*
X0001042Y-0003658D01*
X0000716Y-0003492D02*
X0000467D01*
X0000800Y-0003742D02*
X0000467D01*
X0000466D02*
X0000467Y-0003242D01*
X0000466D02*
X0000800D01*
X-0000067Y-0003742D02*
Y-0003242D01*
X-0000108Y-0003742D02*
X0000141D01*
X0000225Y-0003575D01*
Y-0003408D01*
X0000141Y-0003242D01*
X-0000108D01*
X-0005342Y0006088D02*
X-0005258Y0006171D01*
X-0005175Y0006212D01*
Y0006213D02*
X-0005008Y0006212D01*
Y0006213D02*
X-0004925Y0006171D01*
X-0004842Y0006087D01*
Y0006088D02*
Y0006004D01*
X-0004925Y0005921D01*
X-0005008Y0005879D01*
X-0005175D01*
X-0005258Y0005921D01*
X-0005342Y0006004D01*
Y0006087D01*
X-0005092Y0006496D02*
X-0005008Y0006454D01*
X-0004925D01*
X-0004842Y0006496D01*
Y0006746D01*
X-0004925Y0006787D01*
Y0006788D02*
X-0005008Y0006787D01*
Y0006788D02*
X-0005092Y0006746D01*
Y0006496D01*
X-0005175Y0006454D01*
X-0005258D01*
X-0005342Y0006496D01*
Y0006746D01*
X-0005258Y0006787D01*
Y0006788D02*
X-0005175Y0006787D01*
Y0006788D02*
X-0005092Y0006746D01*
X-0005258Y0007363D02*
X-0005342Y0007279D01*
Y0007113D01*
X-0005258Y0007029D01*
X-0005175D01*
X-0005008Y0007196D01*
X-0004842Y0007029D01*
Y0007362D01*
X-0005342Y0007604D02*
Y0007771D01*
Y0007687D02*
X-0004842D01*
X-0004925Y0007771D01*
X-0007300Y0018150D02*
Y0019000D01*
X0019850D01*
Y-0010000D01*
X-0007300D01*
Y0018150D01*
X-0006175Y0000050D02*
X-0003925D01*
X-0005050Y0005442D02*
Y0000050D01*
X0005108Y0016850D02*
X0000000D01*
X0000562Y0016662D02*
X0000000Y0016850D01*
X0000562Y0017037D01*
X0013150Y0015725D02*
Y0017975D01*
X0008041Y0016850D02*
X0013150D01*
X0012587Y0017037D02*
X0013150Y0016850D01*
X0012587Y0016662D01*
X0000000Y0015725D02*
Y0017975D01*
X-0004862Y0000612D02*
X-0005050Y0000050D01*
X-0005237Y0000612D01*
X-0006175Y0013850D02*
X-0003925D01*
X-0005050Y0008458D02*
Y0013850D01*
X-0005237Y0013287D02*
X-0005050Y0013850D01*
X-0004862Y0013287D01*
X0000000Y0013850D02*
X0013150D01*
Y0000050D01*
X0000000D01*
Y0013850D01*
G54D31*
G01X0010370Y0003820D02*
X0009130D01*
Y0003280D01*
X0010370D01*
Y0003820D01*
Y0004520D02*
X0009130D01*
Y0003980D01*
X0010370D01*
Y0004520D01*
X0008980Y0005830D02*
X0010220D01*
Y0006370D01*
X0008980D01*
Y0005830D01*
X0010220Y0005520D02*
X0008980D01*
Y0004980D01*
X0010220D01*
Y0005520D01*
G54D33*
G01X0000400Y0001950D02*
Y0000950D01*
X0003500D01*
Y0001950D01*
X0002950D01*
X0001950D01*
X0000950D01*
X0000400D01*
X0006350Y0000950D02*
Y0001950D01*
X0004250D01*
Y0000950D01*
X0004800D01*
X0005800D01*
X0006350D01*
G54D35*
G01X0006700Y0001900D02*
Y0001000D01*
X0009000D01*
Y0001900D01*
X0006700D01*
X0009000D02*
X0006700D01*
X0009000Y0001895D02*
X0006700D01*
X0009000Y0001890D02*
X0006700D01*
X0009000Y0001885D02*
X0006700D01*
X0009000Y0001880D02*
X0006700D01*
X0009000Y0001875D02*
X0006700D01*
X0009000Y0001870D02*
X0006700D01*
X0009000Y0001865D02*
X0006700D01*
X0009000Y0001860D02*
X0006700D01*
X0009000Y0001855D02*
X0006700D01*
X0009000Y0001850D02*
X0006700D01*
X0009000Y0001845D02*
X0006700D01*
X0009000Y0001840D02*
X0006700D01*
X0009000Y0001835D02*
X0006700D01*
X0009000Y0001830D02*
X0006700D01*
X0009000Y0001825D02*
X0006700D01*
X0009000Y0001820D02*
X0006700D01*
X0009000Y0001815D02*
X0006700D01*
X0009000Y0001810D02*
X0006700D01*
X0009000Y0001805D02*
X0006700D01*
X0009000Y0001800D02*
X0006700D01*
X0009000Y0001795D02*
X0006700D01*
X0009000Y0001790D02*
X0006700D01*
X0009000Y0001785D02*
X0006700D01*
X0009000Y0001780D02*
X0006700D01*
X0009000Y0001775D02*
X0006700D01*
X0009000Y0001770D02*
X0006700D01*
X0009000Y0001765D02*
X0006700D01*
X0009000Y0001760D02*
X0006700D01*
X0009000Y0001755D02*
X0006700D01*
X0009000Y0001750D02*
X0006700D01*
X0009000Y0001745D02*
X0006700D01*
X0009000Y0001740D02*
X0006700D01*
X0009000Y0001735D02*
X0006700D01*
X0009000Y0001730D02*
X0006700D01*
X0009000Y0001725D02*
X0006700D01*
X0009000Y0001720D02*
X0006700D01*
X0009000Y0001715D02*
X0006700D01*
X0009000Y0001710D02*
X0006700D01*
X0009000Y0001705D02*
X0006700D01*
X0009000Y0001700D02*
X0006700D01*
X0009000Y0001695D02*
X0006700D01*
X0009000Y0001690D02*
X0006700D01*
X0009000Y0001685D02*
X0006700D01*
X0009000Y0001680D02*
X0006700D01*
X0009000Y0001675D02*
X0006700D01*
X0009000Y0001670D02*
X0006700D01*
X0009000Y0001665D02*
X0006700D01*
X0009000Y0001660D02*
X0006700D01*
X0009000Y0001655D02*
X0006700D01*
X0009000Y0001650D02*
X0006700D01*
X0009000Y0001645D02*
X0006700D01*
X0009000Y0001640D02*
X0006700D01*
X0009000Y0001635D02*
X0006700D01*
X0009000Y0001630D02*
X0006700D01*
X0009000Y0001625D02*
X0006700D01*
X0009000Y0001620D02*
X0006700D01*
X0009000Y0001615D02*
X0006700D01*
X0009000Y0001610D02*
X0006700D01*
X0009000Y0001605D02*
X0006700D01*
X0009000Y0001600D02*
X0006700D01*
X0009000Y0001595D02*
X0006700D01*
X0009000Y0001590D02*
X0006700D01*
X0009000Y0001585D02*
X0006700D01*
X0009000Y0001580D02*
X0006700D01*
X0009000Y0001575D02*
X0006700D01*
X0009000Y0001570D02*
X0006700D01*
X0009000Y0001565D02*
X0006700D01*
X0009000Y0001560D02*
X0006700D01*
X0009000Y0001555D02*
X0006700D01*
X0009000Y0001550D02*
X0006700D01*
X0009000Y0001545D02*
X0006700D01*
X0009000Y0001540D02*
X0006700D01*
X0009000Y0001535D02*
X0006700D01*
X0009000Y0001530D02*
X0006700D01*
X0009000Y0001525D02*
X0006700D01*
X0009000Y0001520D02*
X0006700D01*
X0009000Y0001515D02*
X0006700D01*
X0009000Y0001510D02*
X0006700D01*
X0009000Y0001505D02*
X0006700D01*
X0009000Y0001500D02*
X0006700D01*
X0009000Y0001495D02*
X0006700D01*
X0009000Y0001490D02*
X0006700D01*
X0009000Y0001485D02*
X0006700D01*
X0009000Y0001480D02*
X0006700D01*
X0009000Y0001475D02*
X0006700D01*
X0009000Y0001470D02*
X0006700D01*
X0009000Y0001465D02*
X0006700D01*
X0009000Y0001460D02*
X0006700D01*
X0009000Y0001455D02*
X0006700D01*
X0009000Y0001450D02*
X0006700D01*
X0009000Y0001445D02*
X0006700D01*
X0009000Y0001440D02*
X0006700D01*
X0009000Y0001435D02*
X0006700D01*
X0009000Y0001430D02*
X0006700D01*
X0009000Y0001425D02*
X0006700D01*
X0009000Y0001420D02*
X0006700D01*
X0009000Y0001415D02*
X0006700D01*
X0009000Y0001410D02*
X0006700D01*
X0009000Y0001405D02*
X0006700D01*
X0009000Y0001400D02*
X0006700D01*
X0009000Y0001395D02*
X0006700D01*
X0009000Y0001390D02*
X0006700D01*
X0009000Y0001385D02*
X0006700D01*
X0009000Y0001380D02*
X0006700D01*
X0009000Y0001375D02*
X0006700D01*
X0009000Y0001370D02*
X0006700D01*
X0009000Y0001365D02*
X0006700D01*
X0009000Y0001360D02*
X0006700D01*
X0009000Y0001355D02*
X0006700D01*
X0009000Y0001350D02*
X0006700D01*
X0009000Y0001345D02*
X0006700D01*
X0009000Y0001340D02*
X0006700D01*
X0009000Y0001335D02*
X0006700D01*
X0009000Y0001330D02*
X0006700D01*
X0009000Y0001325D02*
X0006700D01*
X0009000Y0001320D02*
X0006700D01*
X0009000Y0001315D02*
X0006700D01*
X0009000Y0001310D02*
X0006700D01*
X0009000Y0001305D02*
X0006700D01*
X0009000Y0001300D02*
X0006700D01*
X0009000Y0001295D02*
X0006700D01*
X0009000Y0001290D02*
X0006700D01*
X0009000Y0001285D02*
X0006700D01*
X0009000Y0001280D02*
X0006700D01*
X0009000Y0001275D02*
X0006700D01*
X0009000Y0001270D02*
X0006700D01*
X0009000Y0001265D02*
X0006700D01*
X0009000Y0001260D02*
X0006700D01*
X0009000Y0001255D02*
X0006700D01*
X0009000Y0001250D02*
X0006700D01*
X0009000Y0001245D02*
X0006700D01*
X0009000Y0001240D02*
X0006700D01*
X0009000Y0001235D02*
X0006700D01*
X0009000Y0001230D02*
X0006700D01*
X0009000Y0001225D02*
X0006700D01*
X0009000Y0001220D02*
X0006700D01*
X0009000Y0001215D02*
X0006700D01*
X0009000Y0001210D02*
X0006700D01*
X0009000Y0001205D02*
X0006700D01*
X0009000Y0001200D02*
X0006700D01*
X0009000Y0001195D02*
X0006700D01*
X0009000Y0001190D02*
X0006700D01*
X0009000Y0001185D02*
X0006700D01*
X0009000Y0001180D02*
X0006700D01*
X0009000Y0001175D02*
X0006700D01*
X0009000Y0001170D02*
X0006700D01*
X0009000Y0001165D02*
X0006700D01*
X0009000Y0001160D02*
X0006700D01*
X0009000Y0001155D02*
X0006700D01*
X0009000Y0001150D02*
X0006700D01*
X0009000Y0001145D02*
X0006700D01*
X0009000Y0001140D02*
X0006700D01*
X0009000Y0001135D02*
X0006700D01*
X0009000Y0001130D02*
X0006700D01*
X0009000Y0001125D02*
X0006700D01*
X0009000Y0001120D02*
X0006700D01*
X0009000Y0001115D02*
X0006700D01*
X0009000Y0001110D02*
X0006700D01*
X0009000Y0001105D02*
X0006700D01*
X0009000Y0001100D02*
X0006700D01*
X0009000Y0001095D02*
X0006700D01*
X0009000Y0001090D02*
X0006700D01*
X0009000Y0001085D02*
X0006700D01*
X0009000Y0001080D02*
X0006700D01*
X0009000Y0001075D02*
X0006700D01*
X0009000Y0001070D02*
X0006700D01*
X0009000Y0001065D02*
X0006700D01*
X0009000Y0001060D02*
X0006700D01*
X0009000Y0001055D02*
X0006700D01*
X0009000Y0001050D02*
X0006700D01*
X0009000Y0001045D02*
X0006700D01*
X0009000Y0001040D02*
X0006700D01*
X0009000Y0001035D02*
X0006700D01*
X0009000Y0001030D02*
X0006700D01*
X0009000Y0001025D02*
X0006700D01*
X0009000Y0001020D02*
X0006700D01*
X0009000Y0001015D02*
X0006700D01*
X0009000Y0001010D02*
X0006700D01*
X0009000Y0001005D02*
X0006700D01*
X0009000Y0001000D02*
X0006700D01*
X0010300Y0001900D02*
Y0001000D01*
X0012600D01*
Y0001900D01*
X0010300D01*
X0012600D02*
X0010300D01*
X0012600Y0001895D02*
X0010300D01*
X0012600Y0001890D02*
X0010300D01*
X0012600Y0001885D02*
X0010300D01*
X0012600Y0001880D02*
X0010300D01*
X0012600Y0001875D02*
X0010300D01*
X0012600Y0001870D02*
X0010300D01*
X0012600Y0001865D02*
X0010300D01*
X0012600Y0001860D02*
X0010300D01*
X0012600Y0001855D02*
X0010300D01*
X0012600Y0001850D02*
X0010300D01*
X0012600Y0001845D02*
X0010300D01*
X0012600Y0001840D02*
X0010300D01*
X0012600Y0001835D02*
X0010300D01*
X0012600Y0001830D02*
X0010300D01*
X0012600Y0001825D02*
X0010300D01*
X0012600Y0001820D02*
X0010300D01*
X0012600Y0001815D02*
X0010300D01*
X0012600Y0001810D02*
X0010300D01*
X0012600Y0001805D02*
X0010300D01*
X0012600Y0001800D02*
X0010300D01*
X0012600Y0001795D02*
X0010300D01*
X0012600Y0001790D02*
X0010300D01*
X0012600Y0001785D02*
X0010300D01*
X0012600Y0001780D02*
X0010300D01*
X0012600Y0001775D02*
X0010300D01*
X0012600Y0001770D02*
X0010300D01*
X0012600Y0001765D02*
X0010300D01*
X0012600Y0001760D02*
X0010300D01*
X0012600Y0001755D02*
X0010300D01*
X0012600Y0001750D02*
X0010300D01*
X0012600Y0001745D02*
X0010300D01*
X0012600Y0001740D02*
X0010300D01*
X0012600Y0001735D02*
X0010300D01*
X0012600Y0001730D02*
X0010300D01*
X0012600Y0001725D02*
X0010300D01*
X0012600Y0001720D02*
X0010300D01*
X0012600Y0001715D02*
X0010300D01*
X0012600Y0001710D02*
X0010300D01*
X0012600Y0001705D02*
X0010300D01*
X0012600Y0001700D02*
X0010300D01*
X0012600Y0001695D02*
X0010300D01*
X0012600Y0001690D02*
X0010300D01*
X0012600Y0001685D02*
X0010300D01*
X0012600Y0001680D02*
X0010300D01*
X0012600Y0001675D02*
X0010300D01*
X0012600Y0001670D02*
X0010300D01*
X0012600Y0001665D02*
X0010300D01*
X0012600Y0001660D02*
X0010300D01*
X0012600Y0001655D02*
X0010300D01*
X0012600Y0001650D02*
X0010300D01*
X0012600Y0001645D02*
X0010300D01*
X0012600Y0001640D02*
X0010300D01*
X0012600Y0001635D02*
X0010300D01*
X0012600Y0001630D02*
X0010300D01*
X0012600Y0001625D02*
X0010300D01*
X0012600Y0001620D02*
X0010300D01*
X0012600Y0001615D02*
X0010300D01*
X0012600Y0001610D02*
X0010300D01*
X0012600Y0001605D02*
X0010300D01*
X0012600Y0001600D02*
X0010300D01*
X0012600Y0001595D02*
X0010300D01*
X0012600Y0001590D02*
X0010300D01*
X0012600Y0001585D02*
X0010300D01*
X0012600Y0001580D02*
X0010300D01*
X0012600Y0001575D02*
X0010300D01*
X0012600Y0001570D02*
X0010300D01*
X0012600Y0001565D02*
X0010300D01*
X0012600Y0001560D02*
X0010300D01*
X0012600Y0001555D02*
X0010300D01*
X0012600Y0001550D02*
X0010300D01*
X0012600Y0001545D02*
X0010300D01*
X0012600Y0001540D02*
X0010300D01*
X0012600Y0001535D02*
X0010300D01*
X0012600Y0001530D02*
X0010300D01*
X0012600Y0001525D02*
X0010300D01*
X0012600Y0001520D02*
X0010300D01*
X0012600Y0001515D02*
X0010300D01*
X0012600Y0001510D02*
X0010300D01*
X0012600Y0001505D02*
X0010300D01*
X0012600Y0001500D02*
X0010300D01*
X0012600Y0001495D02*
X0010300D01*
X0012600Y0001490D02*
X0010300D01*
X0012600Y0001485D02*
X0010300D01*
X0012600Y0001480D02*
X0010300D01*
X0012600Y0001475D02*
X0010300D01*
X0012600Y0001470D02*
X0010300D01*
X0012600Y0001465D02*
X0010300D01*
X0012600Y0001460D02*
X0010300D01*
X0012600Y0001455D02*
X0010300D01*
X0012600Y0001450D02*
X0010300D01*
X0012600Y0001445D02*
X0010300D01*
X0012600Y0001440D02*
X0010300D01*
X0012600Y0001435D02*
X0010300D01*
X0012600Y0001430D02*
X0010300D01*
X0012600Y0001425D02*
X0010300D01*
X0012600Y0001420D02*
X0010300D01*
X0012600Y0001415D02*
X0010300D01*
X0012600Y0001410D02*
X0010300D01*
X0012600Y0001405D02*
X0010300D01*
X0012600Y0001400D02*
X0010300D01*
X0012600Y0001395D02*
X0010300D01*
X0012600Y0001390D02*
X0010300D01*
X0012600Y0001385D02*
X0010300D01*
X0012600Y0001380D02*
X0010300D01*
X0012600Y0001375D02*
X0010300D01*
X0012600Y0001370D02*
X0010300D01*
X0012600Y0001365D02*
X0010300D01*
X0012600Y0001360D02*
X0010300D01*
X0012600Y0001355D02*
X0010300D01*
X0012600Y0001350D02*
X0010300D01*
X0012600Y0001345D02*
X0010300D01*
X0012600Y0001340D02*
X0010300D01*
X0012600Y0001335D02*
X0010300D01*
X0012600Y0001330D02*
X0010300D01*
X0012600Y0001325D02*
X0010300D01*
X0012600Y0001320D02*
X0010300D01*
X0012600Y0001315D02*
X0010300D01*
X0012600Y0001310D02*
X0010300D01*
X0012600Y0001305D02*
X0010300D01*
X0012600Y0001300D02*
X0010300D01*
X0012600Y0001295D02*
X0010300D01*
X0012600Y0001290D02*
X0010300D01*
X0012600Y0001285D02*
X0010300D01*
X0012600Y0001280D02*
X0010300D01*
X0012600Y0001275D02*
X0010300D01*
X0012600Y0001270D02*
X0010300D01*
X0012600Y0001265D02*
X0010300D01*
X0012600Y0001260D02*
X0010300D01*
X0012600Y0001255D02*
X0010300D01*
X0012600Y0001250D02*
X0010300D01*
X0012600Y0001245D02*
X0010300D01*
X0012600Y0001240D02*
X0010300D01*
X0012600Y0001235D02*
X0010300D01*
X0012600Y0001230D02*
X0010300D01*
X0012600Y0001225D02*
X0010300D01*
X0012600Y0001220D02*
X0010300D01*
X0012600Y0001215D02*
X0010300D01*
X0012600Y0001210D02*
X0010300D01*
X0012600Y0001205D02*
X0010300D01*
X0012600Y0001200D02*
X0010300D01*
X0012600Y0001195D02*
X0010300D01*
X0012600Y0001190D02*
X0010300D01*
X0012600Y0001185D02*
X0010300D01*
X0012600Y0001180D02*
X0010300D01*
X0012600Y0001175D02*
X0010300D01*
X0012600Y0001170D02*
X0010300D01*
X0012600Y0001165D02*
X0010300D01*
X0012600Y0001160D02*
X0010300D01*
X0012600Y0001155D02*
X0010300D01*
X0012600Y0001150D02*
X0010300D01*
X0012600Y0001145D02*
X0010300D01*
X0012600Y0001140D02*
X0010300D01*
X0012600Y0001135D02*
X0010300D01*
X0012600Y0001130D02*
X0010300D01*
X0012600Y0001125D02*
X0010300D01*
X0012600Y0001120D02*
X0010300D01*
X0012600Y0001115D02*
X0010300D01*
X0012600Y0001110D02*
X0010300D01*
X0012600Y0001105D02*
X0010300D01*
X0012600Y0001100D02*
X0010300D01*
X0012600Y0001095D02*
X0010300D01*
X0012600Y0001090D02*
X0010300D01*
X0012600Y0001085D02*
X0010300D01*
X0012600Y0001080D02*
X0010300D01*
X0012600Y0001075D02*
X0010300D01*
X0012600Y0001070D02*
X0010300D01*
X0012600Y0001065D02*
X0010300D01*
X0012600Y0001060D02*
X0010300D01*
X0012600Y0001055D02*
X0010300D01*
X0012600Y0001050D02*
X0010300D01*
X0012600Y0001045D02*
X0010300D01*
X0012600Y0001040D02*
X0010300D01*
X0012600Y0001035D02*
X0010300D01*
X0012600Y0001030D02*
X0010300D01*
X0012600Y0001025D02*
X0010300D01*
X0012600Y0001020D02*
X0010300D01*
X0012600Y0001015D02*
X0010300D01*
X0012600Y0001010D02*
X0010300D01*
X0012600Y0001005D02*
X0010300D01*
X0012600Y0001000D02*
X0010300D01*
X0008150Y0002200D02*
X0011150D01*
X0008150Y0000700D02*
X0011150D01*
G01X0007400Y0001450D02*
G03X0008150Y0000700I0000750J0000000D01*
Y0002200D02*
G03X0007400Y0001450I0000000J0000750D01*
G01X0011900D02*
G03X0011150Y0002200I0000750J0000000D01*
Y0000700D02*
G03X0011900Y0001450I0000000J0000750D01*
G54D10*
X0009250Y0005250D03*
X0009950D03*
Y0006100D03*
X0009250D03*
X0009400Y0003550D03*
X0010100D03*
X0009400Y0004250D03*
X0010100D03*
G54D11*
X0008350Y0006100D03*
X0007700D03*
X0000950Y0003350D03*
Y0002700D03*
X0011550Y0007150D03*
Y0007800D03*
X0007050Y0002850D03*
X0007700D03*
Y0003700D03*
X0007050D03*
X0011850Y0002750D03*
X0011200D03*
X0011550Y0005250D03*
X0012200D03*
X0012400Y0007800D03*
Y0007150D03*
X0011550Y0006250D03*
X0012200D03*
X0010900Y0005250D03*
Y0005900D03*
X0010100Y0002750D03*
X0009450D03*
G54D12*
X0005800Y0001450D03*
X0001950D03*
X0000950D03*
G54D13*
X0004800D03*
X0002950D03*
G54D38*
X0011530Y0004550D03*
X0011150D03*
X0010770D03*
Y0003550D03*
X0011530D03*
X0011150D03*
G54D43*
X0010800Y0007250D03*
Y0007810D03*
M02*
