*
G04 Mass Parameters ***
*
G04 Image ***
*
%INTX113-1C.BOT*%
%ICAS*%
%MOIN*%
%IPPOS*%
%ASAXBY*%
G74*%FSLAN2X34Y34*%
*
G04 Aperture Definitions ***
*
%ADD10R,0.0500X0.0500*%
%ADD11R,0.0350X0.0350*%
%ADD12C,0.0620*%
%ADD13R,0.0620X0.0620*%
%ADD14C,0.0300*%
%ADD15C,0.0120*%
%ADD16R,0.0120X0.0600*%
%ADD17C,0.0800*%
%ADD18C,0.0200*%
%ADD19C,0.0300*%
%ADD20C,0.0350*%
%ADD21C,0.0150*%
%ADD22C,0.0100*%
%ADD23C,0.0820*%
%ADD24R,0.0820X0.0820*%
%ADD25R,0.0540X0.0540*%
%ADD26R,0.0390X0.0390*%
%ADD27C,0.0140*%
%ADD28R,0.0140X0.0700*%
%ADD29C,0.0720*%
%ADD30C,0.0070*%
%ADD31C,0.0030*%
%ADD32C,0.0060*%
%ADD33C,0.0080*%
%ADD34C,0.0050*%
%ADD35C,0.0010*%
%ADD36R,0.0120X0.0400*%
%ADD37C,0.0250*%
%ADD38R,0.0220X0.0400*%
%ADD39C,0.0600*%
%ADD40C,0.0700*%
%ADD41R,0.0270X0.0400*%
%ADD42C,0.0240*%
%ADD43R,0.0380X0.0320*%
*
G04 Plot Data ***
*
G54D18*
G01X0008900Y0004250D02*
X0007850Y0004400D01*
Y0003700D01*
X0006650D01*
X0012250Y0002750D02*
X0010950D01*
Y0004050D01*
X0008900Y0003550D02*
X0008050D01*
Y0003700D01*
X0006600D01*
X0006650D01*
X0008900Y0003550D02*
X0008450D01*
Y0002750D01*
X0009100D01*
X0000800Y0008450D02*
Y0006000D01*
X0001950D01*
Y0001450D01*
X0009950Y0006600D02*
X0010750D01*
Y0006250D01*
X0012550D01*
X0012400Y0006800D02*
X0010750D01*
Y0006600D01*
X0009950D01*
X0012550Y0005250D02*
X0008850D01*
Y0006600D01*
X0009950D01*
X0011400Y0004050D02*
X0012200D01*
X0012550D01*
Y0005250D01*
X0006650Y0003700D02*
X0005750D01*
Y0006700D01*
X0008350D01*
Y0006600D01*
X0009950D01*
X0006650Y0003700D02*
X0005250D01*
Y0003650D01*
X0001950D01*
Y0003800D01*
X0000950D01*
X0001950Y0001450D02*
Y0003650D01*
Y0003800D01*
X0000950D01*
X0005800Y0001450D02*
Y0001500D01*
Y0002600D01*
X0001950D01*
Y0001450D01*
G54D19*
G01X0005510Y0001740D02*
X0005800Y0001450D01*
X0006090Y0001160D02*
X0005800Y0001450D01*
X0005510Y0001160D02*
X0005800Y0001450D01*
X0006090Y0001740D02*
X0005800Y0001450D01*
X0002240Y0001160D02*
X0001950Y0001450D01*
X0001660Y0001740D02*
X0001950Y0001450D01*
X0002240Y0001740D02*
X0001950Y0001450D01*
X0001660Y0001160D02*
X0001950Y0001450D01*
G54D22*
G01X0013971Y-0001342D02*
X0014096Y-0001592D01*
X0013762Y-0001342D02*
X0014012D01*
X0014096Y-0001258D01*
Y-0001175D01*
X0014012Y-0001092D01*
X0013762D01*
Y-0001592D01*
X0013437Y-0001342D02*
X0013187D01*
X0013521Y-0001592D02*
X0013187D01*
Y-0001092D01*
X0013521D01*
X0012779Y-0001592D02*
Y-0001342D01*
X0012946Y-0001092D02*
X0012821Y-0001342D01*
X0012737D01*
X0012612Y-0001092D01*
X0012371Y-0001425D02*
X0012037D01*
X0012371Y-0001592D02*
Y-0001342D01*
X0012246Y-0001092D01*
X0012162D01*
X0012037Y-0001342D01*
Y-0001592D01*
X0011796D02*
X0011504D01*
Y-0001092D01*
X0010500Y-0001592D02*
Y-0001092D01*
X0010416Y-0001175D01*
X0010333Y-0001342D01*
X0010250Y-0001175D01*
X0010167Y-0001092D01*
X0010166D02*
X0010167Y-0001592D01*
X0009633D02*
X0009592Y-0001508D01*
X0009591D02*
X0009592Y-0001175D01*
X0009591D02*
X0009633Y-0001092D01*
X0009883D01*
X0009925Y-0001175D01*
Y-0001508D01*
X0009883Y-0001592D01*
X0009633D01*
X0009183D02*
Y-0001092D01*
X0009350D02*
X0009017D01*
X0008608Y-0001592D02*
Y-0001092D01*
X0008775D02*
X0008442D01*
X0007908Y-0001592D02*
X0007867Y-0001508D01*
X0007866D02*
X0007867Y-0001175D01*
X0007866D02*
X0007908Y-0001092D01*
X0008158D01*
X0008200Y-0001175D01*
Y-0001508D01*
X0008158Y-0001592D01*
X0007908D01*
X0007333D02*
Y-0001092D01*
X0007291Y-0001592D02*
X0007541D01*
X0007625Y-0001508D01*
Y-0001425D01*
X0007583Y-0001342D01*
X0007333D02*
X0007583D01*
X0007625Y-0001258D01*
Y-0001175D01*
X0007541Y-0001092D01*
X0007292D01*
X0012900Y0008040D02*
X0008081D01*
X0012900Y0007950D02*
X0007978D01*
X0012900Y0007860D02*
X0007876D01*
X0012900Y0007770D02*
X0007773D01*
X0012900Y0007680D02*
X0007750D01*
X0012900Y0007590D02*
X0007750D01*
X0012900Y0007500D02*
X0007750D01*
X0012900Y0007410D02*
X0007750D01*
X0012900Y0007320D02*
X0007750D01*
X0000250Y0008700D02*
Y0000650D01*
Y0000300D01*
X0012900Y0004530D02*
X0000250D01*
X0012900Y0001920D02*
X0010820D01*
X0012900Y0001830D02*
X0010975D01*
X0012900Y0001740D02*
X0011057D01*
X0012900Y0001650D02*
X0011108D01*
X0012900Y0001560D02*
X0011138D01*
X0012900Y0001470D02*
X0011149D01*
X0012900Y0001380D02*
X0011145D01*
X0012900Y0001290D02*
X0011124D01*
X0012900Y0001200D02*
X0011083D01*
X0012900Y0001110D02*
X0011016D01*
X0012900Y0001020D02*
X0010905D01*
X0011140Y0001350D02*
Y0000300D01*
X0011050Y0001150D02*
Y0000300D01*
X0010960Y0001058D02*
Y0000300D01*
X0010870Y0001001D02*
Y0000300D01*
X0010780Y0000967D02*
Y0000300D01*
X0010690Y0000951D02*
Y0000300D01*
X0010600Y0000952D02*
Y0000300D01*
X0010510Y0000970D02*
Y0000300D01*
X0010420Y0001006D02*
Y0000300D01*
X0010330Y0001066D02*
Y0000300D01*
X0010479Y0001920D02*
X0008820D01*
X0010325Y0001830D02*
X0008975D01*
X0010243Y0001740D02*
X0009057D01*
X0010192Y0001650D02*
X0009108D01*
X0010162Y0001560D02*
X0009138D01*
X0010150Y0001470D02*
X0009149D01*
X0010155Y0001380D02*
X0009145D01*
X0010176Y0001290D02*
X0009124D01*
X0010217Y0001200D02*
X0009083D01*
X0010283Y0001110D02*
X0009016D01*
X0009790Y0008100D02*
Y0000300D01*
X0009070Y0001179D02*
Y0000300D01*
X0008980Y0001074D02*
Y0000300D01*
X0008890Y0001011D02*
Y0000300D01*
X0008800Y0000973D02*
Y0000300D01*
X0008710Y0000953D02*
Y0000300D01*
X0008620Y0000951D02*
Y0000300D01*
X0008530Y0000964D02*
Y0000300D01*
X0008440Y0000996D02*
Y0000300D01*
X0008350Y0001050D02*
Y0000300D01*
X0008260Y0001137D02*
Y0000300D01*
X0010240Y0008100D02*
Y0001736D01*
X0008479Y0001920D02*
X0005998D01*
X0008325Y0001830D02*
X0006140D01*
X0008243Y0001740D02*
X0006219D01*
X0008155Y0001380D02*
X0006305D01*
X0008176Y0001290D02*
X0006284D01*
X0008217Y0001200D02*
X0006244D01*
X0008283Y0001110D02*
X0006180D01*
X0005310Y0001960D02*
Y0001591D01*
X0012900Y0002460D02*
X0000250D01*
X0006280Y0001277D02*
Y0000300D01*
X0006190Y0001121D02*
Y0000300D01*
X0006100Y0001037D02*
Y0000300D01*
X0006010Y0000985D02*
Y0000300D01*
X0004840Y0000940D02*
Y0000300D01*
X0005830Y0000941D02*
Y0000300D01*
X0005740Y0000943D02*
Y0000300D01*
X0005650Y0000962D02*
Y0000300D01*
X0005560Y0001000D02*
Y0000300D01*
X0005470Y0001061D02*
Y0000300D01*
X0008170Y0008100D02*
Y0001590D01*
X0005602Y0001920D02*
X0005310D01*
X0005460Y0001830D02*
X0005310D01*
X0005380Y0001740D02*
X0005310D01*
X0005331Y0001650D02*
X0005310D01*
X0008192D02*
X0006269D01*
X0008162Y0001560D02*
X0006298D01*
X0008150Y0001470D02*
X0006309D01*
X0005316Y0001290D02*
X0005310D01*
X0005355Y0001200D02*
X0005310D01*
X0005420Y0001110D02*
X0005310D01*
X0005920Y0000954D02*
Y0000300D01*
X0005290Y0000940D02*
Y0000300D01*
X0005200Y0000940D02*
Y0000300D01*
X0005110Y0000940D02*
Y0000300D01*
X0005020Y0000940D02*
Y0000300D01*
X0004930Y0000940D02*
Y0000300D01*
X0005380Y0001161D02*
Y0000300D01*
X0004750Y0000940D02*
Y0000300D01*
X0004660Y0000940D02*
Y0000300D01*
X0004570Y0000940D02*
Y0000300D01*
X0004480Y0000940D02*
Y0000300D01*
X0004390Y0000940D02*
Y0000300D01*
X0001752Y0001920D02*
X0001148D01*
X0001610Y0001830D02*
X0001290D01*
X0001530Y0001740D02*
X0001369D01*
X0000530D02*
X0000250D01*
X0001420Y0001252D02*
Y0000300D01*
X0001330Y0001110D02*
Y0000300D01*
X0001240Y0001030D02*
Y0000300D01*
X0001150Y0000981D02*
Y0000300D01*
X0001060Y0000952D02*
Y0000300D01*
X0002950Y0007200D02*
Y0001960D01*
X0000880Y0000945D02*
Y0000300D01*
X0000790Y0000966D02*
Y0000300D01*
X0000700Y0001005D02*
Y0000300D01*
X0000610Y0001070D02*
Y0000300D01*
X0001481Y0001650D02*
X0001419D01*
X0001466Y0001290D02*
X0001434D01*
X0001505Y0001200D02*
X0001394D01*
X0001570Y0001110D02*
X0001330D01*
X0001676Y0001020D02*
X0001224D01*
X0002440Y0001960D02*
Y0001591D01*
X0000970Y0007200D02*
Y0001959D01*
X0002410Y0001230D02*
Y0000300D01*
X0002320Y0001099D02*
Y0000300D01*
X0002230Y0001024D02*
Y0000300D01*
X0002140Y0000977D02*
Y0000300D01*
X0002050Y0000950D02*
Y0000300D01*
X0001960Y0000940D02*
Y0000300D01*
X0001870Y0000946D02*
Y0000300D01*
X0001780Y0000969D02*
Y0000300D01*
X0002500Y0000940D02*
Y0000300D01*
X0001600Y0001079D02*
Y0000300D01*
X0002440Y0001920D02*
X0002148D01*
X0002440Y0001830D02*
X0002290D01*
X0002440Y0001740D02*
X0002369D01*
X0002440Y0001650D02*
X0002419D01*
X0002440Y0001200D02*
X0002394D01*
X0002440Y0001110D02*
X0002330D01*
X0002440Y0001020D02*
X0002224D01*
X0001780Y0007200D02*
Y0001931D01*
X0003400Y0000940D02*
Y0000300D01*
X0003310Y0000940D02*
Y0000300D01*
X0003220Y0000940D02*
Y0000300D01*
X0003130Y0000940D02*
Y0000300D01*
X0003040Y0000940D02*
Y0000300D01*
X0002950Y0000940D02*
Y0000300D01*
X0002860Y0000940D02*
Y0000300D01*
X0002770Y0000940D02*
Y0000300D01*
X0002680Y0000940D02*
Y0000300D01*
X0002590Y0000940D02*
Y0000300D01*
X0005380Y0007200D02*
Y0001739D01*
X0004290Y0001920D02*
X0003460D01*
X0004290Y0001830D02*
X0003460D01*
X0004290Y0001740D02*
X0003460D01*
X0004290Y0001650D02*
X0003460D01*
X0004290Y0001560D02*
X0003460D01*
X0004290Y0001470D02*
X0003460D01*
X0004290Y0001380D02*
X0003460D01*
X0004290Y0001290D02*
X0003460D01*
X0004290Y0001200D02*
X0003460D01*
X0004290Y0001110D02*
X0003460D01*
X0000466Y0001290D02*
X0000250D01*
X0000340Y0008700D02*
Y0000300D01*
X0010690Y0008100D02*
Y0001948D01*
X0004290Y0001020D02*
X0003460D01*
X0005310Y0001960D02*
X0004290D01*
Y0000940D01*
X0005310D02*
X0004290D01*
X0005526Y0001020D02*
X0005310D01*
X0000570Y0001110D02*
X0000250D01*
X0004300Y0007200D02*
Y0001960D01*
X0000505Y0001200D02*
X0000250D01*
X0003460Y0001960D02*
X0002440D01*
X0003460Y0000940D02*
X0002440D01*
X0003460Y0001960D02*
Y0000940D01*
X0000250Y0000650D02*
Y0000300D01*
X0012900D02*
X0000250D01*
X0012900Y0008100D02*
Y0000300D01*
Y0008100D02*
X0008150D01*
X0007750Y0007750D01*
Y0007200D01*
X0000950D01*
Y0008700D02*
Y0007200D01*
Y0008700D02*
X0000250D01*
Y0000650D01*
X0012900Y0007230D02*
X0007750D01*
X0012850Y0008100D02*
Y0000300D01*
X0012760Y0008100D02*
Y0000300D01*
X0012670Y0008100D02*
Y0000300D01*
X0012580Y0008100D02*
Y0000300D01*
X0012490Y0008100D02*
Y0000300D01*
X0012400Y0008100D02*
Y0000300D01*
X0012310Y0008100D02*
Y0000300D01*
X0012220Y0008100D02*
Y0000300D01*
X0012130Y0008100D02*
Y0000300D01*
X0012040Y0008100D02*
Y0000300D01*
X0011950Y0008100D02*
Y0000300D01*
X0011860Y0008100D02*
Y0000300D01*
X0011770Y0008100D02*
Y0000300D01*
X0011680Y0008100D02*
Y0000300D01*
X0011590Y0008100D02*
Y0000300D01*
X0011500Y0008100D02*
Y0000300D01*
X0011410Y0008100D02*
Y0000300D01*
X0011320Y0008100D02*
Y0000300D01*
X0010395Y0001020D02*
X0008905D01*
X0011140Y0008100D02*
Y0001549D01*
X0011050Y0008100D02*
Y0001750D01*
X0010960Y0008100D02*
Y0001842D01*
X0010870Y0008100D02*
Y0001899D01*
X0010780Y0008100D02*
Y0001933D01*
X0011230Y0008100D02*
Y0000300D01*
X0010600Y0008100D02*
Y0001947D01*
X0010510Y0008100D02*
Y0001930D01*
X0010420Y0008100D02*
Y0001894D01*
X0010330Y0008100D02*
Y0001834D01*
X0010240Y0001164D02*
Y0000300D01*
X0010150Y0008100D02*
Y0000300D01*
X0010060Y0008100D02*
Y0000300D01*
X0009970Y0008100D02*
Y0000300D01*
X0009880Y0008100D02*
Y0000300D01*
X0008620Y0008100D02*
Y0001949D01*
X0009700Y0008100D02*
Y0000300D01*
X0009610Y0008100D02*
Y0000300D01*
X0009520Y0008100D02*
Y0000300D01*
X0009430Y0008100D02*
Y0000300D01*
X0009340Y0008100D02*
Y0000300D01*
X0009250Y0008100D02*
Y0000300D01*
X0008395Y0001020D02*
X0006074D01*
X0009070Y0008100D02*
Y0001721D01*
X0008980Y0008100D02*
Y0001825D01*
X0008890Y0008100D02*
Y0001888D01*
X0008800Y0008100D02*
Y0001927D01*
X0008710Y0008100D02*
Y0001946D01*
X0009160Y0008100D02*
Y0000300D01*
X0008530Y0008100D02*
Y0001935D01*
X0008440Y0008100D02*
Y0001904D01*
X0008350Y0008100D02*
Y0001850D01*
X0008260Y0008100D02*
Y0001763D01*
X0008170Y0001310D02*
Y0000300D01*
X0008080Y0008039D02*
Y0000300D01*
X0007990Y0007960D02*
Y0000300D01*
X0007900Y0007881D02*
Y0000300D01*
X0007810Y0007802D02*
Y0000300D01*
X0007720Y0007200D02*
Y0000300D01*
X0007630Y0007200D02*
Y0000300D01*
X0007540Y0007200D02*
Y0000300D01*
X0007450Y0007200D02*
Y0000300D01*
X0007360Y0007200D02*
Y0000300D01*
X0007270Y0007200D02*
Y0000300D01*
X0007180Y0007200D02*
Y0000300D01*
X0007090Y0007200D02*
Y0000300D01*
X0007000Y0007200D02*
Y0000300D01*
X0006910Y0007200D02*
Y0000300D01*
X0006820Y0007200D02*
Y0000300D01*
X0006730Y0007200D02*
Y0000300D01*
X0005830Y0007200D02*
Y0001959D01*
X0006550Y0007200D02*
Y0000300D01*
X0006460Y0007200D02*
Y0000300D01*
X0005310Y0001308D02*
Y0000940D01*
X0006280Y0007200D02*
Y0001622D01*
X0006190Y0007200D02*
Y0001778D01*
X0006100Y0007200D02*
Y0001862D01*
X0006010Y0007200D02*
Y0001915D01*
X0005920Y0007200D02*
Y0001946D01*
X0006370Y0007200D02*
Y0000300D01*
X0005740Y0007200D02*
Y0001956D01*
X0005650Y0007200D02*
Y0001937D01*
X0005560Y0007200D02*
Y0001900D01*
X0005470Y0007200D02*
Y0001839D01*
X0005290Y0007200D02*
Y0001960D01*
X0005200Y0007200D02*
Y0001960D01*
X0005110Y0007200D02*
Y0001960D01*
X0005020Y0007200D02*
Y0001960D01*
X0004930Y0007200D02*
Y0001960D01*
X0004840Y0007200D02*
Y0001960D01*
X0004750Y0007200D02*
Y0001960D01*
X0004660Y0007200D02*
Y0001960D01*
X0004570Y0007200D02*
Y0001960D01*
X0004480Y0007200D02*
Y0001960D01*
X0004390Y0007200D02*
Y0001960D01*
X0004300Y0000940D02*
Y0000300D01*
X0004210Y0007200D02*
Y0000300D01*
X0004120Y0007200D02*
Y0000300D01*
X0004030Y0007200D02*
Y0000300D01*
X0003940Y0007200D02*
Y0000300D01*
X0003850Y0007200D02*
Y0000300D01*
X0003760Y0007200D02*
Y0000300D01*
X0003670Y0007200D02*
Y0000300D01*
X0003580Y0007200D02*
Y0000300D01*
X0003400Y0007200D02*
Y0001960D01*
X0003310Y0007200D02*
Y0001960D01*
X0003220Y0007200D02*
Y0001960D01*
X0003130Y0007200D02*
Y0001960D01*
X0000970Y0000940D02*
Y0000300D01*
X0001690Y0001011D02*
Y0000300D01*
X0002860Y0007200D02*
Y0001960D01*
X0002770Y0007200D02*
Y0001960D01*
X0002680Y0007200D02*
Y0001960D01*
X0002590Y0007200D02*
Y0001960D01*
X0002440Y0001308D02*
Y0000940D01*
X0002410Y0007200D02*
Y0001670D01*
X0002320Y0007200D02*
Y0001801D01*
X0002230Y0007200D02*
Y0001876D01*
X0002140Y0007200D02*
Y0001923D01*
X0002050Y0007200D02*
Y0001950D01*
X0001960Y0007200D02*
Y0001960D01*
X0001870Y0007200D02*
Y0001954D01*
X0003040Y0007200D02*
Y0001960D01*
X0000880Y0008700D02*
Y0001955D01*
X0001600Y0007200D02*
Y0001821D01*
X0000610Y0001830D02*
X0000250D01*
X0001420Y0007200D02*
Y0001648D01*
X0001330Y0007200D02*
Y0001790D01*
X0001240Y0007200D02*
Y0001869D01*
X0001150Y0007200D02*
Y0001919D01*
X0001060Y0007200D02*
Y0001948D01*
X0001690Y0007200D02*
Y0001889D01*
X0001510Y0001192D02*
Y0000300D01*
X0000790Y0008700D02*
Y0001934D01*
X0000700Y0008700D02*
Y0001894D01*
X0000610Y0008700D02*
Y0001830D01*
X0000445Y0001380D02*
X0000250D01*
X0000430Y0008700D02*
Y0000300D01*
X0000950Y0008670D02*
X0000250D01*
X0000950Y0008580D02*
X0000250D01*
X0000950Y0008490D02*
X0000250D01*
X0000950Y0008400D02*
X0000250D01*
X0000950Y0008310D02*
X0000250D01*
X0000950Y0008220D02*
X0000250D01*
X0000950Y0008130D02*
X0000250D01*
X0000950Y0008040D02*
X0000250D01*
X0000950Y0007950D02*
X0000250D01*
X0000950Y0007860D02*
X0000250D01*
X0000950Y0007770D02*
X0000250D01*
X0000950Y0007680D02*
X0000250D01*
X0000950Y0007590D02*
X0000250D01*
X0000950Y0007500D02*
X0000250D01*
X0000950Y0007410D02*
X0000250D01*
X0000950Y0007320D02*
X0000250D01*
X0000950Y0007230D02*
X0000250D01*
X0012900Y0007140D02*
X0000250D01*
X0012900Y0007050D02*
X0000250D01*
X0012900Y0006960D02*
X0000250D01*
X0012900Y0006870D02*
X0000250D01*
X0012900Y0006780D02*
X0000250D01*
X0012900Y0006690D02*
X0000250D01*
X0012900Y0006600D02*
X0000250D01*
X0012900Y0006510D02*
X0000250D01*
X0012900Y0006420D02*
X0000250D01*
X0012900Y0006330D02*
X0000250D01*
X0012900Y0006240D02*
X0000250D01*
X0012900Y0006150D02*
X0000250D01*
X0012900Y0006060D02*
X0000250D01*
X0012900Y0005970D02*
X0000250D01*
X0012900Y0005880D02*
X0000250D01*
X0012900Y0005790D02*
X0000250D01*
X0012900Y0005700D02*
X0000250D01*
X0012900Y0005610D02*
X0000250D01*
X0012900Y0005520D02*
X0000250D01*
X0012900Y0005430D02*
X0000250D01*
X0012900Y0005340D02*
X0000250D01*
X0012900Y0005250D02*
X0000250D01*
X0012900Y0005160D02*
X0000250D01*
X0012900Y0005070D02*
X0000250D01*
X0012900Y0004980D02*
X0000250D01*
X0012900Y0004890D02*
X0000250D01*
X0012900Y0004800D02*
X0000250D01*
X0012900Y0004710D02*
X0000250D01*
X0012900Y0004620D02*
X0000250D01*
X0006640Y0007200D02*
Y0000300D01*
X0012900Y0004440D02*
X0000250D01*
X0012900Y0004350D02*
X0000250D01*
X0012900Y0004260D02*
X0000250D01*
X0012900Y0004170D02*
X0000250D01*
X0012900Y0004080D02*
X0000250D01*
X0012900Y0003990D02*
X0000250D01*
X0012900Y0003900D02*
X0000250D01*
X0012900Y0003810D02*
X0000250D01*
X0012900Y0003720D02*
X0000250D01*
X0012900Y0003630D02*
X0000250D01*
X0012900Y0003540D02*
X0000250D01*
X0012900Y0003450D02*
X0000250D01*
X0012900Y0003360D02*
X0000250D01*
X0012900Y0003270D02*
X0000250D01*
X0012900Y0003180D02*
X0000250D01*
X0012900Y0003090D02*
X0000250D01*
X0012900Y0003000D02*
X0000250D01*
X0012900Y0002910D02*
X0000250D01*
X0012900Y0002820D02*
X0000250D01*
X0012900Y0002730D02*
X0000250D01*
X0012900Y0002640D02*
X0000250D01*
X0012900Y0002550D02*
X0000250D01*
Y0008700D02*
Y0000650D01*
X0012900Y0002370D02*
X0000250D01*
X0012900Y0002280D02*
X0000250D01*
X0012900Y0002190D02*
X0000250D01*
X0012900Y0002100D02*
X0000250D01*
X0002500Y0007200D02*
Y0001960D01*
X0001510Y0007200D02*
Y0001708D01*
X0003490Y0007200D02*
Y0000300D01*
X0000752Y0001920D02*
X0000250D01*
X0000520Y0008700D02*
Y0001724D01*
Y0001176D02*
Y0000300D01*
X0000481Y0001650D02*
X0000250D01*
X0000452Y0001560D02*
X0000250D01*
X0000440Y0001470D02*
X0000250D01*
X0012900Y0002010D02*
X0000250D01*
X0000676Y0001020D02*
X0000250D01*
X0012900Y0000930D02*
X0000250D01*
X0012900Y0000840D02*
X0000250D01*
X0012900Y0000750D02*
X0000250D01*
X0012900Y0000660D02*
X0000250D01*
X0012900Y0000570D02*
X0000250D01*
X0012900Y0000480D02*
X0000250D01*
X0012900Y0000390D02*
X0000250D01*
G01X0010150Y0001450D02*
G03X0010650Y0000950I0000500J0000000D01*
G03X0011150Y0001450I0000000J0000500D01*
G03X0010650Y0001950I0000500J0000000D01*
G03X0010150Y0001450I0000000J0000500D01*
G01X0008150D02*
G03X0008650Y0000950I0000500J0000000D01*
G03X0009150Y0001450I0000000J0000500D01*
G03X0008650Y0001950I0000500J0000000D01*
G03X0008150Y0001450I0000000J0000500D01*
G01X0005800Y0000940D02*
G03X0006310Y0001450I0000000J0000510D01*
G03X0005800Y0001960I0000510J0000000D01*
G01X0005310Y0001308D02*
G03X0005800Y0000940I0000490J0000142D01*
G01X0000440Y0001450D02*
G03X0000950Y0000940I0000510J0000000D01*
G03X0001450Y0001349I0000000J0000510D01*
G01X0000950Y0001960D02*
G03X0000440Y0001450I0000000J0000510D01*
G01X0001950Y0000940D02*
G03X0002440Y0001308I0000000J0000510D01*
G01X0001450Y0001349D02*
G03X0001950Y0000940I0000500J0000101D01*
G01X0001450Y0001550D02*
G03X0000950Y0001959I0000500J0000100D01*
G01X0005800Y0001960D02*
G03X0005310Y0001591I0000000J0000510D01*
G01X0002440D02*
G03X0001950Y0001959I0000490J0000141D01*
Y0001960D02*
G03X0001450Y0001550I0000000J0000510D01*
G54D12*
X0005800Y0001450D03*
X0001950D03*
X0000950D03*
G54D13*
X0004800D03*
X0002950D03*
G54D14*
X0000400Y0008450D03*
X0000800D03*
G54D20*
X0008900Y0004250D03*
X0012250Y0002750D03*
X0010950Y0004050D03*
X0008900Y0003550D03*
X0009100Y0002750D03*
X0012550Y0006250D03*
X0012400Y0006800D03*
X0011400Y0004050D03*
X0012550Y0005250D03*
X0009950Y0006600D03*
X0006650Y0003700D03*
X0000950Y0003800D03*
G54D39*
X0008650Y0001450D03*
X0010650D03*
M02*
